<?xml version="1.0" encoding="utf-8" standalone="no"?>
<!DOCTYPE svg PUBLIC "-//W3C//DTD SVG 1.1//EN"
  "http://www.w3.org/Graphics/SVG/1.1/DTD/svg11.dtd">
<svg xmlns:xlink="http://www.w3.org/1999/xlink" width="864pt" height="216pt" viewBox="0 0 864 216" xmlns="http://www.w3.org/2000/svg" version="1.1">
 <metadata>
  <rdf:RDF xmlns:dc="http://purl.org/dc/elements/1.1/" xmlns:cc="http://creativecommons.org/ns#" xmlns:rdf="http://www.w3.org/1999/02/22-rdf-syntax-ns#">
   <cc:Work>
    <dc:type rdf:resource="http://purl.org/dc/dcmitype/StillImage"/>
    <dc:date>2022-09-20T15:22:59.222630</dc:date>
    <dc:format>image/svg+xml</dc:format>
    <dc:creator>
     <cc:Agent>
      <dc:title>Matplotlib v3.5.2, https://matplotlib.org/</dc:title>
     </cc:Agent>
    </dc:creator>
   </cc:Work>
  </rdf:RDF>
 </metadata>
 <defs>
  <style type="text/css">*{stroke-linejoin: round; stroke-linecap: butt}</style>
 </defs>
 <g id="figure_1">
  <g id="patch_1">
   <path d="M 0 216 
L 864 216 
L 864 0 
L 0 0 
z
" style="fill: #ffffff"/>
  </g>
  <g id="axes_1">
   <g id="patch_2">
    <path d="M 55.675 174.2 
L 281.566667 174.2 
L 281.566667 25.8 
L 55.675 25.8 
z
" style="fill: #ffffff"/>
   </g>
   <g id="matplotlib.axis_1">
    <g id="xtick_1">
     <g id="line2d_1">
      <defs>
       <path id="ma382cc9d53" d="M 0 0 
L 0 3.5 
" style="stroke: #000000; stroke-width: 0.8"/>
      </defs>
      <g>
       <use xlink:href="#ma382cc9d53" x="84.236022" y="174.2" style="stroke: #000000; stroke-width: 0.8"/>
      </g>
     </g>
     <g id="text_1">
      <!-- 400 -->
      <g transform="translate(75.894616 188.373437)scale(0.1 -0.1)">
       <defs>
        <path id="Helvetica-34" d="M 2116 1584 
L 2116 3613 
L 681 1584 
L 2116 1584 
z
M 2125 0 
L 2125 1094 
L 163 1094 
L 163 1644 
L 2213 4488 
L 2688 4488 
L 2688 1584 
L 3347 1584 
L 3347 1094 
L 2688 1094 
L 2688 0 
L 2125 0 
z
" transform="scale(0.015625)"/>
        <path id="Helvetica-30" d="M 1731 4475 
Q 2600 4475 2988 3759 
Q 3288 3206 3288 2244 
Q 3288 1331 3016 734 
Q 2622 -122 1728 -122 
Q 922 -122 528 578 
Q 200 1163 200 2147 
Q 200 2909 397 3456 
Q 766 4475 1731 4475 
z
M 1725 391 
Q 2163 391 2422 778 
Q 2681 1166 2681 2222 
Q 2681 2984 2493 3476 
Q 2306 3969 1766 3969 
Q 1269 3969 1039 3501 
Q 809 3034 809 2125 
Q 809 1441 956 1025 
Q 1181 391 1725 391 
z
" transform="scale(0.015625)"/>
       </defs>
       <use xlink:href="#Helvetica-34"/>
       <use xlink:href="#Helvetica-30" x="55.615234"/>
       <use xlink:href="#Helvetica-30" x="111.230469"/>
      </g>
     </g>
    </g>
    <g id="xtick_2">
     <g id="line2d_2">
      <g>
       <use xlink:href="#ma382cc9d53" x="143.762454" y="174.2" style="stroke: #000000; stroke-width: 0.8"/>
      </g>
     </g>
     <g id="text_2">
      <!-- 600 -->
      <g transform="translate(135.421047 188.373437)scale(0.1 -0.1)">
       <defs>
        <path id="Helvetica-36" d="M 1872 4494 
Q 2622 4494 2917 4105 
Q 3213 3716 3213 3303 
L 2656 3303 
Q 2606 3569 2497 3719 
Q 2294 4000 1881 4000 
Q 1409 4000 1131 3564 
Q 853 3128 822 2316 
Q 1016 2600 1309 2741 
Q 1578 2866 1909 2866 
Q 2472 2866 2890 2506 
Q 3309 2147 3309 1434 
Q 3309 825 2912 354 
Q 2516 -116 1781 -116 
Q 1153 -116 697 361 
Q 241 838 241 1966 
Q 241 2800 444 3381 
Q 834 4494 1872 4494 
z
M 1831 384 
Q 2275 384 2495 682 
Q 2716 981 2716 1388 
Q 2716 1731 2519 2042 
Q 2322 2353 1803 2353 
Q 1441 2353 1167 2112 
Q 894 1872 894 1388 
Q 894 963 1142 673 
Q 1391 384 1831 384 
z
" transform="scale(0.015625)"/>
       </defs>
       <use xlink:href="#Helvetica-36"/>
       <use xlink:href="#Helvetica-30" x="55.615234"/>
       <use xlink:href="#Helvetica-30" x="111.230469"/>
      </g>
     </g>
    </g>
    <g id="xtick_3">
     <g id="line2d_3">
      <g>
       <use xlink:href="#ma382cc9d53" x="203.288885" y="174.2" style="stroke: #000000; stroke-width: 0.8"/>
      </g>
     </g>
     <g id="text_3">
      <!-- 800 -->
      <g transform="translate(194.947479 188.373437)scale(0.1 -0.1)">
       <defs>
        <path id="Helvetica-38" d="M 1741 2600 
Q 2113 2600 2322 2808 
Q 2531 3016 2531 3303 
Q 2531 3553 2331 3762 
Q 2131 3972 1722 3972 
Q 1316 3972 1134 3762 
Q 953 3553 953 3272 
Q 953 2956 1187 2778 
Q 1422 2600 1741 2600 
z
M 1775 384 
Q 2166 384 2423 595 
Q 2681 806 2681 1225 
Q 2681 1659 2415 1884 
Q 2150 2109 1734 2109 
Q 1331 2109 1076 1879 
Q 822 1650 822 1244 
Q 822 894 1055 639 
Q 1288 384 1775 384 
z
M 975 2384 
Q 741 2484 609 2619 
Q 363 2869 363 3269 
Q 363 3769 725 4128 
Q 1088 4488 1753 4488 
Q 2397 4488 2762 4148 
Q 3128 3809 3128 3356 
Q 3128 2938 2916 2678 
Q 2797 2531 2547 2391 
Q 2825 2263 2984 2097 
Q 3281 1784 3281 1284 
Q 3281 694 2884 283 
Q 2488 -128 1763 -128 
Q 1109 -128 657 226 
Q 206 581 206 1256 
Q 206 1653 400 1942 
Q 594 2231 975 2384 
z
" transform="scale(0.015625)"/>
       </defs>
       <use xlink:href="#Helvetica-38"/>
       <use xlink:href="#Helvetica-30" x="55.615234"/>
       <use xlink:href="#Helvetica-30" x="111.230469"/>
      </g>
     </g>
    </g>
    <g id="xtick_4">
     <g id="line2d_4">
      <g>
       <use xlink:href="#ma382cc9d53" x="262.815317" y="174.2" style="stroke: #000000; stroke-width: 0.8"/>
      </g>
     </g>
     <g id="text_4">
      <!-- 1000 -->
      <g transform="translate(251.693442 188.373437)scale(0.1 -0.1)">
       <defs>
        <path id="Helvetica-31" d="M 613 3169 
L 613 3600 
Q 1222 3659 1462 3798 
Q 1703 3938 1822 4456 
L 2266 4456 
L 2266 0 
L 1666 0 
L 1666 3169 
L 613 3169 
z
" transform="scale(0.015625)"/>
       </defs>
       <use xlink:href="#Helvetica-31"/>
       <use xlink:href="#Helvetica-30" x="55.615234"/>
       <use xlink:href="#Helvetica-30" x="111.230469"/>
       <use xlink:href="#Helvetica-30" x="166.845703"/>
      </g>
     </g>
    </g>
    <g id="text_5">
     <!-- Pixel wavelength -->
     <g transform="translate(131.100521 201.654687)scale(0.1 -0.1)">
      <defs>
       <path id="Helvetica-50" d="M 547 4591 
L 2613 4591 
Q 3225 4591 3600 4245 
Q 3975 3900 3975 3275 
Q 3975 2738 3640 2339 
Q 3306 1941 2613 1941 
L 1169 1941 
L 1169 0 
L 547 0 
L 547 4591 
z
M 3347 3272 
Q 3347 3778 2972 3959 
Q 2766 4056 2406 4056 
L 1169 4056 
L 1169 2466 
L 2406 2466 
Q 2825 2466 3086 2644 
Q 3347 2822 3347 3272 
z
" transform="scale(0.015625)"/>
       <path id="Helvetica-69" d="M 413 3331 
L 984 3331 
L 984 0 
L 413 0 
L 413 3331 
z
M 413 4591 
L 984 4591 
L 984 3953 
L 413 3953 
L 413 4591 
z
" transform="scale(0.015625)"/>
       <path id="Helvetica-78" d="M 94 3347 
L 822 3347 
L 1591 2169 
L 2369 3347 
L 3053 3331 
L 1925 1716 
L 3103 0 
L 2384 0 
L 1553 1256 
L 747 0 
L 34 0 
L 1213 1716 
L 94 3347 
z
" transform="scale(0.015625)"/>
       <path id="Helvetica-65" d="M 1806 3422 
Q 2163 3422 2497 3255 
Q 2831 3088 3006 2822 
Q 3175 2569 3231 2231 
Q 3281 2000 3281 1494 
L 828 1494 
Q 844 984 1069 676 
Q 1294 369 1766 369 
Q 2206 369 2469 659 
Q 2619 828 2681 1050 
L 3234 1050 
Q 3213 866 3089 639 
Q 2966 413 2813 269 
Q 2556 19 2178 -69 
Q 1975 -119 1719 -119 
Q 1094 -119 659 336 
Q 225 791 225 1609 
Q 225 2416 662 2919 
Q 1100 3422 1806 3422 
z
M 2703 1941 
Q 2669 2306 2544 2525 
Q 2313 2931 1772 2931 
Q 1384 2931 1121 2651 
Q 859 2372 844 1941 
L 2703 1941 
z
M 1753 3428 
L 1753 3428 
z
" transform="scale(0.015625)"/>
       <path id="Helvetica-6c" d="M 428 4591 
L 991 4591 
L 991 0 
L 428 0 
L 428 4591 
z
" transform="scale(0.015625)"/>
       <path id="Helvetica-20" transform="scale(0.015625)"/>
       <path id="Helvetica-77" d="M 672 3347 
L 1316 709 
L 1969 3347 
L 2600 3347 
L 3256 725 
L 3941 3347 
L 4503 3347 
L 3531 0 
L 2947 0 
L 2266 2591 
L 1606 0 
L 1022 0 
L 56 3347 
L 672 3347 
z
" transform="scale(0.015625)"/>
       <path id="Helvetica-61" d="M 844 891 
Q 844 647 1022 506 
Q 1200 366 1444 366 
Q 1741 366 2019 503 
Q 2488 731 2488 1250 
L 2488 1703 
Q 2384 1638 2221 1594 
Q 2059 1550 1903 1531 
L 1563 1488 
Q 1256 1447 1103 1359 
Q 844 1213 844 891 
z
M 2206 2028 
Q 2400 2053 2466 2191 
Q 2503 2266 2503 2406 
Q 2503 2694 2298 2823 
Q 2094 2953 1713 2953 
Q 1272 2953 1088 2716 
Q 984 2584 953 2325 
L 428 2325 
Q 444 2944 830 3186 
Q 1216 3428 1725 3428 
Q 2316 3428 2684 3203 
Q 3050 2978 3050 2503 
L 3050 575 
Q 3050 488 3086 434 
Q 3122 381 3238 381 
Q 3275 381 3322 386 
Q 3369 391 3422 400 
L 3422 -16 
Q 3291 -53 3222 -62 
Q 3153 -72 3034 -72 
Q 2744 -72 2613 134 
Q 2544 244 2516 444 
Q 2344 219 2022 53 
Q 1700 -113 1313 -113 
Q 847 -113 551 170 
Q 256 453 256 878 
Q 256 1344 547 1600 
Q 838 1856 1309 1916 
L 2206 2028 
z
M 1741 3428 
L 1741 3428 
z
" transform="scale(0.015625)"/>
       <path id="Helvetica-76" d="M 688 3347 
L 1581 622 
L 2516 3347 
L 3131 3347 
L 1869 0 
L 1269 0 
L 34 3347 
L 688 3347 
z
" transform="scale(0.015625)"/>
       <path id="Helvetica-6e" d="M 413 3347 
L 947 3347 
L 947 2872 
Q 1184 3166 1450 3294 
Q 1716 3422 2041 3422 
Q 2753 3422 3003 2925 
Q 3141 2653 3141 2147 
L 3141 0 
L 2569 0 
L 2569 2109 
Q 2569 2416 2478 2603 
Q 2328 2916 1934 2916 
Q 1734 2916 1606 2875 
Q 1375 2806 1200 2600 
Q 1059 2434 1017 2257 
Q 975 2081 975 1753 
L 975 0 
L 413 0 
L 413 3347 
z
M 1734 3428 
L 1734 3428 
z
" transform="scale(0.015625)"/>
       <path id="Helvetica-67" d="M 1594 3406 
Q 1988 3406 2281 3213 
Q 2441 3103 2606 2894 
L 2606 3316 
L 3125 3316 
L 3125 272 
Q 3125 -366 2938 -734 
Q 2588 -1416 1616 -1416 
Q 1075 -1416 706 -1173 
Q 338 -931 294 -416 
L 866 -416 
Q 906 -641 1028 -763 
Q 1219 -950 1628 -950 
Q 2275 -950 2475 -494 
Q 2594 -225 2584 466 
Q 2416 209 2178 84 
Q 1941 -41 1550 -41 
Q 1006 -41 598 345 
Q 191 731 191 1622 
Q 191 2463 602 2934 
Q 1013 3406 1594 3406 
z
M 2606 1688 
Q 2606 2309 2350 2609 
Q 2094 2909 1697 2909 
Q 1103 2909 884 2353 
Q 769 2056 769 1575 
Q 769 1009 998 714 
Q 1228 419 1616 419 
Q 2222 419 2469 966 
Q 2606 1275 2606 1688 
z
M 1659 3428 
L 1659 3428 
z
" transform="scale(0.015625)"/>
       <path id="Helvetica-74" d="M 525 4281 
L 1094 4281 
L 1094 3347 
L 1628 3347 
L 1628 2888 
L 1094 2888 
L 1094 703 
Q 1094 528 1213 469 
Q 1278 434 1431 434 
Q 1472 434 1519 436 
Q 1566 438 1628 444 
L 1628 0 
Q 1531 -28 1426 -40 
Q 1322 -53 1200 -53 
Q 806 -53 665 148 
Q 525 350 525 672 
L 525 2888 
L 72 2888 
L 72 3347 
L 525 3347 
L 525 4281 
z
" transform="scale(0.015625)"/>
       <path id="Helvetica-68" d="M 413 4606 
L 975 4606 
L 975 2894 
Q 1175 3147 1334 3250 
Q 1606 3428 2013 3428 
Q 2741 3428 3000 2919 
Q 3141 2641 3141 2147 
L 3141 0 
L 2563 0 
L 2563 2109 
Q 2563 2478 2469 2650 
Q 2316 2925 1894 2925 
Q 1544 2925 1259 2684 
Q 975 2444 975 1775 
L 975 0 
L 413 0 
L 413 4606 
z
" transform="scale(0.015625)"/>
      </defs>
      <use xlink:href="#Helvetica-50"/>
      <use xlink:href="#Helvetica-69" x="66.699219"/>
      <use xlink:href="#Helvetica-78" x="88.916016"/>
      <use xlink:href="#Helvetica-65" x="138.916016"/>
      <use xlink:href="#Helvetica-6c" x="194.53125"/>
      <use xlink:href="#Helvetica-20" x="216.748047"/>
      <use xlink:href="#Helvetica-77" x="244.53125"/>
      <use xlink:href="#Helvetica-61" x="316.748047"/>
      <use xlink:href="#Helvetica-76" x="372.363281"/>
      <use xlink:href="#Helvetica-65" x="422.363281"/>
      <use xlink:href="#Helvetica-6c" x="477.978516"/>
      <use xlink:href="#Helvetica-65" x="500.195312"/>
      <use xlink:href="#Helvetica-6e" x="555.810547"/>
      <use xlink:href="#Helvetica-67" x="611.425781"/>
      <use xlink:href="#Helvetica-74" x="667.041016"/>
      <use xlink:href="#Helvetica-68" x="694.824219"/>
     </g>
    </g>
   </g>
   <g id="matplotlib.axis_2">
    <g id="ytick_1">
     <g id="line2d_5">
      <defs>
       <path id="m00c262fb35" d="M 0 0 
L -3.5 0 
" style="stroke: #000000; stroke-width: 0.8"/>
      </defs>
      <g>
       <use xlink:href="#m00c262fb35" x="55.675" y="155.65" style="stroke: #000000; stroke-width: 0.8"/>
      </g>
     </g>
     <g id="text_6">
      <!-- −2 -->
      <g transform="translate(37.273438 159.236719)scale(0.1 -0.1)">
       <defs>
        <path id="Helvetica-2212" d="M 3547 1894 
L 3547 1369 
L 288 1369 
L 288 1894 
L 3547 1894 
z
" transform="scale(0.015625)"/>
        <path id="Helvetica-32" d="M 200 0 
Q 231 578 439 1006 
Q 647 1434 1250 1784 
L 1850 2131 
Q 2253 2366 2416 2531 
Q 2672 2791 2672 3125 
Q 2672 3516 2437 3745 
Q 2203 3975 1813 3975 
Q 1234 3975 1013 3538 
Q 894 3303 881 2888 
L 309 2888 
Q 319 3472 525 3841 
Q 891 4491 1816 4491 
Q 2584 4491 2939 4075 
Q 3294 3659 3294 3150 
Q 3294 2613 2916 2231 
Q 2697 2009 2131 1694 
L 1703 1456 
Q 1397 1288 1222 1134 
Q 909 863 828 531 
L 3272 531 
L 3272 0 
L 200 0 
z
" transform="scale(0.015625)"/>
       </defs>
       <use xlink:href="#Helvetica-2212"/>
       <use xlink:href="#Helvetica-32" x="58.398438"/>
      </g>
     </g>
    </g>
    <g id="ytick_2">
     <g id="line2d_6">
      <g>
       <use xlink:href="#m00c262fb35" x="55.675" y="118.55" style="stroke: #000000; stroke-width: 0.8"/>
      </g>
     </g>
     <g id="text_7">
      <!-- −1 -->
      <g transform="translate(37.273438 122.136719)scale(0.1 -0.1)">
       <use xlink:href="#Helvetica-2212"/>
       <use xlink:href="#Helvetica-31" x="58.398438"/>
      </g>
     </g>
    </g>
    <g id="ytick_3">
     <g id="line2d_7">
      <g>
       <use xlink:href="#m00c262fb35" x="55.675" y="81.45" style="stroke: #000000; stroke-width: 0.8"/>
      </g>
     </g>
     <g id="text_8">
      <!-- 0 -->
      <g transform="translate(43.114063 85.036719)scale(0.1 -0.1)">
       <use xlink:href="#Helvetica-30"/>
      </g>
     </g>
    </g>
    <g id="ytick_4">
     <g id="line2d_8">
      <g>
       <use xlink:href="#m00c262fb35" x="55.675" y="44.35" style="stroke: #000000; stroke-width: 0.8"/>
      </g>
     </g>
     <g id="text_9">
      <!-- 1 -->
      <g transform="translate(43.114063 47.936719)scale(0.1 -0.1)">
       <use xlink:href="#Helvetica-31"/>
      </g>
     </g>
    </g>
    <g id="text_10">
     <!-- $\mu$J/count -->
     <g transform="translate(31.173437 119.35)rotate(-90)scale(0.1 -0.1)">
      <defs>
       <path id="DejaVuSans-Oblique-3bc" d="M -84 -1331 
L 856 3500 
L 1434 3500 
L 1009 1322 
Q 997 1256 987 1175 
Q 978 1094 978 1013 
Q 978 722 1161 565 
Q 1344 409 1684 409 
Q 2147 409 2431 671 
Q 2716 934 2816 1459 
L 3213 3500 
L 3788 3500 
L 3266 809 
Q 3253 750 3248 706 
Q 3244 663 3244 628 
Q 3244 531 3283 486 
Q 3322 441 3406 441 
Q 3438 441 3492 456 
Q 3547 472 3647 513 
L 3559 50 
Q 3422 -19 3297 -55 
Q 3172 -91 3053 -91 
Q 2847 -91 2730 40 
Q 2613 172 2613 403 
Q 2438 153 2195 31 
Q 1953 -91 1625 -91 
Q 1334 -91 1117 43 
Q 900 178 831 397 
L 494 -1331 
L -84 -1331 
z
" transform="scale(0.015625)"/>
       <path id="Helvetica-4a" d="M 2741 1369 
Q 2741 788 2569 466 
Q 2250 -122 1356 -122 
Q 841 -122 475 158 
Q 109 438 109 1153 
L 109 1481 
L 694 1481 
L 694 1153 
Q 694 778 861 589 
Q 1028 400 1381 400 
Q 1878 400 2031 741 
Q 2125 950 2125 1531 
L 2125 4591 
L 2741 4591 
L 2741 1369 
z
" transform="scale(0.015625)"/>
       <path id="Helvetica-2f" d="M 1456 4591 
L 1931 4591 
L 475 0 
L 0 0 
L 1456 4591 
z
" transform="scale(0.015625)"/>
       <path id="Helvetica-63" d="M 1703 3444 
Q 2269 3444 2623 3169 
Q 2978 2894 3050 2222 
L 2503 2222 
Q 2453 2531 2275 2736 
Q 2097 2941 1703 2941 
Q 1166 2941 934 2416 
Q 784 2075 784 1575 
Q 784 1072 996 728 
Q 1209 384 1666 384 
Q 2016 384 2220 598 
Q 2425 813 2503 1184 
L 3050 1184 
Q 2956 519 2581 211 
Q 2206 -97 1622 -97 
Q 966 -97 575 383 
Q 184 863 184 1581 
Q 184 2463 612 2953 
Q 1041 3444 1703 3444 
z
M 1616 3428 
L 1616 3428 
z
" transform="scale(0.015625)"/>
       <path id="Helvetica-6f" d="M 1741 363 
Q 2300 363 2508 786 
Q 2716 1209 2716 1728 
Q 2716 2197 2566 2491 
Q 2328 2953 1747 2953 
Q 1231 2953 997 2559 
Q 763 2166 763 1609 
Q 763 1075 997 719 
Q 1231 363 1741 363 
z
M 1763 3444 
Q 2409 3444 2856 3012 
Q 3303 2581 3303 1744 
Q 3303 934 2909 406 
Q 2516 -122 1688 -122 
Q 997 -122 590 345 
Q 184 813 184 1600 
Q 184 2444 612 2944 
Q 1041 3444 1763 3444 
z
M 1744 3428 
L 1744 3428 
z
" transform="scale(0.015625)"/>
       <path id="Helvetica-75" d="M 975 3347 
L 975 1125 
Q 975 869 1056 706 
Q 1206 406 1616 406 
Q 2203 406 2416 931 
Q 2531 1213 2531 1703 
L 2531 3347 
L 3094 3347 
L 3094 0 
L 2563 0 
L 2569 494 
Q 2459 303 2297 172 
Q 1975 -91 1516 -91 
Q 800 -91 541 388 
Q 400 644 400 1072 
L 400 3347 
L 975 3347 
z
M 1747 3428 
L 1747 3428 
z
" transform="scale(0.015625)"/>
      </defs>
      <use xlink:href="#DejaVuSans-Oblique-3bc" transform="translate(0 0.265625)"/>
      <use xlink:href="#Helvetica-4a" transform="translate(63.623047 0.265625)"/>
      <use xlink:href="#Helvetica-2f" transform="translate(113.623047 0.265625)"/>
      <use xlink:href="#Helvetica-63" transform="translate(141.40625 0.265625)"/>
      <use xlink:href="#Helvetica-6f" transform="translate(191.40625 0.265625)"/>
      <use xlink:href="#Helvetica-75" transform="translate(247.021484 0.265625)"/>
      <use xlink:href="#Helvetica-6e" transform="translate(302.636719 0.265625)"/>
      <use xlink:href="#Helvetica-74" transform="translate(358.251953 0.265625)"/>
     </g>
    </g>
    <g id="text_11">
     <!-- 1e−8 -->
     <g transform="translate(55.675 22.8)scale(0.1 -0.1)">
      <use xlink:href="#Helvetica-31"/>
      <use xlink:href="#Helvetica-65" x="55.615234"/>
      <use xlink:href="#Helvetica-2212" x="111.230469"/>
      <use xlink:href="#Helvetica-38" x="169.628906"/>
     </g>
    </g>
   </g>
   <g id="line2d_9">
    <path d="M 65.942803 84.706696 
L 66.169125 84.827905 
L 66.282272 82.862333 
L 66.39541 84.046557 
L 66.449243 -1 
M 66.570119 -1 
L 66.621656 77.395436 
L 66.734765 58.81477 
L 66.960954 80.130842 
L 67.074034 80.185448 
L 67.413217 79.175656 
L 67.639292 88.524146 
L 67.752315 88.566238 
L 67.978332 84.133702 
L 68.204311 82.879639 
L 68.317285 82.939109 
L 68.430251 83.611225 
L 68.543207 79.851011 
L 68.769089 80.826239 
L 68.994934 81.115216 
L 69.559376 80.99095 
L 70.461982 81.1289 
L 70.687537 81.038216 
L 71.702054 81.138458 
L 76.874984 81.049974 
L 77.436001 81.1549 
L 77.996768 81.118635 
L 79.117554 81.155663 
L 80.34926 81.148826 
L 81.691549 81.192506 
L 82.80901 81.188389 
L 86.823415 81.226238 
L 90.602504 81.262017 
L 120.707904 81.374469 
L 185.986228 81.153728 
L 218.346215 80.630004 
L 224.367145 80.342279 
L 228.003474 80.24131 
L 232.444517 80.184142 
L 235.658556 79.920023 
L 239.306454 79.43084 
L 243.017267 78.466785 
L 243.557893 78.116648 
L 244.367667 77.163519 
L 245.89342 75.221378 
L 246.251692 75.04376 
L 247.056788 75.009077 
L 249.552495 75.502904 
L 251.061042 75.423997 
L 253.534599 74.685998 
L 254.150818 74.391767 
L 254.854003 74.028411 
L 255.994245 73.395816 
L 256.431996 73.101179 
L 256.694432 72.940115 
L 257.044096 72.756643 
L 257.393473 72.462988 
L 257.829791 72.104261 
L 259.049091 70.976076 
L 259.570567 70.448944 
L 260.004634 69.984108 
L 260.957991 68.959947 
L 261.995514 67.28156 
L 262.77194 66.24856 
L 265.606184 59.81318 
L 266.033874 58.35004 
L 267.228959 54.467648 
L 267.910242 51.539621 
L 268.250439 50.231086 
L 268.420428 49.748013 
L 268.929947 47.189473 
L 269.269256 45.946876 
L 269.438799 45.373566 
L 269.692974 43.654186 
L 270.708002 37.189612 
L 270.876913 36.68929 
L 271.130139 34.8377 
L 271.298864 34.658296 
L 271.298864 34.658296 
" clip-path="url(#p729a902192)" style="fill: none; stroke: #1f77b4; stroke-width: 1.5; stroke-linecap: square"/>
   </g>
   <g id="patch_3">
    <path d="M 55.675 174.2 
L 55.675 25.8 
" style="fill: none; stroke: #000000; stroke-width: 0.8; stroke-linejoin: miter; stroke-linecap: square"/>
   </g>
   <g id="patch_4">
    <path d="M 281.566667 174.2 
L 281.566667 25.8 
" style="fill: none; stroke: #000000; stroke-width: 0.8; stroke-linejoin: miter; stroke-linecap: square"/>
   </g>
   <g id="patch_5">
    <path d="M 55.675 174.2 
L 281.566667 174.2 
" style="fill: none; stroke: #000000; stroke-width: 0.8; stroke-linejoin: miter; stroke-linecap: square"/>
   </g>
   <g id="patch_6">
    <path d="M 55.675 25.8 
L 281.566667 25.8 
" style="fill: none; stroke: #000000; stroke-width: 0.8; stroke-linejoin: miter; stroke-linecap: square"/>
   </g>
   <g id="text_12">
    <!-- Calibration -->
    <g transform="translate(139.940833 19.8)scale(0.12 -0.12)">
     <defs>
      <path id="Helvetica-43" d="M 2422 4716 
Q 3294 4716 3775 4256 
Q 4256 3797 4309 3213 
L 3703 3213 
Q 3600 3656 3292 3915 
Q 2984 4175 2428 4175 
Q 1750 4175 1333 3698 
Q 916 3222 916 2238 
Q 916 1431 1292 929 
Q 1669 428 2416 428 
Q 3103 428 3463 956 
Q 3653 1234 3747 1688 
L 4353 1688 
Q 4272 963 3816 472 
Q 3269 -119 2341 -119 
Q 1541 -119 997 366 
Q 281 1006 281 2344 
Q 281 3359 819 4009 
Q 1400 4716 2422 4716 
z
M 2297 4716 
L 2297 4716 
z
" transform="scale(0.015625)"/>
      <path id="Helvetica-62" d="M 369 4606 
L 916 4606 
L 916 2941 
Q 1100 3181 1356 3307 
Q 1613 3434 1913 3434 
Q 2538 3434 2927 3004 
Q 3316 2575 3316 1738 
Q 3316 944 2931 419 
Q 2547 -106 1866 -106 
Q 1484 -106 1222 78 
Q 1066 188 888 428 
L 888 0 
L 369 0 
L 369 4606 
z
M 1831 391 
Q 2288 391 2514 753 
Q 2741 1116 2741 1709 
Q 2741 2238 2514 2584 
Q 2288 2931 1847 2931 
Q 1463 2931 1173 2647 
Q 884 2363 884 1709 
Q 884 1238 1003 944 
Q 1225 391 1831 391 
z
" transform="scale(0.015625)"/>
      <path id="Helvetica-72" d="M 428 3347 
L 963 3347 
L 963 2769 
Q 1028 2938 1284 3180 
Q 1541 3422 1875 3422 
Q 1891 3422 1928 3419 
Q 1966 3416 2056 3406 
L 2056 2813 
Q 2006 2822 1964 2825 
Q 1922 2828 1872 2828 
Q 1447 2828 1219 2554 
Q 991 2281 991 1925 
L 991 0 
L 428 0 
L 428 3347 
z
" transform="scale(0.015625)"/>
     </defs>
     <use xlink:href="#Helvetica-43"/>
     <use xlink:href="#Helvetica-61" x="72.216797"/>
     <use xlink:href="#Helvetica-6c" x="127.832031"/>
     <use xlink:href="#Helvetica-69" x="150.048828"/>
     <use xlink:href="#Helvetica-62" x="172.265625"/>
     <use xlink:href="#Helvetica-72" x="227.880859"/>
     <use xlink:href="#Helvetica-61" x="261.181641"/>
     <use xlink:href="#Helvetica-74" x="316.796875"/>
     <use xlink:href="#Helvetica-69" x="344.580078"/>
     <use xlink:href="#Helvetica-6f" x="366.796875"/>
     <use xlink:href="#Helvetica-6e" x="422.412109"/>
    </g>
   </g>
   <g id="patch_7">
    <path d="M 78.283379 174.2 
L 197.336242 174.2 
L 197.336242 174.2 
L 78.283379 174.2 
L 78.283379 174.2 
z
" clip-path="url(#p729a902192)" style="fill: none; opacity: 0.5; stroke: #000000; stroke-linejoin: miter"/>
   </g>
   <g id="patch_8">
    <path d="M 123.4425 169.2 
Q 100.862939 125.3621 78.283379 81.5242 
" style="fill: none; opacity: 0.5; stroke: #000000; stroke-linecap: round"/>
   </g>
   <g id="patch_9">
    <path d="M 213.799167 169.2 
Q 205.567704 125.3621 197.336242 81.5242 
" style="fill: none; opacity: 0.5; stroke: #000000; stroke-linecap: round"/>
   </g>
  </g>
  <g id="axes_2">
   <g id="patch_10">
    <path d="M 341.491667 174.2 
L 567.383333 174.2 
L 567.383333 25.8 
L 341.491667 25.8 
z
" style="fill: #ffffff"/>
   </g>
   <g id="matplotlib.axis_3">
    <g id="xtick_5">
     <g id="line2d_10">
      <g>
       <use xlink:href="#ma382cc9d53" x="370.052688" y="174.2" style="stroke: #000000; stroke-width: 0.8"/>
      </g>
     </g>
     <g id="text_13">
      <!-- 400 -->
      <g transform="translate(361.711282 188.373437)scale(0.1 -0.1)">
       <use xlink:href="#Helvetica-34"/>
       <use xlink:href="#Helvetica-30" x="55.615234"/>
       <use xlink:href="#Helvetica-30" x="111.230469"/>
      </g>
     </g>
    </g>
    <g id="xtick_6">
     <g id="line2d_11">
      <g>
       <use xlink:href="#ma382cc9d53" x="429.57912" y="174.2" style="stroke: #000000; stroke-width: 0.8"/>
      </g>
     </g>
     <g id="text_14">
      <!-- 600 -->
      <g transform="translate(421.237714 188.373437)scale(0.1 -0.1)">
       <use xlink:href="#Helvetica-36"/>
       <use xlink:href="#Helvetica-30" x="55.615234"/>
       <use xlink:href="#Helvetica-30" x="111.230469"/>
      </g>
     </g>
    </g>
    <g id="xtick_7">
     <g id="line2d_12">
      <g>
       <use xlink:href="#ma382cc9d53" x="489.105552" y="174.2" style="stroke: #000000; stroke-width: 0.8"/>
      </g>
     </g>
     <g id="text_15">
      <!-- 800 -->
      <g transform="translate(480.764146 188.373437)scale(0.1 -0.1)">
       <use xlink:href="#Helvetica-38"/>
       <use xlink:href="#Helvetica-30" x="55.615234"/>
       <use xlink:href="#Helvetica-30" x="111.230469"/>
      </g>
     </g>
    </g>
    <g id="xtick_8">
     <g id="line2d_13">
      <g>
       <use xlink:href="#ma382cc9d53" x="548.631984" y="174.2" style="stroke: #000000; stroke-width: 0.8"/>
      </g>
     </g>
     <g id="text_16">
      <!-- 1000 -->
      <g transform="translate(537.510109 188.373437)scale(0.1 -0.1)">
       <use xlink:href="#Helvetica-31"/>
       <use xlink:href="#Helvetica-30" x="55.615234"/>
       <use xlink:href="#Helvetica-30" x="111.230469"/>
       <use xlink:href="#Helvetica-30" x="166.845703"/>
      </g>
     </g>
    </g>
    <g id="text_17">
     <!-- Wavelength -->
     <g transform="translate(428.035156 201.654687)scale(0.1 -0.1)">
      <defs>
       <path id="Helvetica-57" d="M 791 4591 
L 1656 856 
L 2694 4591 
L 3369 4591 
L 4406 856 
L 5272 4591 
L 5953 4591 
L 4747 0 
L 4094 0 
L 3034 3806 
L 1969 0 
L 1316 0 
L 116 4591 
L 791 4591 
z
" transform="scale(0.015625)"/>
      </defs>
      <use xlink:href="#Helvetica-57"/>
      <use xlink:href="#Helvetica-61" x="94.384766"/>
      <use xlink:href="#Helvetica-76" x="150"/>
      <use xlink:href="#Helvetica-65" x="200"/>
      <use xlink:href="#Helvetica-6c" x="255.615234"/>
      <use xlink:href="#Helvetica-65" x="277.832031"/>
      <use xlink:href="#Helvetica-6e" x="333.447266"/>
      <use xlink:href="#Helvetica-67" x="389.0625"/>
      <use xlink:href="#Helvetica-74" x="444.677734"/>
      <use xlink:href="#Helvetica-68" x="472.460938"/>
     </g>
    </g>
   </g>
   <g id="matplotlib.axis_4">
    <g id="ytick_5">
     <g id="line2d_14">
      <g>
       <use xlink:href="#m00c262fb35" x="341.491667" y="171.215727" style="stroke: #000000; stroke-width: 0.8"/>
      </g>
     </g>
     <g id="text_18">
      <!-- 0 -->
      <g transform="translate(328.930729 174.802446)scale(0.1 -0.1)">
       <use xlink:href="#Helvetica-30"/>
      </g>
     </g>
    </g>
    <g id="ytick_6">
     <g id="line2d_15">
      <g>
       <use xlink:href="#m00c262fb35" x="341.491667" y="145.719544" style="stroke: #000000; stroke-width: 0.8"/>
      </g>
     </g>
     <g id="text_19">
      <!-- 10000 -->
      <g transform="translate(306.686979 149.306263)scale(0.1 -0.1)">
       <use xlink:href="#Helvetica-31"/>
       <use xlink:href="#Helvetica-30" x="55.615234"/>
       <use xlink:href="#Helvetica-30" x="111.230469"/>
       <use xlink:href="#Helvetica-30" x="166.845703"/>
       <use xlink:href="#Helvetica-30" x="222.460938"/>
      </g>
     </g>
    </g>
    <g id="ytick_7">
     <g id="line2d_16">
      <g>
       <use xlink:href="#m00c262fb35" x="341.491667" y="120.223361" style="stroke: #000000; stroke-width: 0.8"/>
      </g>
     </g>
     <g id="text_20">
      <!-- 20000 -->
      <g transform="translate(306.686979 123.81008)scale(0.1 -0.1)">
       <use xlink:href="#Helvetica-32"/>
       <use xlink:href="#Helvetica-30" x="55.615234"/>
       <use xlink:href="#Helvetica-30" x="111.230469"/>
       <use xlink:href="#Helvetica-30" x="166.845703"/>
       <use xlink:href="#Helvetica-30" x="222.460938"/>
      </g>
     </g>
    </g>
    <g id="ytick_8">
     <g id="line2d_17">
      <g>
       <use xlink:href="#m00c262fb35" x="341.491667" y="94.727178" style="stroke: #000000; stroke-width: 0.8"/>
      </g>
     </g>
     <g id="text_21">
      <!-- 30000 -->
      <g transform="translate(306.686979 98.313897)scale(0.1 -0.1)">
       <defs>
        <path id="Helvetica-33" d="M 1663 -122 
Q 869 -122 511 314 
Q 153 750 153 1375 
L 741 1375 
Q 778 941 903 744 
Q 1122 391 1694 391 
Q 2138 391 2406 628 
Q 2675 866 2675 1241 
Q 2675 1703 2392 1887 
Q 2109 2072 1606 2072 
Q 1550 2072 1492 2070 
Q 1434 2069 1375 2066 
L 1375 2563 
Q 1463 2553 1522 2550 
Q 1581 2547 1650 2547 
Q 1966 2547 2169 2647 
Q 2525 2822 2525 3272 
Q 2525 3606 2287 3787 
Q 2050 3969 1734 3969 
Q 1172 3969 956 3594 
Q 838 3388 822 3006 
L 266 3006 
Q 266 3506 466 3856 
Q 809 4481 1675 4481 
Q 2359 4481 2734 4176 
Q 3109 3872 3109 3294 
Q 3109 2881 2888 2625 
Q 2750 2466 2531 2375 
Q 2884 2278 3082 2001 
Q 3281 1725 3281 1325 
Q 3281 684 2859 281 
Q 2438 -122 1663 -122 
z
" transform="scale(0.015625)"/>
       </defs>
       <use xlink:href="#Helvetica-33"/>
       <use xlink:href="#Helvetica-30" x="55.615234"/>
       <use xlink:href="#Helvetica-30" x="111.230469"/>
       <use xlink:href="#Helvetica-30" x="166.845703"/>
       <use xlink:href="#Helvetica-30" x="222.460938"/>
      </g>
     </g>
    </g>
    <g id="ytick_9">
     <g id="line2d_18">
      <g>
       <use xlink:href="#m00c262fb35" x="341.491667" y="69.230995" style="stroke: #000000; stroke-width: 0.8"/>
      </g>
     </g>
     <g id="text_22">
      <!-- 40000 -->
      <g transform="translate(306.686979 72.817714)scale(0.1 -0.1)">
       <use xlink:href="#Helvetica-34"/>
       <use xlink:href="#Helvetica-30" x="55.615234"/>
       <use xlink:href="#Helvetica-30" x="111.230469"/>
       <use xlink:href="#Helvetica-30" x="166.845703"/>
       <use xlink:href="#Helvetica-30" x="222.460938"/>
      </g>
     </g>
    </g>
    <g id="ytick_10">
     <g id="line2d_19">
      <g>
       <use xlink:href="#m00c262fb35" x="341.491667" y="43.734812" style="stroke: #000000; stroke-width: 0.8"/>
      </g>
     </g>
     <g id="text_23">
      <!-- 50000 -->
      <g transform="translate(306.686979 47.321531)scale(0.1 -0.1)">
       <defs>
        <path id="Helvetica-35" d="M 791 1141 
Q 847 659 1238 475 
Q 1438 381 1700 381 
Q 2200 381 2440 700 
Q 2681 1019 2681 1406 
Q 2681 1875 2395 2131 
Q 2109 2388 1709 2388 
Q 1419 2388 1211 2275 
Q 1003 2163 856 1963 
L 369 1991 
L 709 4400 
L 3034 4400 
L 3034 3856 
L 1131 3856 
L 941 2613 
Q 1097 2731 1238 2791 
Q 1488 2894 1816 2894 
Q 2431 2894 2859 2497 
Q 3288 2100 3288 1491 
Q 3288 856 2895 371 
Q 2503 -113 1644 -113 
Q 1097 -113 676 195 
Q 256 503 206 1141 
L 791 1141 
z
" transform="scale(0.015625)"/>
       </defs>
       <use xlink:href="#Helvetica-35"/>
       <use xlink:href="#Helvetica-30" x="55.615234"/>
       <use xlink:href="#Helvetica-30" x="111.230469"/>
       <use xlink:href="#Helvetica-30" x="166.845703"/>
       <use xlink:href="#Helvetica-30" x="222.460938"/>
      </g>
     </g>
    </g>
    <g id="text_24">
     <!-- Counts -->
     <g transform="translate(300.602604 115.841406)rotate(-90)scale(0.1 -0.1)">
      <defs>
       <path id="Helvetica-73" d="M 747 1050 
Q 772 769 888 619 
Q 1100 347 1625 347 
Q 1938 347 2175 483 
Q 2413 619 2413 903 
Q 2413 1119 2222 1231 
Q 2100 1300 1741 1391 
L 1294 1503 
Q 866 1609 663 1741 
Q 300 1969 300 2372 
Q 300 2847 642 3140 
Q 984 3434 1563 3434 
Q 2319 3434 2653 2991 
Q 2863 2709 2856 2384 
L 2325 2384 
Q 2309 2575 2191 2731 
Q 1997 2953 1519 2953 
Q 1200 2953 1036 2831 
Q 872 2709 872 2509 
Q 872 2291 1088 2159 
Q 1213 2081 1456 2022 
L 1828 1931 
Q 2434 1784 2641 1647 
Q 2969 1431 2969 969 
Q 2969 522 2630 197 
Q 2291 -128 1597 -128 
Q 850 -128 539 211 
Q 228 550 206 1050 
L 747 1050 
z
M 1578 3428 
L 1578 3428 
z
" transform="scale(0.015625)"/>
      </defs>
      <use xlink:href="#Helvetica-43"/>
      <use xlink:href="#Helvetica-6f" x="72.216797"/>
      <use xlink:href="#Helvetica-75" x="127.832031"/>
      <use xlink:href="#Helvetica-6e" x="183.447266"/>
      <use xlink:href="#Helvetica-74" x="239.0625"/>
      <use xlink:href="#Helvetica-73" x="266.845703"/>
     </g>
    </g>
   </g>
   <g id="line2d_20">
    <path d="M 351.75947 167.454545 
L 352.325204 167.343441 
L 353.116832 167.25356 
L 354.359873 167.253613 
L 354.924508 167.127101 
L 355.601752 167.117821 
L 356.053055 167.069781 
L 357.631396 167.08536 
L 362.354922 166.876961 
L 363.028291 166.850877 
L 363.477004 166.821474 
L 364.037672 166.713384 
L 366.27784 166.509261 
L 366.949105 166.385084 
L 368.960717 166.052476 
L 369.407294 165.904379 
L 370.076854 165.798219 
L 370.746046 165.608678 
L 371.303424 165.496825 
L 371.749141 165.424711 
L 373.196583 164.990463 
L 374.864533 164.528671 
L 376.530138 163.875438 
L 380.296748 162.022667 
L 380.739073 161.665478 
L 381.29174 161.35752 
L 381.844139 160.927311 
L 382.285866 160.717187 
L 382.617049 160.473185 
L 383.058475 160.03648 
L 385.152897 158.252982 
L 385.483238 157.904706 
L 386.473676 157.219393 
L 386.803626 157.078602 
L 387.023538 156.956722 
L 387.353324 156.722665 
L 387.683012 156.37704 
L 387.902749 156.124301 
L 388.012601 156.125121 
L 390.207338 153.315836 
L 390.426569 152.81819 
L 390.755333 152.21586 
L 391.083998 151.624666 
L 391.850493 149.629233 
L 392.944542 146.369174 
L 393.38185 144.972965 
L 393.600436 144.40187 
L 396.00193 135.25993 
L 396.546964 133.765163 
L 396.982787 132.402367 
L 397.309536 131.359726 
L 398.397962 128.058343 
L 400.354258 122.835304 
L 401.114038 120.449777 
L 401.76483 117.960375 
L 402.09007 116.993389 
L 403.065169 113.750993 
L 403.389993 112.5088 
L 406.200759 102.027429 
L 406.740387 100.643828 
L 407.926534 98.345909 
L 408.034295 98.350795 
L 408.788292 96.904068 
L 409.111257 96.706407 
L 409.218888 96.601917 
L 409.971975 94.46771 
L 410.187036 94.13215 
L 411.476405 90.372713 
L 411.798479 89.206202 
L 411.905813 89.082342 
L 414.049983 81.151485 
L 414.157065 81.078446 
L 414.585275 79.035752 
L 414.906306 77.834638 
L 415.334177 76.285701 
L 416.082488 73.387831 
L 416.296182 72.468243 
L 416.830205 70.108761 
L 417.363924 68.355947 
L 418.003985 65.749721 
L 418.110619 65.593619 
L 418.750169 63.085348 
L 419.17629 61.979047 
L 420.772499 58.239354 
L 420.878814 58.339776 
L 420.985118 58.270007 
L 421.303953 57.629148 
L 421.728895 56.870821 
L 421.941292 56.62981 
L 422.047472 56.794324 
L 422.365937 56.414724 
L 422.578186 56.417326 
L 422.790384 56.337568 
L 423.10859 55.958715 
L 423.638683 55.21694 
L 423.95659 54.684947 
L 424.168466 54.399768 
L 424.274386 54.477619 
L 424.486187 54.30159 
L 424.697938 54.505773 
L 424.803795 54.426716 
L 425.015471 54.107031 
L 425.121291 53.981112 
L 425.6502 52.480986 
L 425.967396 52.208989 
L 426.178797 52.41796 
L 426.812699 50.633399 
L 426.918306 50.783389 
L 427.446149 49.788565 
L 427.657198 49.703786 
L 427.762704 49.58501 
L 429.659646 43.728179 
L 429.870164 43.060454 
L 430.080632 42.359972 
L 430.921993 40.540435 
L 431.447429 39.277208 
L 431.657514 38.908307 
L 432.182504 37.631967 
L 433.650771 35.130573 
L 433.755551 35.256205 
L 434.48865 34.700696 
L 434.697991 34.489788 
L 435.116518 34.331888 
L 435.221118 34.331826 
L 435.325704 34.204741 
L 435.534838 34.414944 
L 435.743921 34.211021 
L 435.848443 34.324501 
L 435.952952 34.0918 
L 436.266401 34.475358 
L 436.370858 34.304227 
L 436.579733 34.545308 
L 436.684151 34.607356 
L 436.788556 34.45983 
L 436.997327 34.575426 
L 437.101693 34.444521 
L 437.310387 34.567297 
L 437.414714 34.558708 
L 437.623329 34.999704 
L 437.727617 34.964833 
L 437.936154 35.160529 
L 438.040403 35.100668 
L 438.144638 35.237163 
L 438.561451 34.92993 
L 438.665622 35.039695 
L 438.873924 35.469814 
L 439.082173 35.777477 
L 439.290371 35.329275 
L 439.498515 35.785028 
L 439.914648 35.932285 
L 440.226609 36.066239 
L 440.33057 36.187503 
L 440.434518 35.956671 
L 440.746282 36.721124 
L 440.850177 36.614952 
L 440.954059 36.993762 
L 441.161783 36.78962 
L 441.369455 36.519971 
L 441.473271 36.384963 
L 441.577074 36.458595 
L 441.78464 36.045564 
L 441.888403 36.239931 
L 442.09589 35.933967 
L 442.199613 36.027562 
L 442.303324 35.805713 
L 442.510705 35.997589 
L 442.614375 35.919676 
L 442.821677 36.21637 
L 442.925308 36.036286 
L 443.13253 35.893388 
L 443.339699 35.74016 
L 443.443263 35.995913 
L 443.546814 35.89287 
L 443.650353 35.985554 
L 444.167843 35.198839 
L 444.374746 35.55616 
L 444.891771 35.118702 
L 445.30515 34.681971 
L 445.408462 34.794921 
L 446.544005 33.650629 
L 446.956528 33.408973 
L 447.059625 32.919178 
L 447.162709 33.002161 
L 447.265779 33.233994 
L 447.47188 33.064068 
L 447.574909 33.289969 
L 447.780929 33.240468 
L 447.986894 33.390875 
L 448.501573 33.453265 
L 448.707349 33.480851 
L 448.810217 33.434574 
L 448.913072 33.629045 
L 449.735422 32.725237 
L 449.940874 32.858252 
L 450.146272 32.833278 
L 450.24895 32.903032 
L 450.762139 32.545455 
L 451.06989 32.71835 
L 451.172446 33.014392 
L 451.787497 32.801234 
L 452.299665 32.915868 
L 452.504436 33.253454 
L 452.709153 33.729042 
L 452.811491 33.738293 
L 453.016125 33.916809 
L 453.220705 33.979911 
L 453.322975 34.315568 
L 453.42523 34.227141 
L 453.834116 34.818134 
L 454.038476 35.282221 
L 454.242782 35.416038 
L 454.447032 35.362194 
L 454.753304 35.666329 
L 455.263483 36.247384 
L 455.569425 36.775584 
L 455.875242 36.918274 
L 455.977153 37.131803 
L 456.079051 37.040745 
L 456.282805 37.312654 
L 456.588332 37.49942 
L 456.690146 37.42761 
L 456.893734 37.536666 
L 456.995507 37.424466 
L 457.199012 37.804356 
L 457.300743 37.769716 
L 457.91084 38.92584 
L 458.114094 39.004607 
L 458.2157 38.755464 
L 458.317293 38.905306 
L 458.418871 38.844475 
L 458.621986 39.059604 
L 458.723523 39.35201 
L 458.825046 39.280767 
L 458.926554 39.751389 
L 459.230997 39.492785 
L 459.33245 39.633547 
L 459.433889 39.356862 
L 459.636724 39.546514 
L 459.738121 39.82881 
L 459.940873 39.668742 
L 460.042228 39.688922 
L 460.346209 40.335357 
L 460.447508 40.150515 
L 460.548793 40.558081 
L 460.751321 40.121531 
L 461.156208 40.995713 
L 461.257395 41.025065 
L 461.459726 41.311117 
L 461.662 41.970888 
L 461.965307 42.337537 
L 462.167441 42.013839 
L 462.369519 42.109491 
L 462.470536 42.413857 
L 462.57154 42.380154 
L 462.773505 42.609416 
L 462.975413 42.282312 
L 463.37906 42.879772 
L 463.681646 43.811319 
L 463.78248 43.952288 
L 463.8833 44.391643 
L 463.984105 44.092595 
L 464.084896 44.477521 
L 464.387185 44.276423 
L 464.58864 44.799381 
L 465.997232 48.211556 
L 466.097738 48.304806 
L 466.198231 48.198283 
L 466.399173 48.287676 
L 466.600058 48.91919 
L 466.800886 49.099812 
L 467.503333 47.384094 
L 467.703903 47.71807 
L 468.104871 47.350936 
L 468.405446 47.131074 
L 468.605758 47.152695 
L 468.705892 47.222102 
L 468.906118 46.760579 
L 469.006209 46.750286 
L 469.406429 45.735232 
L 469.606452 45.676215 
L 469.806418 46.03131 
L 470.106259 45.497781 
L 470.30608 45.096319 
L 470.405969 45.33236 
L 470.505844 45.176428 
L 470.905197 45.270723 
L 471.004999 45.312122 
L 471.304319 45.609904 
L 471.503793 45.359905 
L 471.703208 45.117101 
L 471.902566 45.461276 
L 472.101866 45.617829 
L 472.201494 45.628975 
L 472.400706 45.387629 
L 472.50029 45.36806 
L 472.699415 45.170665 
L 473.09749 45.722173 
L 473.196972 45.829882 
L 473.495332 45.36547 
L 473.694165 45.348173 
L 473.992305 45.736709 
L 474.58819 46.300702 
L 474.885935 46.573965 
L 474.985154 46.578465 
L 475.183548 46.483873 
L 475.282723 46.707621 
L 475.381883 46.512105 
L 475.976536 47.581605 
L 476.075594 47.319402 
L 476.273664 47.357045 
L 476.867522 48.839671 
L 476.966447 48.95281 
L 477.361998 49.96438 
L 477.658506 50.430866 
L 477.757312 50.383992 
L 478.251123 51.08831 
L 478.34984 51.150891 
L 478.744563 52.245506 
L 478.941835 52.385939 
L 479.040449 52.429267 
L 480.714606 56.892198 
L 480.911283 56.90236 
L 481.991934 59.651252 
L 482.090085 59.663278 
L 482.580616 61.300667 
L 482.678677 61.268732 
L 482.874754 61.658606 
L 482.972771 61.790153 
L 483.266729 63.026863 
L 483.364684 63.210484 
L 483.560551 63.72806 
L 484.049954 65.199473 
L 484.147789 65.216437 
L 484.441205 66.177654 
L 484.734485 66.445878 
L 484.832214 66.526324 
L 485.222982 67.634157 
L 485.808679 69.950787 
L 485.906242 70.196213 
L 486.00379 70.124309 
L 486.101323 70.287932 
L 486.6862 72.406748 
L 486.881038 72.642785 
L 487.56249 73.539266 
L 487.757054 73.968637 
L 487.854313 73.892759 
L 488.145998 74.199664 
L 488.728955 72.28387 
L 488.826062 72.545823 
L 489.311362 70.693571 
L 489.699327 69.353118 
L 489.893218 69.007862 
L 490.087047 69.06214 
L 490.183938 68.829538 
L 490.280814 68.929822 
L 490.377675 68.754019 
L 490.861748 66.716087 
L 490.958516 66.632017 
L 491.538803 65.403642 
L 491.635464 65.557078 
L 491.732109 65.301913 
L 491.828738 65.412399 
L 492.021951 65.290868 
L 492.118535 64.994308 
L 492.504713 65.49664 
L 492.601219 65.553251 
L 493.083517 65.186038 
L 493.469076 65.730119 
L 493.758082 66.197324 
L 493.854387 66.100678 
L 493.950676 66.1378 
L 494.431887 66.833136 
L 494.624263 67.025961 
L 494.816576 67.259415 
L 494.912709 67.190628 
L 495.104929 67.388181 
L 495.201015 67.462271 
L 495.489181 68.412438 
L 495.585205 68.55554 
L 495.873184 69.288076 
L 495.969146 69.302443 
L 496.161022 69.654125 
L 496.352836 69.940243 
L 496.736275 70.643405 
L 496.927901 70.840868 
L 497.215222 71.843349 
L 497.310965 71.889962 
L 497.502402 72.121566 
L 497.598097 72.230161 
L 497.980721 73.148928 
L 498.363093 73.567438 
L 498.649707 74.041146 
L 499.127081 74.598213 
L 499.413316 75.232291 
L 499.508696 75.265345 
L 499.699409 75.514391 
L 499.890059 75.722515 
L 500.175915 76.286037 
L 500.366406 76.499805 
L 500.461628 76.539257 
L 500.747199 77.128441 
L 501.032627 77.332874 
L 501.317913 77.630546 
L 501.603055 78.199615 
L 501.69807 78.302252 
L 501.888054 78.57443 
L 503.026617 80.179301 
L 503.310899 80.712906 
L 503.500341 81.056942 
L 503.595038 80.966613 
L 504.068281 82.337131 
L 504.162882 82.282523 
L 504.352035 82.584695 
L 504.73015 83.68906 
L 505.202431 84.602869 
L 505.391232 84.503342 
L 505.674312 85.06304 
L 505.862951 85.731342 
L 505.957247 85.733225 
L 506.428483 86.650093 
L 506.711031 87.350547 
L 506.899316 87.324879 
L 506.993434 87.280708 
L 507.275692 87.766922 
L 508.121591 90.050945 
L 508.215499 90.114013 
L 508.684795 91.285539 
L 509.247414 92.385674 
L 509.903064 95.059633 
L 510.651399 97.613749 
L 510.931756 98.162351 
L 511.771943 99.336553 
L 511.865215 99.33919 
L 512.051711 99.56708 
L 512.797036 99.399843 
L 513.26233 98.493651 
L 513.913052 97.093037 
L 514.098824 96.706747 
L 514.655744 95.774469 
L 515.026693 95.20271 
L 515.490008 94.488166 
L 516.600274 93.827838 
L 516.785086 93.845954 
L 516.877467 93.92184 
L 517.062179 94.231068 
L 517.246824 94.190666 
L 517.431403 94.180098 
L 517.523668 94.127615 
L 517.708147 94.342443 
L 517.800361 94.359429 
L 518.537477 95.739015 
L 518.721589 95.902421 
L 518.997631 96.310659 
L 519.641144 97.965505 
L 519.733008 97.991129 
L 520.925705 100.987449 
L 521.84123 103.905421 
L 522.115559 104.640626 
L 522.481094 105.924813 
L 522.755068 106.486826 
L 523.12013 107.959381 
L 523.758337 110.008087 
L 524.486697 111.900258 
L 525.032254 113.865063 
L 525.304802 114.881789 
L 525.758709 116.674942 
L 528.112135 124.631562 
L 529.464603 132.958757 
L 531.082442 145.725891 
L 531.620475 147.398555 
L 531.889258 147.94333 
L 532.247391 148.097665 
L 532.426353 148.106272 
L 532.694667 147.992436 
L 532.962823 147.777024 
L 533.320121 147.412321 
L 533.498666 147.189971 
L 534.03388 146.310923 
L 534.924506 144.879657 
L 536.079699 144.171952 
L 536.345861 144.100601 
L 537.054851 143.808149 
L 537.585853 143.90257 
L 538.02787 143.912749 
L 538.204552 144.022181 
L 538.292867 144.081146 
L 538.381165 143.981991 
L 538.822385 144.390589 
L 539.086905 144.413734 
L 539.351265 144.645299 
L 539.703497 145.029177 
L 540.49498 145.446854 
L 540.846287 145.982604 
L 541.548046 146.628239 
L 542.511099 147.599526 
L 542.860763 147.873734 
L 543.122823 148.243943 
L 544.169447 149.532356 
L 545.300366 150.75555 
L 545.647728 151.331422 
L 546.774657 152.45353 
L 547.293746 153.215149 
L 548.157441 154.21242 
L 549.535567 155.774251 
L 549.965273 156.168688 
L 550.308708 156.644046 
L 550.823313 157.122725 
L 551.166016 157.428576 
L 551.508425 157.735281 
L 552.448534 158.717516 
L 554.067106 160.198846 
L 554.491937 160.496776 
L 554.831469 160.701719 
L 555.170703 160.893102 
L 556.01749 161.613629 
L 556.440186 162.0062 
L 557.11553 162.194251 
L 557.11553 162.194251 
" clip-path="url(#pbc1eeb42b7)" style="fill: none; stroke: #1f77b4; stroke-width: 1.5; stroke-linecap: square"/>
   </g>
   <g id="patch_11">
    <path d="M 341.491667 174.2 
L 341.491667 25.8 
" style="fill: none; stroke: #000000; stroke-width: 0.8; stroke-linejoin: miter; stroke-linecap: square"/>
   </g>
   <g id="patch_12">
    <path d="M 567.383333 174.2 
L 567.383333 25.8 
" style="fill: none; stroke: #000000; stroke-width: 0.8; stroke-linejoin: miter; stroke-linecap: square"/>
   </g>
   <g id="patch_13">
    <path d="M 341.491667 174.2 
L 567.383333 174.2 
" style="fill: none; stroke: #000000; stroke-width: 0.8; stroke-linejoin: miter; stroke-linecap: square"/>
   </g>
   <g id="patch_14">
    <path d="M 341.491667 25.8 
L 567.383333 25.8 
" style="fill: none; stroke: #000000; stroke-width: 0.8; stroke-linejoin: miter; stroke-linecap: square"/>
   </g>
   <g id="text_25">
    <!-- Reference -->
    <g transform="translate(426.756875 19.8)scale(0.12 -0.12)">
     <defs>
      <path id="Helvetica-52" d="M 2622 2488 
Q 3059 2488 3314 2663 
Q 3569 2838 3569 3294 
Q 3569 3784 3213 3963 
Q 3022 4056 2703 4056 
L 1184 4056 
L 1184 2488 
L 2622 2488 
z
M 563 4591 
L 2688 4591 
Q 3213 4591 3553 4438 
Q 4200 4144 4200 3353 
Q 4200 2941 4029 2678 
Q 3859 2416 3553 2256 
Q 3822 2147 3958 1969 
Q 4094 1791 4109 1391 
L 4131 775 
Q 4141 513 4175 384 
Q 4231 166 4375 103 
L 4375 0 
L 3613 0 
Q 3581 59 3562 153 
Q 3544 247 3531 516 
L 3494 1281 
Q 3472 1731 3159 1884 
Q 2981 1969 2600 1969 
L 1184 1969 
L 1184 0 
L 563 0 
L 563 4591 
z
" transform="scale(0.015625)"/>
      <path id="Helvetica-66" d="M 553 3856 
Q 566 4206 675 4369 
Q 872 4656 1434 4656 
Q 1488 4656 1544 4653 
Q 1600 4650 1672 4644 
L 1672 4131 
Q 1584 4138 1545 4139 
Q 1506 4141 1472 4141 
Q 1216 4141 1166 4008 
Q 1116 3875 1116 3331 
L 1672 3331 
L 1672 2888 
L 1109 2888 
L 1109 0 
L 553 0 
L 553 2888 
L 88 2888 
L 88 3331 
L 553 3331 
L 553 3856 
z
" transform="scale(0.015625)"/>
     </defs>
     <use xlink:href="#Helvetica-52"/>
     <use xlink:href="#Helvetica-65" x="72.216797"/>
     <use xlink:href="#Helvetica-66" x="127.832031"/>
     <use xlink:href="#Helvetica-65" x="155.615234"/>
     <use xlink:href="#Helvetica-72" x="211.230469"/>
     <use xlink:href="#Helvetica-65" x="244.53125"/>
     <use xlink:href="#Helvetica-6e" x="300.146484"/>
     <use xlink:href="#Helvetica-63" x="355.761719"/>
     <use xlink:href="#Helvetica-65" x="405.761719"/>
    </g>
   </g>
   <g id="legend_1">
    <g id="patch_15">
     <path d="M 393.421094 169.2 
L 515.453906 169.2 
Q 517.453906 169.2 517.453906 167.2 
L 517.453906 153.840625 
Q 517.453906 151.840625 515.453906 151.840625 
L 393.421094 151.840625 
Q 391.421094 151.840625 391.421094 153.840625 
L 391.421094 167.2 
Q 391.421094 169.2 393.421094 169.2 
z
" style="fill: #ffffff; opacity: 0.8; stroke: #cccccc; stroke-linejoin: miter"/>
    </g>
    <g id="line2d_21">
     <path d="M 395.421094 159.615625 
L 405.421094 159.615625 
L 415.421094 159.615625 
" style="fill: none; stroke: #1f77b4; stroke-width: 1.5; stroke-linecap: square"/>
    </g>
    <g id="text_26">
     <!-- Reference spectrum -->
     <g transform="translate(423.421094 163.115625)scale(0.1 -0.1)">
      <defs>
       <path id="Helvetica-70" d="M 1825 378 
Q 2219 378 2480 708 
Q 2741 1038 2741 1694 
Q 2741 2094 2625 2381 
Q 2406 2934 1825 2934 
Q 1241 2934 1025 2350 
Q 909 2038 909 1556 
Q 909 1169 1025 897 
Q 1244 378 1825 378 
z
M 369 3331 
L 916 3331 
L 916 2888 
Q 1084 3116 1284 3241 
Q 1569 3428 1953 3428 
Q 2522 3428 2919 2992 
Q 3316 2556 3316 1747 
Q 3316 653 2744 184 
Q 2381 -113 1900 -113 
Q 1522 -113 1266 53 
Q 1116 147 931 375 
L 931 -1334 
L 369 -1334 
L 369 3331 
z
" transform="scale(0.015625)"/>
       <path id="Helvetica-6d" d="M 413 3347 
L 969 3347 
L 969 2872 
Q 1169 3119 1331 3231 
Q 1609 3422 1963 3422 
Q 2363 3422 2606 3225 
Q 2744 3113 2856 2894 
Q 3044 3163 3297 3292 
Q 3550 3422 3866 3422 
Q 4541 3422 4784 2934 
Q 4916 2672 4916 2228 
L 4916 0 
L 4331 0 
L 4331 2325 
Q 4331 2659 4164 2784 
Q 3997 2909 3756 2909 
Q 3425 2909 3186 2687 
Q 2947 2466 2947 1947 
L 2947 0 
L 2375 0 
L 2375 2184 
Q 2375 2525 2294 2681 
Q 2166 2916 1816 2916 
Q 1497 2916 1236 2669 
Q 975 2422 975 1775 
L 975 0 
L 413 0 
L 413 3347 
z
" transform="scale(0.015625)"/>
      </defs>
      <use xlink:href="#Helvetica-52"/>
      <use xlink:href="#Helvetica-65" x="72.216797"/>
      <use xlink:href="#Helvetica-66" x="127.832031"/>
      <use xlink:href="#Helvetica-65" x="155.615234"/>
      <use xlink:href="#Helvetica-72" x="211.230469"/>
      <use xlink:href="#Helvetica-65" x="244.53125"/>
      <use xlink:href="#Helvetica-6e" x="300.146484"/>
      <use xlink:href="#Helvetica-63" x="355.761719"/>
      <use xlink:href="#Helvetica-65" x="405.761719"/>
      <use xlink:href="#Helvetica-20" x="461.376953"/>
      <use xlink:href="#Helvetica-73" x="489.160156"/>
      <use xlink:href="#Helvetica-70" x="539.160156"/>
      <use xlink:href="#Helvetica-65" x="594.775391"/>
      <use xlink:href="#Helvetica-63" x="650.390625"/>
      <use xlink:href="#Helvetica-74" x="700.390625"/>
      <use xlink:href="#Helvetica-72" x="728.173828"/>
      <use xlink:href="#Helvetica-75" x="761.474609"/>
      <use xlink:href="#Helvetica-6d" x="817.089844"/>
     </g>
    </g>
   </g>
  </g>
  <g id="axes_3">
   <g id="patch_16">
    <path d="M 627.308333 174.2 
L 853.2 174.2 
L 853.2 25.8 
L 627.308333 25.8 
z
" style="fill: #ffffff"/>
   </g>
   <g id="PathCollection_1">
    <defs>
     <path id="mae89ee1873" d="M 0 2.236068 
C 0.593012 2.236068 1.161816 2.000462 1.581139 1.581139 
C 2.000462 1.161816 2.236068 0.593012 2.236068 0 
C 2.236068 -0.593012 2.000462 -1.161816 1.581139 -1.581139 
C 1.161816 -2.000462 0.593012 -2.236068 0 -2.236068 
C -0.593012 -2.236068 -1.161816 -2.000462 -1.581139 -1.581139 
C -2.000462 -1.161816 -2.236068 -0.593012 -2.236068 0 
C -2.236068 0.593012 -2.000462 1.161816 -1.581139 1.581139 
C -1.161816 2.000462 -0.593012 2.236068 0 2.236068 
z
" style="stroke: #000000"/>
    </defs>
    <g clip-path="url(#p401e08e952)">
     <use xlink:href="#mae89ee1873" x="637.576136" y="167.446512" style="stroke: #000000"/>
     <use xlink:href="#mae89ee1873" x="640.314217" y="167.454545" style="stroke: #000000"/>
     <use xlink:href="#mae89ee1873" x="643.052298" y="167.45038" style="stroke: #000000"/>
     <use xlink:href="#mae89ee1873" x="645.790379" y="167.45159" style="stroke: #000000"/>
     <use xlink:href="#mae89ee1873" x="648.52846" y="167.441052" style="stroke: #000000"/>
     <use xlink:href="#mae89ee1873" x="651.26654" y="167.436549" style="stroke: #000000"/>
     <use xlink:href="#mae89ee1873" x="654.004621" y="167.429148" style="stroke: #000000"/>
     <use xlink:href="#mae89ee1873" x="656.742702" y="167.408326" style="stroke: #000000"/>
     <use xlink:href="#mae89ee1873" x="659.480783" y="167.395459" style="stroke: #000000"/>
     <use xlink:href="#mae89ee1873" x="662.218864" y="167.365186" style="stroke: #000000"/>
     <use xlink:href="#mae89ee1873" x="664.956944" y="167.330307" style="stroke: #000000"/>
     <use xlink:href="#mae89ee1873" x="670.433106" y="167.239559" style="stroke: #000000"/>
     <use xlink:href="#mae89ee1873" x="675.909268" y="167.091582" style="stroke: #000000"/>
     <use xlink:href="#mae89ee1873" x="681.385429" y="166.862091" style="stroke: #000000"/>
     <use xlink:href="#mae89ee1873" x="686.861591" y="166.534949" style="stroke: #000000"/>
     <use xlink:href="#mae89ee1873" x="692.337753" y="166.167976" style="stroke: #000000"/>
     <use xlink:href="#mae89ee1873" x="699.182955" y="165.504148" style="stroke: #000000"/>
     <use xlink:href="#mae89ee1873" x="706.028157" y="164.675553" style="stroke: #000000"/>
     <use xlink:href="#mae89ee1873" x="712.873359" y="163.731678" style="stroke: #000000"/>
     <use xlink:href="#mae89ee1873" x="719.718561" y="162.652848" style="stroke: #000000"/>
     <use xlink:href="#mae89ee1873" x="733.408965" y="160.011279" style="stroke: #000000"/>
     <use xlink:href="#mae89ee1873" x="747.099369" y="156.782658" style="stroke: #000000"/>
     <use xlink:href="#mae89ee1873" x="760.789773" y="151.833386" style="stroke: #000000"/>
     <use xlink:href="#mae89ee1873" x="774.480177" y="145.598831" style="stroke: #000000"/>
     <use xlink:href="#mae89ee1873" x="788.170581" y="137.485054" style="stroke: #000000"/>
     <use xlink:href="#mae89ee1873" x="801.860985" y="126.50817" style="stroke: #000000"/>
     <use xlink:href="#mae89ee1873" x="815.551389" y="109.022883" style="stroke: #000000"/>
     <use xlink:href="#mae89ee1873" x="829.241793" y="75.342839" style="stroke: #000000"/>
     <use xlink:href="#mae89ee1873" x="842.932197" y="32.545455" style="stroke: #000000"/>
    </g>
   </g>
   <g id="matplotlib.axis_5">
    <g id="xtick_9">
     <g id="line2d_22">
      <g>
       <use xlink:href="#ma382cc9d53" x="664.956944" y="174.2" style="stroke: #000000; stroke-width: 0.8"/>
      </g>
     </g>
     <g id="text_27">
      <!-- 400 -->
      <g transform="translate(656.615538 188.373437)scale(0.1 -0.1)">
       <use xlink:href="#Helvetica-34"/>
       <use xlink:href="#Helvetica-30" x="55.615234"/>
       <use xlink:href="#Helvetica-30" x="111.230469"/>
      </g>
     </g>
    </g>
    <g id="xtick_10">
     <g id="line2d_23">
      <g>
       <use xlink:href="#ma382cc9d53" x="719.718561" y="174.2" style="stroke: #000000; stroke-width: 0.8"/>
      </g>
     </g>
     <g id="text_28">
      <!-- 600 -->
      <g transform="translate(711.377154 188.373437)scale(0.1 -0.1)">
       <use xlink:href="#Helvetica-36"/>
       <use xlink:href="#Helvetica-30" x="55.615234"/>
       <use xlink:href="#Helvetica-30" x="111.230469"/>
      </g>
     </g>
    </g>
    <g id="xtick_11">
     <g id="line2d_24">
      <g>
       <use xlink:href="#ma382cc9d53" x="774.480177" y="174.2" style="stroke: #000000; stroke-width: 0.8"/>
      </g>
     </g>
     <g id="text_29">
      <!-- 800 -->
      <g transform="translate(766.138771 188.373437)scale(0.1 -0.1)">
       <use xlink:href="#Helvetica-38"/>
       <use xlink:href="#Helvetica-30" x="55.615234"/>
       <use xlink:href="#Helvetica-30" x="111.230469"/>
      </g>
     </g>
    </g>
    <g id="xtick_12">
     <g id="line2d_25">
      <g>
       <use xlink:href="#ma382cc9d53" x="829.241793" y="174.2" style="stroke: #000000; stroke-width: 0.8"/>
      </g>
     </g>
     <g id="text_30">
      <!-- 1000 -->
      <g transform="translate(818.119918 188.373437)scale(0.1 -0.1)">
       <use xlink:href="#Helvetica-31"/>
       <use xlink:href="#Helvetica-30" x="55.615234"/>
       <use xlink:href="#Helvetica-30" x="111.230469"/>
       <use xlink:href="#Helvetica-30" x="166.845703"/>
      </g>
     </g>
    </g>
    <g id="text_31">
     <!-- Wavelength -->
     <g transform="translate(713.851823 201.654687)scale(0.1 -0.1)">
      <use xlink:href="#Helvetica-57"/>
      <use xlink:href="#Helvetica-61" x="94.384766"/>
      <use xlink:href="#Helvetica-76" x="150"/>
      <use xlink:href="#Helvetica-65" x="200"/>
      <use xlink:href="#Helvetica-6c" x="255.615234"/>
      <use xlink:href="#Helvetica-65" x="277.832031"/>
      <use xlink:href="#Helvetica-6e" x="333.447266"/>
      <use xlink:href="#Helvetica-67" x="389.0625"/>
      <use xlink:href="#Helvetica-74" x="444.677734"/>
      <use xlink:href="#Helvetica-68" x="472.460938"/>
     </g>
    </g>
   </g>
   <g id="matplotlib.axis_6">
    <g id="ytick_11">
     <g id="line2d_26">
      <g>
       <use xlink:href="#m00c262fb35" x="627.308333" y="167.464048" style="stroke: #000000; stroke-width: 0.8"/>
      </g>
     </g>
     <g id="text_32">
      <!-- 0 -->
      <g transform="translate(614.747396 171.050767)scale(0.1 -0.1)">
       <use xlink:href="#Helvetica-30"/>
      </g>
     </g>
    </g>
    <g id="ytick_12">
     <g id="line2d_27">
      <g>
       <use xlink:href="#m00c262fb35" x="627.308333" y="134.667861" style="stroke: #000000; stroke-width: 0.8"/>
      </g>
     </g>
     <g id="text_33">
      <!-- 2 -->
      <g transform="translate(614.747396 138.25458)scale(0.1 -0.1)">
       <use xlink:href="#Helvetica-32"/>
      </g>
     </g>
    </g>
    <g id="ytick_13">
     <g id="line2d_28">
      <g>
       <use xlink:href="#m00c262fb35" x="627.308333" y="101.871674" style="stroke: #000000; stroke-width: 0.8"/>
      </g>
     </g>
     <g id="text_34">
      <!-- 4 -->
      <g transform="translate(614.747396 105.458393)scale(0.1 -0.1)">
       <use xlink:href="#Helvetica-34"/>
      </g>
     </g>
    </g>
    <g id="ytick_14">
     <g id="line2d_29">
      <g>
       <use xlink:href="#m00c262fb35" x="627.308333" y="69.075487" style="stroke: #000000; stroke-width: 0.8"/>
      </g>
     </g>
     <g id="text_35">
      <!-- 6 -->
      <g transform="translate(614.747396 72.662206)scale(0.1 -0.1)">
       <use xlink:href="#Helvetica-36"/>
      </g>
     </g>
    </g>
    <g id="ytick_15">
     <g id="line2d_30">
      <g>
       <use xlink:href="#m00c262fb35" x="627.308333" y="36.2793" style="stroke: #000000; stroke-width: 0.8"/>
      </g>
     </g>
     <g id="text_36">
      <!-- 8 -->
      <g transform="translate(614.747396 39.866019)scale(0.1 -0.1)">
       <use xlink:href="#Helvetica-38"/>
      </g>
     </g>
    </g>
    <g id="text_37">
     <!-- Absolute spectral irradiance -->
     <g transform="translate(595.643021 161.695312)rotate(-90)scale(0.1 -0.1)">
      <defs>
       <path id="Helvetica-41" d="M 2844 1881 
L 2147 3909 
L 1406 1881 
L 2844 1881 
z
M 1822 4591 
L 2525 4591 
L 4191 0 
L 3509 0 
L 3044 1375 
L 1228 1375 
L 731 0 
L 94 0 
L 1822 4591 
z
" transform="scale(0.015625)"/>
       <path id="Helvetica-64" d="M 769 1634 
Q 769 1097 997 734 
Q 1225 372 1728 372 
Q 2119 372 2370 708 
Q 2622 1044 2622 1672 
Q 2622 2306 2362 2611 
Q 2103 2916 1722 2916 
Q 1297 2916 1033 2591 
Q 769 2266 769 1634 
z
M 1616 3406 
Q 2000 3406 2259 3244 
Q 2409 3150 2600 2916 
L 2600 4606 
L 3141 4606 
L 3141 0 
L 2634 0 
L 2634 466 
Q 2438 156 2169 18 
Q 1900 -119 1553 -119 
Q 994 -119 584 351 
Q 175 822 175 1603 
Q 175 2334 548 2870 
Q 922 3406 1616 3406 
z
" transform="scale(0.015625)"/>
      </defs>
      <use xlink:href="#Helvetica-41"/>
      <use xlink:href="#Helvetica-62" x="66.699219"/>
      <use xlink:href="#Helvetica-73" x="122.314453"/>
      <use xlink:href="#Helvetica-6f" x="172.314453"/>
      <use xlink:href="#Helvetica-6c" x="227.929688"/>
      <use xlink:href="#Helvetica-75" x="250.146484"/>
      <use xlink:href="#Helvetica-74" x="305.761719"/>
      <use xlink:href="#Helvetica-65" x="333.544922"/>
      <use xlink:href="#Helvetica-20" x="389.160156"/>
      <use xlink:href="#Helvetica-73" x="416.943359"/>
      <use xlink:href="#Helvetica-70" x="466.943359"/>
      <use xlink:href="#Helvetica-65" x="522.558594"/>
      <use xlink:href="#Helvetica-63" x="578.173828"/>
      <use xlink:href="#Helvetica-74" x="628.173828"/>
      <use xlink:href="#Helvetica-72" x="655.957031"/>
      <use xlink:href="#Helvetica-61" x="689.257812"/>
      <use xlink:href="#Helvetica-6c" x="744.873047"/>
      <use xlink:href="#Helvetica-20" x="767.089844"/>
      <use xlink:href="#Helvetica-69" x="794.873047"/>
      <use xlink:href="#Helvetica-72" x="817.089844"/>
      <use xlink:href="#Helvetica-72" x="850.390625"/>
      <use xlink:href="#Helvetica-61" x="883.691406"/>
      <use xlink:href="#Helvetica-64" x="939.306641"/>
      <use xlink:href="#Helvetica-69" x="994.921875"/>
      <use xlink:href="#Helvetica-61" x="1017.138672"/>
      <use xlink:href="#Helvetica-6e" x="1072.753906"/>
      <use xlink:href="#Helvetica-63" x="1128.369141"/>
      <use xlink:href="#Helvetica-65" x="1178.369141"/>
     </g>
     <!-- ($\mu W$/cm$^2$/nm) -->
     <g transform="translate(608.647396 130.3)rotate(-90)scale(0.1 -0.1)">
      <defs>
       <path id="Helvetica-28" d="M 1894 4666 
Q 1403 3713 1256 3263 
Q 1034 2578 1034 1681 
Q 1034 775 1288 25 
Q 1444 -438 1903 -1306 
L 1525 -1306 
Q 1069 -594 959 -397 
Q 850 -200 722 138 
Q 547 600 478 1125 
Q 444 1397 444 1644 
Q 444 2569 734 3291 
Q 919 3750 1503 4666 
L 1894 4666 
z
" transform="scale(0.015625)"/>
       <path id="DejaVuSans-Oblique-57" d="M 616 4666 
L 1228 4666 
L 1453 697 
L 3213 4666 
L 3916 4666 
L 4147 697 
L 5888 4666 
L 6528 4666 
L 4453 0 
L 3659 0 
L 3444 3891 
L 1697 0 
L 903 0 
L 616 4666 
z
" transform="scale(0.015625)"/>
       <path id="DejaVuSans-32" d="M 1228 531 
L 3431 531 
L 3431 0 
L 469 0 
L 469 531 
Q 828 903 1448 1529 
Q 2069 2156 2228 2338 
Q 2531 2678 2651 2914 
Q 2772 3150 2772 3378 
Q 2772 3750 2511 3984 
Q 2250 4219 1831 4219 
Q 1534 4219 1204 4116 
Q 875 4013 500 3803 
L 500 4441 
Q 881 4594 1212 4672 
Q 1544 4750 1819 4750 
Q 2544 4750 2975 4387 
Q 3406 4025 3406 3419 
Q 3406 3131 3298 2873 
Q 3191 2616 2906 2266 
Q 2828 2175 2409 1742 
Q 1991 1309 1228 531 
z
" transform="scale(0.015625)"/>
       <path id="Helvetica-29" d="M 222 -1306 
Q 719 -338 863 106 
Q 1081 778 1081 1681 
Q 1081 2584 828 3334 
Q 672 3797 213 4666 
L 591 4666 
Q 1072 3897 1173 3717 
Q 1275 3538 1394 3222 
Q 1544 2831 1608 2450 
Q 1672 2069 1672 1716 
Q 1672 791 1378 66 
Q 1194 -400 613 -1306 
L 222 -1306 
z
" transform="scale(0.015625)"/>
      </defs>
      <use xlink:href="#Helvetica-28" transform="translate(0 0.765625)"/>
      <use xlink:href="#DejaVuSans-Oblique-3bc" transform="translate(33.300781 0.765625)"/>
      <use xlink:href="#DejaVuSans-Oblique-57" transform="translate(96.923828 0.765625)"/>
      <use xlink:href="#Helvetica-2f" transform="translate(195.800781 0.765625)"/>
      <use xlink:href="#Helvetica-63" transform="translate(223.583984 0.765625)"/>
      <use xlink:href="#Helvetica-6d" transform="translate(273.583984 0.765625)"/>
      <use xlink:href="#DejaVuSans-32" transform="translate(357.841797 39.046875)scale(0.7)"/>
      <use xlink:href="#Helvetica-2f" transform="translate(405.112305 0.765625)"/>
      <use xlink:href="#Helvetica-6e" transform="translate(432.895508 0.765625)"/>
      <use xlink:href="#Helvetica-6d" transform="translate(488.510742 0.765625)"/>
      <use xlink:href="#Helvetica-29" transform="translate(571.811523 0.765625)"/>
     </g>
    </g>
   </g>
   <g id="line2d_31">
    <path d="M 648.128013 167.442593 
L 669.894624 167.248482 
L 677.936216 167.006638 
L 687.323294 166.504009 
L 696.024035 165.810491 
L 703.756082 164.950582 
L 712.594413 163.770142 
L 718.532668 162.839749 
L 722.88569 162.041749 
L 735.989484 159.402713 
L 747.929683 156.482488 
L 762.03743 151.265208 
L 775.293958 145.116534 
L 788.767158 137.006722 
L 802.148754 126.140633 
L 815.64814 108.784864 
L 829.677318 73.98135 
L 837.046271 50.945367 
L 837.046271 50.945367 
" clip-path="url(#p401e08e952)" style="fill: none; stroke: #ffd700; stroke-width: 2; stroke-linecap: square"/>
   </g>
   <g id="patch_17">
    <path d="M 627.308333 174.2 
L 627.308333 25.8 
" style="fill: none; stroke: #000000; stroke-width: 0.8; stroke-linejoin: miter; stroke-linecap: square"/>
   </g>
   <g id="patch_18">
    <path d="M 853.2 174.2 
L 853.2 25.8 
" style="fill: none; stroke: #000000; stroke-width: 0.8; stroke-linejoin: miter; stroke-linecap: square"/>
   </g>
   <g id="patch_19">
    <path d="M 627.308333 174.2 
L 853.2 174.2 
" style="fill: none; stroke: #000000; stroke-width: 0.8; stroke-linejoin: miter; stroke-linecap: square"/>
   </g>
   <g id="patch_20">
    <path d="M 627.308333 25.8 
L 853.2 25.8 
" style="fill: none; stroke: #000000; stroke-width: 0.8; stroke-linejoin: miter; stroke-linecap: square"/>
   </g>
   <g id="text_38">
    <!-- Absolute irradiance -->
    <g transform="translate(688.894167 19.8)scale(0.12 -0.12)">
     <use xlink:href="#Helvetica-41"/>
     <use xlink:href="#Helvetica-62" x="66.699219"/>
     <use xlink:href="#Helvetica-73" x="122.314453"/>
     <use xlink:href="#Helvetica-6f" x="172.314453"/>
     <use xlink:href="#Helvetica-6c" x="227.929688"/>
     <use xlink:href="#Helvetica-75" x="250.146484"/>
     <use xlink:href="#Helvetica-74" x="305.761719"/>
     <use xlink:href="#Helvetica-65" x="333.544922"/>
     <use xlink:href="#Helvetica-20" x="389.160156"/>
     <use xlink:href="#Helvetica-69" x="416.943359"/>
     <use xlink:href="#Helvetica-72" x="439.160156"/>
     <use xlink:href="#Helvetica-72" x="472.460938"/>
     <use xlink:href="#Helvetica-61" x="505.761719"/>
     <use xlink:href="#Helvetica-64" x="561.376953"/>
     <use xlink:href="#Helvetica-69" x="616.992188"/>
     <use xlink:href="#Helvetica-61" x="639.208984"/>
     <use xlink:href="#Helvetica-6e" x="694.824219"/>
     <use xlink:href="#Helvetica-63" x="750.439453"/>
     <use xlink:href="#Helvetica-65" x="800.439453"/>
    </g>
   </g>
   <g id="legend_2">
    <g id="patch_21">
     <path d="M 634.308333 62.70625 
L 802.495833 62.70625 
Q 804.495833 62.70625 804.495833 60.70625 
L 804.495833 32.8 
Q 804.495833 30.8 802.495833 30.8 
L 634.308333 30.8 
Q 632.308333 30.8 632.308333 32.8 
L 632.308333 60.70625 
Q 632.308333 62.70625 634.308333 62.70625 
z
" style="fill: #ffffff; opacity: 0.8; stroke: #cccccc; stroke-linejoin: miter"/>
    </g>
    <g id="line2d_32">
     <path d="M 636.308333 38.66875 
L 646.308333 38.66875 
L 656.308333 38.66875 
" style="fill: none; stroke: #ffd700; stroke-width: 2; stroke-linecap: square"/>
    </g>
    <g id="text_39">
     <!-- Calibrated reference spectrum -->
     <g transform="translate(664.308333 42.16875)scale(0.1 -0.1)">
      <use xlink:href="#Helvetica-43"/>
      <use xlink:href="#Helvetica-61" x="72.216797"/>
      <use xlink:href="#Helvetica-6c" x="127.832031"/>
      <use xlink:href="#Helvetica-69" x="150.048828"/>
      <use xlink:href="#Helvetica-62" x="172.265625"/>
      <use xlink:href="#Helvetica-72" x="227.880859"/>
      <use xlink:href="#Helvetica-61" x="261.181641"/>
      <use xlink:href="#Helvetica-74" x="316.796875"/>
      <use xlink:href="#Helvetica-65" x="344.580078"/>
      <use xlink:href="#Helvetica-64" x="400.195312"/>
      <use xlink:href="#Helvetica-20" x="455.810547"/>
      <use xlink:href="#Helvetica-72" x="483.59375"/>
      <use xlink:href="#Helvetica-65" x="516.894531"/>
      <use xlink:href="#Helvetica-66" x="572.509766"/>
      <use xlink:href="#Helvetica-65" x="600.292969"/>
      <use xlink:href="#Helvetica-72" x="655.908203"/>
      <use xlink:href="#Helvetica-65" x="689.208984"/>
      <use xlink:href="#Helvetica-6e" x="744.824219"/>
      <use xlink:href="#Helvetica-63" x="800.439453"/>
      <use xlink:href="#Helvetica-65" x="850.439453"/>
      <use xlink:href="#Helvetica-20" x="906.054688"/>
      <use xlink:href="#Helvetica-73" x="933.837891"/>
      <use xlink:href="#Helvetica-70" x="983.837891"/>
      <use xlink:href="#Helvetica-65" x="1039.453125"/>
      <use xlink:href="#Helvetica-63" x="1095.068359"/>
      <use xlink:href="#Helvetica-74" x="1145.068359"/>
      <use xlink:href="#Helvetica-72" x="1172.851562"/>
      <use xlink:href="#Helvetica-75" x="1206.152344"/>
      <use xlink:href="#Helvetica-6d" x="1261.767578"/>
     </g>
    </g>
    <g id="PathCollection_2">
     <g>
      <use xlink:href="#mae89ee1873" x="646.308333" y="53.996875" style="stroke: #000000"/>
     </g>
    </g>
    <g id="text_40">
     <!-- Known output of HL-2000-CAL -->
     <g transform="translate(664.308333 56.621875)scale(0.1 -0.1)">
      <defs>
       <path id="Helvetica-4b" d="M 488 4591 
L 1094 4591 
L 1094 2353 
L 3331 4591 
L 4191 4591 
L 2281 2741 
L 4244 0 
L 3434 0 
L 1828 2303 
L 1094 1600 
L 1094 0 
L 488 0 
L 488 4591 
z
" transform="scale(0.015625)"/>
       <path id="Helvetica-48" d="M 503 4591 
L 1131 4591 
L 1131 2694 
L 3519 2694 
L 3519 4591 
L 4147 4591 
L 4147 0 
L 3519 0 
L 3519 2147 
L 1131 2147 
L 1131 0 
L 503 0 
L 503 4591 
z
" transform="scale(0.015625)"/>
       <path id="Helvetica-4c" d="M 488 4591 
L 1109 4591 
L 1109 547 
L 3434 547 
L 3434 0 
L 488 0 
L 488 4591 
z
" transform="scale(0.015625)"/>
       <path id="Helvetica-2d" d="M 266 2072 
L 1834 2072 
L 1834 1494 
L 266 1494 
L 266 2072 
z
" transform="scale(0.015625)"/>
      </defs>
      <use xlink:href="#Helvetica-4b"/>
      <use xlink:href="#Helvetica-6e" x="66.699219"/>
      <use xlink:href="#Helvetica-6f" x="122.314453"/>
      <use xlink:href="#Helvetica-77" x="177.929688"/>
      <use xlink:href="#Helvetica-6e" x="250.146484"/>
      <use xlink:href="#Helvetica-20" x="305.761719"/>
      <use xlink:href="#Helvetica-6f" x="333.544922"/>
      <use xlink:href="#Helvetica-75" x="389.160156"/>
      <use xlink:href="#Helvetica-74" x="444.775391"/>
      <use xlink:href="#Helvetica-70" x="472.558594"/>
      <use xlink:href="#Helvetica-75" x="528.173828"/>
      <use xlink:href="#Helvetica-74" x="583.789062"/>
      <use xlink:href="#Helvetica-20" x="611.572266"/>
      <use xlink:href="#Helvetica-6f" x="639.355469"/>
      <use xlink:href="#Helvetica-66" x="694.970703"/>
      <use xlink:href="#Helvetica-20" x="722.753906"/>
      <use xlink:href="#Helvetica-48" x="750.537109"/>
      <use xlink:href="#Helvetica-4c" x="822.753906"/>
      <use xlink:href="#Helvetica-2d" x="878.369141"/>
      <use xlink:href="#Helvetica-32" x="911.669922"/>
      <use xlink:href="#Helvetica-30" x="967.285156"/>
      <use xlink:href="#Helvetica-30" x="1022.900391"/>
      <use xlink:href="#Helvetica-30" x="1078.515625"/>
      <use xlink:href="#Helvetica-2d" x="1134.130859"/>
      <use xlink:href="#Helvetica-43" x="1167.431641"/>
      <use xlink:href="#Helvetica-41" x="1239.648438"/>
      <use xlink:href="#Helvetica-4c" x="1306.347656"/>
     </g>
    </g>
   </g>
  </g>
  <g id="axes_4">
   <g id="patch_22">
    <path d="M 123.4425 169.2 
L 213.799167 169.2 
L 213.799167 109.84 
L 123.4425 109.84 
z
" style="fill: #ffffff"/>
   </g>
   <g id="matplotlib.axis_7">
    <g id="xtick_13">
     <g id="line2d_33">
      <path d="M 127.960333 169.2 
L 127.960333 109.84 
" clip-path="url(#p54fe6f98da)" style="fill: none; stroke: #b0b0b0; stroke-width: 0.8; stroke-linecap: square"/>
     </g>
    </g>
    <g id="xtick_14">
     <g id="line2d_34">
      <path d="M 173.138667 169.2 
L 173.138667 109.84 
" clip-path="url(#p54fe6f98da)" style="fill: none; stroke: #b0b0b0; stroke-width: 0.8; stroke-linecap: square"/>
     </g>
    </g>
    <g id="xtick_15">
     <g id="line2d_35">
      <path d="M 139.254917 169.2 
L 139.254917 109.84 
" clip-path="url(#p54fe6f98da)" style="fill: none; stroke: #b0b0b0; stroke-width: 0.8; stroke-linecap: square"/>
     </g>
    </g>
    <g id="xtick_16">
     <g id="line2d_36">
      <path d="M 150.5495 169.2 
L 150.5495 109.84 
" clip-path="url(#p54fe6f98da)" style="fill: none; stroke: #b0b0b0; stroke-width: 0.8; stroke-linecap: square"/>
     </g>
    </g>
    <g id="xtick_17">
     <g id="line2d_37">
      <path d="M 161.844083 169.2 
L 161.844083 109.84 
" clip-path="url(#p54fe6f98da)" style="fill: none; stroke: #b0b0b0; stroke-width: 0.8; stroke-linecap: square"/>
     </g>
    </g>
    <g id="xtick_18">
     <g id="line2d_38">
      <path d="M 184.43325 169.2 
L 184.43325 109.84 
" clip-path="url(#p54fe6f98da)" style="fill: none; stroke: #b0b0b0; stroke-width: 0.8; stroke-linecap: square"/>
     </g>
    </g>
    <g id="xtick_19">
     <g id="line2d_39">
      <path d="M 195.727833 169.2 
L 195.727833 109.84 
" clip-path="url(#p54fe6f98da)" style="fill: none; stroke: #b0b0b0; stroke-width: 0.8; stroke-linecap: square"/>
     </g>
    </g>
    <g id="xtick_20">
     <g id="line2d_40">
      <path d="M 207.022417 169.2 
L 207.022417 109.84 
" clip-path="url(#p54fe6f98da)" style="fill: none; stroke: #b0b0b0; stroke-width: 0.8; stroke-linecap: square"/>
     </g>
    </g>
   </g>
   <g id="matplotlib.axis_8">
    <g id="ytick_16">
     <g id="line2d_41">
      <path d="M 123.4425 163.803636 
L 213.799167 163.803636 
" clip-path="url(#p54fe6f98da)" style="fill: none; stroke: #b0b0b0; stroke-width: 0.8; stroke-linecap: square"/>
     </g>
     <g id="line2d_42">
      <g>
       <use xlink:href="#m00c262fb35" x="123.4425" y="163.803636" style="stroke: #000000; stroke-width: 0.8"/>
      </g>
     </g>
     <g id="line2d_43">
      <defs>
       <path id="m97e1fd856a" d="M 0 0 
L 3.5 0 
" style="stroke: #000000; stroke-width: 0.8"/>
      </defs>
      <g>
       <use xlink:href="#m97e1fd856a" x="213.799167" y="163.803636" style="stroke: #000000; stroke-width: 0.8"/>
      </g>
     </g>
     <g id="text_41">
      <!-- 0 -->
      <g transform="translate(110.881562 167.390355)scale(0.1 -0.1)">
       <use xlink:href="#Helvetica-30"/>
      </g>
     </g>
    </g>
    <g id="ytick_17">
     <g id="line2d_44">
      <path d="M 123.4425 109.84 
L 213.799167 109.84 
" clip-path="url(#p54fe6f98da)" style="fill: none; stroke: #b0b0b0; stroke-width: 0.8; stroke-linecap: square"/>
     </g>
     <g id="line2d_45">
      <g>
       <use xlink:href="#m00c262fb35" x="123.4425" y="109.84" style="stroke: #000000; stroke-width: 0.8"/>
      </g>
     </g>
     <g id="line2d_46">
      <g>
       <use xlink:href="#m97e1fd856a" x="213.799167" y="109.84" style="stroke: #000000; stroke-width: 0.8"/>
      </g>
     </g>
     <g id="text_42">
      <!-- 2 -->
      <g transform="translate(110.881562 113.426719)scale(0.1 -0.1)">
       <use xlink:href="#Helvetica-32"/>
      </g>
     </g>
    </g>
    <g id="ytick_18">
     <g id="line2d_47">
      <path d="M 123.4425 150.312727 
L 213.799167 150.312727 
" clip-path="url(#p54fe6f98da)" style="fill: none; stroke: #b0b0b0; stroke-width: 0.8; stroke-linecap: square"/>
     </g>
     <g id="line2d_48">
      <defs>
       <path id="m4c66263711" d="M 0 0 
L -2 0 
" style="stroke: #000000; stroke-width: 0.6"/>
      </defs>
      <g>
       <use xlink:href="#m4c66263711" x="123.4425" y="150.312727" style="stroke: #000000; stroke-width: 0.6"/>
      </g>
     </g>
     <g id="line2d_49">
      <defs>
       <path id="m11cf079c4b" d="M 0 0 
L 2 0 
" style="stroke: #000000; stroke-width: 0.6"/>
      </defs>
      <g>
       <use xlink:href="#m11cf079c4b" x="213.799167" y="150.312727" style="stroke: #000000; stroke-width: 0.6"/>
      </g>
     </g>
    </g>
    <g id="ytick_19">
     <g id="line2d_50">
      <path d="M 123.4425 136.821818 
L 213.799167 136.821818 
" clip-path="url(#p54fe6f98da)" style="fill: none; stroke: #b0b0b0; stroke-width: 0.8; stroke-linecap: square"/>
     </g>
     <g id="line2d_51">
      <g>
       <use xlink:href="#m4c66263711" x="123.4425" y="136.821818" style="stroke: #000000; stroke-width: 0.6"/>
      </g>
     </g>
     <g id="line2d_52">
      <g>
       <use xlink:href="#m11cf079c4b" x="213.799167" y="136.821818" style="stroke: #000000; stroke-width: 0.6"/>
      </g>
     </g>
    </g>
    <g id="ytick_20">
     <g id="line2d_53">
      <path d="M 123.4425 123.330909 
L 213.799167 123.330909 
" clip-path="url(#p54fe6f98da)" style="fill: none; stroke: #b0b0b0; stroke-width: 0.8; stroke-linecap: square"/>
     </g>
     <g id="line2d_54">
      <g>
       <use xlink:href="#m4c66263711" x="123.4425" y="123.330909" style="stroke: #000000; stroke-width: 0.6"/>
      </g>
     </g>
     <g id="line2d_55">
      <g>
       <use xlink:href="#m11cf079c4b" x="213.799167" y="123.330909" style="stroke: #000000; stroke-width: 0.6"/>
      </g>
     </g>
    </g>
    <g id="text_43">
     <!-- 1e−10 -->
     <g transform="translate(123.4425 106.84)scale(0.1 -0.1)">
      <use xlink:href="#Helvetica-31"/>
      <use xlink:href="#Helvetica-65" x="55.615234"/>
      <use xlink:href="#Helvetica-2212" x="111.230469"/>
      <use xlink:href="#Helvetica-31" x="169.628906"/>
      <use xlink:href="#Helvetica-30" x="225.244141"/>
     </g>
    </g>
   </g>
   <g id="line2d_56">
    <path d="M 123.395161 140.468457 
L 123.480243 139.484506 
L 123.735445 142.766975 
L 123.905541 142.96669 
L 124.160629 141.654557 
L 124.245643 141.624491 
L 124.670599 138.432165 
L 124.755567 138.696912 
L 125.265217 143.939943 
L 125.350132 143.821254 
L 125.60483 143.219637 
L 125.774591 143.690232 
L 125.94432 145.148581 
L 126.029174 145.076827 
L 126.198858 144.226506 
L 126.368511 143.893493 
L 126.453326 144.249678 
L 126.622932 145.578895 
L 126.877285 144.777391 
L 126.962054 144.62973 
L 127.046814 144.833483 
L 127.301051 146.235625 
L 127.385781 146.399257 
L 127.470503 146.3357 
L 127.555218 146.402558 
L 127.639925 146.745181 
L 127.724624 146.631782 
L 127.809315 146.921042 
L 127.893999 146.763265 
L 128.063342 146.210176 
L 128.401937 147.577751 
L 128.486566 147.399718 
L 128.571187 147.629756 
L 128.655801 147.433562 
L 128.909595 147.684565 
L 129.078752 147.161812 
L 129.247878 147.259255 
L 129.332429 147.391441 
L 129.416972 147.954361 
L 129.501508 147.84206 
L 129.586035 147.830897 
L 129.839571 147.376108 
L 130.008556 147.839888 
L 130.346432 148.74148 
L 130.515322 148.654225 
L 130.599756 148.821827 
L 130.768599 148.533188 
L 130.937411 148.556406 
L 131.021805 148.403429 
L 131.19057 148.652964 
L 131.359303 148.697379 
L 131.94962 149.569375 
L 132.202494 149.853852 
L 132.286769 149.784145 
L 132.708027 150.292281 
L 132.792255 150.132178 
L 132.876475 150.19196 
L 133.129087 150.002155 
L 133.549947 150.936363 
L 133.718235 150.861404 
L 133.970607 150.865626 
L 134.727292 151.167863 
L 134.895355 151.340007 
L 134.979375 151.399447 
L 135.147391 151.286728 
L 135.231386 151.263323 
L 135.399353 151.355799 
L 135.735191 151.501772 
L 135.986984 151.825106 
L 136.154806 151.95567 
L 136.825769 152.390224 
L 136.993429 152.472571 
L 137.496213 152.391361 
L 137.747494 152.614282 
L 137.914975 152.709203 
L 138.082423 152.739014 
L 139.253641 153.064442 
L 139.420826 153.12239 
L 139.671543 153.235112 
L 139.838646 153.247247 
L 140.005717 153.180385 
L 140.423248 153.235997 
L 140.924013 153.063035 
L 141.341089 153.220941 
L 141.507861 153.31766 
L 141.6746 153.21141 
L 143.090536 153.553475 
L 143.506528 153.967696 
L 143.756022 154.065631 
L 144.254784 154.558397 
L 144.504051 154.804229 
L 145.251397 155.523172 
L 145.749247 155.974681 
L 146.909708 157.026146 
L 148.729907 157.685311 
L 149.473335 157.83744 
L 150.793256 157.959378 
L 152.028661 158.057762 
L 152.440027 158.06295 
L 153.097755 158.123175 
L 156.132408 158.255568 
L 156.705164 158.144122 
L 157.277483 158.024775 
L 158.257578 157.857943 
L 166.454771 157.626318 
L 167.100025 157.51318 
L 167.98627 157.29162 
L 170.076498 156.850216 
L 170.477731 156.766789 
L 170.878725 156.706729 
L 171.359605 156.63663 
L 172.000242 156.547785 
L 173.998274 156.376298 
L 175.114537 156.204918 
L 177.261948 155.721817 
L 178.768808 155.226868 
L 179.560463 154.941866 
L 181.298615 154.318551 
L 181.692977 154.168555 
L 182.008287 154.058975 
L 182.874563 153.846205 
L 183.975338 153.524986 
L 184.367993 153.409456 
L 187.031323 152.591209 
L 188.982121 151.920323 
L 190.304987 151.419561 
L 191.314569 150.907995 
L 192.941713 150.053922 
L 194.178341 149.490204 
L 194.949864 149.073034 
L 195.335229 148.889296 
L 195.566321 148.753471 
L 195.874296 148.631779 
L 199.097736 146.114414 
L 199.327259 145.904 
L 199.633139 145.676089 
L 200.015246 145.269102 
L 200.854931 144.372069 
L 201.083708 144.225401 
L 201.388594 143.899091 
L 201.997842 143.757224 
L 202.834422 143.329213 
L 203.366103 143.25878 
L 204.730817 142.486341 
L 205.033604 142.34364 
L 205.260578 142.163964 
L 205.638647 141.959945 
L 206.771197 141.248097 
L 208.803486 139.245396 
L 209.404082 138.392984 
L 211.575213 135.395696 
L 212.023227 134.642978 
L 212.247081 134.325385 
L 212.76901 133.432329 
L 213.811195 131.45264 
L 213.811195 131.45264 
" clip-path="url(#p54fe6f98da)" style="fill: none; stroke: #1f77b4; stroke-width: 1.5; stroke-linecap: square"/>
   </g>
   <g id="patch_23">
    <path d="M 123.4425 169.2 
L 123.4425 109.84 
" style="fill: none; stroke: #000000; stroke-width: 0.8; stroke-linejoin: miter; stroke-linecap: square"/>
   </g>
   <g id="patch_24">
    <path d="M 213.799167 169.2 
L 213.799167 109.84 
" style="fill: none; stroke: #000000; stroke-width: 0.8; stroke-linejoin: miter; stroke-linecap: square"/>
   </g>
   <g id="patch_25">
    <path d="M 123.4425 169.2 
L 213.799167 169.2 
" style="fill: none; stroke: #000000; stroke-width: 0.8; stroke-linejoin: miter; stroke-linecap: square"/>
   </g>
   <g id="patch_26">
    <path d="M 123.4425 109.84 
L 213.799167 109.84 
" style="fill: none; stroke: #000000; stroke-width: 0.8; stroke-linejoin: miter; stroke-linecap: square"/>
   </g>
  </g>
 </g>
 <defs>
  <clipPath id="p729a902192">
   <rect x="55.675" y="25.8" width="225.891667" height="148.4"/>
  </clipPath>
  <clipPath id="pbc1eeb42b7">
   <rect x="341.491667" y="25.8" width="225.891667" height="148.4"/>
  </clipPath>
  <clipPath id="p401e08e952">
   <rect x="627.308333" y="25.8" width="225.891667" height="148.4"/>
  </clipPath>
  <clipPath id="p54fe6f98da">
   <rect x="123.4425" y="109.84" width="90.356667" height="59.36"/>
  </clipPath>
 </defs>
</svg>
