<?xml version="1.0" encoding="utf-8" standalone="no"?>
<!DOCTYPE svg PUBLIC "-//W3C//DTD SVG 1.1//EN"
  "http://www.w3.org/Graphics/SVG/1.1/DTD/svg11.dtd">
<svg xmlns:xlink="http://www.w3.org/1999/xlink" width="864pt" height="252pt" viewBox="0 0 864 252" xmlns="http://www.w3.org/2000/svg" version="1.1">
 <metadata>
  <rdf:RDF xmlns:dc="http://purl.org/dc/elements/1.1/" xmlns:cc="http://creativecommons.org/ns#" xmlns:rdf="http://www.w3.org/1999/02/22-rdf-syntax-ns#">
   <cc:Work>
    <dc:type rdf:resource="http://purl.org/dc/dcmitype/StillImage"/>
    <dc:date>2022-09-29T11:09:20.814147</dc:date>
    <dc:format>image/svg+xml</dc:format>
    <dc:creator>
     <cc:Agent>
      <dc:title>Matplotlib v3.6.0rc2, https://matplotlib.org/</dc:title>
     </cc:Agent>
    </dc:creator>
   </cc:Work>
  </rdf:RDF>
 </metadata>
 <defs>
  <style type="text/css">*{stroke-linejoin: round; stroke-linecap: butt}</style>
 </defs>
 <g id="figure_1">
  <g id="patch_1">
   <path d="M 0 252 
L 864 252 
L 864 0 
L 0 0 
z
" style="fill: #ffffff"/>
  </g>
  <g id="axes_1">
   <g id="patch_2">
    <path d="M 70.65 197.028 
L 280.356 197.028 
L 280.356 33.792 
L 70.65 33.792 
z
" style="fill: #ffffff"/>
   </g>
   <g id="matplotlib.axis_1">
    <g id="xtick_1">
     <g id="line2d_1">
      <defs>
       <path id="md3593b2c48" d="M 0 0 
L 0 6 
" style="stroke: #000000; stroke-width: 1.25"/>
      </defs>
      <g>
       <use xlink:href="#md3593b2c48" x="89.714182" y="197.028" style="stroke: #000000; stroke-width: 1.25"/>
      </g>
     </g>
     <g id="text_1">
      <!-- 400 -->
      <g transform="translate(78.703526 215.996938) scale(0.132 -0.132)">
       <defs>
        <path id="Helvetica-34" d="M 2116 1584 
L 2116 3613 
L 681 1584 
L 2116 1584 
z
M 2125 0 
L 2125 1094 
L 163 1094 
L 163 1644 
L 2213 4488 
L 2688 4488 
L 2688 1584 
L 3347 1584 
L 3347 1094 
L 2688 1094 
L 2688 0 
L 2125 0 
z
" transform="scale(0.015625)"/>
        <path id="Helvetica-30" d="M 1731 4475 
Q 2600 4475 2988 3759 
Q 3288 3206 3288 2244 
Q 3288 1331 3016 734 
Q 2622 -122 1728 -122 
Q 922 -122 528 578 
Q 200 1163 200 2147 
Q 200 2909 397 3456 
Q 766 4475 1731 4475 
z
M 1725 391 
Q 2163 391 2422 778 
Q 2681 1166 2681 2222 
Q 2681 2984 2493 3476 
Q 2306 3969 1766 3969 
Q 1269 3969 1039 3501 
Q 809 3034 809 2125 
Q 809 1441 956 1025 
Q 1181 391 1725 391 
z
" transform="scale(0.015625)"/>
       </defs>
       <use xlink:href="#Helvetica-34"/>
       <use xlink:href="#Helvetica-30" x="55.615234"/>
       <use xlink:href="#Helvetica-30" x="111.230469"/>
      </g>
     </g>
    </g>
    <g id="xtick_2">
     <g id="line2d_2">
      <g>
       <use xlink:href="#md3593b2c48" x="137.374636" y="197.028" style="stroke: #000000; stroke-width: 1.25"/>
      </g>
     </g>
     <g id="text_2">
      <!-- 500 -->
      <g transform="translate(126.36398 215.996938) scale(0.132 -0.132)">
       <defs>
        <path id="Helvetica-35" d="M 791 1141 
Q 847 659 1238 475 
Q 1438 381 1700 381 
Q 2200 381 2440 700 
Q 2681 1019 2681 1406 
Q 2681 1875 2395 2131 
Q 2109 2388 1709 2388 
Q 1419 2388 1211 2275 
Q 1003 2163 856 1963 
L 369 1991 
L 709 4400 
L 3034 4400 
L 3034 3856 
L 1131 3856 
L 941 2613 
Q 1097 2731 1238 2791 
Q 1488 2894 1816 2894 
Q 2431 2894 2859 2497 
Q 3288 2100 3288 1491 
Q 3288 856 2895 371 
Q 2503 -113 1644 -113 
Q 1097 -113 676 195 
Q 256 503 206 1141 
L 791 1141 
z
" transform="scale(0.015625)"/>
       </defs>
       <use xlink:href="#Helvetica-35"/>
       <use xlink:href="#Helvetica-30" x="55.615234"/>
       <use xlink:href="#Helvetica-30" x="111.230469"/>
      </g>
     </g>
    </g>
    <g id="xtick_3">
     <g id="line2d_3">
      <g>
       <use xlink:href="#md3593b2c48" x="185.035091" y="197.028" style="stroke: #000000; stroke-width: 1.25"/>
      </g>
     </g>
     <g id="text_3">
      <!-- 600 -->
      <g transform="translate(174.024435 215.996938) scale(0.132 -0.132)">
       <defs>
        <path id="Helvetica-36" d="M 1872 4494 
Q 2622 4494 2917 4105 
Q 3213 3716 3213 3303 
L 2656 3303 
Q 2606 3569 2497 3719 
Q 2294 4000 1881 4000 
Q 1409 4000 1131 3564 
Q 853 3128 822 2316 
Q 1016 2600 1309 2741 
Q 1578 2866 1909 2866 
Q 2472 2866 2890 2506 
Q 3309 2147 3309 1434 
Q 3309 825 2912 354 
Q 2516 -116 1781 -116 
Q 1153 -116 697 361 
Q 241 838 241 1966 
Q 241 2800 444 3381 
Q 834 4494 1872 4494 
z
M 1831 384 
Q 2275 384 2495 682 
Q 2716 981 2716 1388 
Q 2716 1731 2519 2042 
Q 2322 2353 1803 2353 
Q 1441 2353 1167 2112 
Q 894 1872 894 1388 
Q 894 963 1142 673 
Q 1391 384 1831 384 
z
" transform="scale(0.015625)"/>
       </defs>
       <use xlink:href="#Helvetica-36"/>
       <use xlink:href="#Helvetica-30" x="55.615234"/>
       <use xlink:href="#Helvetica-30" x="111.230469"/>
      </g>
     </g>
    </g>
    <g id="xtick_4">
     <g id="line2d_4">
      <g>
       <use xlink:href="#md3593b2c48" x="232.695545" y="197.028" style="stroke: #000000; stroke-width: 1.25"/>
      </g>
     </g>
     <g id="text_4">
      <!-- 700 -->
      <g transform="translate(221.684889 215.996938) scale(0.132 -0.132)">
       <defs>
        <path id="Helvetica-37" d="M 3347 4400 
L 3347 3909 
Q 3131 3700 2773 3181 
Q 2416 2663 2141 2063 
Q 1869 1478 1728 997 
Q 1638 688 1494 0 
L 872 0 
Q 1084 1281 1809 2550 
Q 2238 3294 2709 3834 
L 234 3834 
L 234 4400 
L 3347 4400 
z
" transform="scale(0.015625)"/>
       </defs>
       <use xlink:href="#Helvetica-37"/>
       <use xlink:href="#Helvetica-30" x="55.615234"/>
       <use xlink:href="#Helvetica-30" x="111.230469"/>
      </g>
     </g>
    </g>
    <g id="xtick_5">
     <g id="line2d_5">
      <g>
       <use xlink:href="#md3593b2c48" x="280.356" y="197.028" style="stroke: #000000; stroke-width: 1.25"/>
      </g>
     </g>
     <g id="text_5">
      <!-- 800 -->
      <g transform="translate(269.345344 215.996938) scale(0.132 -0.132)">
       <defs>
        <path id="Helvetica-38" d="M 1741 2600 
Q 2113 2600 2322 2808 
Q 2531 3016 2531 3303 
Q 2531 3553 2331 3762 
Q 2131 3972 1722 3972 
Q 1316 3972 1134 3762 
Q 953 3553 953 3272 
Q 953 2956 1187 2778 
Q 1422 2600 1741 2600 
z
M 1775 384 
Q 2166 384 2423 595 
Q 2681 806 2681 1225 
Q 2681 1659 2415 1884 
Q 2150 2109 1734 2109 
Q 1331 2109 1076 1879 
Q 822 1650 822 1244 
Q 822 894 1055 639 
Q 1288 384 1775 384 
z
M 975 2384 
Q 741 2484 609 2619 
Q 363 2869 363 3269 
Q 363 3769 725 4128 
Q 1088 4488 1753 4488 
Q 2397 4488 2762 4148 
Q 3128 3809 3128 3356 
Q 3128 2938 2916 2678 
Q 2797 2531 2547 2391 
Q 2825 2263 2984 2097 
Q 3281 1784 3281 1284 
Q 3281 694 2884 283 
Q 2488 -128 1763 -128 
Q 1109 -128 657 226 
Q 206 581 206 1256 
Q 206 1653 400 1942 
Q 594 2231 975 2384 
z
" transform="scale(0.015625)"/>
       </defs>
       <use xlink:href="#Helvetica-38"/>
       <use xlink:href="#Helvetica-30" x="55.615234"/>
       <use xlink:href="#Helvetica-30" x="111.230469"/>
      </g>
     </g>
    </g>
    <g id="text_6">
     <!-- Wavelength (nm) -->
     <g transform="translate(120.687375 233.246812) scale(0.144 -0.144)">
      <defs>
       <path id="Helvetica-57" d="M 791 4591 
L 1656 856 
L 2694 4591 
L 3369 4591 
L 4406 856 
L 5272 4591 
L 5953 4591 
L 4747 0 
L 4094 0 
L 3034 3806 
L 1969 0 
L 1316 0 
L 116 4591 
L 791 4591 
z
" transform="scale(0.015625)"/>
       <path id="Helvetica-61" d="M 844 891 
Q 844 647 1022 506 
Q 1200 366 1444 366 
Q 1741 366 2019 503 
Q 2488 731 2488 1250 
L 2488 1703 
Q 2384 1638 2221 1594 
Q 2059 1550 1903 1531 
L 1563 1488 
Q 1256 1447 1103 1359 
Q 844 1213 844 891 
z
M 2206 2028 
Q 2400 2053 2466 2191 
Q 2503 2266 2503 2406 
Q 2503 2694 2298 2823 
Q 2094 2953 1713 2953 
Q 1272 2953 1088 2716 
Q 984 2584 953 2325 
L 428 2325 
Q 444 2944 830 3186 
Q 1216 3428 1725 3428 
Q 2316 3428 2684 3203 
Q 3050 2978 3050 2503 
L 3050 575 
Q 3050 488 3086 434 
Q 3122 381 3238 381 
Q 3275 381 3322 386 
Q 3369 391 3422 400 
L 3422 -16 
Q 3291 -53 3222 -62 
Q 3153 -72 3034 -72 
Q 2744 -72 2613 134 
Q 2544 244 2516 444 
Q 2344 219 2022 53 
Q 1700 -113 1313 -113 
Q 847 -113 551 170 
Q 256 453 256 878 
Q 256 1344 547 1600 
Q 838 1856 1309 1916 
L 2206 2028 
z
M 1741 3428 
L 1741 3428 
z
" transform="scale(0.015625)"/>
       <path id="Helvetica-76" d="M 688 3347 
L 1581 622 
L 2516 3347 
L 3131 3347 
L 1869 0 
L 1269 0 
L 34 3347 
L 688 3347 
z
" transform="scale(0.015625)"/>
       <path id="Helvetica-65" d="M 1806 3422 
Q 2163 3422 2497 3255 
Q 2831 3088 3006 2822 
Q 3175 2569 3231 2231 
Q 3281 2000 3281 1494 
L 828 1494 
Q 844 984 1069 676 
Q 1294 369 1766 369 
Q 2206 369 2469 659 
Q 2619 828 2681 1050 
L 3234 1050 
Q 3213 866 3089 639 
Q 2966 413 2813 269 
Q 2556 19 2178 -69 
Q 1975 -119 1719 -119 
Q 1094 -119 659 336 
Q 225 791 225 1609 
Q 225 2416 662 2919 
Q 1100 3422 1806 3422 
z
M 2703 1941 
Q 2669 2306 2544 2525 
Q 2313 2931 1772 2931 
Q 1384 2931 1121 2651 
Q 859 2372 844 1941 
L 2703 1941 
z
M 1753 3428 
L 1753 3428 
z
" transform="scale(0.015625)"/>
       <path id="Helvetica-6c" d="M 428 4591 
L 991 4591 
L 991 0 
L 428 0 
L 428 4591 
z
" transform="scale(0.015625)"/>
       <path id="Helvetica-6e" d="M 413 3347 
L 947 3347 
L 947 2872 
Q 1184 3166 1450 3294 
Q 1716 3422 2041 3422 
Q 2753 3422 3003 2925 
Q 3141 2653 3141 2147 
L 3141 0 
L 2569 0 
L 2569 2109 
Q 2569 2416 2478 2603 
Q 2328 2916 1934 2916 
Q 1734 2916 1606 2875 
Q 1375 2806 1200 2600 
Q 1059 2434 1017 2257 
Q 975 2081 975 1753 
L 975 0 
L 413 0 
L 413 3347 
z
M 1734 3428 
L 1734 3428 
z
" transform="scale(0.015625)"/>
       <path id="Helvetica-67" d="M 1594 3406 
Q 1988 3406 2281 3213 
Q 2441 3103 2606 2894 
L 2606 3316 
L 3125 3316 
L 3125 272 
Q 3125 -366 2938 -734 
Q 2588 -1416 1616 -1416 
Q 1075 -1416 706 -1173 
Q 338 -931 294 -416 
L 866 -416 
Q 906 -641 1028 -763 
Q 1219 -950 1628 -950 
Q 2275 -950 2475 -494 
Q 2594 -225 2584 466 
Q 2416 209 2178 84 
Q 1941 -41 1550 -41 
Q 1006 -41 598 345 
Q 191 731 191 1622 
Q 191 2463 602 2934 
Q 1013 3406 1594 3406 
z
M 2606 1688 
Q 2606 2309 2350 2609 
Q 2094 2909 1697 2909 
Q 1103 2909 884 2353 
Q 769 2056 769 1575 
Q 769 1009 998 714 
Q 1228 419 1616 419 
Q 2222 419 2469 966 
Q 2606 1275 2606 1688 
z
M 1659 3428 
L 1659 3428 
z
" transform="scale(0.015625)"/>
       <path id="Helvetica-74" d="M 525 4281 
L 1094 4281 
L 1094 3347 
L 1628 3347 
L 1628 2888 
L 1094 2888 
L 1094 703 
Q 1094 528 1213 469 
Q 1278 434 1431 434 
Q 1472 434 1519 436 
Q 1566 438 1628 444 
L 1628 0 
Q 1531 -28 1426 -40 
Q 1322 -53 1200 -53 
Q 806 -53 665 148 
Q 525 350 525 672 
L 525 2888 
L 72 2888 
L 72 3347 
L 525 3347 
L 525 4281 
z
" transform="scale(0.015625)"/>
       <path id="Helvetica-68" d="M 413 4606 
L 975 4606 
L 975 2894 
Q 1175 3147 1334 3250 
Q 1606 3428 2013 3428 
Q 2741 3428 3000 2919 
Q 3141 2641 3141 2147 
L 3141 0 
L 2563 0 
L 2563 2109 
Q 2563 2478 2469 2650 
Q 2316 2925 1894 2925 
Q 1544 2925 1259 2684 
Q 975 2444 975 1775 
L 975 0 
L 413 0 
L 413 4606 
z
" transform="scale(0.015625)"/>
       <path id="Helvetica-20" transform="scale(0.015625)"/>
       <path id="Helvetica-28" d="M 1894 4666 
Q 1403 3713 1256 3263 
Q 1034 2578 1034 1681 
Q 1034 775 1288 25 
Q 1444 -438 1903 -1306 
L 1525 -1306 
Q 1069 -594 959 -397 
Q 850 -200 722 138 
Q 547 600 478 1125 
Q 444 1397 444 1644 
Q 444 2569 734 3291 
Q 919 3750 1503 4666 
L 1894 4666 
z
" transform="scale(0.015625)"/>
       <path id="Helvetica-6d" d="M 413 3347 
L 969 3347 
L 969 2872 
Q 1169 3119 1331 3231 
Q 1609 3422 1963 3422 
Q 2363 3422 2606 3225 
Q 2744 3113 2856 2894 
Q 3044 3163 3297 3292 
Q 3550 3422 3866 3422 
Q 4541 3422 4784 2934 
Q 4916 2672 4916 2228 
L 4916 0 
L 4331 0 
L 4331 2325 
Q 4331 2659 4164 2784 
Q 3997 2909 3756 2909 
Q 3425 2909 3186 2687 
Q 2947 2466 2947 1947 
L 2947 0 
L 2375 0 
L 2375 2184 
Q 2375 2525 2294 2681 
Q 2166 2916 1816 2916 
Q 1497 2916 1236 2669 
Q 975 2422 975 1775 
L 975 0 
L 413 0 
L 413 3347 
z
" transform="scale(0.015625)"/>
       <path id="Helvetica-29" d="M 222 -1306 
Q 719 -338 863 106 
Q 1081 778 1081 1681 
Q 1081 2584 828 3334 
Q 672 3797 213 4666 
L 591 4666 
Q 1072 3897 1173 3717 
Q 1275 3538 1394 3222 
Q 1544 2831 1608 2450 
Q 1672 2069 1672 1716 
Q 1672 791 1378 66 
Q 1194 -400 613 -1306 
L 222 -1306 
z
" transform="scale(0.015625)"/>
      </defs>
      <use xlink:href="#Helvetica-57"/>
      <use xlink:href="#Helvetica-61" x="94.384766"/>
      <use xlink:href="#Helvetica-76" x="150"/>
      <use xlink:href="#Helvetica-65" x="200"/>
      <use xlink:href="#Helvetica-6c" x="255.615234"/>
      <use xlink:href="#Helvetica-65" x="277.832031"/>
      <use xlink:href="#Helvetica-6e" x="333.447266"/>
      <use xlink:href="#Helvetica-67" x="389.0625"/>
      <use xlink:href="#Helvetica-74" x="444.677734"/>
      <use xlink:href="#Helvetica-68" x="472.460938"/>
      <use xlink:href="#Helvetica-20" x="528.076172"/>
      <use xlink:href="#Helvetica-28" x="555.859375"/>
      <use xlink:href="#Helvetica-6e" x="589.160156"/>
      <use xlink:href="#Helvetica-6d" x="644.775391"/>
      <use xlink:href="#Helvetica-29" x="728.076172"/>
     </g>
    </g>
   </g>
   <g id="matplotlib.axis_2">
    <g id="ytick_1">
     <g id="line2d_6">
      <defs>
       <path id="m7057712d17" d="M 0 0 
L -6 0 
" style="stroke: #000000; stroke-width: 1.25"/>
      </defs>
      <g>
       <use xlink:href="#m7057712d17" x="70.65" y="189.444934" style="stroke: #000000; stroke-width: 1.25"/>
      </g>
     </g>
     <g id="text_7">
      <!-- 0.0 -->
      <g transform="translate(42.802 194.179403) scale(0.132 -0.132)">
       <defs>
        <path id="Helvetica-2e" d="M 547 681 
L 1200 681 
L 1200 0 
L 547 0 
L 547 681 
z
" transform="scale(0.015625)"/>
       </defs>
       <use xlink:href="#Helvetica-30"/>
       <use xlink:href="#Helvetica-2e" x="55.615234"/>
       <use xlink:href="#Helvetica-30" x="83.398438"/>
      </g>
     </g>
    </g>
    <g id="ytick_2">
     <g id="line2d_7">
      <g>
       <use xlink:href="#m7057712d17" x="70.65" y="138.977086" style="stroke: #000000; stroke-width: 1.25"/>
      </g>
     </g>
     <g id="text_8">
      <!-- 0.5 -->
      <g transform="translate(42.802 143.711555) scale(0.132 -0.132)">
       <use xlink:href="#Helvetica-30"/>
       <use xlink:href="#Helvetica-2e" x="55.615234"/>
       <use xlink:href="#Helvetica-35" x="83.398438"/>
      </g>
     </g>
    </g>
    <g id="ytick_3">
     <g id="line2d_8">
      <g>
       <use xlink:href="#m7057712d17" x="70.65" y="88.509238" style="stroke: #000000; stroke-width: 1.25"/>
      </g>
     </g>
     <g id="text_9">
      <!-- 1.0 -->
      <g transform="translate(42.802 93.243707) scale(0.132 -0.132)">
       <defs>
        <path id="Helvetica-31" d="M 613 3169 
L 613 3600 
Q 1222 3659 1462 3798 
Q 1703 3938 1822 4456 
L 2266 4456 
L 2266 0 
L 1666 0 
L 1666 3169 
L 613 3169 
z
" transform="scale(0.015625)"/>
       </defs>
       <use xlink:href="#Helvetica-31"/>
       <use xlink:href="#Helvetica-2e" x="55.615234"/>
       <use xlink:href="#Helvetica-30" x="83.398438"/>
      </g>
     </g>
    </g>
    <g id="ytick_4">
     <g id="line2d_9">
      <g>
       <use xlink:href="#m7057712d17" x="70.65" y="38.04139" style="stroke: #000000; stroke-width: 1.25"/>
      </g>
     </g>
     <g id="text_10">
      <!-- 1.5 -->
      <g transform="translate(42.802 42.775859) scale(0.132 -0.132)">
       <use xlink:href="#Helvetica-31"/>
       <use xlink:href="#Helvetica-2e" x="55.615234"/>
       <use xlink:href="#Helvetica-35" x="83.398438"/>
      </g>
     </g>
    </g>
    <g id="text_11">
     <!-- W/m$^2$/nm -->
     <g transform="translate(35.8005 145.722) rotate(-90) scale(0.144 -0.144)">
      <defs>
       <path id="Helvetica-2f" d="M 1456 4591 
L 1931 4591 
L 475 0 
L 0 0 
L 1456 4591 
z
" transform="scale(0.015625)"/>
       <path id="DejaVuSans-32" d="M 1228 531 
L 3431 531 
L 3431 0 
L 469 0 
L 469 531 
Q 828 903 1448 1529 
Q 2069 2156 2228 2338 
Q 2531 2678 2651 2914 
Q 2772 3150 2772 3378 
Q 2772 3750 2511 3984 
Q 2250 4219 1831 4219 
Q 1534 4219 1204 4116 
Q 875 4013 500 3803 
L 500 4441 
Q 881 4594 1212 4672 
Q 1544 4750 1819 4750 
Q 2544 4750 2975 4387 
Q 3406 4025 3406 3419 
Q 3406 3131 3298 2873 
Q 3191 2616 2906 2266 
Q 2828 2175 2409 1742 
Q 1991 1309 1228 531 
z
" transform="scale(0.015625)"/>
      </defs>
      <use xlink:href="#Helvetica-57" transform="translate(0 0.765625)"/>
      <use xlink:href="#Helvetica-2f" transform="translate(94.384766 0.765625)"/>
      <use xlink:href="#Helvetica-6d" transform="translate(122.167969 0.765625)"/>
      <use xlink:href="#DejaVuSans-32" transform="translate(206.425781 39.046875) scale(0.7)"/>
      <use xlink:href="#Helvetica-2f" transform="translate(253.696289 0.765625)"/>
      <use xlink:href="#Helvetica-6e" transform="translate(281.479492 0.765625)"/>
      <use xlink:href="#Helvetica-6d" transform="translate(337.094727 0.765625)"/>
     </g>
    </g>
    <g id="text_12">
     <!-- 1e6 -->
     <g transform="translate(70.65 30.792) scale(0.132 -0.132)">
      <use xlink:href="#Helvetica-31"/>
      <use xlink:href="#Helvetica-65" x="55.615234"/>
      <use xlink:href="#Helvetica-36" x="111.230469"/>
     </g>
    </g>
   </g>
   <g id="line2d_10">
    <path d="M 80.182091 189.420677 
L 80.658695 189.306947 
L 81.1353 187.025927 
L 81.611905 189.416938 
L 82.088509 188.742824 
L 82.565114 189.40243 
L 83.041718 189.400469 
L 83.518323 188.906843 
L 83.994927 189.130891 
L 84.471532 188.997599 
L 84.948136 189.133061 
L 85.424741 189.408347 
L 85.901345 189.479077 
L 86.37795 189.030942 
L 86.854555 189.608182 
L 87.331159 189.328597 
L 87.807764 189.394792 
L 88.284368 189.267287 
L 88.760973 189.374458 
L 90.667391 188.848304 
L 91.143995 188.965381 
L 92.097205 188.806984 
L 92.573809 188.11162 
L 94.003623 187.899845 
L 94.480227 186.453559 
L 94.956832 186.617679 
L 95.433436 185.932427 
L 95.910041 185.456699 
L 97.339855 181.752384 
L 98.769668 175.206712 
L 99.722877 168.784699 
L 102.582505 143.214893 
L 103.059109 142.416394 
L 103.535714 140.256326 
L 104.012318 141.163525 
L 104.965527 143.510869 
L 105.442132 147.494893 
L 105.918736 150.213568 
L 106.395341 151.718335 
L 106.871945 152.508545 
L 107.34855 153.803959 
L 108.301759 152.131433 
L 108.778364 151.002017 
L 109.254968 148.78445 
L 111.637991 134.307017 
L 112.114595 133.168105 
L 113.067805 128.978519 
L 113.544409 130.267244 
L 114.021014 129.085869 
L 114.497618 130.913875 
L 114.974223 135.444909 
L 115.450827 136.64516 
L 116.404036 141.023739 
L 116.880641 142.221405 
L 117.357245 143.823917 
L 117.83385 142.797743 
L 118.310455 142.945707 
L 118.787059 141.760273 
L 119.263664 141.70864 
L 119.740268 140.710237 
L 120.216873 139.440076 
L 120.693477 138.60051 
L 121.170082 138.075659 
L 122.123291 138.855289 
L 122.599895 137.726344 
L 123.0765 138.535598 
L 123.553105 138.702494 
L 124.029709 138.662973 
L 124.506314 138.735894 
L 124.982918 139.979187 
L 125.459523 139.979764 
L 125.936127 139.559038 
L 126.412732 140.42004 
L 126.889336 139.423225 
L 127.365941 140.049191 
L 127.842545 140.433628 
L 128.31915 139.756868 
L 128.795755 139.785983 
L 129.272359 138.592119 
L 129.748964 139.664814 
L 130.702173 137.158405 
L 131.178777 135.874199 
L 131.655382 135.548831 
L 132.131986 134.243014 
L 132.608591 131.831587 
L 133.085195 130.276284 
L 133.5618 126.697943 
L 134.038405 124.393408 
L 134.515009 120.766092 
L 134.991614 118.339701 
L 135.944823 110.48296 
L 136.898032 103.552365 
L 137.851241 96.14592 
L 138.327845 93.919715 
L 138.80445 88.218729 
L 140.234264 80.18803 
L 140.710868 75.621038 
L 141.187473 72.666766 
L 142.140682 68.630727 
L 142.617286 65.219564 
L 143.093891 62.771449 
L 143.570495 62.435804 
L 144.0471 61.092607 
L 144.523705 60.101586 
L 145.000309 58.827422 
L 145.953518 57.770727 
L 146.430123 58.853312 
L 147.383332 62.23535 
L 147.859936 63.006969 
L 148.813145 69.059546 
L 149.28975 70.206239 
L 151.672773 87.707001 
L 152.625982 93.884089 
L 153.102586 95.516403 
L 154.055795 100.172542 
L 155.485609 105.525377 
L 155.962214 106.867666 
L 156.915423 108.514734 
L 157.392027 110.070975 
L 157.868632 110.227224 
L 158.345236 110.711208 
L 158.821841 110.732844 
L 159.298445 110.901857 
L 159.77505 111.691953 
L 160.251655 111.810909 
L 160.728259 111.321675 
L 161.681468 110.710075 
L 162.158073 110.084382 
L 162.634677 108.744672 
L 163.111282 108.334841 
L 163.587886 107.457225 
L 164.064491 106.150047 
L 164.541095 105.34705 
L 165.0177 103.684455 
L 165.494305 102.612209 
L 165.970909 100.88355 
L 166.924118 98.515038 
L 167.400723 95.731775 
L 167.877327 95.13475 
L 168.353932 93.139843 
L 168.830536 92.654647 
L 169.307141 91.70614 
L 169.783745 90.000215 
L 170.26035 87.272648 
L 170.736955 87.376803 
L 171.213559 87.005442 
L 171.690164 86.305823 
L 172.166768 84.761683 
L 172.643373 84.686843 
L 173.119977 84.202282 
L 174.073186 84.171399 
L 174.549791 83.72747 
L 175.503 82.532706 
L 175.979605 82.551533 
L 176.456209 82.899003 
L 176.932814 82.950898 
L 177.409418 83.350525 
L 177.886023 82.714739 
L 178.362627 83.88492 
L 178.839232 83.649472 
L 179.315836 82.464637 
L 179.792441 84.280635 
L 180.74565 84.945873 
L 181.222255 86.063503 
L 181.698859 86.247984 
L 182.175464 85.3962 
L 182.652068 86.684371 
L 183.128673 87.188949 
L 183.605277 87.881966 
L 184.081882 84.728108 
L 184.558486 87.681111 
L 185.035091 88.794831 
L 185.511695 88.744825 
L 185.9883 88.970921 
L 186.941509 90.706716 
L 187.418114 90.548718 
L 187.894718 91.394199 
L 188.371323 91.236796 
L 189.324532 92.59818 
L 189.801136 91.292529 
L 190.277741 92.444705 
L 191.23095 92.57759 
L 192.184159 92.179277 
L 192.660764 91.710717 
L 193.137368 91.430577 
L 193.613973 90.803451 
L 194.090577 89.576693 
L 194.567182 87.955783 
L 195.043786 87.072144 
L 195.520391 84.75513 
L 195.996995 83.88685 
L 197.426809 76.146583 
L 198.380018 69.775323 
L 199.809832 57.928977 
L 200.286436 52.62301 
L 201.71625 42.854474 
L 202.192855 41.211818 
L 203.146064 47.807169 
L 203.622668 54.245145 
L 205.529086 88.803953 
L 206.482295 101.324502 
L 206.9589 104.373451 
L 207.435505 106.34677 
L 207.912109 108.957468 
L 208.388714 109.438842 
L 208.865318 110.607392 
L 209.341923 110.350496 
L 209.818527 109.157066 
L 210.295132 108.655803 
L 211.248341 104.573323 
L 211.724945 103.401042 
L 212.20155 101.617939 
L 212.678155 101.28714 
L 213.154759 101.668057 
L 214.107968 105.521948 
L 215.061177 118.844766 
L 216.967595 146.935113 
L 217.920805 156.396341 
L 218.874014 163.045403 
L 219.827223 167.579812 
L 220.303827 168.32588 
L 220.780432 171.108165 
L 221.257036 172.160575 
L 221.733641 173.665631 
L 222.210245 174.786471 
L 223.163455 176.039754 
L 223.640059 177.582552 
L 224.116664 177.838794 
L 224.593268 178.749764 
L 225.546477 179.854553 
L 226.499686 180.87697 
L 226.976291 180.860481 
L 227.452895 181.527873 
L 227.9295 181.599741 
L 228.882709 182.363647 
L 229.359314 182.471218 
L 229.835918 182.985442 
L 230.312523 182.989823 
L 230.789127 183.482522 
L 231.265732 183.713563 
L 231.742336 184.119057 
L 232.218941 184.270607 
L 232.695545 183.286838 
L 233.17215 184.589593 
L 233.648755 184.063923 
L 234.601964 185.196264 
L 235.078568 185.301285 
L 235.555173 185.545746 
L 236.508382 185.515152 
L 236.984986 185.674307 
L 237.461591 186.127883 
L 237.938195 186.182499 
L 238.4148 186.416482 
L 238.891405 186.411712 
L 239.368009 186.629136 
L 239.844614 186.552915 
L 240.321218 186.881015 
L 240.797823 186.921475 
L 241.274427 187.123769 
L 241.751032 185.325892 
L 242.227636 187.188654 
L 242.704241 187.589336 
L 243.180845 187.226366 
L 243.65745 187.660842 
L 244.134055 187.645837 
L 244.610659 187.412839 
L 245.087264 187.724342 
L 245.563868 187.838243 
L 246.517077 187.764425 
L 246.993682 188.149268 
L 247.470286 187.876743 
L 247.946891 187.052925 
L 248.423495 188.132111 
L 249.376705 188.437534 
L 250.329914 188.093627 
L 250.806518 187.734247 
L 251.759727 188.678727 
L 252.712936 188.536974 
L 253.666145 188.561307 
L 254.14275 188.913628 
L 254.619355 188.775043 
L 255.095959 188.435344 
L 255.572564 188.722514 
L 256.049168 188.456998 
L 257.478982 188.829182 
L 258.908795 188.866835 
L 259.3854 189.133364 
L 259.862005 189.174019 
L 261.291818 188.90381 
L 261.768423 188.559371 
L 262.245027 188.910874 
L 263.198236 188.871481 
L 263.674841 188.516602 
L 264.151445 189.113995 
L 264.62805 189.372756 
L 265.104655 189.067251 
L 265.581259 189.204376 
L 266.057864 189.055205 
L 266.534468 189.273497 
L 267.011073 189.231017 
L 267.487677 189.48657 
L 268.440886 189.214431 
L 268.917491 188.789469 
L 269.394095 189.120821 
L 269.8707 189.174614 
L 270.347305 188.693789 
L 270.823909 189.42029 
L 270.823909 189.42029 
" clip-path="url(#pc753d1db1b)" style="fill: none; stroke: #1f77b4; stroke-width: 1.5; stroke-linecap: square"/>
   </g>
   <g id="patch_3">
    <path d="M 70.65 197.028 
L 70.65 33.792 
" style="fill: none; stroke: #000000; stroke-width: 1.25; stroke-linejoin: miter; stroke-linecap: square"/>
   </g>
   <g id="patch_4">
    <path d="M 280.356 197.028 
L 280.356 33.792 
" style="fill: none; stroke: #000000; stroke-width: 1.25; stroke-linejoin: miter; stroke-linecap: square"/>
   </g>
   <g id="patch_5">
    <path d="M 70.65 197.028 
L 280.356 197.028 
" style="fill: none; stroke: #000000; stroke-width: 1.25; stroke-linejoin: miter; stroke-linecap: square"/>
   </g>
   <g id="patch_6">
    <path d="M 70.65 33.792 
L 280.356 33.792 
" style="fill: none; stroke: #000000; stroke-width: 1.25; stroke-linejoin: miter; stroke-linecap: square"/>
   </g>
   <g id="text_13">
    <!-- Measured spectrum -->
    <g transform="translate(111.882 27.792) scale(0.144 -0.144)">
     <defs>
      <path id="Helvetica-4d" d="M 472 4591 
L 1363 4591 
L 2681 709 
L 3991 4591 
L 4872 4591 
L 4872 0 
L 4281 0 
L 4281 2709 
Q 4281 2850 4287 3175 
Q 4294 3500 4294 3872 
L 2984 0 
L 2369 0 
L 1050 3872 
L 1050 3731 
Q 1050 3563 1058 3217 
Q 1066 2872 1066 2709 
L 1066 0 
L 472 0 
L 472 4591 
z
" transform="scale(0.015625)"/>
      <path id="Helvetica-73" d="M 747 1050 
Q 772 769 888 619 
Q 1100 347 1625 347 
Q 1938 347 2175 483 
Q 2413 619 2413 903 
Q 2413 1119 2222 1231 
Q 2100 1300 1741 1391 
L 1294 1503 
Q 866 1609 663 1741 
Q 300 1969 300 2372 
Q 300 2847 642 3140 
Q 984 3434 1563 3434 
Q 2319 3434 2653 2991 
Q 2863 2709 2856 2384 
L 2325 2384 
Q 2309 2575 2191 2731 
Q 1997 2953 1519 2953 
Q 1200 2953 1036 2831 
Q 872 2709 872 2509 
Q 872 2291 1088 2159 
Q 1213 2081 1456 2022 
L 1828 1931 
Q 2434 1784 2641 1647 
Q 2969 1431 2969 969 
Q 2969 522 2630 197 
Q 2291 -128 1597 -128 
Q 850 -128 539 211 
Q 228 550 206 1050 
L 747 1050 
z
M 1578 3428 
L 1578 3428 
z
" transform="scale(0.015625)"/>
      <path id="Helvetica-75" d="M 975 3347 
L 975 1125 
Q 975 869 1056 706 
Q 1206 406 1616 406 
Q 2203 406 2416 931 
Q 2531 1213 2531 1703 
L 2531 3347 
L 3094 3347 
L 3094 0 
L 2563 0 
L 2569 494 
Q 2459 303 2297 172 
Q 1975 -91 1516 -91 
Q 800 -91 541 388 
Q 400 644 400 1072 
L 400 3347 
L 975 3347 
z
M 1747 3428 
L 1747 3428 
z
" transform="scale(0.015625)"/>
      <path id="Helvetica-72" d="M 428 3347 
L 963 3347 
L 963 2769 
Q 1028 2938 1284 3180 
Q 1541 3422 1875 3422 
Q 1891 3422 1928 3419 
Q 1966 3416 2056 3406 
L 2056 2813 
Q 2006 2822 1964 2825 
Q 1922 2828 1872 2828 
Q 1447 2828 1219 2554 
Q 991 2281 991 1925 
L 991 0 
L 428 0 
L 428 3347 
z
" transform="scale(0.015625)"/>
      <path id="Helvetica-64" d="M 769 1634 
Q 769 1097 997 734 
Q 1225 372 1728 372 
Q 2119 372 2370 708 
Q 2622 1044 2622 1672 
Q 2622 2306 2362 2611 
Q 2103 2916 1722 2916 
Q 1297 2916 1033 2591 
Q 769 2266 769 1634 
z
M 1616 3406 
Q 2000 3406 2259 3244 
Q 2409 3150 2600 2916 
L 2600 4606 
L 3141 4606 
L 3141 0 
L 2634 0 
L 2634 466 
Q 2438 156 2169 18 
Q 1900 -119 1553 -119 
Q 994 -119 584 351 
Q 175 822 175 1603 
Q 175 2334 548 2870 
Q 922 3406 1616 3406 
z
" transform="scale(0.015625)"/>
      <path id="Helvetica-70" d="M 1825 378 
Q 2219 378 2480 708 
Q 2741 1038 2741 1694 
Q 2741 2094 2625 2381 
Q 2406 2934 1825 2934 
Q 1241 2934 1025 2350 
Q 909 2038 909 1556 
Q 909 1169 1025 897 
Q 1244 378 1825 378 
z
M 369 3331 
L 916 3331 
L 916 2888 
Q 1084 3116 1284 3241 
Q 1569 3428 1953 3428 
Q 2522 3428 2919 2992 
Q 3316 2556 3316 1747 
Q 3316 653 2744 184 
Q 2381 -113 1900 -113 
Q 1522 -113 1266 53 
Q 1116 147 931 375 
L 931 -1334 
L 369 -1334 
L 369 3331 
z
" transform="scale(0.015625)"/>
      <path id="Helvetica-63" d="M 1703 3444 
Q 2269 3444 2623 3169 
Q 2978 2894 3050 2222 
L 2503 2222 
Q 2453 2531 2275 2736 
Q 2097 2941 1703 2941 
Q 1166 2941 934 2416 
Q 784 2075 784 1575 
Q 784 1072 996 728 
Q 1209 384 1666 384 
Q 2016 384 2220 598 
Q 2425 813 2503 1184 
L 3050 1184 
Q 2956 519 2581 211 
Q 2206 -97 1622 -97 
Q 966 -97 575 383 
Q 184 863 184 1581 
Q 184 2463 612 2953 
Q 1041 3444 1703 3444 
z
M 1616 3428 
L 1616 3428 
z
" transform="scale(0.015625)"/>
     </defs>
     <use xlink:href="#Helvetica-4d"/>
     <use xlink:href="#Helvetica-65" x="83.300781"/>
     <use xlink:href="#Helvetica-61" x="138.916016"/>
     <use xlink:href="#Helvetica-73" x="194.53125"/>
     <use xlink:href="#Helvetica-75" x="244.53125"/>
     <use xlink:href="#Helvetica-72" x="300.146484"/>
     <use xlink:href="#Helvetica-65" x="333.447266"/>
     <use xlink:href="#Helvetica-64" x="389.0625"/>
     <use xlink:href="#Helvetica-20" x="444.677734"/>
     <use xlink:href="#Helvetica-73" x="472.460938"/>
     <use xlink:href="#Helvetica-70" x="522.460938"/>
     <use xlink:href="#Helvetica-65" x="578.076172"/>
     <use xlink:href="#Helvetica-63" x="633.691406"/>
     <use xlink:href="#Helvetica-74" x="683.691406"/>
     <use xlink:href="#Helvetica-72" x="711.474609"/>
     <use xlink:href="#Helvetica-75" x="744.775391"/>
     <use xlink:href="#Helvetica-6d" x="800.390625"/>
    </g>
   </g>
  </g>
  <g id="axes_2">
   <g id="patch_7">
    <path d="M 354.696 197.028 
L 564.402 197.028 
L 564.402 33.792 
L 354.696 33.792 
z
" style="fill: #ffffff"/>
   </g>
   <g id="matplotlib.axis_3">
    <g id="xtick_6">
     <g id="line2d_11">
      <g>
       <use xlink:href="#md3593b2c48" x="373.760182" y="197.028" style="stroke: #000000; stroke-width: 1.25"/>
      </g>
     </g>
     <g id="text_14">
      <!-- 400 -->
      <g transform="translate(362.749526 215.996938) scale(0.132 -0.132)">
       <use xlink:href="#Helvetica-34"/>
       <use xlink:href="#Helvetica-30" x="55.615234"/>
       <use xlink:href="#Helvetica-30" x="111.230469"/>
      </g>
     </g>
    </g>
    <g id="xtick_7">
     <g id="line2d_12">
      <g>
       <use xlink:href="#md3593b2c48" x="421.420636" y="197.028" style="stroke: #000000; stroke-width: 1.25"/>
      </g>
     </g>
     <g id="text_15">
      <!-- 500 -->
      <g transform="translate(410.40998 215.996938) scale(0.132 -0.132)">
       <use xlink:href="#Helvetica-35"/>
       <use xlink:href="#Helvetica-30" x="55.615234"/>
       <use xlink:href="#Helvetica-30" x="111.230469"/>
      </g>
     </g>
    </g>
    <g id="xtick_8">
     <g id="line2d_13">
      <g>
       <use xlink:href="#md3593b2c48" x="469.081091" y="197.028" style="stroke: #000000; stroke-width: 1.25"/>
      </g>
     </g>
     <g id="text_16">
      <!-- 600 -->
      <g transform="translate(458.070435 215.996938) scale(0.132 -0.132)">
       <use xlink:href="#Helvetica-36"/>
       <use xlink:href="#Helvetica-30" x="55.615234"/>
       <use xlink:href="#Helvetica-30" x="111.230469"/>
      </g>
     </g>
    </g>
    <g id="xtick_9">
     <g id="line2d_14">
      <g>
       <use xlink:href="#md3593b2c48" x="516.741545" y="197.028" style="stroke: #000000; stroke-width: 1.25"/>
      </g>
     </g>
     <g id="text_17">
      <!-- 700 -->
      <g transform="translate(505.730889 215.996938) scale(0.132 -0.132)">
       <use xlink:href="#Helvetica-37"/>
       <use xlink:href="#Helvetica-30" x="55.615234"/>
       <use xlink:href="#Helvetica-30" x="111.230469"/>
      </g>
     </g>
    </g>
    <g id="xtick_10">
     <g id="line2d_15">
      <g>
       <use xlink:href="#md3593b2c48" x="564.402" y="197.028" style="stroke: #000000; stroke-width: 1.25"/>
      </g>
     </g>
     <g id="text_18">
      <!-- 800 -->
      <g transform="translate(553.391344 215.996938) scale(0.132 -0.132)">
       <use xlink:href="#Helvetica-38"/>
       <use xlink:href="#Helvetica-30" x="55.615234"/>
       <use xlink:href="#Helvetica-30" x="111.230469"/>
      </g>
     </g>
    </g>
    <g id="text_19">
     <!-- Wavelength (nm) -->
     <g transform="translate(404.733375 233.246812) scale(0.144 -0.144)">
      <use xlink:href="#Helvetica-57"/>
      <use xlink:href="#Helvetica-61" x="94.384766"/>
      <use xlink:href="#Helvetica-76" x="150"/>
      <use xlink:href="#Helvetica-65" x="200"/>
      <use xlink:href="#Helvetica-6c" x="255.615234"/>
      <use xlink:href="#Helvetica-65" x="277.832031"/>
      <use xlink:href="#Helvetica-6e" x="333.447266"/>
      <use xlink:href="#Helvetica-67" x="389.0625"/>
      <use xlink:href="#Helvetica-74" x="444.677734"/>
      <use xlink:href="#Helvetica-68" x="472.460938"/>
      <use xlink:href="#Helvetica-20" x="528.076172"/>
      <use xlink:href="#Helvetica-28" x="555.859375"/>
      <use xlink:href="#Helvetica-6e" x="589.160156"/>
      <use xlink:href="#Helvetica-6d" x="644.775391"/>
      <use xlink:href="#Helvetica-29" x="728.076172"/>
     </g>
    </g>
   </g>
   <g id="matplotlib.axis_4">
    <g id="ytick_5">
     <g id="line2d_16">
      <g>
       <use xlink:href="#m7057712d17" x="354.696" y="189.608182" style="stroke: #000000; stroke-width: 1.25"/>
      </g>
     </g>
     <g id="text_20">
      <!-- 0.0 -->
      <g transform="translate(326.848 194.342651) scale(0.132 -0.132)">
       <use xlink:href="#Helvetica-30"/>
       <use xlink:href="#Helvetica-2e" x="55.615234"/>
       <use xlink:href="#Helvetica-30" x="83.398438"/>
      </g>
     </g>
    </g>
    <g id="ytick_6">
     <g id="line2d_17">
      <g>
       <use xlink:href="#m7057712d17" x="354.696" y="159.928909" style="stroke: #000000; stroke-width: 1.25"/>
      </g>
     </g>
     <g id="text_21">
      <!-- 0.2 -->
      <g transform="translate(326.848 164.663378) scale(0.132 -0.132)">
       <defs>
        <path id="Helvetica-32" d="M 200 0 
Q 231 578 439 1006 
Q 647 1434 1250 1784 
L 1850 2131 
Q 2253 2366 2416 2531 
Q 2672 2791 2672 3125 
Q 2672 3516 2437 3745 
Q 2203 3975 1813 3975 
Q 1234 3975 1013 3538 
Q 894 3303 881 2888 
L 309 2888 
Q 319 3472 525 3841 
Q 891 4491 1816 4491 
Q 2584 4491 2939 4075 
Q 3294 3659 3294 3150 
Q 3294 2613 2916 2231 
Q 2697 2009 2131 1694 
L 1703 1456 
Q 1397 1288 1222 1134 
Q 909 863 828 531 
L 3272 531 
L 3272 0 
L 200 0 
z
" transform="scale(0.015625)"/>
       </defs>
       <use xlink:href="#Helvetica-30"/>
       <use xlink:href="#Helvetica-2e" x="55.615234"/>
       <use xlink:href="#Helvetica-32" x="83.398438"/>
      </g>
     </g>
    </g>
    <g id="ytick_7">
     <g id="line2d_18">
      <g>
       <use xlink:href="#m7057712d17" x="354.696" y="130.249636" style="stroke: #000000; stroke-width: 1.25"/>
      </g>
     </g>
     <g id="text_22">
      <!-- 0.4 -->
      <g transform="translate(326.848 134.984105) scale(0.132 -0.132)">
       <use xlink:href="#Helvetica-30"/>
       <use xlink:href="#Helvetica-2e" x="55.615234"/>
       <use xlink:href="#Helvetica-34" x="83.398438"/>
      </g>
     </g>
    </g>
    <g id="ytick_8">
     <g id="line2d_19">
      <g>
       <use xlink:href="#m7057712d17" x="354.696" y="100.570364" style="stroke: #000000; stroke-width: 1.25"/>
      </g>
     </g>
     <g id="text_23">
      <!-- 0.6 -->
      <g transform="translate(326.848 105.304832) scale(0.132 -0.132)">
       <use xlink:href="#Helvetica-30"/>
       <use xlink:href="#Helvetica-2e" x="55.615234"/>
       <use xlink:href="#Helvetica-36" x="83.398438"/>
      </g>
     </g>
    </g>
    <g id="ytick_9">
     <g id="line2d_20">
      <g>
       <use xlink:href="#m7057712d17" x="354.696" y="70.891091" style="stroke: #000000; stroke-width: 1.25"/>
      </g>
     </g>
     <g id="text_24">
      <!-- 0.8 -->
      <g transform="translate(326.848 75.62556) scale(0.132 -0.132)">
       <use xlink:href="#Helvetica-30"/>
       <use xlink:href="#Helvetica-2e" x="55.615234"/>
       <use xlink:href="#Helvetica-38" x="83.398438"/>
      </g>
     </g>
    </g>
    <g id="ytick_10">
     <g id="line2d_21">
      <g>
       <use xlink:href="#m7057712d17" x="354.696" y="41.211818" style="stroke: #000000; stroke-width: 1.25"/>
      </g>
     </g>
     <g id="text_25">
      <!-- 1.0 -->
      <g transform="translate(326.848 45.946287) scale(0.132 -0.132)">
       <use xlink:href="#Helvetica-31"/>
       <use xlink:href="#Helvetica-2e" x="55.615234"/>
       <use xlink:href="#Helvetica-30" x="83.398438"/>
      </g>
     </g>
    </g>
    <g id="text_26">
     <!-- Spectral sensitivity -->
     <g transform="translate(319.761 175.029375) rotate(-90) scale(0.144 -0.144)">
      <defs>
       <path id="Helvetica-53" d="M 894 1481 
Q 916 1091 1078 847 
Q 1388 391 2169 391 
Q 2519 391 2806 491 
Q 3363 684 3363 1184 
Q 3363 1559 3128 1719 
Q 2891 1875 2384 1991 
L 1763 2131 
Q 1153 2269 900 2434 
Q 463 2722 463 3294 
Q 463 3913 891 4309 
Q 1319 4706 2103 4706 
Q 2825 4706 3329 4357 
Q 3834 4009 3834 3244 
L 3250 3244 
Q 3203 3613 3050 3809 
Q 2766 4169 2084 4169 
Q 1534 4169 1293 3937 
Q 1053 3706 1053 3400 
Q 1053 3063 1334 2906 
Q 1519 2806 2169 2656 
L 2813 2509 
Q 3278 2403 3531 2219 
Q 3969 1897 3969 1284 
Q 3969 522 3414 194 
Q 2859 -134 2125 -134 
Q 1269 -134 784 303 
Q 300 738 309 1481 
L 894 1481 
z
M 2150 4716 
L 2150 4716 
z
" transform="scale(0.015625)"/>
       <path id="Helvetica-69" d="M 413 3331 
L 984 3331 
L 984 0 
L 413 0 
L 413 3331 
z
M 413 4591 
L 984 4591 
L 984 3953 
L 413 3953 
L 413 4591 
z
" transform="scale(0.015625)"/>
       <path id="Helvetica-79" d="M 2503 3347 
L 3125 3347 
Q 3006 3025 2597 1878 
Q 2291 1016 2084 472 
Q 1597 -809 1397 -1090 
Q 1197 -1372 709 -1372 
Q 591 -1372 527 -1362 
Q 463 -1353 369 -1328 
L 369 -816 
Q 516 -856 581 -865 
Q 647 -875 697 -875 
Q 853 -875 926 -823 
Q 1000 -772 1050 -697 
Q 1066 -672 1162 -440 
Q 1259 -209 1303 -97 
L 66 3347 
L 703 3347 
L 1600 622 
L 2503 3347 
z
M 1597 3428 
L 1597 3428 
z
" transform="scale(0.015625)"/>
      </defs>
      <use xlink:href="#Helvetica-53"/>
      <use xlink:href="#Helvetica-70" x="66.699219"/>
      <use xlink:href="#Helvetica-65" x="122.314453"/>
      <use xlink:href="#Helvetica-63" x="177.929688"/>
      <use xlink:href="#Helvetica-74" x="227.929688"/>
      <use xlink:href="#Helvetica-72" x="255.712891"/>
      <use xlink:href="#Helvetica-61" x="289.013672"/>
      <use xlink:href="#Helvetica-6c" x="344.628906"/>
      <use xlink:href="#Helvetica-20" x="366.845703"/>
      <use xlink:href="#Helvetica-73" x="394.628906"/>
      <use xlink:href="#Helvetica-65" x="444.628906"/>
      <use xlink:href="#Helvetica-6e" x="500.244141"/>
      <use xlink:href="#Helvetica-73" x="555.859375"/>
      <use xlink:href="#Helvetica-69" x="605.859375"/>
      <use xlink:href="#Helvetica-74" x="628.076172"/>
      <use xlink:href="#Helvetica-69" x="655.859375"/>
      <use xlink:href="#Helvetica-76" x="678.076172"/>
      <use xlink:href="#Helvetica-69" x="728.076172"/>
      <use xlink:href="#Helvetica-74" x="750.292969"/>
      <use xlink:href="#Helvetica-79" x="778.076172"/>
     </g>
    </g>
   </g>
   <g id="line2d_22">
    <path d="M 364.228091 189.608182 
L 368.517532 189.608182 
L 368.994136 188.696627 
L 369.947345 188.270151 
L 370.900555 187.648608 
L 371.853764 186.753778 
L 372.806973 185.486473 
L 373.760182 183.727086 
L 374.713391 181.342356 
L 375.6666 178.191753 
L 376.619809 174.146765 
L 377.573018 169.123548 
L 378.526227 163.114979 
L 379.956041 152.424505 
L 381.385855 139.767779 
L 385.675295 99.15021 
L 388.534923 73.519191 
L 389.964736 63.652316 
L 392.347759 48.302196 
L 392.824364 46.114834 
L 393.300968 44.57448 
L 393.777573 43.581708 
L 394.254177 42.971799 
L 396.160595 41.354279 
L 396.6372 41.214786 
L 397.113805 41.532354 
L 397.590409 42.498415 
L 398.067014 44.2302 
L 399.020223 49.289032 
L 400.926641 60.30301 
L 404.739477 80.234126 
L 406.169291 90.940924 
L 409.028918 115.690469 
L 410.935336 131.036137 
L 412.36515 140.652221 
L 413.794964 148.748727 
L 415.701382 158.18822 
L 416.654591 162.110336 
L 418.084405 166.857535 
L 419.514218 170.76036 
L 421.420636 175.243562 
L 423.327055 179.100977 
L 424.756868 181.563912 
L 425.710077 182.915654 
L 426.663286 183.996722 
L 428.0931 185.234199 
L 429.999518 186.492452 
L 431.905936 187.413251 
L 433.812355 188.07317 
L 436.195377 188.636705 
L 439.055005 189.049039 
L 442.867841 189.347642 
L 448.587095 189.527 
L 460.025605 189.600005 
L 538.18875 189.608182 
L 554.869909 189.608182 
L 554.869909 189.608182 
" clip-path="url(#p5688d98fe5)" style="fill: none; stroke: #1f77b4; stroke-width: 1.5; stroke-linecap: square"/>
   </g>
   <g id="line2d_23">
    <path d="M 364.228091 189.608182 
L 370.42395 189.511122 
L 373.760182 189.256171 
L 376.143205 188.847918 
L 378.049623 188.298896 
L 379.956041 187.5244 
L 381.862459 186.498536 
L 383.768877 185.214759 
L 385.675295 183.717885 
L 387.581714 181.884596 
L 389.488132 179.68002 
L 395.207386 172.361556 
L 399.973432 165.566487 
L 400.926641 163.914835 
L 402.356455 160.938004 
L 404.262873 156.333265 
L 408.075709 147.055525 
L 410.458732 141.036568 
L 412.36515 135.444993 
L 417.131195 120.123069 
L 419.037614 112.001336 
L 422.85045 95.326036 
L 428.0931 70.59133 
L 430.952727 57.652651 
L 431.905936 54.417611 
L 432.859145 51.91268 
L 433.812355 49.906361 
L 435.242168 47.518664 
L 436.671982 45.668161 
L 440.008214 41.700042 
L 440.484818 41.370602 
L 440.961423 41.220722 
L 441.438027 41.257821 
L 441.914632 41.4819 
L 442.391236 41.894441 
L 443.344445 43.259688 
L 445.727468 47.619573 
L 447.157282 49.803968 
L 448.110491 51.856289 
L 449.540305 55.950545 
L 452.399932 64.811292 
L 453.829745 70.310861 
L 455.736164 78.656673 
L 457.165977 85.729243 
L 461.455418 108.387884 
L 468.604486 142.379555 
L 470.987509 152.210814 
L 472.893927 159.07563 
L 474.800345 164.96103 
L 476.706764 169.932308 
L 478.136577 173.12283 
L 479.566391 175.886267 
L 480.996205 178.243395 
L 482.426018 180.226861 
L 483.855832 181.898249 
L 485.285645 183.302227 
L 487.192064 184.81305 
L 489.098482 186.016841 
L 491.0049 186.91924 
L 493.387923 187.704998 
L 496.24755 188.391925 
L 499.107177 188.842857 
L 502.920014 189.186187 
L 508.639268 189.435537 
L 517.694755 189.566447 
L 542.001586 189.607007 
L 554.869909 189.607965 
L 554.869909 189.607965 
" clip-path="url(#p5688d98fe5)" style="fill: none; stroke: #2ca02c; stroke-width: 1.5; stroke-linecap: square"/>
   </g>
   <g id="line2d_24">
    <path d="M 364.228091 189.608182 
L 370.42395 189.499312 
L 373.760182 189.231151 
L 376.143205 188.819381 
L 378.049623 188.285525 
L 380.90925 187.231911 
L 384.722086 185.47475 
L 387.105109 184.256712 
L 391.39455 181.672835 
L 394.254177 179.974438 
L 396.160595 178.797358 
L 400.450036 175.742026 
L 401.87985 174.329292 
L 403.309664 172.567827 
L 406.169291 168.503251 
L 408.552314 164.906123 
L 410.458732 161.608756 
L 412.36515 157.720771 
L 415.701382 150.09765 
L 417.131195 146.266056 
L 418.561009 141.581183 
L 421.897241 129.669407 
L 423.803659 121.902341 
L 427.139891 107.187357 
L 432.382541 83.632403 
L 434.288959 77.022829 
L 436.671982 69.71134 
L 438.5784 63.756194 
L 440.484818 57.406313 
L 441.438027 54.827185 
L 442.391236 52.849061 
L 443.344445 51.48975 
L 445.250864 49.443364 
L 446.204073 47.937141 
L 447.633886 45.559832 
L 448.587095 44.467634 
L 450.016909 43.34279 
L 452.399932 41.659975 
L 453.353141 41.30234 
L 454.30635 41.217754 
L 455.259559 41.416605 
L 456.212768 41.998319 
L 456.689373 42.485059 
L 457.642582 43.942311 
L 459.549 47.468209 
L 460.502209 48.596021 
L 461.932023 50.148247 
L 462.885232 51.759832 
L 463.838441 53.865576 
L 465.268255 57.655619 
L 466.698068 62.046668 
L 468.604486 68.674049 
L 470.987509 77.732163 
L 472.893927 85.954806 
L 476.706764 103.855859 
L 479.566391 117.088363 
L 481.949414 128.069694 
L 484.332436 139.095544 
L 486.238855 146.89674 
L 488.145273 153.648775 
L 490.051691 159.474816 
L 492.434714 166.180848 
L 494.341132 170.853849 
L 495.770945 173.839584 
L 497.200759 176.401944 
L 498.630573 178.594352 
L 500.060386 180.461327 
L 501.4902 182.042787 
L 503.396618 183.774572 
L 505.303036 185.148723 
L 507.209455 186.228603 
L 509.115873 187.069268 
L 511.498895 187.863189 
L 513.881918 188.397149 
L 517.21815 188.87871 
L 521.507591 189.235217 
L 527.226845 189.455987 
L 537.235541 189.574672 
L 554.869909 189.605422 
L 554.869909 189.605422 
" clip-path="url(#p5688d98fe5)" style="fill: none; stroke: #d62728; stroke-width: 1.5; stroke-linecap: square"/>
   </g>
   <g id="line2d_25">
    <path d="M 364.228091 189.520776 
L 368.517532 189.323558 
L 370.900555 189.02632 
L 372.806973 188.572375 
L 374.236786 188.020341 
L 375.6666 187.205645 
L 377.096414 186.039249 
L 378.526227 184.438053 
L 379.956041 182.33676 
L 381.385855 179.695305 
L 382.815668 176.475104 
L 384.245482 172.676157 
L 385.675295 168.298464 
L 387.581714 161.724505 
L 389.964736 152.568449 
L 398.543618 118.526324 
L 409.982127 79.052891 
L 414.271568 63.322876 
L 416.654591 55.457869 
L 418.084405 51.302771 
L 419.514218 47.592862 
L 420.467427 45.663709 
L 421.420636 43.882953 
L 423.327055 41.657007 
L 423.803659 41.508611 
L 424.280264 41.211818 
L 425.233473 41.211818 
L 425.710077 41.508611 
L 426.186682 41.657007 
L 427.139891 42.695782 
L 428.0931 44.031349 
L 429.046309 45.960502 
L 429.999518 48.186447 
L 431.905936 53.825509 
L 433.33575 59.019382 
L 435.242168 67.032785 
L 438.101795 80.833647 
L 440.484818 93.150545 
L 446.680677 125.352556 
L 448.587095 134.478933 
L 450.970118 144.822159 
L 452.876536 152.227138 
L 454.782955 158.801097 
L 456.689373 164.529196 
L 458.595791 169.455956 
L 460.502209 173.611054 
L 461.932023 176.267349 
L 463.361836 178.552653 
L 465.268255 181.090231 
L 466.698068 182.648392 
L 468.127882 183.945377 
L 470.0343 185.34327 
L 471.940718 186.422112 
L 473.847136 187.244228 
L 476.230159 187.993629 
L 478.613182 188.514501 
L 481.949414 188.978981 
L 485.76225 189.276516 
L 491.481505 189.481006 
L 501.966805 189.584542 
L 540.095168 189.608062 
L 554.869909 189.608161 
L 554.869909 189.608161 
" clip-path="url(#p5688d98fe5)" style="fill: none; stroke: #7f7f7f; stroke-width: 1.5; stroke-linecap: square"/>
   </g>
   <g id="line2d_26">
    <path d="M 364.228091 189.47193 
L 368.517532 189.202199 
L 370.900555 188.840038 
L 372.806973 188.30869 
L 374.236786 187.667603 
L 375.189995 187.038402 
L 376.143205 186.223112 
L 377.096414 185.067847 
L 378.526227 182.758948 
L 379.956041 180.066741 
L 380.90925 177.814084 
L 381.862459 174.655764 
L 383.292273 169.242265 
L 386.1519 160.046142 
L 390.441341 142.020436 
L 391.871155 134.830632 
L 393.300968 127.805548 
L 396.160595 114.590852 
L 399.020223 100.677209 
L 402.833059 82.230057 
L 407.1225 61.944274 
L 408.552314 56.609425 
L 410.935336 48.775581 
L 411.888545 46.315169 
L 412.841755 44.501766 
L 413.794964 43.092 
L 414.748173 42.200138 
L 415.701382 41.507127 
L 416.177986 41.291952 
L 416.654591 41.211818 
L 417.131195 41.277113 
L 418.084405 41.71785 
L 419.037614 42.396021 
L 419.514218 42.875341 
L 420.467427 44.378597 
L 421.897241 47.319813 
L 422.85045 49.851454 
L 424.280264 54.295926 
L 425.710077 59.60258 
L 427.139891 65.893101 
L 429.522914 78.042312 
L 432.859145 96.485012 
L 438.101795 125.422303 
L 440.484818 137.415697 
L 442.867841 148.184821 
L 444.774259 155.834653 
L 446.680677 162.557009 
L 448.110491 166.962897 
L 449.540305 170.847914 
L 450.970118 174.206123 
L 452.399932 177.091542 
L 453.829745 179.512926 
L 455.259559 181.523103 
L 456.689373 183.192117 
L 458.119186 184.53451 
L 459.549 185.62003 
L 461.455418 186.73137 
L 463.361836 187.540872 
L 465.268255 188.128507 
L 467.651277 188.638441 
L 470.510905 189.025073 
L 474.323741 189.310914 
L 480.042995 189.498425 
L 491.0049 189.590687 
L 537.712145 189.608159 
L 554.869909 189.608179 
L 554.869909 189.608179 
" clip-path="url(#p5688d98fe5)" style="fill: none; stroke: #17becf; stroke-width: 1.5; stroke-linecap: square"/>
   </g>
   <g id="patch_8">
    <path d="M 354.696 197.028 
L 354.696 33.792 
" style="fill: none; stroke: #000000; stroke-width: 1.25; stroke-linejoin: miter; stroke-linecap: square"/>
   </g>
   <g id="patch_9">
    <path d="M 564.402 197.028 
L 564.402 33.792 
" style="fill: none; stroke: #000000; stroke-width: 1.25; stroke-linejoin: miter; stroke-linecap: square"/>
   </g>
   <g id="patch_10">
    <path d="M 354.696 197.028 
L 564.402 197.028 
" style="fill: none; stroke: #000000; stroke-width: 1.25; stroke-linejoin: miter; stroke-linecap: square"/>
   </g>
   <g id="patch_11">
    <path d="M 354.696 33.792 
L 564.402 33.792 
" style="fill: none; stroke: #000000; stroke-width: 1.25; stroke-linejoin: miter; stroke-linecap: square"/>
   </g>
   <g id="text_27">
    <!-- $\alpha$-opic action spectra -->
    <g transform="translate(392.301 27.792) scale(0.144 -0.144)">
     <defs>
      <path id="DejaVuSans-Oblique-3b1" d="M 2619 1628 
L 2622 2350 
Q 2625 3088 2069 3091 
Q 1653 3094 1394 2747 
Q 1069 2319 959 1747 
Q 825 1059 994 731 
Q 1169 397 1547 397 
Q 1966 397 2319 1063 
L 2619 1628 
z
M 2166 3578 
Q 3141 3594 3128 2584 
Q 3128 2584 3616 3500 
L 4128 3500 
L 3119 1603 
L 3109 919 
Q 3109 766 3194 638 
Q 3291 488 3391 488 
L 3669 488 
L 3575 0 
L 3228 0 
Q 2934 0 2722 263 
Q 2622 394 2619 669 
Q 2416 334 2066 50 
Q 1900 -81 1453 -78 
Q 722 -72 456 397 
Q 184 884 353 1747 
Q 534 2675 1009 3097 
Q 1544 3569 2166 3578 
z
" transform="scale(0.015625)"/>
      <path id="Helvetica-2d" d="M 266 2072 
L 1834 2072 
L 1834 1494 
L 266 1494 
L 266 2072 
z
" transform="scale(0.015625)"/>
      <path id="Helvetica-6f" d="M 1741 363 
Q 2300 363 2508 786 
Q 2716 1209 2716 1728 
Q 2716 2197 2566 2491 
Q 2328 2953 1747 2953 
Q 1231 2953 997 2559 
Q 763 2166 763 1609 
Q 763 1075 997 719 
Q 1231 363 1741 363 
z
M 1763 3444 
Q 2409 3444 2856 3012 
Q 3303 2581 3303 1744 
Q 3303 934 2909 406 
Q 2516 -122 1688 -122 
Q 997 -122 590 345 
Q 184 813 184 1600 
Q 184 2444 612 2944 
Q 1041 3444 1763 3444 
z
M 1744 3428 
L 1744 3428 
z
" transform="scale(0.015625)"/>
     </defs>
     <use xlink:href="#DejaVuSans-Oblique-3b1" transform="translate(0 0.265625)"/>
     <use xlink:href="#Helvetica-2d" transform="translate(65.917969 0.265625)"/>
     <use xlink:href="#Helvetica-6f" transform="translate(99.21875 0.265625)"/>
     <use xlink:href="#Helvetica-70" transform="translate(154.833984 0.265625)"/>
     <use xlink:href="#Helvetica-69" transform="translate(210.449219 0.265625)"/>
     <use xlink:href="#Helvetica-63" transform="translate(232.666016 0.265625)"/>
     <use xlink:href="#Helvetica-20" transform="translate(282.666016 0.265625)"/>
     <use xlink:href="#Helvetica-61" transform="translate(310.449219 0.265625)"/>
     <use xlink:href="#Helvetica-63" transform="translate(366.064453 0.265625)"/>
     <use xlink:href="#Helvetica-74" transform="translate(416.064453 0.265625)"/>
     <use xlink:href="#Helvetica-69" transform="translate(443.847656 0.265625)"/>
     <use xlink:href="#Helvetica-6f" transform="translate(466.064453 0.265625)"/>
     <use xlink:href="#Helvetica-6e" transform="translate(521.679688 0.265625)"/>
     <use xlink:href="#Helvetica-20" transform="translate(577.294922 0.265625)"/>
     <use xlink:href="#Helvetica-73" transform="translate(605.078125 0.265625)"/>
     <use xlink:href="#Helvetica-70" transform="translate(655.078125 0.265625)"/>
     <use xlink:href="#Helvetica-65" transform="translate(710.693359 0.265625)"/>
     <use xlink:href="#Helvetica-63" transform="translate(766.308594 0.265625)"/>
     <use xlink:href="#Helvetica-74" transform="translate(816.308594 0.265625)"/>
     <use xlink:href="#Helvetica-72" transform="translate(844.091797 0.265625)"/>
     <use xlink:href="#Helvetica-61" transform="translate(877.392578 0.265625)"/>
    </g>
   </g>
   <g id="legend_1">
    <g id="patch_12">
     <path d="M 468.702 139.26 
L 555.162 139.26 
Q 557.802 139.26 557.802 136.62 
L 557.802 43.032 
Q 557.802 40.392 555.162 40.392 
L 468.702 40.392 
Q 466.062 40.392 466.062 43.032 
L 466.062 136.62 
Q 466.062 139.26 468.702 139.26 
z
" style="fill: #ffffff; opacity: 0.8; stroke: #cccccc; stroke-linejoin: miter"/>
    </g>
    <g id="line2d_27">
     <path d="M 471.342 50.708625 
L 484.542 50.708625 
L 497.742 50.708625 
" style="fill: none; stroke: #1f77b4; stroke-width: 1.5; stroke-linecap: square"/>
    </g>
    <g id="text_28">
     <!-- $S_{sc}(\lambda)$ -->
     <g transform="translate(508.302 55.328625) scale(0.132 -0.132)">
      <defs>
       <path id="DejaVuSans-Oblique-53" d="M 3859 4513 
L 3738 3897 
Q 3422 4066 3111 4152 
Q 2800 4238 2509 4238 
Q 1944 4238 1609 3991 
Q 1275 3744 1275 3334 
Q 1275 3109 1398 2989 
Q 1522 2869 2034 2731 
L 2413 2638 
Q 3053 2472 3303 2217 
Q 3553 1963 3553 1503 
Q 3553 797 2998 353 
Q 2444 -91 1538 -91 
Q 1166 -91 791 -17 
Q 416 56 38 206 
L 166 856 
Q 513 641 861 531 
Q 1209 422 1556 422 
Q 2147 422 2503 684 
Q 2859 947 2859 1369 
Q 2859 1650 2717 1795 
Q 2575 1941 2106 2059 
L 1728 2156 
Q 1081 2325 845 2545 
Q 609 2766 609 3163 
Q 609 3859 1145 4304 
Q 1681 4750 2541 4750 
Q 2875 4750 3203 4690 
Q 3531 4631 3859 4513 
z
" transform="scale(0.015625)"/>
       <path id="DejaVuSans-Oblique-73" d="M 3200 3397 
L 3091 2853 
Q 2863 2978 2609 3040 
Q 2356 3103 2088 3103 
Q 1634 3103 1373 2948 
Q 1113 2794 1113 2528 
Q 1113 2219 1719 2053 
Q 1766 2041 1788 2034 
L 1972 1978 
Q 2547 1819 2739 1644 
Q 2931 1469 2931 1166 
Q 2931 609 2489 259 
Q 2047 -91 1331 -91 
Q 1053 -91 747 -37 
Q 441 16 72 128 
L 184 722 
Q 500 559 806 475 
Q 1113 391 1394 391 
Q 1816 391 2080 572 
Q 2344 753 2344 1031 
Q 2344 1331 1650 1516 
L 1591 1531 
L 1394 1581 
Q 956 1697 753 1886 
Q 550 2075 550 2369 
Q 550 2928 970 3256 
Q 1391 3584 2113 3584 
Q 2397 3584 2667 3537 
Q 2938 3491 3200 3397 
z
" transform="scale(0.015625)"/>
       <path id="DejaVuSans-Oblique-63" d="M 3431 3366 
L 3316 2797 
Q 3109 2947 2876 3022 
Q 2644 3097 2394 3097 
Q 2119 3097 1870 3000 
Q 1622 2903 1453 2725 
Q 1184 2453 1037 2087 
Q 891 1722 891 1331 
Q 891 859 1127 628 
Q 1363 397 1844 397 
Q 2081 397 2348 469 
Q 2616 541 2906 684 
L 2797 116 
Q 2547 13 2283 -39 
Q 2019 -91 1741 -91 
Q 1044 -91 669 257 
Q 294 606 294 1253 
Q 294 1797 489 2255 
Q 684 2713 1069 3078 
Q 1331 3328 1684 3456 
Q 2038 3584 2456 3584 
Q 2700 3584 2940 3529 
Q 3181 3475 3431 3366 
z
" transform="scale(0.015625)"/>
       <path id="DejaVuSans-28" d="M 1984 4856 
Q 1566 4138 1362 3434 
Q 1159 2731 1159 2009 
Q 1159 1288 1364 580 
Q 1569 -128 1984 -844 
L 1484 -844 
Q 1016 -109 783 600 
Q 550 1309 550 2009 
Q 550 2706 781 3412 
Q 1013 4119 1484 4856 
L 1984 4856 
z
" transform="scale(0.015625)"/>
       <path id="DejaVuSans-Oblique-3bb" d="M 2350 4316 
L 3125 0 
L 2516 0 
L 2038 2588 
L 328 0 
L -281 0 
L 1903 3356 
L 1794 3975 
Q 1725 4369 1391 4369 
L 1091 4369 
L 1184 4863 
L 1550 4856 
Q 2253 4847 2350 4316 
z
" transform="scale(0.015625)"/>
       <path id="DejaVuSans-29" d="M 513 4856 
L 1013 4856 
Q 1481 4119 1714 3412 
Q 1947 2706 1947 2009 
Q 1947 1309 1714 600 
Q 1481 -109 1013 -844 
L 513 -844 
Q 928 -128 1133 580 
Q 1338 1288 1338 2009 
Q 1338 2731 1133 3434 
Q 928 4138 513 4856 
z
" transform="scale(0.015625)"/>
      </defs>
      <use xlink:href="#DejaVuSans-Oblique-53" transform="translate(0 0.015625)"/>
      <use xlink:href="#DejaVuSans-Oblique-73" transform="translate(63.476562 -16.390625) scale(0.7)"/>
      <use xlink:href="#DejaVuSans-Oblique-63" transform="translate(99.946289 -16.390625) scale(0.7)"/>
      <use xlink:href="#DejaVuSans-28" transform="translate(141.166992 0.015625)"/>
      <use xlink:href="#DejaVuSans-Oblique-3bb" transform="translate(180.180664 0.015625)"/>
      <use xlink:href="#DejaVuSans-29" transform="translate(239.360352 0.015625)"/>
     </g>
    </g>
    <g id="line2d_28">
     <path d="M 471.342 69.716625 
L 484.542 69.716625 
L 497.742 69.716625 
" style="fill: none; stroke: #2ca02c; stroke-width: 1.5; stroke-linecap: square"/>
    </g>
    <g id="text_29">
     <!-- $S_{mc}(\lambda)$ -->
     <g transform="translate(508.302 74.336625) scale(0.132 -0.132)">
      <defs>
       <path id="DejaVuSans-Oblique-6d" d="M 5747 2113 
L 5338 0 
L 4763 0 
L 5166 2094 
Q 5191 2228 5203 2325 
Q 5216 2422 5216 2491 
Q 5216 2772 5059 2928 
Q 4903 3084 4622 3084 
Q 4203 3084 3875 2770 
Q 3547 2456 3450 1953 
L 3066 0 
L 2491 0 
L 2900 2094 
Q 2925 2209 2937 2307 
Q 2950 2406 2950 2484 
Q 2950 2769 2794 2926 
Q 2638 3084 2363 3084 
Q 1938 3084 1609 2770 
Q 1281 2456 1184 1953 
L 800 0 
L 225 0 
L 909 3500 
L 1484 3500 
L 1375 2956 
Q 1609 3263 1923 3423 
Q 2238 3584 2597 3584 
Q 2978 3584 3223 3384 
Q 3469 3184 3519 2828 
Q 3781 3197 4126 3390 
Q 4472 3584 4856 3584 
Q 5306 3584 5551 3325 
Q 5797 3066 5797 2591 
Q 5797 2488 5784 2364 
Q 5772 2241 5747 2113 
z
" transform="scale(0.015625)"/>
      </defs>
      <use xlink:href="#DejaVuSans-Oblique-53" transform="translate(0 0.015625)"/>
      <use xlink:href="#DejaVuSans-Oblique-6d" transform="translate(63.476562 -16.390625) scale(0.7)"/>
      <use xlink:href="#DejaVuSans-Oblique-63" transform="translate(131.665039 -16.390625) scale(0.7)"/>
      <use xlink:href="#DejaVuSans-28" transform="translate(172.885742 0.015625)"/>
      <use xlink:href="#DejaVuSans-Oblique-3bb" transform="translate(211.899414 0.015625)"/>
      <use xlink:href="#DejaVuSans-29" transform="translate(271.079102 0.015625)"/>
     </g>
    </g>
    <g id="line2d_29">
     <path d="M 471.342 88.724625 
L 484.542 88.724625 
L 497.742 88.724625 
" style="fill: none; stroke: #d62728; stroke-width: 1.5; stroke-linecap: square"/>
    </g>
    <g id="text_30">
     <!-- $S_{lc}(\lambda)$ -->
     <g transform="translate(508.302 93.344625) scale(0.132 -0.132)">
      <defs>
       <path id="DejaVuSans-Oblique-6c" d="M 1172 4863 
L 1747 4863 
L 800 0 
L 225 0 
L 1172 4863 
z
" transform="scale(0.015625)"/>
      </defs>
      <use xlink:href="#DejaVuSans-Oblique-53" transform="translate(0 0.015625)"/>
      <use xlink:href="#DejaVuSans-Oblique-6c" transform="translate(63.476562 -16.390625) scale(0.7)"/>
      <use xlink:href="#DejaVuSans-Oblique-63" transform="translate(82.924805 -16.390625) scale(0.7)"/>
      <use xlink:href="#DejaVuSans-28" transform="translate(124.145508 0.015625)"/>
      <use xlink:href="#DejaVuSans-Oblique-3bb" transform="translate(163.15918 0.015625)"/>
      <use xlink:href="#DejaVuSans-29" transform="translate(222.338867 0.015625)"/>
     </g>
    </g>
    <g id="line2d_30">
     <path d="M 471.342 107.600625 
L 484.542 107.600625 
L 497.742 107.600625 
" style="fill: none; stroke: #7f7f7f; stroke-width: 1.5; stroke-linecap: square"/>
    </g>
    <g id="text_31">
     <!-- $S_{rh}(\lambda)$ -->
     <g transform="translate(508.302 112.220625) scale(0.132 -0.132)">
      <defs>
       <path id="DejaVuSans-Oblique-72" d="M 2853 2969 
Q 2766 3016 2653 3041 
Q 2541 3066 2413 3066 
Q 1953 3066 1609 2717 
Q 1266 2369 1153 1784 
L 800 0 
L 225 0 
L 909 3500 
L 1484 3500 
L 1375 2956 
Q 1603 3259 1920 3421 
Q 2238 3584 2597 3584 
Q 2691 3584 2781 3573 
Q 2872 3563 2963 3538 
L 2853 2969 
z
" transform="scale(0.015625)"/>
       <path id="DejaVuSans-Oblique-68" d="M 3566 2113 
L 3156 0 
L 2578 0 
L 2988 2091 
Q 3016 2238 3031 2350 
Q 3047 2463 3047 2528 
Q 3047 2791 2881 2937 
Q 2716 3084 2419 3084 
Q 1956 3084 1617 2771 
Q 1278 2459 1178 1941 
L 800 0 
L 225 0 
L 1172 4863 
L 1747 4863 
L 1375 2950 
Q 1594 3244 1934 3414 
Q 2275 3584 2650 3584 
Q 3113 3584 3367 3334 
Q 3622 3084 3622 2631 
Q 3622 2519 3608 2391 
Q 3594 2263 3566 2113 
z
" transform="scale(0.015625)"/>
      </defs>
      <use xlink:href="#DejaVuSans-Oblique-53" transform="translate(0 0.015625)"/>
      <use xlink:href="#DejaVuSans-Oblique-72" transform="translate(63.476562 -16.390625) scale(0.7)"/>
      <use xlink:href="#DejaVuSans-Oblique-68" transform="translate(92.255859 -16.390625) scale(0.7)"/>
      <use xlink:href="#DejaVuSans-28" transform="translate(139.355469 0.015625)"/>
      <use xlink:href="#DejaVuSans-Oblique-3bb" transform="translate(178.369141 0.015625)"/>
      <use xlink:href="#DejaVuSans-29" transform="translate(237.548828 0.015625)"/>
     </g>
    </g>
    <g id="line2d_31">
     <path d="M 471.342 126.608625 
L 484.542 126.608625 
L 497.742 126.608625 
" style="fill: none; stroke: #17becf; stroke-width: 1.5; stroke-linecap: square"/>
    </g>
    <g id="text_32">
     <!-- $S_{mel}(\lambda)$ -->
     <g transform="translate(508.302 131.228625) scale(0.132 -0.132)">
      <defs>
       <path id="DejaVuSans-Oblique-65" d="M 3078 2063 
Q 3088 2113 3092 2166 
Q 3097 2219 3097 2272 
Q 3097 2653 2873 2875 
Q 2650 3097 2266 3097 
Q 1838 3097 1509 2826 
Q 1181 2556 1013 2059 
L 3078 2063 
z
M 3578 1613 
L 903 1613 
Q 884 1494 878 1425 
Q 872 1356 872 1306 
Q 872 872 1139 634 
Q 1406 397 1894 397 
Q 2269 397 2603 481 
Q 2938 566 3225 728 
L 3116 159 
Q 2806 34 2476 -28 
Q 2147 -91 1806 -91 
Q 1078 -91 686 257 
Q 294 606 294 1247 
Q 294 1794 489 2264 
Q 684 2734 1063 3103 
Q 1306 3334 1642 3459 
Q 1978 3584 2356 3584 
Q 2950 3584 3301 3228 
Q 3653 2872 3653 2272 
Q 3653 2128 3634 1964 
Q 3616 1800 3578 1613 
z
" transform="scale(0.015625)"/>
      </defs>
      <use xlink:href="#DejaVuSans-Oblique-53" transform="translate(0 0.015625)"/>
      <use xlink:href="#DejaVuSans-Oblique-6d" transform="translate(63.476562 -16.390625) scale(0.7)"/>
      <use xlink:href="#DejaVuSans-Oblique-65" transform="translate(131.665039 -16.390625) scale(0.7)"/>
      <use xlink:href="#DejaVuSans-Oblique-6c" transform="translate(174.731445 -16.390625) scale(0.7)"/>
      <use xlink:href="#DejaVuSans-28" transform="translate(196.914062 0.015625)"/>
      <use xlink:href="#DejaVuSans-Oblique-3bb" transform="translate(235.927734 0.015625)"/>
      <use xlink:href="#DejaVuSans-29" transform="translate(295.107422 0.015625)"/>
     </g>
    </g>
   </g>
  </g>
  <g id="axes_3">
   <g id="patch_13">
    <path d="M 638.742 197.028 
L 848.448 197.028 
L 848.448 33.792 
L 638.742 33.792 
z
" style="fill: #ffffff"/>
   </g>
   <g id="patch_14">
    <path d="M 649.2273 197.028 
L 670.1979 197.028 
L 670.1979 162.552016 
L 649.2273 162.552016 
z
" clip-path="url(#pa847ba98b7)" style="fill: #1f77b4"/>
   </g>
   <g id="patch_15">
    <path d="M 691.1685 197.028 
L 712.1391 197.028 
L 712.1391 69.829195 
L 691.1685 69.829195 
z
" clip-path="url(#pa847ba98b7)" style="fill: #2ca02c"/>
   </g>
   <g id="patch_16">
    <path d="M 733.1097 197.028 
L 754.0803 197.028 
L 754.0803 41.565143 
L 733.1097 41.565143 
z
" clip-path="url(#pa847ba98b7)" style="fill: #d62728"/>
   </g>
   <g id="patch_17">
    <path d="M 775.0509 197.028 
L 796.0215 197.028 
L 796.0215 90.8479 
L 775.0509 90.8479 
z
" clip-path="url(#pa847ba98b7)" style="fill: #7f7f7f"/>
   </g>
   <g id="patch_18">
    <path d="M 816.9921 197.028 
L 837.9627 197.028 
L 837.9627 109.345696 
L 816.9921 109.345696 
z
" clip-path="url(#pa847ba98b7)" style="fill: #17becf"/>
   </g>
   <g id="matplotlib.axis_5">
    <g id="xtick_11">
     <g id="line2d_32">
      <g>
       <use xlink:href="#md3593b2c48" x="659.7126" y="197.028" style="stroke: #000000; stroke-width: 1.25"/>
      </g>
     </g>
     <g id="text_33">
      <!-- $E_{sc}$ -->
      <g transform="translate(650.4066 215.996938) scale(0.132 -0.132)">
       <defs>
        <path id="DejaVuSans-Oblique-45" d="M 1081 4666 
L 4031 4666 
L 3928 4134 
L 1606 4134 
L 1338 2753 
L 3566 2753 
L 3463 2222 
L 1234 2222 
L 909 531 
L 3284 531 
L 3181 0 
L 172 0 
L 1081 4666 
z
" transform="scale(0.015625)"/>
       </defs>
       <use xlink:href="#DejaVuSans-Oblique-45" transform="translate(0 0.09375)"/>
       <use xlink:href="#DejaVuSans-Oblique-73" transform="translate(63.183594 -16.3125) scale(0.7)"/>
       <use xlink:href="#DejaVuSans-Oblique-63" transform="translate(99.65332 -16.3125) scale(0.7)"/>
      </g>
     </g>
    </g>
    <g id="xtick_12">
     <g id="line2d_33">
      <g>
       <use xlink:href="#md3593b2c48" x="701.6538" y="197.028" style="stroke: #000000; stroke-width: 1.25"/>
      </g>
     </g>
     <g id="text_34">
      <!-- $E_{mc}$ -->
      <g transform="translate(690.2358 215.996938) scale(0.132 -0.132)">
       <use xlink:href="#DejaVuSans-Oblique-45" transform="translate(0 0.09375)"/>
       <use xlink:href="#DejaVuSans-Oblique-6d" transform="translate(63.183594 -16.3125) scale(0.7)"/>
       <use xlink:href="#DejaVuSans-Oblique-63" transform="translate(131.37207 -16.3125) scale(0.7)"/>
      </g>
     </g>
    </g>
    <g id="xtick_13">
     <g id="line2d_34">
      <g>
       <use xlink:href="#md3593b2c48" x="743.595" y="197.028" style="stroke: #000000; stroke-width: 1.25"/>
      </g>
     </g>
     <g id="text_35">
      <!-- $E_{lc}$ -->
      <g transform="translate(735.411 215.996938) scale(0.132 -0.132)">
       <use xlink:href="#DejaVuSans-Oblique-45" transform="translate(0 0.09375)"/>
       <use xlink:href="#DejaVuSans-Oblique-6c" transform="translate(63.183594 -16.3125) scale(0.7)"/>
       <use xlink:href="#DejaVuSans-Oblique-63" transform="translate(82.631836 -16.3125) scale(0.7)"/>
      </g>
     </g>
    </g>
    <g id="xtick_14">
     <g id="line2d_35">
      <g>
       <use xlink:href="#md3593b2c48" x="785.5362" y="197.028" style="stroke: #000000; stroke-width: 1.25"/>
      </g>
     </g>
     <g id="text_36">
      <!-- $E_{rh}$ -->
      <g transform="translate(776.2962 215.996938) scale(0.132 -0.132)">
       <use xlink:href="#DejaVuSans-Oblique-45" transform="translate(0 0.09375)"/>
       <use xlink:href="#DejaVuSans-Oblique-72" transform="translate(63.183594 -16.3125) scale(0.7)"/>
       <use xlink:href="#DejaVuSans-Oblique-68" transform="translate(91.962891 -16.3125) scale(0.7)"/>
      </g>
     </g>
    </g>
    <g id="xtick_15">
     <g id="line2d_36">
      <g>
       <use xlink:href="#md3593b2c48" x="827.4774" y="197.028" style="stroke: #000000; stroke-width: 1.25"/>
      </g>
     </g>
     <g id="text_37">
      <!-- $E_{mel}$ -->
      <g transform="translate(814.4754 215.996938) scale(0.132 -0.132)">
       <use xlink:href="#DejaVuSans-Oblique-45" transform="translate(0 0.09375)"/>
       <use xlink:href="#DejaVuSans-Oblique-6d" transform="translate(63.183594 -16.3125) scale(0.7)"/>
       <use xlink:href="#DejaVuSans-Oblique-65" transform="translate(131.37207 -16.3125) scale(0.7)"/>
       <use xlink:href="#DejaVuSans-Oblique-6c" transform="translate(174.438477 -16.3125) scale(0.7)"/>
      </g>
     </g>
    </g>
   </g>
   <g id="matplotlib.axis_6">
    <g id="ytick_11">
     <g id="line2d_37">
      <g>
       <use xlink:href="#m7057712d17" x="638.742" y="197.028" style="stroke: #000000; stroke-width: 1.25"/>
      </g>
     </g>
     <g id="text_38">
      <!-- 0.0 -->
      <g transform="translate(610.894 201.762469) scale(0.132 -0.132)">
       <use xlink:href="#Helvetica-30"/>
       <use xlink:href="#Helvetica-2e" x="55.615234"/>
       <use xlink:href="#Helvetica-30" x="83.398438"/>
      </g>
     </g>
    </g>
    <g id="ytick_12">
     <g id="line2d_38">
      <g>
       <use xlink:href="#m7057712d17" x="638.742" y="169.647098" style="stroke: #000000; stroke-width: 1.25"/>
      </g>
     </g>
     <g id="text_39">
      <!-- 0.2 -->
      <g transform="translate(610.894 174.381567) scale(0.132 -0.132)">
       <use xlink:href="#Helvetica-30"/>
       <use xlink:href="#Helvetica-2e" x="55.615234"/>
       <use xlink:href="#Helvetica-32" x="83.398438"/>
      </g>
     </g>
    </g>
    <g id="ytick_13">
     <g id="line2d_39">
      <g>
       <use xlink:href="#m7057712d17" x="638.742" y="142.266197" style="stroke: #000000; stroke-width: 1.25"/>
      </g>
     </g>
     <g id="text_40">
      <!-- 0.4 -->
      <g transform="translate(610.894 147.000666) scale(0.132 -0.132)">
       <use xlink:href="#Helvetica-30"/>
       <use xlink:href="#Helvetica-2e" x="55.615234"/>
       <use xlink:href="#Helvetica-34" x="83.398438"/>
      </g>
     </g>
    </g>
    <g id="ytick_14">
     <g id="line2d_40">
      <g>
       <use xlink:href="#m7057712d17" x="638.742" y="114.885295" style="stroke: #000000; stroke-width: 1.25"/>
      </g>
     </g>
     <g id="text_41">
      <!-- 0.6 -->
      <g transform="translate(610.894 119.619764) scale(0.132 -0.132)">
       <use xlink:href="#Helvetica-30"/>
       <use xlink:href="#Helvetica-2e" x="55.615234"/>
       <use xlink:href="#Helvetica-36" x="83.398438"/>
      </g>
     </g>
    </g>
    <g id="ytick_15">
     <g id="line2d_41">
      <g>
       <use xlink:href="#m7057712d17" x="638.742" y="87.504394" style="stroke: #000000; stroke-width: 1.25"/>
      </g>
     </g>
     <g id="text_42">
      <!-- 0.8 -->
      <g transform="translate(610.894 92.238862) scale(0.132 -0.132)">
       <use xlink:href="#Helvetica-30"/>
       <use xlink:href="#Helvetica-2e" x="55.615234"/>
       <use xlink:href="#Helvetica-38" x="83.398438"/>
      </g>
     </g>
    </g>
    <g id="ytick_16">
     <g id="line2d_42">
      <g>
       <use xlink:href="#m7057712d17" x="638.742" y="60.123492" style="stroke: #000000; stroke-width: 1.25"/>
      </g>
     </g>
     <g id="text_43">
      <!-- 1.0 -->
      <g transform="translate(610.894 64.857961) scale(0.132 -0.132)">
       <use xlink:href="#Helvetica-31"/>
       <use xlink:href="#Helvetica-2e" x="55.615234"/>
       <use xlink:href="#Helvetica-30" x="83.398438"/>
      </g>
     </g>
    </g>
    <g id="text_44">
     <!-- W/m$^2$ -->
     <g transform="translate(603.8925 133.698) rotate(-90) scale(0.144 -0.144)">
      <use xlink:href="#Helvetica-57" transform="translate(0 0.765625)"/>
      <use xlink:href="#Helvetica-2f" transform="translate(94.384766 0.765625)"/>
      <use xlink:href="#Helvetica-6d" transform="translate(122.167969 0.765625)"/>
      <use xlink:href="#DejaVuSans-32" transform="translate(206.425781 39.046875) scale(0.7)"/>
     </g>
    </g>
    <g id="text_45">
     <!-- 1e8 -->
     <g transform="translate(638.742 30.792) scale(0.132 -0.132)">
      <use xlink:href="#Helvetica-31"/>
      <use xlink:href="#Helvetica-65" x="55.615234"/>
      <use xlink:href="#Helvetica-38" x="111.230469"/>
     </g>
    </g>
   </g>
   <g id="patch_19">
    <path d="M 638.742 197.028 
L 638.742 33.792 
" style="fill: none; stroke: #000000; stroke-width: 1.25; stroke-linejoin: miter; stroke-linecap: square"/>
   </g>
   <g id="patch_20">
    <path d="M 848.448 197.028 
L 848.448 33.792 
" style="fill: none; stroke: #000000; stroke-width: 1.25; stroke-linejoin: miter; stroke-linecap: square"/>
   </g>
   <g id="patch_21">
    <path d="M 638.742 197.028 
L 848.448 197.028 
" style="fill: none; stroke: #000000; stroke-width: 1.25; stroke-linejoin: miter; stroke-linecap: square"/>
   </g>
   <g id="patch_22">
    <path d="M 638.742 33.792 
L 848.448 33.792 
" style="fill: none; stroke: #000000; stroke-width: 1.25; stroke-linejoin: miter; stroke-linecap: square"/>
   </g>
   <g id="text_46">
    <!-- $\alpha$-opic irradiance -->
    <g transform="translate(689.595 27.792) scale(0.144 -0.144)">
     <use xlink:href="#DejaVuSans-Oblique-3b1" transform="translate(0 0.03125)"/>
     <use xlink:href="#Helvetica-2d" transform="translate(65.917969 0.03125)"/>
     <use xlink:href="#Helvetica-6f" transform="translate(99.21875 0.03125)"/>
     <use xlink:href="#Helvetica-70" transform="translate(154.833984 0.03125)"/>
     <use xlink:href="#Helvetica-69" transform="translate(210.449219 0.03125)"/>
     <use xlink:href="#Helvetica-63" transform="translate(232.666016 0.03125)"/>
     <use xlink:href="#Helvetica-20" transform="translate(282.666016 0.03125)"/>
     <use xlink:href="#Helvetica-69" transform="translate(310.449219 0.03125)"/>
     <use xlink:href="#Helvetica-72" transform="translate(332.666016 0.03125)"/>
     <use xlink:href="#Helvetica-72" transform="translate(365.966797 0.03125)"/>
     <use xlink:href="#Helvetica-61" transform="translate(399.267578 0.03125)"/>
     <use xlink:href="#Helvetica-64" transform="translate(454.882812 0.03125)"/>
     <use xlink:href="#Helvetica-69" transform="translate(510.498047 0.03125)"/>
     <use xlink:href="#Helvetica-61" transform="translate(532.714844 0.03125)"/>
     <use xlink:href="#Helvetica-6e" transform="translate(588.330078 0.03125)"/>
     <use xlink:href="#Helvetica-63" transform="translate(643.945312 0.03125)"/>
     <use xlink:href="#Helvetica-65" transform="translate(693.945312 0.03125)"/>
    </g>
   </g>
  </g>
 </g>
 <defs>
  <clipPath id="pc753d1db1b">
   <rect x="70.65" y="33.792" width="209.706" height="163.236"/>
  </clipPath>
  <clipPath id="p5688d98fe5">
   <rect x="354.696" y="33.792" width="209.706" height="163.236"/>
  </clipPath>
  <clipPath id="pa847ba98b7">
   <rect x="638.742" y="33.792" width="209.706" height="163.236"/>
  </clipPath>
 </defs>
</svg>
