<?xml version="1.0" encoding="utf-8" standalone="no"?>
<!DOCTYPE svg PUBLIC "-//W3C//DTD SVG 1.1//EN"
  "http://www.w3.org/Graphics/SVG/1.1/DTD/svg11.dtd">
<svg xmlns:xlink="http://www.w3.org/1999/xlink" width="720pt" height="216pt" viewBox="0 0 720 216" xmlns="http://www.w3.org/2000/svg" version="1.1">
 <metadata>
  <rdf:RDF xmlns:dc="http://purl.org/dc/elements/1.1/" xmlns:cc="http://creativecommons.org/ns#" xmlns:rdf="http://www.w3.org/1999/02/22-rdf-syntax-ns#">
   <cc:Work>
    <dc:type rdf:resource="http://purl.org/dc/dcmitype/StillImage"/>
    <dc:date>2023-03-31T20:22:07.083609</dc:date>
    <dc:format>image/svg+xml</dc:format>
    <dc:creator>
     <cc:Agent>
      <dc:title>Matplotlib v3.6.0rc2, https://matplotlib.org/</dc:title>
     </cc:Agent>
    </dc:creator>
   </cc:Work>
  </rdf:RDF>
 </metadata>
 <defs>
  <style type="text/css">*{stroke-linejoin: round; stroke-linecap: butt}</style>
 </defs>
 <g id="figure_1">
  <g id="patch_1">
   <path d="M 0 216 
L 720 216 
L 720 0 
L 0 0 
z
" style="fill: #ffffff"/>
  </g>
  <g id="axes_1">
   <g id="patch_2">
    <path d="M 43.365 177.06 
L 230.6225 177.06 
L 230.6225 27.36 
L 43.365 27.36 
z
" style="fill: #eeeeee"/>
   </g>
   <g id="matplotlib.axis_1">
    <g id="xtick_1">
     <g id="line2d_1">
      <path d="M 60.388409 177.06 
L 60.388409 27.36 
" clip-path="url(#p7ba8d88789)" style="fill: none; stroke-dasharray: 1.85,0.8; stroke-dashoffset: 0; stroke: #b2b2b2; stroke-width: 0.5"/>
     </g>
     <g id="line2d_2">
      <defs>
       <path id="m86ee7718d7" d="M 0 0 
L 0 -3.5 
" style="stroke: #000000; stroke-width: 0.8"/>
      </defs>
      <g>
       <use xlink:href="#m86ee7718d7" x="60.388409" y="177.06" style="stroke: #000000; stroke-width: 0.8"/>
      </g>
     </g>
     <g id="text_1">
      <!-- 400 -->
      <g transform="translate(52.047003 187.733438) scale(0.1 -0.1)">
       <defs>
        <path id="Helvetica-34" d="M 2116 1584 
L 2116 3613 
L 681 1584 
L 2116 1584 
z
M 2125 0 
L 2125 1094 
L 163 1094 
L 163 1644 
L 2213 4488 
L 2688 4488 
L 2688 1584 
L 3347 1584 
L 3347 1094 
L 2688 1094 
L 2688 0 
L 2125 0 
z
" transform="scale(0.015625)"/>
        <path id="Helvetica-30" d="M 1731 4475 
Q 2600 4475 2988 3759 
Q 3288 3206 3288 2244 
Q 3288 1331 3016 734 
Q 2622 -122 1728 -122 
Q 922 -122 528 578 
Q 200 1163 200 2147 
Q 200 2909 397 3456 
Q 766 4475 1731 4475 
z
M 1725 391 
Q 2163 391 2422 778 
Q 2681 1166 2681 2222 
Q 2681 2984 2493 3476 
Q 2306 3969 1766 3969 
Q 1269 3969 1039 3501 
Q 809 3034 809 2125 
Q 809 1441 956 1025 
Q 1181 391 1725 391 
z
" transform="scale(0.015625)"/>
       </defs>
       <use xlink:href="#Helvetica-34"/>
       <use xlink:href="#Helvetica-30" x="55.615234"/>
       <use xlink:href="#Helvetica-30" x="111.230469"/>
      </g>
     </g>
    </g>
    <g id="xtick_2">
     <g id="line2d_3">
      <path d="M 102.946932 177.06 
L 102.946932 27.36 
" clip-path="url(#p7ba8d88789)" style="fill: none; stroke-dasharray: 1.85,0.8; stroke-dashoffset: 0; stroke: #b2b2b2; stroke-width: 0.5"/>
     </g>
     <g id="line2d_4">
      <g>
       <use xlink:href="#m86ee7718d7" x="102.946932" y="177.06" style="stroke: #000000; stroke-width: 0.8"/>
      </g>
     </g>
     <g id="text_2">
      <!-- 500 -->
      <g transform="translate(94.605526 187.733438) scale(0.1 -0.1)">
       <defs>
        <path id="Helvetica-35" d="M 791 1141 
Q 847 659 1238 475 
Q 1438 381 1700 381 
Q 2200 381 2440 700 
Q 2681 1019 2681 1406 
Q 2681 1875 2395 2131 
Q 2109 2388 1709 2388 
Q 1419 2388 1211 2275 
Q 1003 2163 856 1963 
L 369 1991 
L 709 4400 
L 3034 4400 
L 3034 3856 
L 1131 3856 
L 941 2613 
Q 1097 2731 1238 2791 
Q 1488 2894 1816 2894 
Q 2431 2894 2859 2497 
Q 3288 2100 3288 1491 
Q 3288 856 2895 371 
Q 2503 -113 1644 -113 
Q 1097 -113 676 195 
Q 256 503 206 1141 
L 791 1141 
z
" transform="scale(0.015625)"/>
       </defs>
       <use xlink:href="#Helvetica-35"/>
       <use xlink:href="#Helvetica-30" x="55.615234"/>
       <use xlink:href="#Helvetica-30" x="111.230469"/>
      </g>
     </g>
    </g>
    <g id="xtick_3">
     <g id="line2d_5">
      <path d="M 145.505455 177.06 
L 145.505455 27.36 
" clip-path="url(#p7ba8d88789)" style="fill: none; stroke-dasharray: 1.85,0.8; stroke-dashoffset: 0; stroke: #b2b2b2; stroke-width: 0.5"/>
     </g>
     <g id="line2d_6">
      <g>
       <use xlink:href="#m86ee7718d7" x="145.505455" y="177.06" style="stroke: #000000; stroke-width: 0.8"/>
      </g>
     </g>
     <g id="text_3">
      <!-- 600 -->
      <g transform="translate(137.164048 187.733438) scale(0.1 -0.1)">
       <defs>
        <path id="Helvetica-36" d="M 1872 4494 
Q 2622 4494 2917 4105 
Q 3213 3716 3213 3303 
L 2656 3303 
Q 2606 3569 2497 3719 
Q 2294 4000 1881 4000 
Q 1409 4000 1131 3564 
Q 853 3128 822 2316 
Q 1016 2600 1309 2741 
Q 1578 2866 1909 2866 
Q 2472 2866 2890 2506 
Q 3309 2147 3309 1434 
Q 3309 825 2912 354 
Q 2516 -116 1781 -116 
Q 1153 -116 697 361 
Q 241 838 241 1966 
Q 241 2800 444 3381 
Q 834 4494 1872 4494 
z
M 1831 384 
Q 2275 384 2495 682 
Q 2716 981 2716 1388 
Q 2716 1731 2519 2042 
Q 2322 2353 1803 2353 
Q 1441 2353 1167 2112 
Q 894 1872 894 1388 
Q 894 963 1142 673 
Q 1391 384 1831 384 
z
" transform="scale(0.015625)"/>
       </defs>
       <use xlink:href="#Helvetica-36"/>
       <use xlink:href="#Helvetica-30" x="55.615234"/>
       <use xlink:href="#Helvetica-30" x="111.230469"/>
      </g>
     </g>
    </g>
    <g id="xtick_4">
     <g id="line2d_7">
      <path d="M 188.063977 177.06 
L 188.063977 27.36 
" clip-path="url(#p7ba8d88789)" style="fill: none; stroke-dasharray: 1.85,0.8; stroke-dashoffset: 0; stroke: #b2b2b2; stroke-width: 0.5"/>
     </g>
     <g id="line2d_8">
      <g>
       <use xlink:href="#m86ee7718d7" x="188.063977" y="177.06" style="stroke: #000000; stroke-width: 0.8"/>
      </g>
     </g>
     <g id="text_4">
      <!-- 700 -->
      <g transform="translate(179.722571 187.733438) scale(0.1 -0.1)">
       <defs>
        <path id="Helvetica-37" d="M 3347 4400 
L 3347 3909 
Q 3131 3700 2773 3181 
Q 2416 2663 2141 2063 
Q 1869 1478 1728 997 
Q 1638 688 1494 0 
L 872 0 
Q 1084 1281 1809 2550 
Q 2238 3294 2709 3834 
L 234 3834 
L 234 4400 
L 3347 4400 
z
" transform="scale(0.015625)"/>
       </defs>
       <use xlink:href="#Helvetica-37"/>
       <use xlink:href="#Helvetica-30" x="55.615234"/>
       <use xlink:href="#Helvetica-30" x="111.230469"/>
      </g>
     </g>
    </g>
    <g id="xtick_5">
     <g id="line2d_9">
      <path d="M 230.6225 177.06 
L 230.6225 27.36 
" clip-path="url(#p7ba8d88789)" style="fill: none; stroke-dasharray: 1.85,0.8; stroke-dashoffset: 0; stroke: #b2b2b2; stroke-width: 0.5"/>
     </g>
     <g id="line2d_10">
      <g>
       <use xlink:href="#m86ee7718d7" x="230.6225" y="177.06" style="stroke: #000000; stroke-width: 0.8"/>
      </g>
     </g>
     <g id="text_5">
      <!-- 800 -->
      <g transform="translate(222.281094 187.733438) scale(0.1 -0.1)">
       <defs>
        <path id="Helvetica-38" d="M 1741 2600 
Q 2113 2600 2322 2808 
Q 2531 3016 2531 3303 
Q 2531 3553 2331 3762 
Q 2131 3972 1722 3972 
Q 1316 3972 1134 3762 
Q 953 3553 953 3272 
Q 953 2956 1187 2778 
Q 1422 2600 1741 2600 
z
M 1775 384 
Q 2166 384 2423 595 
Q 2681 806 2681 1225 
Q 2681 1659 2415 1884 
Q 2150 2109 1734 2109 
Q 1331 2109 1076 1879 
Q 822 1650 822 1244 
Q 822 894 1055 639 
Q 1288 384 1775 384 
z
M 975 2384 
Q 741 2484 609 2619 
Q 363 2869 363 3269 
Q 363 3769 725 4128 
Q 1088 4488 1753 4488 
Q 2397 4488 2762 4148 
Q 3128 3809 3128 3356 
Q 3128 2938 2916 2678 
Q 2797 2531 2547 2391 
Q 2825 2263 2984 2097 
Q 3281 1784 3281 1284 
Q 3281 694 2884 283 
Q 2488 -128 1763 -128 
Q 1109 -128 657 226 
Q 206 581 206 1256 
Q 206 1653 400 1942 
Q 594 2231 975 2384 
z
" transform="scale(0.015625)"/>
       </defs>
       <use xlink:href="#Helvetica-38"/>
       <use xlink:href="#Helvetica-30" x="55.615234"/>
       <use xlink:href="#Helvetica-30" x="111.230469"/>
      </g>
     </g>
    </g>
    <g id="text_6">
     <!-- Wavelength (nm) -->
     <g transform="translate(91.314062 202.566563) scale(0.12 -0.12)">
      <defs>
       <path id="Helvetica-57" d="M 791 4591 
L 1656 856 
L 2694 4591 
L 3369 4591 
L 4406 856 
L 5272 4591 
L 5953 4591 
L 4747 0 
L 4094 0 
L 3034 3806 
L 1969 0 
L 1316 0 
L 116 4591 
L 791 4591 
z
" transform="scale(0.015625)"/>
       <path id="Helvetica-61" d="M 844 891 
Q 844 647 1022 506 
Q 1200 366 1444 366 
Q 1741 366 2019 503 
Q 2488 731 2488 1250 
L 2488 1703 
Q 2384 1638 2221 1594 
Q 2059 1550 1903 1531 
L 1563 1488 
Q 1256 1447 1103 1359 
Q 844 1213 844 891 
z
M 2206 2028 
Q 2400 2053 2466 2191 
Q 2503 2266 2503 2406 
Q 2503 2694 2298 2823 
Q 2094 2953 1713 2953 
Q 1272 2953 1088 2716 
Q 984 2584 953 2325 
L 428 2325 
Q 444 2944 830 3186 
Q 1216 3428 1725 3428 
Q 2316 3428 2684 3203 
Q 3050 2978 3050 2503 
L 3050 575 
Q 3050 488 3086 434 
Q 3122 381 3238 381 
Q 3275 381 3322 386 
Q 3369 391 3422 400 
L 3422 -16 
Q 3291 -53 3222 -62 
Q 3153 -72 3034 -72 
Q 2744 -72 2613 134 
Q 2544 244 2516 444 
Q 2344 219 2022 53 
Q 1700 -113 1313 -113 
Q 847 -113 551 170 
Q 256 453 256 878 
Q 256 1344 547 1600 
Q 838 1856 1309 1916 
L 2206 2028 
z
M 1741 3428 
L 1741 3428 
z
" transform="scale(0.015625)"/>
       <path id="Helvetica-76" d="M 688 3347 
L 1581 622 
L 2516 3347 
L 3131 3347 
L 1869 0 
L 1269 0 
L 34 3347 
L 688 3347 
z
" transform="scale(0.015625)"/>
       <path id="Helvetica-65" d="M 1806 3422 
Q 2163 3422 2497 3255 
Q 2831 3088 3006 2822 
Q 3175 2569 3231 2231 
Q 3281 2000 3281 1494 
L 828 1494 
Q 844 984 1069 676 
Q 1294 369 1766 369 
Q 2206 369 2469 659 
Q 2619 828 2681 1050 
L 3234 1050 
Q 3213 866 3089 639 
Q 2966 413 2813 269 
Q 2556 19 2178 -69 
Q 1975 -119 1719 -119 
Q 1094 -119 659 336 
Q 225 791 225 1609 
Q 225 2416 662 2919 
Q 1100 3422 1806 3422 
z
M 2703 1941 
Q 2669 2306 2544 2525 
Q 2313 2931 1772 2931 
Q 1384 2931 1121 2651 
Q 859 2372 844 1941 
L 2703 1941 
z
M 1753 3428 
L 1753 3428 
z
" transform="scale(0.015625)"/>
       <path id="Helvetica-6c" d="M 428 4591 
L 991 4591 
L 991 0 
L 428 0 
L 428 4591 
z
" transform="scale(0.015625)"/>
       <path id="Helvetica-6e" d="M 413 3347 
L 947 3347 
L 947 2872 
Q 1184 3166 1450 3294 
Q 1716 3422 2041 3422 
Q 2753 3422 3003 2925 
Q 3141 2653 3141 2147 
L 3141 0 
L 2569 0 
L 2569 2109 
Q 2569 2416 2478 2603 
Q 2328 2916 1934 2916 
Q 1734 2916 1606 2875 
Q 1375 2806 1200 2600 
Q 1059 2434 1017 2257 
Q 975 2081 975 1753 
L 975 0 
L 413 0 
L 413 3347 
z
M 1734 3428 
L 1734 3428 
z
" transform="scale(0.015625)"/>
       <path id="Helvetica-67" d="M 1594 3406 
Q 1988 3406 2281 3213 
Q 2441 3103 2606 2894 
L 2606 3316 
L 3125 3316 
L 3125 272 
Q 3125 -366 2938 -734 
Q 2588 -1416 1616 -1416 
Q 1075 -1416 706 -1173 
Q 338 -931 294 -416 
L 866 -416 
Q 906 -641 1028 -763 
Q 1219 -950 1628 -950 
Q 2275 -950 2475 -494 
Q 2594 -225 2584 466 
Q 2416 209 2178 84 
Q 1941 -41 1550 -41 
Q 1006 -41 598 345 
Q 191 731 191 1622 
Q 191 2463 602 2934 
Q 1013 3406 1594 3406 
z
M 2606 1688 
Q 2606 2309 2350 2609 
Q 2094 2909 1697 2909 
Q 1103 2909 884 2353 
Q 769 2056 769 1575 
Q 769 1009 998 714 
Q 1228 419 1616 419 
Q 2222 419 2469 966 
Q 2606 1275 2606 1688 
z
M 1659 3428 
L 1659 3428 
z
" transform="scale(0.015625)"/>
       <path id="Helvetica-74" d="M 525 4281 
L 1094 4281 
L 1094 3347 
L 1628 3347 
L 1628 2888 
L 1094 2888 
L 1094 703 
Q 1094 528 1213 469 
Q 1278 434 1431 434 
Q 1472 434 1519 436 
Q 1566 438 1628 444 
L 1628 0 
Q 1531 -28 1426 -40 
Q 1322 -53 1200 -53 
Q 806 -53 665 148 
Q 525 350 525 672 
L 525 2888 
L 72 2888 
L 72 3347 
L 525 3347 
L 525 4281 
z
" transform="scale(0.015625)"/>
       <path id="Helvetica-68" d="M 413 4606 
L 975 4606 
L 975 2894 
Q 1175 3147 1334 3250 
Q 1606 3428 2013 3428 
Q 2741 3428 3000 2919 
Q 3141 2641 3141 2147 
L 3141 0 
L 2563 0 
L 2563 2109 
Q 2563 2478 2469 2650 
Q 2316 2925 1894 2925 
Q 1544 2925 1259 2684 
Q 975 2444 975 1775 
L 975 0 
L 413 0 
L 413 4606 
z
" transform="scale(0.015625)"/>
       <path id="Helvetica-20" transform="scale(0.015625)"/>
       <path id="Helvetica-28" d="M 1894 4666 
Q 1403 3713 1256 3263 
Q 1034 2578 1034 1681 
Q 1034 775 1288 25 
Q 1444 -438 1903 -1306 
L 1525 -1306 
Q 1069 -594 959 -397 
Q 850 -200 722 138 
Q 547 600 478 1125 
Q 444 1397 444 1644 
Q 444 2569 734 3291 
Q 919 3750 1503 4666 
L 1894 4666 
z
" transform="scale(0.015625)"/>
       <path id="Helvetica-6d" d="M 413 3347 
L 969 3347 
L 969 2872 
Q 1169 3119 1331 3231 
Q 1609 3422 1963 3422 
Q 2363 3422 2606 3225 
Q 2744 3113 2856 2894 
Q 3044 3163 3297 3292 
Q 3550 3422 3866 3422 
Q 4541 3422 4784 2934 
Q 4916 2672 4916 2228 
L 4916 0 
L 4331 0 
L 4331 2325 
Q 4331 2659 4164 2784 
Q 3997 2909 3756 2909 
Q 3425 2909 3186 2687 
Q 2947 2466 2947 1947 
L 2947 0 
L 2375 0 
L 2375 2184 
Q 2375 2525 2294 2681 
Q 2166 2916 1816 2916 
Q 1497 2916 1236 2669 
Q 975 2422 975 1775 
L 975 0 
L 413 0 
L 413 3347 
z
" transform="scale(0.015625)"/>
       <path id="Helvetica-29" d="M 222 -1306 
Q 719 -338 863 106 
Q 1081 778 1081 1681 
Q 1081 2584 828 3334 
Q 672 3797 213 4666 
L 591 4666 
Q 1072 3897 1173 3717 
Q 1275 3538 1394 3222 
Q 1544 2831 1608 2450 
Q 1672 2069 1672 1716 
Q 1672 791 1378 66 
Q 1194 -400 613 -1306 
L 222 -1306 
z
" transform="scale(0.015625)"/>
      </defs>
      <use xlink:href="#Helvetica-57"/>
      <use xlink:href="#Helvetica-61" x="94.384766"/>
      <use xlink:href="#Helvetica-76" x="150"/>
      <use xlink:href="#Helvetica-65" x="200"/>
      <use xlink:href="#Helvetica-6c" x="255.615234"/>
      <use xlink:href="#Helvetica-65" x="277.832031"/>
      <use xlink:href="#Helvetica-6e" x="333.447266"/>
      <use xlink:href="#Helvetica-67" x="389.0625"/>
      <use xlink:href="#Helvetica-74" x="444.677734"/>
      <use xlink:href="#Helvetica-68" x="472.460938"/>
      <use xlink:href="#Helvetica-20" x="528.076172"/>
      <use xlink:href="#Helvetica-28" x="555.859375"/>
      <use xlink:href="#Helvetica-6e" x="589.160156"/>
      <use xlink:href="#Helvetica-6d" x="644.775391"/>
      <use xlink:href="#Helvetica-29" x="728.076172"/>
     </g>
    </g>
   </g>
   <g id="matplotlib.axis_2">
    <g id="ytick_1">
     <g id="line2d_11">
      <path d="M 43.365 171.476945 
L 230.6225 171.476945 
" clip-path="url(#p7ba8d88789)" style="fill: none; stroke-dasharray: 1.85,0.8; stroke-dashoffset: 0; stroke: #b2b2b2; stroke-width: 0.5"/>
     </g>
     <g id="line2d_12">
      <defs>
       <path id="m965c027f73" d="M 0 0 
L 3.5 0 
" style="stroke: #000000; stroke-width: 0.8"/>
      </defs>
      <g>
       <use xlink:href="#m965c027f73" x="43.365" y="171.476945" style="stroke: #000000; stroke-width: 0.8"/>
      </g>
     </g>
     <g id="text_7">
      <!-- 0.0 -->
      <g transform="translate(25.965 175.063664) scale(0.1 -0.1)">
       <defs>
        <path id="Helvetica-2e" d="M 547 681 
L 1200 681 
L 1200 0 
L 547 0 
L 547 681 
z
" transform="scale(0.015625)"/>
       </defs>
       <use xlink:href="#Helvetica-30"/>
       <use xlink:href="#Helvetica-2e" x="55.615234"/>
       <use xlink:href="#Helvetica-30" x="83.398438"/>
      </g>
     </g>
    </g>
    <g id="ytick_2">
     <g id="line2d_13">
      <path d="M 43.365 135.651715 
L 230.6225 135.651715 
" clip-path="url(#p7ba8d88789)" style="fill: none; stroke-dasharray: 1.85,0.8; stroke-dashoffset: 0; stroke: #b2b2b2; stroke-width: 0.5"/>
     </g>
     <g id="line2d_14">
      <g>
       <use xlink:href="#m965c027f73" x="43.365" y="135.651715" style="stroke: #000000; stroke-width: 0.8"/>
      </g>
     </g>
     <g id="text_8">
      <!-- 0.2 -->
      <g transform="translate(25.965 139.238434) scale(0.1 -0.1)">
       <defs>
        <path id="Helvetica-32" d="M 200 0 
Q 231 578 439 1006 
Q 647 1434 1250 1784 
L 1850 2131 
Q 2253 2366 2416 2531 
Q 2672 2791 2672 3125 
Q 2672 3516 2437 3745 
Q 2203 3975 1813 3975 
Q 1234 3975 1013 3538 
Q 894 3303 881 2888 
L 309 2888 
Q 319 3472 525 3841 
Q 891 4491 1816 4491 
Q 2584 4491 2939 4075 
Q 3294 3659 3294 3150 
Q 3294 2613 2916 2231 
Q 2697 2009 2131 1694 
L 1703 1456 
Q 1397 1288 1222 1134 
Q 909 863 828 531 
L 3272 531 
L 3272 0 
L 200 0 
z
" transform="scale(0.015625)"/>
       </defs>
       <use xlink:href="#Helvetica-30"/>
       <use xlink:href="#Helvetica-2e" x="55.615234"/>
       <use xlink:href="#Helvetica-32" x="83.398438"/>
      </g>
     </g>
    </g>
    <g id="ytick_3">
     <g id="line2d_15">
      <path d="M 43.365 99.826485 
L 230.6225 99.826485 
" clip-path="url(#p7ba8d88789)" style="fill: none; stroke-dasharray: 1.85,0.8; stroke-dashoffset: 0; stroke: #b2b2b2; stroke-width: 0.5"/>
     </g>
     <g id="line2d_16">
      <g>
       <use xlink:href="#m965c027f73" x="43.365" y="99.826485" style="stroke: #000000; stroke-width: 0.8"/>
      </g>
     </g>
     <g id="text_9">
      <!-- 0.4 -->
      <g transform="translate(25.965 103.413204) scale(0.1 -0.1)">
       <use xlink:href="#Helvetica-30"/>
       <use xlink:href="#Helvetica-2e" x="55.615234"/>
       <use xlink:href="#Helvetica-34" x="83.398438"/>
      </g>
     </g>
    </g>
    <g id="ytick_4">
     <g id="line2d_17">
      <path d="M 43.365 64.001255 
L 230.6225 64.001255 
" clip-path="url(#p7ba8d88789)" style="fill: none; stroke-dasharray: 1.85,0.8; stroke-dashoffset: 0; stroke: #b2b2b2; stroke-width: 0.5"/>
     </g>
     <g id="line2d_18">
      <g>
       <use xlink:href="#m965c027f73" x="43.365" y="64.001255" style="stroke: #000000; stroke-width: 0.8"/>
      </g>
     </g>
     <g id="text_10">
      <!-- 0.6 -->
      <g transform="translate(25.965 67.587973) scale(0.1 -0.1)">
       <use xlink:href="#Helvetica-30"/>
       <use xlink:href="#Helvetica-2e" x="55.615234"/>
       <use xlink:href="#Helvetica-36" x="83.398438"/>
      </g>
     </g>
    </g>
    <g id="ytick_5">
     <g id="line2d_19">
      <path d="M 43.365 28.176025 
L 230.6225 28.176025 
" clip-path="url(#p7ba8d88789)" style="fill: none; stroke-dasharray: 1.85,0.8; stroke-dashoffset: 0; stroke: #b2b2b2; stroke-width: 0.5"/>
     </g>
     <g id="line2d_20">
      <g>
       <use xlink:href="#m965c027f73" x="43.365" y="28.176025" style="stroke: #000000; stroke-width: 0.8"/>
      </g>
     </g>
     <g id="text_11">
      <!-- 0.8 -->
      <g transform="translate(25.965 31.762743) scale(0.1 -0.1)">
       <use xlink:href="#Helvetica-30"/>
       <use xlink:href="#Helvetica-2e" x="55.615234"/>
       <use xlink:href="#Helvetica-38" x="83.398438"/>
      </g>
     </g>
    </g>
    <g id="text_12">
     <!-- mW/m$^2$/nm -->
     <g transform="translate(19.46375 132.33) rotate(-90) scale(0.12 -0.12)">
      <defs>
       <path id="Helvetica-2f" d="M 1456 4591 
L 1931 4591 
L 475 0 
L 0 0 
L 1456 4591 
z
" transform="scale(0.015625)"/>
       <path id="Cmr10-32" d="M 319 0 
L 319 172 
Q 319 188 331 206 
L 1325 1306 
Q 1550 1550 1690 1715 
Q 1831 1881 1968 2097 
Q 2106 2313 2186 2536 
Q 2266 2759 2266 3009 
Q 2266 3272 2169 3511 
Q 2072 3750 1880 3894 
Q 1688 4038 1416 4038 
Q 1138 4038 916 3870 
Q 694 3703 603 3438 
Q 628 3444 672 3444 
Q 816 3444 917 3347 
Q 1019 3250 1019 3097 
Q 1019 2950 917 2848 
Q 816 2747 672 2747 
Q 522 2747 420 2851 
Q 319 2956 319 3097 
Q 319 3338 409 3548 
Q 500 3759 670 3923 
Q 841 4088 1055 4175 
Q 1269 4263 1509 4263 
Q 1875 4263 2190 4108 
Q 2506 3953 2690 3670 
Q 2875 3388 2875 3009 
Q 2875 2731 2753 2481 
Q 2631 2231 2440 2026 
Q 2250 1822 1953 1562 
Q 1656 1303 1563 1216 
L 838 519 
L 1453 519 
Q 1906 519 2211 526 
Q 2516 534 2534 550 
Q 2609 631 2688 1141 
L 2875 1141 
L 2694 0 
L 319 0 
z
" transform="scale(0.015625)"/>
      </defs>
      <use xlink:href="#Helvetica-6d" transform="translate(0 0.109375)"/>
      <use xlink:href="#Helvetica-57" transform="translate(83.300781 0.109375)"/>
      <use xlink:href="#Helvetica-2f" transform="translate(177.685547 0.109375)"/>
      <use xlink:href="#Helvetica-6d" transform="translate(205.46875 0.109375)"/>
      <use xlink:href="#Cmr10-32" transform="translate(293.233672 38.373438) scale(0.7)"/>
      <use xlink:href="#Helvetica-2f" transform="translate(334.611016 0.109375)"/>
      <use xlink:href="#Helvetica-6e" transform="translate(362.394219 0.109375)"/>
      <use xlink:href="#Helvetica-6d" transform="translate(418.009453 0.109375)"/>
     </g>
    </g>
   </g>
   <g id="line2d_21">
    <path d="M 51.876705 170.098422 
L 52.727875 169.819579 
L 53.15346 169.830171 
L 53.579045 170.040335 
L 54.004631 169.978961 
L 54.430216 170.195273 
L 55.281386 170.077036 
L 56.132557 170.089603 
L 56.558142 170.176942 
L 57.409313 169.87205 
L 57.834898 169.843867 
L 58.260483 169.960041 
L 61.23958 169.202373 
L 62.94192 167.494408 
L 63.793091 165.903489 
L 65.069847 161.850983 
L 66.346602 154.375789 
L 67.623358 141.87526 
L 69.751284 108.151601 
L 70.602455 90.777421 
L 71.02804 85.360724 
L 71.453625 77.994645 
L 71.87921 74.148551 
L 72.304795 75.103616 
L 72.730381 74.243446 
L 73.155966 77.325351 
L 73.581551 79.224045 
L 74.007136 82.999247 
L 74.858307 92.519712 
L 75.709477 98.75279 
L 76.135063 99.808287 
L 76.560648 99.740139 
L 76.986233 98.800166 
L 77.411818 98.17502 
L 77.837403 94.032476 
L 78.262989 88.610856 
L 78.688574 85.249584 
L 79.114159 82.865777 
L 79.96533 74.755759 
L 80.390915 73.27025 
L 80.8165 72.714007 
L 81.242085 72.81498 
L 81.66767 74.002844 
L 82.518841 79.888385 
L 82.944426 82.532315 
L 83.370011 87.430857 
L 83.795597 90.236623 
L 84.221182 91.213786 
L 85.072352 94.683777 
L 85.497938 95.198812 
L 85.923523 93.99766 
L 86.349108 92.41461 
L 86.774693 92.245071 
L 87.200278 93.327498 
L 87.625864 93.067009 
L 88.051449 92.260096 
L 88.477034 92.543607 
L 88.902619 93.47219 
L 89.75379 96.928814 
L 90.179375 97.885996 
L 90.60496 99.980021 
L 91.456131 105.134498 
L 91.881716 106.52855 
L 92.732886 111.167442 
L 93.584057 115.532134 
L 94.435227 117.724355 
L 95.286398 121.572695 
L 95.711983 122.689462 
L 96.137568 122.846151 
L 96.563153 123.295856 
L 96.988739 123.542082 
L 97.414324 123.263859 
L 98.265494 121.796777 
L 98.69108 120.775019 
L 99.54225 117.840598 
L 100.819006 111.640526 
L 102.946932 99.839729 
L 104.223688 92.504251 
L 105.500443 86.061613 
L 105.926028 84.983405 
L 106.777199 81.554544 
L 107.202784 80.475234 
L 107.628369 80.09038 
L 108.053955 79.511903 
L 108.47954 78.591706 
L 108.905125 78.499263 
L 110.181881 79.610093 
L 111.033051 81.91718 
L 111.458636 82.72697 
L 112.309807 85.971435 
L 114.012148 93.556342 
L 115.714489 100.93179 
L 118.693585 110.69076 
L 119.11917 111.470474 
L 119.970341 113.669797 
L 120.821511 114.77569 
L 121.247097 115.709986 
L 121.672682 116.347928 
L 122.098267 116.649056 
L 122.523852 116.67459 
L 123.375023 117.152029 
L 124.226193 116.954074 
L 124.651778 116.77719 
L 125.502949 116.111271 
L 126.779705 114.529013 
L 127.630875 113.11072 
L 130.184386 107.734207 
L 131.035557 105.789881 
L 131.461142 105.04865 
L 132.737898 102.017569 
L 133.589068 100.278605 
L 134.440239 98.611773 
L 136.14258 95.556757 
L 136.99375 94.515648 
L 138.270506 92.936494 
L 138.696091 92.270292 
L 139.121676 91.924161 
L 139.547261 91.922806 
L 139.972847 92.038621 
L 140.398432 91.597791 
L 140.824017 91.363078 
L 141.249602 91.452948 
L 141.675187 91.406419 
L 142.100773 91.473533 
L 142.526358 91.361452 
L 142.951943 91.368808 
L 144.228699 92.140772 
L 144.654284 92.312853 
L 145.079869 92.647301 
L 146.78221 93.228468 
L 148.484551 93.469913 
L 148.910136 93.734217 
L 149.335722 93.674559 
L 150.186892 93.255854 
L 150.612477 92.946916 
L 151.889233 91.257816 
L 152.740403 89.44799 
L 153.591574 86.726678 
L 154.86833 81.131973 
L 156.145085 72.997238 
L 156.996256 65.829463 
L 158.273011 52.376248 
L 159.549767 39.181998 
L 159.975352 36.00997 
L 160.400938 34.164545 
L 160.826523 34.605904 
L 161.252108 36.867085 
L 161.677693 40.938074 
L 162.528864 53.375818 
L 163.380034 67.43594 
L 164.231205 78.071003 
L 164.65679 81.714782 
L 165.082375 84.294028 
L 165.50796 85.826831 
L 165.933545 86.748016 
L 166.359131 86.952169 
L 166.784716 86.201158 
L 167.210301 84.774807 
L 168.061472 80.938308 
L 168.912642 76.724678 
L 169.338227 74.927104 
L 169.763813 73.827535 
L 170.189398 73.913971 
L 170.614983 75.464005 
L 171.040568 78.489944 
L 171.466153 82.965887 
L 172.317324 96.451899 
L 173.59408 118.374861 
L 174.44525 129.909351 
L 175.29642 137.724357 
L 176.147591 143.693699 
L 176.998761 147.92934 
L 177.849932 151.089649 
L 178.701102 153.459194 
L 179.977858 156.066928 
L 181.254614 157.964651 
L 182.531369 159.468569 
L 184.659295 161.452158 
L 188.063977 163.590512 
L 191.894244 165.3571 
L 195.298926 166.414974 
L 197.001267 167.038912 
L 200.831534 167.990836 
L 201.682705 168.127524 
L 203.810631 168.517281 
L 205.087386 168.796186 
L 206.789727 169.032691 
L 208.917653 169.267678 
L 215.301432 169.984347 
L 217.429358 169.993764 
L 219.131699 170.150482 
L 222.110795 170.255455 
L 222.110795 170.255455 
" clip-path="url(#p7ba8d88789)" style="fill: none; stroke: #348abd; stroke-width: 2; stroke-linecap: square"/>
   </g>
   <g id="patch_3">
    <path d="M 43.365 177.06 
L 43.365 27.36 
" style="fill: none; stroke: #bcbcbc; stroke-width: 0.8; stroke-linejoin: miter; stroke-linecap: square"/>
   </g>
   <g id="patch_4">
    <path d="M 230.6225 177.06 
L 230.6225 27.36 
" style="fill: none; stroke: #bcbcbc; stroke-width: 0.8; stroke-linejoin: miter; stroke-linecap: square"/>
   </g>
   <g id="patch_5">
    <path d="M 43.365 177.06 
L 230.6225 177.06 
" style="fill: none; stroke: #bcbcbc; stroke-width: 0.8; stroke-linejoin: miter; stroke-linecap: square"/>
   </g>
   <g id="patch_6">
    <path d="M 43.365 27.36 
L 230.6225 27.36 
" style="fill: none; stroke: #bcbcbc; stroke-width: 0.8; stroke-linejoin: miter; stroke-linecap: square"/>
   </g>
   <g id="text_13">
    <!-- Measured spectrum -->
    <g transform="translate(73.37275 21.36) scale(0.144 -0.144)">
     <defs>
      <path id="Helvetica-4d" d="M 472 4591 
L 1363 4591 
L 2681 709 
L 3991 4591 
L 4872 4591 
L 4872 0 
L 4281 0 
L 4281 2709 
Q 4281 2850 4287 3175 
Q 4294 3500 4294 3872 
L 2984 0 
L 2369 0 
L 1050 3872 
L 1050 3731 
Q 1050 3563 1058 3217 
Q 1066 2872 1066 2709 
L 1066 0 
L 472 0 
L 472 4591 
z
" transform="scale(0.015625)"/>
      <path id="Helvetica-73" d="M 747 1050 
Q 772 769 888 619 
Q 1100 347 1625 347 
Q 1938 347 2175 483 
Q 2413 619 2413 903 
Q 2413 1119 2222 1231 
Q 2100 1300 1741 1391 
L 1294 1503 
Q 866 1609 663 1741 
Q 300 1969 300 2372 
Q 300 2847 642 3140 
Q 984 3434 1563 3434 
Q 2319 3434 2653 2991 
Q 2863 2709 2856 2384 
L 2325 2384 
Q 2309 2575 2191 2731 
Q 1997 2953 1519 2953 
Q 1200 2953 1036 2831 
Q 872 2709 872 2509 
Q 872 2291 1088 2159 
Q 1213 2081 1456 2022 
L 1828 1931 
Q 2434 1784 2641 1647 
Q 2969 1431 2969 969 
Q 2969 522 2630 197 
Q 2291 -128 1597 -128 
Q 850 -128 539 211 
Q 228 550 206 1050 
L 747 1050 
z
M 1578 3428 
L 1578 3428 
z
" transform="scale(0.015625)"/>
      <path id="Helvetica-75" d="M 975 3347 
L 975 1125 
Q 975 869 1056 706 
Q 1206 406 1616 406 
Q 2203 406 2416 931 
Q 2531 1213 2531 1703 
L 2531 3347 
L 3094 3347 
L 3094 0 
L 2563 0 
L 2569 494 
Q 2459 303 2297 172 
Q 1975 -91 1516 -91 
Q 800 -91 541 388 
Q 400 644 400 1072 
L 400 3347 
L 975 3347 
z
M 1747 3428 
L 1747 3428 
z
" transform="scale(0.015625)"/>
      <path id="Helvetica-72" d="M 428 3347 
L 963 3347 
L 963 2769 
Q 1028 2938 1284 3180 
Q 1541 3422 1875 3422 
Q 1891 3422 1928 3419 
Q 1966 3416 2056 3406 
L 2056 2813 
Q 2006 2822 1964 2825 
Q 1922 2828 1872 2828 
Q 1447 2828 1219 2554 
Q 991 2281 991 1925 
L 991 0 
L 428 0 
L 428 3347 
z
" transform="scale(0.015625)"/>
      <path id="Helvetica-64" d="M 769 1634 
Q 769 1097 997 734 
Q 1225 372 1728 372 
Q 2119 372 2370 708 
Q 2622 1044 2622 1672 
Q 2622 2306 2362 2611 
Q 2103 2916 1722 2916 
Q 1297 2916 1033 2591 
Q 769 2266 769 1634 
z
M 1616 3406 
Q 2000 3406 2259 3244 
Q 2409 3150 2600 2916 
L 2600 4606 
L 3141 4606 
L 3141 0 
L 2634 0 
L 2634 466 
Q 2438 156 2169 18 
Q 1900 -119 1553 -119 
Q 994 -119 584 351 
Q 175 822 175 1603 
Q 175 2334 548 2870 
Q 922 3406 1616 3406 
z
" transform="scale(0.015625)"/>
      <path id="Helvetica-70" d="M 1825 378 
Q 2219 378 2480 708 
Q 2741 1038 2741 1694 
Q 2741 2094 2625 2381 
Q 2406 2934 1825 2934 
Q 1241 2934 1025 2350 
Q 909 2038 909 1556 
Q 909 1169 1025 897 
Q 1244 378 1825 378 
z
M 369 3331 
L 916 3331 
L 916 2888 
Q 1084 3116 1284 3241 
Q 1569 3428 1953 3428 
Q 2522 3428 2919 2992 
Q 3316 2556 3316 1747 
Q 3316 653 2744 184 
Q 2381 -113 1900 -113 
Q 1522 -113 1266 53 
Q 1116 147 931 375 
L 931 -1334 
L 369 -1334 
L 369 3331 
z
" transform="scale(0.015625)"/>
      <path id="Helvetica-63" d="M 1703 3444 
Q 2269 3444 2623 3169 
Q 2978 2894 3050 2222 
L 2503 2222 
Q 2453 2531 2275 2736 
Q 2097 2941 1703 2941 
Q 1166 2941 934 2416 
Q 784 2075 784 1575 
Q 784 1072 996 728 
Q 1209 384 1666 384 
Q 2016 384 2220 598 
Q 2425 813 2503 1184 
L 3050 1184 
Q 2956 519 2581 211 
Q 2206 -97 1622 -97 
Q 966 -97 575 383 
Q 184 863 184 1581 
Q 184 2463 612 2953 
Q 1041 3444 1703 3444 
z
M 1616 3428 
L 1616 3428 
z
" transform="scale(0.015625)"/>
     </defs>
     <use xlink:href="#Helvetica-4d"/>
     <use xlink:href="#Helvetica-65" x="83.300781"/>
     <use xlink:href="#Helvetica-61" x="138.916016"/>
     <use xlink:href="#Helvetica-73" x="194.53125"/>
     <use xlink:href="#Helvetica-75" x="244.53125"/>
     <use xlink:href="#Helvetica-72" x="300.146484"/>
     <use xlink:href="#Helvetica-65" x="333.447266"/>
     <use xlink:href="#Helvetica-64" x="389.0625"/>
     <use xlink:href="#Helvetica-20" x="444.677734"/>
     <use xlink:href="#Helvetica-73" x="472.460938"/>
     <use xlink:href="#Helvetica-70" x="522.460938"/>
     <use xlink:href="#Helvetica-65" x="578.076172"/>
     <use xlink:href="#Helvetica-63" x="633.691406"/>
     <use xlink:href="#Helvetica-74" x="683.691406"/>
     <use xlink:href="#Helvetica-72" x="711.474609"/>
     <use xlink:href="#Helvetica-75" x="744.775391"/>
     <use xlink:href="#Helvetica-6d" x="800.390625"/>
    </g>
   </g>
  </g>
  <g id="axes_2">
   <g id="patch_7">
    <path d="M 282.65375 177.06 
L 469.91125 177.06 
L 469.91125 27.36 
L 282.65375 27.36 
z
" style="fill: #eeeeee"/>
   </g>
   <g id="matplotlib.axis_3">
    <g id="xtick_6">
     <g id="line2d_22">
      <path d="M 299.677159 177.06 
L 299.677159 27.36 
" clip-path="url(#pa206c56d9a)" style="fill: none; stroke-dasharray: 1.85,0.8; stroke-dashoffset: 0; stroke: #b2b2b2; stroke-width: 0.5"/>
     </g>
     <g id="line2d_23">
      <g>
       <use xlink:href="#m86ee7718d7" x="299.677159" y="177.06" style="stroke: #000000; stroke-width: 0.8"/>
      </g>
     </g>
     <g id="text_14">
      <!-- 400 -->
      <g transform="translate(291.335753 187.733438) scale(0.1 -0.1)">
       <use xlink:href="#Helvetica-34"/>
       <use xlink:href="#Helvetica-30" x="55.615234"/>
       <use xlink:href="#Helvetica-30" x="111.230469"/>
      </g>
     </g>
    </g>
    <g id="xtick_7">
     <g id="line2d_24">
      <path d="M 342.235682 177.06 
L 342.235682 27.36 
" clip-path="url(#pa206c56d9a)" style="fill: none; stroke-dasharray: 1.85,0.8; stroke-dashoffset: 0; stroke: #b2b2b2; stroke-width: 0.5"/>
     </g>
     <g id="line2d_25">
      <g>
       <use xlink:href="#m86ee7718d7" x="342.235682" y="177.06" style="stroke: #000000; stroke-width: 0.8"/>
      </g>
     </g>
     <g id="text_15">
      <!-- 500 -->
      <g transform="translate(333.894276 187.733438) scale(0.1 -0.1)">
       <use xlink:href="#Helvetica-35"/>
       <use xlink:href="#Helvetica-30" x="55.615234"/>
       <use xlink:href="#Helvetica-30" x="111.230469"/>
      </g>
     </g>
    </g>
    <g id="xtick_8">
     <g id="line2d_26">
      <path d="M 384.794205 177.06 
L 384.794205 27.36 
" clip-path="url(#pa206c56d9a)" style="fill: none; stroke-dasharray: 1.85,0.8; stroke-dashoffset: 0; stroke: #b2b2b2; stroke-width: 0.5"/>
     </g>
     <g id="line2d_27">
      <g>
       <use xlink:href="#m86ee7718d7" x="384.794205" y="177.06" style="stroke: #000000; stroke-width: 0.8"/>
      </g>
     </g>
     <g id="text_16">
      <!-- 600 -->
      <g transform="translate(376.452798 187.733438) scale(0.1 -0.1)">
       <use xlink:href="#Helvetica-36"/>
       <use xlink:href="#Helvetica-30" x="55.615234"/>
       <use xlink:href="#Helvetica-30" x="111.230469"/>
      </g>
     </g>
    </g>
    <g id="xtick_9">
     <g id="line2d_28">
      <path d="M 427.352727 177.06 
L 427.352727 27.36 
" clip-path="url(#pa206c56d9a)" style="fill: none; stroke-dasharray: 1.85,0.8; stroke-dashoffset: 0; stroke: #b2b2b2; stroke-width: 0.5"/>
     </g>
     <g id="line2d_29">
      <g>
       <use xlink:href="#m86ee7718d7" x="427.352727" y="177.06" style="stroke: #000000; stroke-width: 0.8"/>
      </g>
     </g>
     <g id="text_17">
      <!-- 700 -->
      <g transform="translate(419.011321 187.733438) scale(0.1 -0.1)">
       <use xlink:href="#Helvetica-37"/>
       <use xlink:href="#Helvetica-30" x="55.615234"/>
       <use xlink:href="#Helvetica-30" x="111.230469"/>
      </g>
     </g>
    </g>
    <g id="xtick_10">
     <g id="line2d_30">
      <path d="M 469.91125 177.06 
L 469.91125 27.36 
" clip-path="url(#pa206c56d9a)" style="fill: none; stroke-dasharray: 1.85,0.8; stroke-dashoffset: 0; stroke: #b2b2b2; stroke-width: 0.5"/>
     </g>
     <g id="line2d_31">
      <g>
       <use xlink:href="#m86ee7718d7" x="469.91125" y="177.06" style="stroke: #000000; stroke-width: 0.8"/>
      </g>
     </g>
     <g id="text_18">
      <!-- 800 -->
      <g transform="translate(461.569844 187.733438) scale(0.1 -0.1)">
       <use xlink:href="#Helvetica-38"/>
       <use xlink:href="#Helvetica-30" x="55.615234"/>
       <use xlink:href="#Helvetica-30" x="111.230469"/>
      </g>
     </g>
    </g>
    <g id="text_19">
     <!-- Wavelength (nm) -->
     <g transform="translate(330.602813 202.566563) scale(0.12 -0.12)">
      <use xlink:href="#Helvetica-57"/>
      <use xlink:href="#Helvetica-61" x="94.384766"/>
      <use xlink:href="#Helvetica-76" x="150"/>
      <use xlink:href="#Helvetica-65" x="200"/>
      <use xlink:href="#Helvetica-6c" x="255.615234"/>
      <use xlink:href="#Helvetica-65" x="277.832031"/>
      <use xlink:href="#Helvetica-6e" x="333.447266"/>
      <use xlink:href="#Helvetica-67" x="389.0625"/>
      <use xlink:href="#Helvetica-74" x="444.677734"/>
      <use xlink:href="#Helvetica-68" x="472.460938"/>
      <use xlink:href="#Helvetica-20" x="528.076172"/>
      <use xlink:href="#Helvetica-28" x="555.859375"/>
      <use xlink:href="#Helvetica-6e" x="589.160156"/>
      <use xlink:href="#Helvetica-6d" x="644.775391"/>
      <use xlink:href="#Helvetica-29" x="728.076172"/>
     </g>
    </g>
   </g>
   <g id="matplotlib.axis_4">
    <g id="ytick_6">
     <g id="line2d_32">
      <path d="M 282.65375 170.255455 
L 469.91125 170.255455 
" clip-path="url(#pa206c56d9a)" style="fill: none; stroke-dasharray: 1.85,0.8; stroke-dashoffset: 0; stroke: #b2b2b2; stroke-width: 0.5"/>
     </g>
     <g id="line2d_33">
      <g>
       <use xlink:href="#m965c027f73" x="282.65375" y="170.255455" style="stroke: #000000; stroke-width: 0.8"/>
      </g>
     </g>
     <g id="text_20">
      <!-- 0.0 -->
      <g transform="translate(265.25375 173.842173) scale(0.1 -0.1)">
       <use xlink:href="#Helvetica-30"/>
       <use xlink:href="#Helvetica-2e" x="55.615234"/>
       <use xlink:href="#Helvetica-30" x="83.398438"/>
      </g>
     </g>
    </g>
    <g id="ytick_7">
     <g id="line2d_34">
      <path d="M 282.65375 143.037273 
L 469.91125 143.037273 
" clip-path="url(#pa206c56d9a)" style="fill: none; stroke-dasharray: 1.85,0.8; stroke-dashoffset: 0; stroke: #b2b2b2; stroke-width: 0.5"/>
     </g>
     <g id="line2d_35">
      <g>
       <use xlink:href="#m965c027f73" x="282.65375" y="143.037273" style="stroke: #000000; stroke-width: 0.8"/>
      </g>
     </g>
     <g id="text_21">
      <!-- 0.2 -->
      <g transform="translate(265.25375 146.623991) scale(0.1 -0.1)">
       <use xlink:href="#Helvetica-30"/>
       <use xlink:href="#Helvetica-2e" x="55.615234"/>
       <use xlink:href="#Helvetica-32" x="83.398438"/>
      </g>
     </g>
    </g>
    <g id="ytick_8">
     <g id="line2d_36">
      <path d="M 282.65375 115.819091 
L 469.91125 115.819091 
" clip-path="url(#pa206c56d9a)" style="fill: none; stroke-dasharray: 1.85,0.8; stroke-dashoffset: 0; stroke: #b2b2b2; stroke-width: 0.5"/>
     </g>
     <g id="line2d_37">
      <g>
       <use xlink:href="#m965c027f73" x="282.65375" y="115.819091" style="stroke: #000000; stroke-width: 0.8"/>
      </g>
     </g>
     <g id="text_22">
      <!-- 0.4 -->
      <g transform="translate(265.25375 119.40581) scale(0.1 -0.1)">
       <use xlink:href="#Helvetica-30"/>
       <use xlink:href="#Helvetica-2e" x="55.615234"/>
       <use xlink:href="#Helvetica-34" x="83.398438"/>
      </g>
     </g>
    </g>
    <g id="ytick_9">
     <g id="line2d_38">
      <path d="M 282.65375 88.600909 
L 469.91125 88.600909 
" clip-path="url(#pa206c56d9a)" style="fill: none; stroke-dasharray: 1.85,0.8; stroke-dashoffset: 0; stroke: #b2b2b2; stroke-width: 0.5"/>
     </g>
     <g id="line2d_39">
      <g>
       <use xlink:href="#m965c027f73" x="282.65375" y="88.600909" style="stroke: #000000; stroke-width: 0.8"/>
      </g>
     </g>
     <g id="text_23">
      <!-- 0.6 -->
      <g transform="translate(265.25375 92.187628) scale(0.1 -0.1)">
       <use xlink:href="#Helvetica-30"/>
       <use xlink:href="#Helvetica-2e" x="55.615234"/>
       <use xlink:href="#Helvetica-36" x="83.398438"/>
      </g>
     </g>
    </g>
    <g id="ytick_10">
     <g id="line2d_40">
      <path d="M 282.65375 61.382727 
L 469.91125 61.382727 
" clip-path="url(#pa206c56d9a)" style="fill: none; stroke-dasharray: 1.85,0.8; stroke-dashoffset: 0; stroke: #b2b2b2; stroke-width: 0.5"/>
     </g>
     <g id="line2d_41">
      <g>
       <use xlink:href="#m965c027f73" x="282.65375" y="61.382727" style="stroke: #000000; stroke-width: 0.8"/>
      </g>
     </g>
     <g id="text_24">
      <!-- 0.8 -->
      <g transform="translate(265.25375 64.969446) scale(0.1 -0.1)">
       <use xlink:href="#Helvetica-30"/>
       <use xlink:href="#Helvetica-2e" x="55.615234"/>
       <use xlink:href="#Helvetica-38" x="83.398438"/>
      </g>
     </g>
    </g>
    <g id="ytick_11">
     <g id="line2d_42">
      <path d="M 282.65375 34.164545 
L 469.91125 34.164545 
" clip-path="url(#pa206c56d9a)" style="fill: none; stroke-dasharray: 1.85,0.8; stroke-dashoffset: 0; stroke: #b2b2b2; stroke-width: 0.5"/>
     </g>
     <g id="line2d_43">
      <g>
       <use xlink:href="#m965c027f73" x="282.65375" y="34.164545" style="stroke: #000000; stroke-width: 0.8"/>
      </g>
     </g>
     <g id="text_25">
      <!-- 1.0 -->
      <g transform="translate(265.25375 37.751264) scale(0.1 -0.1)">
       <defs>
        <path id="Helvetica-31" d="M 613 3169 
L 613 3600 
Q 1222 3659 1462 3798 
Q 1703 3938 1822 4456 
L 2266 4456 
L 2266 0 
L 1666 0 
L 1666 3169 
L 613 3169 
z
" transform="scale(0.015625)"/>
       </defs>
       <use xlink:href="#Helvetica-31"/>
       <use xlink:href="#Helvetica-2e" x="55.615234"/>
       <use xlink:href="#Helvetica-30" x="83.398438"/>
      </g>
     </g>
    </g>
    <g id="text_26">
     <!-- Spectral sensitivity -->
     <g transform="translate(258.68125 151.892812) rotate(-90) scale(0.12 -0.12)">
      <defs>
       <path id="Helvetica-53" d="M 894 1481 
Q 916 1091 1078 847 
Q 1388 391 2169 391 
Q 2519 391 2806 491 
Q 3363 684 3363 1184 
Q 3363 1559 3128 1719 
Q 2891 1875 2384 1991 
L 1763 2131 
Q 1153 2269 900 2434 
Q 463 2722 463 3294 
Q 463 3913 891 4309 
Q 1319 4706 2103 4706 
Q 2825 4706 3329 4357 
Q 3834 4009 3834 3244 
L 3250 3244 
Q 3203 3613 3050 3809 
Q 2766 4169 2084 4169 
Q 1534 4169 1293 3937 
Q 1053 3706 1053 3400 
Q 1053 3063 1334 2906 
Q 1519 2806 2169 2656 
L 2813 2509 
Q 3278 2403 3531 2219 
Q 3969 1897 3969 1284 
Q 3969 522 3414 194 
Q 2859 -134 2125 -134 
Q 1269 -134 784 303 
Q 300 738 309 1481 
L 894 1481 
z
M 2150 4716 
L 2150 4716 
z
" transform="scale(0.015625)"/>
       <path id="Helvetica-69" d="M 413 3331 
L 984 3331 
L 984 0 
L 413 0 
L 413 3331 
z
M 413 4591 
L 984 4591 
L 984 3953 
L 413 3953 
L 413 4591 
z
" transform="scale(0.015625)"/>
       <path id="Helvetica-79" d="M 2503 3347 
L 3125 3347 
Q 3006 3025 2597 1878 
Q 2291 1016 2084 472 
Q 1597 -809 1397 -1090 
Q 1197 -1372 709 -1372 
Q 591 -1372 527 -1362 
Q 463 -1353 369 -1328 
L 369 -816 
Q 516 -856 581 -865 
Q 647 -875 697 -875 
Q 853 -875 926 -823 
Q 1000 -772 1050 -697 
Q 1066 -672 1162 -440 
Q 1259 -209 1303 -97 
L 66 3347 
L 703 3347 
L 1600 622 
L 2503 3347 
z
M 1597 3428 
L 1597 3428 
z
" transform="scale(0.015625)"/>
      </defs>
      <use xlink:href="#Helvetica-53"/>
      <use xlink:href="#Helvetica-70" x="66.699219"/>
      <use xlink:href="#Helvetica-65" x="122.314453"/>
      <use xlink:href="#Helvetica-63" x="177.929688"/>
      <use xlink:href="#Helvetica-74" x="227.929688"/>
      <use xlink:href="#Helvetica-72" x="255.712891"/>
      <use xlink:href="#Helvetica-61" x="289.013672"/>
      <use xlink:href="#Helvetica-6c" x="344.628906"/>
      <use xlink:href="#Helvetica-20" x="366.845703"/>
      <use xlink:href="#Helvetica-73" x="394.628906"/>
      <use xlink:href="#Helvetica-65" x="444.628906"/>
      <use xlink:href="#Helvetica-6e" x="500.244141"/>
      <use xlink:href="#Helvetica-73" x="555.859375"/>
      <use xlink:href="#Helvetica-69" x="605.859375"/>
      <use xlink:href="#Helvetica-74" x="628.076172"/>
      <use xlink:href="#Helvetica-69" x="655.859375"/>
      <use xlink:href="#Helvetica-76" x="678.076172"/>
      <use xlink:href="#Helvetica-69" x="728.076172"/>
      <use xlink:href="#Helvetica-74" x="750.292969"/>
      <use xlink:href="#Helvetica-79" x="778.076172"/>
     </g>
    </g>
   </g>
   <g id="line2d_44">
    <path d="M 291.165455 170.255455 
L 293.718966 170.255455 
L 294.570136 169.758403 
L 297.549233 167.947814 
L 298.400403 167.035326 
L 299.251574 165.714675 
L 300.102744 163.859055 
L 300.953915 161.342314 
L 301.805085 158.038951 
L 302.656256 153.851763 
L 303.933011 145.957336 
L 305.209767 136.20534 
L 306.486523 124.491367 
L 309.891205 91.308776 
L 312.870301 63.840753 
L 314.998227 48.82987 
L 316.274983 40.611368 
L 316.700568 38.641613 
L 317.126153 37.255202 
L 317.551739 36.352276 
L 318.402909 35.398419 
L 319.679665 34.284522 
L 320.10525 34.164545 
L 320.530835 34.450818 
L 320.95642 35.317082 
L 321.382006 36.876271 
L 322.233176 41.49138 
L 323.935517 51.666587 
L 327.340199 69.923437 
L 328.616955 79.734363 
L 333.298392 119.632689 
L 334.575148 127.976585 
L 336.277489 137.261734 
L 337.554244 143.281928 
L 338.831 148.072674 
L 340.107756 151.829119 
L 341.810097 156.102951 
L 343.512438 159.792 
L 344.789193 162.159434 
L 346.065949 164.106411 
L 347.342705 165.536027 
L 348.61946 166.562188 
L 350.321801 167.633373 
L 352.024142 168.414319 
L 354.152068 169.081807 
L 356.279994 169.513233 
L 359.259091 169.869726 
L 363.089358 170.093074 
L 369.473136 170.217679 
L 387.347716 170.254622 
L 461.399545 170.255455 
L 461.399545 170.255455 
" clip-path="url(#pa206c56d9a)" style="fill: none; stroke: #1f77b4; stroke-width: 2; stroke-linecap: square"/>
   </g>
   <g id="line2d_45">
    <path d="M 291.165455 170.255455 
L 296.698062 170.156256 
L 299.677159 169.932523 
L 301.805085 169.557994 
L 303.507426 169.052686 
L 305.209767 168.346519 
L 306.912108 167.399114 
L 309.040034 165.906151 
L 310.742375 164.462653 
L 312.444716 162.694249 
L 314.572642 160.040518 
L 320.10525 152.52935 
L 323.935517 146.676884 
L 325.212273 143.952453 
L 327.340199 138.633649 
L 333.298392 123.228873 
L 337.128659 111.088829 
L 338.405415 106.497677 
L 341.384511 93.557545 
L 343.086852 85.830372 
L 350.321801 50.997119 
L 351.172972 47.663297 
L 352.024142 45.059086 
L 352.875313 43.003832 
L 354.152068 40.599057 
L 355.428824 38.773039 
L 358.833506 34.597961 
L 359.259091 34.298792 
L 359.684676 34.164545 
L 360.110261 34.201181 
L 360.535847 34.407439 
L 360.961432 34.782058 
L 361.812602 36.022092 
L 364.366114 40.676699 
L 365.217284 42.038519 
L 366.068455 43.902486 
L 367.34521 47.656589 
L 369.898722 55.789399 
L 371.175477 60.820116 
L 372.877818 68.501985 
L 374.580159 77.31954 
L 377.559256 93.639674 
L 383.943034 125.004831 
L 386.07096 134.235468 
L 387.773301 140.754499 
L 389.475642 146.378013 
L 391.177983 151.137649 
L 392.880324 155.132072 
L 394.582665 158.427337 
L 395.85942 160.472377 
L 397.136176 162.190262 
L 398.838517 164.065351 
L 400.540858 165.542742 
L 402.243199 166.706081 
L 403.94554 167.609372 
L 405.647881 168.248455 
L 408.201392 168.956266 
L 410.754903 169.435785 
L 413.734 169.773243 
L 418.415437 170.041565 
L 425.650386 170.196221 
L 442.673795 170.252125 
L 461.399545 170.255256 
L 461.399545 170.255256 
" clip-path="url(#pa206c56d9a)" style="fill: none; stroke: #2ca02c; stroke-width: 2; stroke-linecap: square"/>
   </g>
   <g id="line2d_46">
    <path d="M 291.165455 170.255455 
L 296.698062 170.144581 
L 299.677159 169.909582 
L 301.805085 169.531845 
L 303.933011 168.895707 
L 306.486523 167.883989 
L 311.16796 165.585556 
L 314.572642 163.527784 
L 317.977324 161.422617 
L 319.679665 160.332232 
L 323.509932 157.533732 
L 324.786687 156.238687 
L 326.063443 154.618454 
L 329.04254 150.25757 
L 331.170466 146.882405 
L 332.872807 143.733831 
L 334.575148 140.021584 
L 337.554244 132.941479 
L 338.831 129.111108 
L 341.384511 120.11996 
L 343.086852 113.554807 
L 345.214778 104.384819 
L 348.61946 88.609027 
L 351.172972 76.492103 
L 352.875313 69.935335 
L 354.577653 64.217565 
L 357.982335 53.329899 
L 359.259091 49.012654 
L 360.110261 46.65172 
L 360.961432 44.834916 
L 361.812602 43.586711 
L 363.514943 41.710755 
L 364.791699 39.557098 
L 365.642869 38.148699 
L 366.49404 37.152433 
L 368.196381 35.78277 
L 369.898722 34.572369 
L 370.749892 34.243115 
L 371.601063 34.164545 
L 372.452233 34.352292 
L 373.303403 34.88822 
L 374.154574 35.920428 
L 375.43133 38.347219 
L 376.2825 39.893001 
L 377.13367 40.937144 
L 378.410426 42.350605 
L 379.261597 43.824655 
L 380.112767 45.757204 
L 381.389523 49.235491 
L 383.091864 54.711834 
L 385.21979 62.56221 
L 386.922131 69.440295 
L 389.050057 79.195937 
L 399.264102 127.616895 
L 400.966443 134.290448 
L 402.668784 140.02337 
L 405.222295 147.582098 
L 406.924636 152.048 
L 408.626977 155.789613 
L 410.329318 158.8467 
L 412.031659 161.324466 
L 413.734 163.315338 
L 415.436341 164.904072 
L 417.138682 166.16433 
L 418.841023 167.15519 
L 420.968949 168.09177 
L 423.096875 168.769932 
L 425.650386 169.293265 
L 429.055068 169.71808 
L 433.31092 170.002896 
L 439.694699 170.171659 
L 453.313426 170.246565 
L 461.399545 170.252926 
L 461.399545 170.252926 
" clip-path="url(#pa206c56d9a)" style="fill: none; stroke: #d62728; stroke-width: 2; stroke-linecap: square"/>
   </g>
   <g id="line2d_47">
    <path d="M 291.165455 170.175297 
L 294.995722 169.994432 
L 297.123648 169.721842 
L 298.825989 169.30554 
L 300.102744 168.799282 
L 301.3795 168.052143 
L 302.656256 166.982468 
L 303.933011 165.514047 
L 305.209767 163.587 
L 306.486523 161.164582 
L 307.763278 158.211409 
L 309.040034 154.727482 
L 310.742375 149.283845 
L 312.870301 141.417791 
L 315.849398 129.196827 
L 320.10525 111.600273 
L 323.509932 98.943818 
L 326.914614 87.24 
L 328.191369 82.885091 
L 330.744881 73.630909 
L 335.851903 54.442091 
L 337.97983 47.229273 
L 339.256585 43.418727 
L 340.533341 40.016455 
L 341.810097 37.430727 
L 342.235682 36.614182 
L 343.938023 34.572818 
L 344.363608 34.436727 
L 344.789193 34.164545 
L 345.640364 34.164545 
L 346.065949 34.436727 
L 346.491534 34.572818 
L 347.342705 35.525455 
L 348.193875 36.750273 
L 349.045045 38.519455 
L 349.896216 40.560818 
L 351.598557 45.732273 
L 352.875313 50.495455 
L 354.577653 57.844364 
L 357.55675 72.678273 
L 364.366114 109.286727 
L 368.621966 129.183218 
L 370.324307 135.974155 
L 372.026648 142.002982 
L 373.728989 147.256091 
L 375.43133 151.774309 
L 377.13367 155.584855 
L 378.410426 158.020882 
L 380.112767 160.7427 
L 381.815108 162.947373 
L 383.517449 164.689336 
L 385.21979 166.054328 
L 386.922131 167.109033 
L 388.624472 167.917413 
L 390.752398 168.656386 
L 393.305909 169.252465 
L 396.285006 169.678429 
L 400.115273 169.974835 
L 405.647881 170.155836 
L 416.713097 170.241492 
L 461.399545 170.255436 
L 461.399545 170.255436 
" clip-path="url(#pa206c56d9a)" style="fill: none; stroke: #7f7f7f; stroke-width: 2; stroke-linecap: square"/>
   </g>
   <g id="line2d_48">
    <path d="M 291.165455 170.130501 
L 294.995722 169.883137 
L 297.123648 169.551007 
L 298.825989 169.06372 
L 300.102744 168.475794 
L 301.3795 167.546293 
L 302.23067 166.673678 
L 303.081841 165.430487 
L 304.784182 162.392122 
L 305.635352 160.527676 
L 306.486523 158.118731 
L 309.040034 148.887821 
L 310.31679 144.792845 
L 311.593545 139.467608 
L 315.849398 120.020217 
L 317.126153 113.577674 
L 319.679665 101.458778 
L 322.233176 88.698895 
L 326.063443 69.669303 
L 329.468125 53.177806 
L 330.744881 48.285338 
L 332.872807 41.101099 
L 333.723977 38.844712 
L 335.000733 36.47673 
L 335.851903 35.441078 
L 337.128659 34.435366 
L 337.554244 34.238035 
L 337.97983 34.164545 
L 338.831 34.387735 
L 339.68217 34.923933 
L 340.533341 35.690125 
L 341.384511 37.068725 
L 342.661267 39.766047 
L 343.938023 43.386065 
L 345.214778 47.691982 
L 346.491534 52.82397 
L 347.76829 58.956226 
L 350.321801 72.655137 
L 354.152068 94.711391 
L 357.55675 113.660689 
L 359.684676 124.45542 
L 361.812602 134.090656 
L 363.514943 140.897924 
L 365.217284 146.857345 
L 366.919625 151.917205 
L 368.196381 155.148003 
L 369.473136 157.949298 
L 370.749892 160.297002 
L 372.026648 162.266782 
L 373.303403 163.895382 
L 374.580159 165.21873 
L 375.856915 166.293168 
L 377.559256 167.390333 
L 379.261597 168.194086 
L 380.963938 168.779004 
L 383.091864 169.287508 
L 385.645375 169.673054 
L 389.050057 169.959185 
L 394.15708 170.146095 
L 403.94554 170.238125 
L 446.078477 170.255433 
L 461.399545 170.255452 
L 461.399545 170.255452 
" clip-path="url(#pa206c56d9a)" style="fill: none; stroke: #17becf; stroke-width: 2; stroke-linecap: square"/>
   </g>
   <g id="patch_8">
    <path d="M 282.65375 177.06 
L 282.65375 27.36 
" style="fill: none; stroke: #bcbcbc; stroke-width: 0.8; stroke-linejoin: miter; stroke-linecap: square"/>
   </g>
   <g id="patch_9">
    <path d="M 469.91125 177.06 
L 469.91125 27.36 
" style="fill: none; stroke: #bcbcbc; stroke-width: 0.8; stroke-linejoin: miter; stroke-linecap: square"/>
   </g>
   <g id="patch_10">
    <path d="M 282.65375 177.06 
L 469.91125 177.06 
" style="fill: none; stroke: #bcbcbc; stroke-width: 0.8; stroke-linejoin: miter; stroke-linecap: square"/>
   </g>
   <g id="patch_11">
    <path d="M 282.65375 27.36 
L 469.91125 27.36 
" style="fill: none; stroke: #bcbcbc; stroke-width: 0.8; stroke-linejoin: miter; stroke-linecap: square"/>
   </g>
   <g id="text_27">
    <!-- $\alpha$-opic action spectra -->
    <g transform="translate(309.1785 21.36) scale(0.144 -0.144)">
     <defs>
      <path id="Cmmi10-ae" d="M 1288 -72 
Q 984 -72 748 72 
Q 513 216 384 459 
Q 256 703 256 1013 
Q 256 1447 498 1872 
Q 741 2297 1142 2562 
Q 1544 2828 1984 2828 
Q 2309 2828 2556 2658 
Q 2803 2488 2931 2205 
Q 3059 1922 3059 1600 
L 3066 1172 
Q 3284 1475 3436 1801 
Q 3588 2128 3669 2478 
Q 3681 2516 3719 2516 
L 3794 2516 
Q 3853 2516 3853 2456 
Q 3853 2450 3847 2438 
Q 3772 2144 3659 1873 
Q 3547 1603 3395 1350 
Q 3244 1097 3066 891 
Q 3066 97 3250 97 
Q 3369 97 3445 167 
Q 3522 238 3580 341 
Q 3638 444 3653 447 
L 3731 447 
Q 3781 447 3781 384 
Q 3781 225 3598 76 
Q 3416 -72 3238 -72 
Q 3006 -72 2853 78 
Q 2700 228 2644 469 
Q 2344 213 1994 70 
Q 1644 -72 1288 -72 
z
M 1300 97 
Q 1984 97 2613 659 
Q 2609 697 2603 751 
Q 2597 806 2597 813 
L 2597 1503 
Q 2597 2663 1972 2663 
Q 1597 2663 1315 2342 
Q 1034 2022 892 1576 
Q 750 1131 750 763 
Q 750 484 892 290 
Q 1034 97 1300 97 
z
" transform="scale(0.015625)"/>
      <path id="Helvetica-2d" d="M 266 2072 
L 1834 2072 
L 1834 1494 
L 266 1494 
L 266 2072 
z
" transform="scale(0.015625)"/>
      <path id="Helvetica-6f" d="M 1741 363 
Q 2300 363 2508 786 
Q 2716 1209 2716 1728 
Q 2716 2197 2566 2491 
Q 2328 2953 1747 2953 
Q 1231 2953 997 2559 
Q 763 2166 763 1609 
Q 763 1075 997 719 
Q 1231 363 1741 363 
z
M 1763 3444 
Q 2409 3444 2856 3012 
Q 3303 2581 3303 1744 
Q 3303 934 2909 406 
Q 2516 -122 1688 -122 
Q 997 -122 590 345 
Q 184 813 184 1600 
Q 184 2444 612 2944 
Q 1041 3444 1763 3444 
z
M 1744 3428 
L 1744 3428 
z
" transform="scale(0.015625)"/>
     </defs>
     <use xlink:href="#Cmmi10-ae" transform="translate(0 0.265625)"/>
     <use xlink:href="#Helvetica-2d" transform="translate(63.916016 0.265625)"/>
     <use xlink:href="#Helvetica-6f" transform="translate(97.216797 0.265625)"/>
     <use xlink:href="#Helvetica-70" transform="translate(152.832031 0.265625)"/>
     <use xlink:href="#Helvetica-69" transform="translate(208.447266 0.265625)"/>
     <use xlink:href="#Helvetica-63" transform="translate(230.664062 0.265625)"/>
     <use xlink:href="#Helvetica-20" transform="translate(280.664062 0.265625)"/>
     <use xlink:href="#Helvetica-61" transform="translate(308.447266 0.265625)"/>
     <use xlink:href="#Helvetica-63" transform="translate(364.0625 0.265625)"/>
     <use xlink:href="#Helvetica-74" transform="translate(414.0625 0.265625)"/>
     <use xlink:href="#Helvetica-69" transform="translate(441.845703 0.265625)"/>
     <use xlink:href="#Helvetica-6f" transform="translate(464.0625 0.265625)"/>
     <use xlink:href="#Helvetica-6e" transform="translate(519.677734 0.265625)"/>
     <use xlink:href="#Helvetica-20" transform="translate(575.292969 0.265625)"/>
     <use xlink:href="#Helvetica-73" transform="translate(603.076172 0.265625)"/>
     <use xlink:href="#Helvetica-70" transform="translate(653.076172 0.265625)"/>
     <use xlink:href="#Helvetica-65" transform="translate(708.691406 0.265625)"/>
     <use xlink:href="#Helvetica-63" transform="translate(764.306641 0.265625)"/>
     <use xlink:href="#Helvetica-74" transform="translate(814.306641 0.265625)"/>
     <use xlink:href="#Helvetica-72" transform="translate(842.089844 0.265625)"/>
     <use xlink:href="#Helvetica-61" transform="translate(875.390625 0.265625)"/>
    </g>
   </g>
   <g id="legend_1">
    <g id="patch_12">
     <path d="M 399.01125 110.36 
L 462.91125 110.36 
Q 464.91125 110.36 464.91125 108.36 
L 464.91125 34.36 
Q 464.91125 32.36 462.91125 32.36 
L 399.01125 32.36 
Q 397.01125 32.36 397.01125 34.36 
L 397.01125 108.36 
Q 397.01125 110.36 399.01125 110.36 
z
" style="fill: #eeeeee; opacity: 0.8; stroke: #cccccc; stroke-width: 0.5; stroke-linejoin: miter"/>
    </g>
    <g id="line2d_49">
     <path d="M 401.01125 40.36 
L 411.01125 40.36 
L 421.01125 40.36 
" style="fill: none; stroke: #1f77b4; stroke-width: 2; stroke-linecap: square"/>
    </g>
    <g id="text_28">
     <!-- $S_{sc}(\lambda)$ -->
     <g transform="translate(429.01125 43.86) scale(0.1 -0.1)">
      <defs>
       <path id="Cmmi10-53" d="M 391 -141 
Q 372 -141 356 -119 
Q 341 -97 341 -78 
L 709 1416 
Q 722 1453 763 1453 
L 838 1453 
Q 863 1453 877 1434 
Q 891 1416 891 1388 
Q 838 1169 838 997 
Q 838 534 1156 309 
Q 1475 84 1959 84 
Q 2169 84 2372 187 
Q 2575 291 2726 456 
Q 2878 622 2968 826 
Q 3059 1031 3059 1241 
Q 3059 1466 2940 1642 
Q 2822 1819 2613 1869 
L 1831 2075 
Q 1516 2159 1328 2414 
Q 1141 2669 1141 2988 
Q 1141 3372 1369 3728 
Q 1597 4084 1964 4298 
Q 2331 4513 2713 4513 
Q 3006 4513 3251 4405 
Q 3497 4297 3628 4063 
L 3994 4494 
Q 4031 4513 4038 4513 
L 4078 4513 
Q 4103 4513 4118 4491 
Q 4134 4469 4134 4447 
L 3763 2963 
Q 3753 2919 3713 2919 
L 3634 2919 
Q 3578 2919 3578 2988 
Q 3609 3191 3609 3341 
Q 3609 3638 3507 3858 
Q 3406 4078 3201 4192 
Q 2997 4306 2694 4306 
Q 2438 4306 2184 4159 
Q 1931 4013 1775 3769 
Q 1619 3525 1619 3263 
Q 1619 3056 1739 2897 
Q 1859 2738 2059 2681 
L 2841 2478 
Q 3053 2422 3211 2280 
Q 3369 2138 3450 1942 
Q 3531 1747 3531 1516 
Q 3531 1213 3403 917 
Q 3275 622 3045 378 
Q 2816 134 2525 -3 
Q 2234 -141 1931 -141 
Q 1169 -141 838 306 
L 481 -122 
Q 444 -141 434 -141 
L 391 -141 
z
" transform="scale(0.015625)"/>
       <path id="Cmmi10-73" d="M 556 391 
Q 728 97 1247 97 
Q 1472 97 1675 173 
Q 1878 250 2011 403 
Q 2144 556 2144 775 
Q 2144 941 2025 1047 
Q 1906 1153 1734 1191 
L 1388 1259 
Q 1150 1319 997 1481 
Q 844 1644 844 1875 
Q 844 2159 998 2378 
Q 1153 2597 1406 2712 
Q 1659 2828 1931 2828 
Q 2222 2828 2451 2689 
Q 2681 2550 2681 2278 
Q 2681 2131 2598 2018 
Q 2516 1906 2369 1906 
Q 2284 1906 2223 1961 
Q 2163 2016 2163 2100 
Q 2163 2175 2205 2245 
Q 2247 2316 2317 2358 
Q 2388 2400 2463 2400 
Q 2406 2538 2251 2600 
Q 2097 2663 1919 2663 
Q 1756 2663 1593 2597 
Q 1431 2531 1332 2404 
Q 1234 2278 1234 2106 
Q 1234 1991 1315 1903 
Q 1397 1816 1516 1778 
L 1888 1703 
Q 2066 1666 2214 1570 
Q 2363 1475 2448 1329 
Q 2534 1184 2534 997 
Q 2534 759 2401 528 
Q 2269 297 2075 159 
Q 1734 -72 1241 -72 
Q 900 -72 615 84 
Q 331 241 331 550 
Q 331 725 432 854 
Q 534 984 709 984 
Q 813 984 883 921 
Q 953 859 953 756 
Q 953 609 843 500 
Q 734 391 588 391 
L 556 391 
z
" transform="scale(0.015625)"/>
       <path id="Cmmi10-63" d="M 750 763 
Q 750 484 892 290 
Q 1034 97 1300 97 
Q 1681 97 2032 272 
Q 2384 447 2606 756 
Q 2625 775 2656 775 
Q 2688 775 2720 739 
Q 2753 703 2753 672 
Q 2753 647 2741 634 
Q 2506 306 2109 117 
Q 1713 -72 1288 -72 
Q 981 -72 747 73 
Q 513 219 384 462 
Q 256 706 256 1013 
Q 256 1444 497 1869 
Q 738 2294 1138 2561 
Q 1538 2828 1978 2828 
Q 2266 2828 2495 2689 
Q 2725 2550 2725 2278 
Q 2725 2103 2623 1979 
Q 2522 1856 2350 1856 
Q 2247 1856 2176 1920 
Q 2106 1984 2106 2088 
Q 2106 2238 2215 2344 
Q 2325 2450 2472 2450 
L 2484 2450 
Q 2409 2559 2267 2611 
Q 2125 2663 1972 2663 
Q 1597 2663 1315 2342 
Q 1034 2022 892 1576 
Q 750 1131 750 763 
z
" transform="scale(0.015625)"/>
       <path id="Cmr10-28" d="M 1984 -1588 
Q 1628 -1306 1370 -942 
Q 1113 -578 948 -165 
Q 784 247 703 697 
Q 622 1147 622 1600 
Q 622 2059 703 2509 
Q 784 2959 951 3375 
Q 1119 3791 1378 4153 
Q 1638 4516 1984 4788 
Q 1984 4800 2016 4800 
L 2075 4800 
Q 2094 4800 2109 4783 
Q 2125 4766 2125 4744 
Q 2125 4716 2113 4703 
Q 1800 4397 1592 4047 
Q 1384 3697 1257 3301 
Q 1131 2906 1075 2482 
Q 1019 2059 1019 1600 
Q 1019 -434 2106 -1491 
Q 2125 -1509 2125 -1544 
Q 2125 -1559 2108 -1579 
Q 2091 -1600 2075 -1600 
L 2016 -1600 
Q 1984 -1600 1984 -1588 
z
" transform="scale(0.015625)"/>
       <path id="Cmmi10-b8" d="M 325 109 
Q 325 203 409 288 
L 2209 2053 
L 1575 3834 
Q 1500 4038 1417 4156 
Q 1334 4275 1178 4275 
Q 1106 4275 1106 4359 
Q 1113 4397 1138 4419 
Q 1163 4441 1203 4441 
Q 1875 4441 2016 4044 
L 3316 416 
Q 3400 144 3488 50 
Q 3519 3 3519 -13 
Q 3519 -72 3469 -72 
L 3122 -72 
Q 2963 -25 2869 206 
L 2284 1844 
L 738 25 
Q 622 -84 531 -84 
Q 450 -84 387 -28 
Q 325 28 325 109 
z
" transform="scale(0.015625)"/>
       <path id="Cmr10-29" d="M 416 -1600 
Q 359 -1600 359 -1544 
Q 359 -1516 372 -1503 
Q 1466 -434 1466 1600 
Q 1466 3634 384 4691 
Q 359 4706 359 4744 
Q 359 4766 376 4783 
Q 394 4800 416 4800 
L 475 4800 
Q 494 4800 506 4788 
Q 966 4425 1272 3906 
Q 1578 3388 1720 2800 
Q 1863 2213 1863 1600 
Q 1863 1147 1786 708 
Q 1709 269 1542 -157 
Q 1375 -584 1119 -945 
Q 863 -1306 506 -1588 
Q 494 -1600 475 -1600 
L 416 -1600 
z
" transform="scale(0.015625)"/>
      </defs>
      <use xlink:href="#Cmmi10-53"/>
      <use xlink:href="#Cmmi10-73" transform="translate(61.279297 -17.00625) scale(0.7)"/>
      <use xlink:href="#Cmmi10-63" transform="translate(94.023438 -17.00625) scale(0.7)"/>
      <use xlink:href="#Cmr10-28" transform="translate(130.649805 0)"/>
      <use xlink:href="#Cmmi10-b8" transform="translate(169.468164 0)"/>
      <use xlink:href="#Cmr10-29" transform="translate(227.768945 0)"/>
     </g>
    </g>
    <g id="line2d_50">
     <path d="M 401.01125 55.36 
L 411.01125 55.36 
L 421.01125 55.36 
" style="fill: none; stroke: #2ca02c; stroke-width: 2; stroke-linecap: square"/>
    </g>
    <g id="text_29">
     <!-- $S_{mc}(\lambda)$ -->
     <g transform="translate(429.01125 58.86) scale(0.1 -0.1)">
      <defs>
       <path id="Cmmi10-6d" d="M 494 109 
Q 494 147 500 166 
L 978 2075 
Q 1025 2253 1025 2388 
Q 1025 2663 838 2663 
Q 638 2663 541 2423 
Q 444 2184 353 1819 
Q 353 1800 334 1789 
Q 316 1778 300 1778 
L 225 1778 
Q 203 1778 187 1801 
Q 172 1825 172 1844 
Q 241 2122 305 2315 
Q 369 2509 505 2668 
Q 641 2828 844 2828 
Q 1084 2828 1268 2676 
Q 1453 2525 1453 2291 
Q 1644 2541 1900 2684 
Q 2156 2828 2444 2828 
Q 2747 2828 2967 2673 
Q 3188 2519 3188 2234 
Q 3384 2513 3648 2670 
Q 3913 2828 4225 2828 
Q 4556 2828 4757 2648 
Q 4959 2469 4959 2138 
Q 4959 1875 4842 1503 
Q 4725 1131 4550 672 
Q 4459 450 4459 288 
Q 4459 97 4609 97 
Q 4859 97 5025 365 
Q 5191 634 5259 941 
Q 5278 978 5313 978 
L 5388 978 
Q 5413 978 5430 961 
Q 5447 944 5447 922 
Q 5447 916 5441 903 
Q 5353 541 5136 234 
Q 4919 -72 4594 -72 
Q 4369 -72 4209 83 
Q 4050 238 4050 459 
Q 4050 572 4103 709 
Q 4284 1191 4404 1569 
Q 4525 1947 4525 2234 
Q 4525 2413 4453 2538 
Q 4381 2663 4213 2663 
Q 3863 2663 3606 2448 
Q 3350 2234 3163 1881 
Q 3150 1819 3144 1784 
L 2731 141 
Q 2709 53 2632 -9 
Q 2556 -72 2463 -72 
Q 2388 -72 2330 -22 
Q 2272 28 2272 109 
Q 2272 147 2278 166 
L 2688 1797 
Q 2753 2059 2753 2234 
Q 2753 2413 2679 2538 
Q 2606 2663 2431 2663 
Q 2197 2663 2000 2559 
Q 1803 2456 1656 2286 
Q 1509 2116 1388 1881 
L 953 141 
Q 931 53 854 -9 
Q 778 -72 684 -72 
Q 606 -72 550 -22 
Q 494 28 494 109 
z
" transform="scale(0.015625)"/>
      </defs>
      <use xlink:href="#Cmmi10-53"/>
      <use xlink:href="#Cmmi10-6d" transform="translate(61.279297 -17.00625) scale(0.7)"/>
      <use xlink:href="#Cmmi10-63" transform="translate(122.734375 -17.00625) scale(0.7)"/>
      <use xlink:href="#Cmr10-28" transform="translate(159.360742 0)"/>
      <use xlink:href="#Cmmi10-b8" transform="translate(198.179102 0)"/>
      <use xlink:href="#Cmr10-29" transform="translate(256.479883 0)"/>
     </g>
    </g>
    <g id="line2d_51">
     <path d="M 401.01125 70.36 
L 411.01125 70.36 
L 421.01125 70.36 
" style="fill: none; stroke: #d62728; stroke-width: 2; stroke-linecap: square"/>
    </g>
    <g id="text_30">
     <!-- $S_{lc}(\lambda)$ -->
     <g transform="translate(429.01125 73.86) scale(0.1 -0.1)">
      <defs>
       <path id="Cmmi10-6c" d="M 281 519 
Q 281 538 286 575 
Q 291 613 295 648 
Q 300 684 300 703 
L 1094 3872 
Q 1119 3981 1125 4044 
Q 1125 4147 709 4147 
Q 647 4147 647 4231 
Q 650 4247 661 4287 
Q 672 4328 689 4350 
Q 706 4372 738 4372 
L 1600 4441 
Q 1678 4441 1678 4359 
L 756 678 
Q 709 575 709 372 
Q 709 97 897 97 
Q 1094 97 1192 342 
Q 1291 588 1369 941 
Q 1381 978 1422 978 
L 1497 978 
Q 1522 978 1539 958 
Q 1556 938 1556 916 
Q 1481 606 1420 426 
Q 1359 247 1225 87 
Q 1091 -72 884 -72 
Q 628 -72 454 93 
Q 281 259 281 519 
z
" transform="scale(0.015625)"/>
      </defs>
      <use xlink:href="#Cmmi10-53"/>
      <use xlink:href="#Cmmi10-6c" transform="translate(61.279297 -17.00625) scale(0.7)"/>
      <use xlink:href="#Cmmi10-63" transform="translate(82.128906 -17.00625) scale(0.7)"/>
      <use xlink:href="#Cmr10-28" transform="translate(118.755273 0)"/>
      <use xlink:href="#Cmmi10-b8" transform="translate(157.573633 0)"/>
      <use xlink:href="#Cmr10-29" transform="translate(215.874414 0)"/>
     </g>
    </g>
    <g id="line2d_52">
     <path d="M 401.01125 85.36 
L 411.01125 85.36 
L 421.01125 85.36 
" style="fill: none; stroke: #7f7f7f; stroke-width: 2; stroke-linecap: square"/>
    </g>
    <g id="text_31">
     <!-- $S_{rh}(\lambda)$ -->
     <g transform="translate(429.01125 88.86) scale(0.1 -0.1)">
      <defs>
       <path id="Cmmi10-72" d="M 494 109 
Q 494 147 500 166 
L 978 2075 
Q 1025 2253 1025 2388 
Q 1025 2663 838 2663 
Q 638 2663 541 2423 
Q 444 2184 353 1819 
Q 353 1800 334 1789 
Q 316 1778 300 1778 
L 225 1778 
Q 203 1778 187 1801 
Q 172 1825 172 1844 
Q 241 2122 305 2315 
Q 369 2509 505 2668 
Q 641 2828 844 2828 
Q 1066 2828 1233 2700 
Q 1400 2572 1441 2363 
Q 1603 2575 1811 2701 
Q 2019 2828 2266 2828 
Q 2469 2828 2623 2709 
Q 2778 2591 2778 2388 
Q 2778 2225 2676 2104 
Q 2575 1984 2406 1984 
Q 2303 1984 2233 2048 
Q 2163 2113 2163 2216 
Q 2163 2356 2266 2467 
Q 2369 2578 2503 2578 
Q 2400 2663 2253 2663 
Q 1978 2663 1775 2467 
Q 1572 2272 1409 1972 
L 953 141 
Q 931 53 854 -9 
Q 778 -72 684 -72 
Q 606 -72 550 -22 
Q 494 28 494 109 
z
" transform="scale(0.015625)"/>
       <path id="Cmmi10-68" d="M 341 116 
Q 341 153 347 172 
L 1275 3872 
Q 1300 3981 1306 4044 
Q 1306 4147 891 4147 
Q 825 4147 825 4231 
Q 828 4247 839 4287 
Q 850 4328 867 4350 
Q 884 4372 916 4372 
L 1778 4441 
L 1797 4441 
Q 1797 4434 1819 4423 
Q 1841 4413 1844 4409 
Q 1856 4378 1856 4359 
L 1356 2363 
Q 1750 2828 2291 2828 
Q 2516 2828 2680 2750 
Q 2844 2672 2936 2514 
Q 3028 2356 3028 2138 
Q 3028 1875 2911 1503 
Q 2794 1131 2619 672 
Q 2528 463 2528 288 
Q 2528 97 2675 97 
Q 2925 97 3092 364 
Q 3259 631 3328 941 
Q 3341 978 3378 978 
L 3456 978 
Q 3481 978 3497 961 
Q 3513 944 3513 922 
Q 3513 916 3506 903 
Q 3450 672 3339 448 
Q 3228 225 3059 76 
Q 2891 -72 2663 -72 
Q 2438 -72 2278 83 
Q 2119 238 2119 459 
Q 2119 578 2169 709 
Q 2350 1191 2470 1569 
Q 2591 1947 2591 2234 
Q 2591 2419 2519 2541 
Q 2447 2663 2278 2663 
Q 1934 2663 1678 2452 
Q 1422 2241 1234 1894 
L 800 147 
Q 775 50 703 -11 
Q 631 -72 538 -72 
Q 456 -72 398 -17 
Q 341 38 341 116 
z
" transform="scale(0.015625)"/>
      </defs>
      <use xlink:href="#Cmmi10-53"/>
      <use xlink:href="#Cmmi10-72" transform="translate(61.279297 -17.00625) scale(0.7)"/>
      <use xlink:href="#Cmmi10-68" transform="translate(92.861328 -17.00625) scale(0.7)"/>
      <use xlink:href="#Cmr10-28" transform="translate(139.570703 0)"/>
      <use xlink:href="#Cmmi10-b8" transform="translate(178.389062 0)"/>
      <use xlink:href="#Cmr10-29" transform="translate(236.689844 0)"/>
     </g>
    </g>
    <g id="line2d_53">
     <path d="M 401.01125 100.36 
L 411.01125 100.36 
L 421.01125 100.36 
" style="fill: none; stroke: #17becf; stroke-width: 2; stroke-linecap: square"/>
    </g>
    <g id="text_32">
     <!-- $S_{mel}(\lambda)$ -->
     <g transform="translate(429.01125 103.86) scale(0.1 -0.1)">
      <defs>
       <path id="Cmmi10-65" d="M 1288 -72 
Q 981 -72 751 87 
Q 522 247 401 517 
Q 281 788 281 1088 
Q 281 1544 511 1945 
Q 741 2347 1134 2587 
Q 1528 2828 1978 2828 
Q 2253 2828 2458 2686 
Q 2663 2544 2663 2278 
Q 2663 1909 2369 1729 
Q 2075 1550 1706 1508 
Q 1338 1466 891 1466 
L 872 1466 
Q 769 1084 769 813 
Q 769 528 900 312 
Q 1031 97 1300 97 
Q 1681 97 2032 272 
Q 2384 447 2606 756 
Q 2625 775 2656 775 
Q 2688 775 2720 739 
Q 2753 703 2753 672 
Q 2753 647 2741 634 
Q 2506 306 2109 117 
Q 1713 -72 1288 -72 
z
M 909 1631 
Q 1281 1631 1597 1665 
Q 1913 1700 2169 1839 
Q 2425 1978 2425 2272 
Q 2425 2391 2359 2480 
Q 2294 2569 2189 2616 
Q 2084 2663 1972 2663 
Q 1700 2663 1483 2516 
Q 1266 2369 1125 2133 
Q 984 1897 909 1631 
z
" transform="scale(0.015625)"/>
      </defs>
      <use xlink:href="#Cmmi10-53"/>
      <use xlink:href="#Cmmi10-6d" transform="translate(61.279297 -17.00625) scale(0.7)"/>
      <use xlink:href="#Cmmi10-65" transform="translate(122.734375 -17.00625) scale(0.7)"/>
      <use xlink:href="#Cmmi10-6c" transform="translate(155.273438 -17.00625) scale(0.7)"/>
      <use xlink:href="#Cmr10-28" transform="translate(182.500391 0)"/>
      <use xlink:href="#Cmmi10-b8" transform="translate(221.31875 0)"/>
      <use xlink:href="#Cmr10-29" transform="translate(279.619531 0)"/>
     </g>
    </g>
   </g>
  </g>
  <g id="axes_3">
   <g id="patch_13">
    <path d="M 521.9425 177.06 
L 709.2 177.06 
L 709.2 27.36 
L 521.9425 27.36 
z
" style="fill: #eeeeee"/>
   </g>
   <g id="patch_14">
    <path d="M 531.305375 177.06 
L 550.031125 177.06 
L 550.031125 110.908755 
L 531.305375 110.908755 
z
" clip-path="url(#pc3307cde48)" style="fill: #1f77b4"/>
   </g>
   <g id="patch_15">
    <path d="M 568.756875 177.06 
L 587.482625 177.06 
L 587.482625 61.15811 
L 568.756875 61.15811 
z
" clip-path="url(#pc3307cde48)" style="fill: #2ca02c"/>
   </g>
   <g id="patch_16">
    <path d="M 606.208375 177.06 
L 624.934125 177.06 
L 624.934125 34.488571 
L 606.208375 34.488571 
z
" clip-path="url(#pc3307cde48)" style="fill: #d62728"/>
   </g>
   <g id="patch_17">
    <path d="M 643.659875 177.06 
L 662.385625 177.06 
L 662.385625 65.841787 
L 643.659875 65.841787 
z
" clip-path="url(#pc3307cde48)" style="fill: #7f7f7f"/>
   </g>
   <g id="patch_18">
    <path d="M 681.111375 177.06 
L 699.837125 177.06 
L 699.837125 76.396362 
L 681.111375 76.396362 
z
" clip-path="url(#pc3307cde48)" style="fill: #17becf"/>
   </g>
   <g id="matplotlib.axis_5">
    <g id="xtick_11">
     <g id="line2d_54">
      <path d="M 540.66825 177.06 
L 540.66825 27.36 
" clip-path="url(#pc3307cde48)" style="fill: none; stroke-dasharray: 1.85,0.8; stroke-dashoffset: 0; stroke: #b2b2b2; stroke-width: 0.5"/>
     </g>
     <g id="line2d_55">
      <g>
       <use xlink:href="#m86ee7718d7" x="540.66825" y="177.06" style="stroke: #000000; stroke-width: 0.8"/>
      </g>
     </g>
     <g id="text_33">
      <!-- $E_{sc}$ -->
      <g transform="translate(533.46825 187.733438) scale(0.1 -0.1)">
       <defs>
        <path id="Cmmi10-45" d="M 300 0 
Q 238 0 238 84 
Q 241 100 250 139 
Q 259 178 276 201 
Q 294 225 319 225 
Q 709 225 863 269 
Q 947 297 984 441 
L 1863 3956 
Q 1875 4019 1875 4044 
Q 1875 4113 1797 4122 
Q 1678 4147 1338 4147 
Q 1275 4147 1275 4231 
Q 1278 4247 1287 4286 
Q 1297 4325 1314 4348 
Q 1331 4372 1356 4372 
L 4825 4372 
Q 4891 4372 4891 4288 
L 4738 2963 
Q 4738 2947 4714 2926 
Q 4691 2906 4672 2906 
L 4616 2906 
Q 4550 2906 4550 2988 
Q 4588 3300 4588 3450 
Q 4588 3706 4500 3848 
Q 4413 3991 4267 4053 
Q 4122 4116 3945 4131 
Q 3769 4147 3481 4147 
L 2753 4147 
Q 2578 4147 2522 4117 
Q 2466 4088 2419 3928 
L 2034 2381 
L 2534 2381 
Q 2859 2381 3025 2426 
Q 3191 2472 3287 2615 
Q 3384 2759 3463 3072 
Q 3469 3094 3486 3111 
Q 3503 3128 3525 3128 
L 3584 3128 
Q 3647 3128 3647 3047 
L 3250 1466 
Q 3238 1409 3188 1409 
L 3128 1409 
Q 3066 1409 3066 1491 
Q 3128 1747 3128 1869 
Q 3128 2056 2959 2106 
Q 2791 2156 2509 2156 
L 1978 2156 
L 1544 416 
Q 1516 338 1516 275 
Q 1516 225 1734 225 
L 2509 225 
Q 2972 225 3259 297 
Q 3547 369 3736 526 
Q 3925 684 4062 928 
Q 4200 1172 4397 1638 
Q 4409 1678 4453 1678 
L 4513 1678 
Q 4538 1678 4556 1656 
Q 4575 1634 4575 1606 
Q 4575 1594 4569 1581 
L 3909 38 
Q 3897 0 3859 0 
L 300 0 
z
" transform="scale(0.015625)"/>
       </defs>
       <use xlink:href="#Cmmi10-45" transform="translate(0 0.6875)"/>
       <use xlink:href="#Cmmi10-73" transform="translate(73.779297 -16.31875) scale(0.7)"/>
       <use xlink:href="#Cmmi10-63" transform="translate(106.523438 -16.31875) scale(0.7)"/>
      </g>
     </g>
    </g>
    <g id="xtick_12">
     <g id="line2d_56">
      <path d="M 578.11975 177.06 
L 578.11975 27.36 
" clip-path="url(#pc3307cde48)" style="fill: none; stroke-dasharray: 1.85,0.8; stroke-dashoffset: 0; stroke: #b2b2b2; stroke-width: 0.5"/>
     </g>
     <g id="line2d_57">
      <g>
       <use xlink:href="#m86ee7718d7" x="578.11975" y="177.06" style="stroke: #000000; stroke-width: 0.8"/>
      </g>
     </g>
     <g id="text_34">
      <!-- $E_{mc}$ -->
      <g transform="translate(569.51975 187.733438) scale(0.1 -0.1)">
       <use xlink:href="#Cmmi10-45" transform="translate(0 0.6875)"/>
       <use xlink:href="#Cmmi10-6d" transform="translate(73.779297 -16.31875) scale(0.7)"/>
       <use xlink:href="#Cmmi10-63" transform="translate(135.234375 -16.31875) scale(0.7)"/>
      </g>
     </g>
    </g>
    <g id="xtick_13">
     <g id="line2d_58">
      <path d="M 615.57125 177.06 
L 615.57125 27.36 
" clip-path="url(#pc3307cde48)" style="fill: none; stroke-dasharray: 1.85,0.8; stroke-dashoffset: 0; stroke: #b2b2b2; stroke-width: 0.5"/>
     </g>
     <g id="line2d_59">
      <g>
       <use xlink:href="#m86ee7718d7" x="615.57125" y="177.06" style="stroke: #000000; stroke-width: 0.8"/>
      </g>
     </g>
     <g id="text_35">
      <!-- $E_{lc}$ -->
      <g transform="translate(608.97125 187.733438) scale(0.1 -0.1)">
       <use xlink:href="#Cmmi10-45" transform="translate(0 0.6875)"/>
       <use xlink:href="#Cmmi10-6c" transform="translate(73.779297 -16.31875) scale(0.7)"/>
       <use xlink:href="#Cmmi10-63" transform="translate(94.628906 -16.31875) scale(0.7)"/>
      </g>
     </g>
    </g>
    <g id="xtick_14">
     <g id="line2d_60">
      <path d="M 653.02275 177.06 
L 653.02275 27.36 
" clip-path="url(#pc3307cde48)" style="fill: none; stroke-dasharray: 1.85,0.8; stroke-dashoffset: 0; stroke: #b2b2b2; stroke-width: 0.5"/>
     </g>
     <g id="line2d_61">
      <g>
       <use xlink:href="#m86ee7718d7" x="653.02275" y="177.06" style="stroke: #000000; stroke-width: 0.8"/>
      </g>
     </g>
     <g id="text_36">
      <!-- $E_{rh}$ -->
      <g transform="translate(645.37275 187.733438) scale(0.1 -0.1)">
       <use xlink:href="#Cmmi10-45" transform="translate(0 0.6875)"/>
       <use xlink:href="#Cmmi10-72" transform="translate(73.779297 -16.31875) scale(0.7)"/>
       <use xlink:href="#Cmmi10-68" transform="translate(105.361328 -16.31875) scale(0.7)"/>
      </g>
     </g>
    </g>
    <g id="xtick_15">
     <g id="line2d_62">
      <path d="M 690.47425 177.06 
L 690.47425 27.36 
" clip-path="url(#pc3307cde48)" style="fill: none; stroke-dasharray: 1.85,0.8; stroke-dashoffset: 0; stroke: #b2b2b2; stroke-width: 0.5"/>
     </g>
     <g id="line2d_63">
      <g>
       <use xlink:href="#m86ee7718d7" x="690.47425" y="177.06" style="stroke: #000000; stroke-width: 0.8"/>
      </g>
     </g>
     <g id="text_37">
      <!-- $E_{mel}$ -->
      <g transform="translate(680.67425 187.733438) scale(0.1 -0.1)">
       <use xlink:href="#Cmmi10-45" transform="translate(0 0.6875)"/>
       <use xlink:href="#Cmmi10-6d" transform="translate(73.779297 -16.31875) scale(0.7)"/>
       <use xlink:href="#Cmmi10-65" transform="translate(135.234375 -16.31875) scale(0.7)"/>
       <use xlink:href="#Cmmi10-6c" transform="translate(167.773438 -16.31875) scale(0.7)"/>
      </g>
     </g>
    </g>
   </g>
   <g id="matplotlib.axis_6">
    <g id="ytick_12">
     <g id="line2d_64">
      <path d="M 521.9425 177.06 
L 709.2 177.06 
" clip-path="url(#pc3307cde48)" style="fill: none; stroke-dasharray: 1.85,0.8; stroke-dashoffset: 0; stroke: #b2b2b2; stroke-width: 0.5"/>
     </g>
     <g id="line2d_65">
      <g>
       <use xlink:href="#m965c027f73" x="521.9425" y="177.06" style="stroke: #000000; stroke-width: 0.8"/>
      </g>
     </g>
     <g id="text_38">
      <!-- 0 -->
      <g transform="translate(512.881562 180.646719) scale(0.1 -0.1)">
       <use xlink:href="#Helvetica-30"/>
      </g>
     </g>
    </g>
    <g id="ytick_13">
     <g id="line2d_66">
      <path d="M 521.9425 148.286875 
L 709.2 148.286875 
" clip-path="url(#pc3307cde48)" style="fill: none; stroke-dasharray: 1.85,0.8; stroke-dashoffset: 0; stroke: #b2b2b2; stroke-width: 0.5"/>
     </g>
     <g id="line2d_67">
      <g>
       <use xlink:href="#m965c027f73" x="521.9425" y="148.286875" style="stroke: #000000; stroke-width: 0.8"/>
      </g>
     </g>
     <g id="text_39">
      <!-- 10 -->
      <g transform="translate(507.320625 151.873594) scale(0.1 -0.1)">
       <use xlink:href="#Helvetica-31"/>
       <use xlink:href="#Helvetica-30" x="55.615234"/>
      </g>
     </g>
    </g>
    <g id="ytick_14">
     <g id="line2d_68">
      <path d="M 521.9425 119.513751 
L 709.2 119.513751 
" clip-path="url(#pc3307cde48)" style="fill: none; stroke-dasharray: 1.85,0.8; stroke-dashoffset: 0; stroke: #b2b2b2; stroke-width: 0.5"/>
     </g>
     <g id="line2d_69">
      <g>
       <use xlink:href="#m965c027f73" x="521.9425" y="119.513751" style="stroke: #000000; stroke-width: 0.8"/>
      </g>
     </g>
     <g id="text_40">
      <!-- 20 -->
      <g transform="translate(507.320625 123.10047) scale(0.1 -0.1)">
       <use xlink:href="#Helvetica-32"/>
       <use xlink:href="#Helvetica-30" x="55.615234"/>
      </g>
     </g>
    </g>
    <g id="ytick_15">
     <g id="line2d_70">
      <path d="M 521.9425 90.740626 
L 709.2 90.740626 
" clip-path="url(#pc3307cde48)" style="fill: none; stroke-dasharray: 1.85,0.8; stroke-dashoffset: 0; stroke: #b2b2b2; stroke-width: 0.5"/>
     </g>
     <g id="line2d_71">
      <g>
       <use xlink:href="#m965c027f73" x="521.9425" y="90.740626" style="stroke: #000000; stroke-width: 0.8"/>
      </g>
     </g>
     <g id="text_41">
      <!-- 30 -->
      <g transform="translate(507.320625 94.327345) scale(0.1 -0.1)">
       <defs>
        <path id="Helvetica-33" d="M 1663 -122 
Q 869 -122 511 314 
Q 153 750 153 1375 
L 741 1375 
Q 778 941 903 744 
Q 1122 391 1694 391 
Q 2138 391 2406 628 
Q 2675 866 2675 1241 
Q 2675 1703 2392 1887 
Q 2109 2072 1606 2072 
Q 1550 2072 1492 2070 
Q 1434 2069 1375 2066 
L 1375 2563 
Q 1463 2553 1522 2550 
Q 1581 2547 1650 2547 
Q 1966 2547 2169 2647 
Q 2525 2822 2525 3272 
Q 2525 3606 2287 3787 
Q 2050 3969 1734 3969 
Q 1172 3969 956 3594 
Q 838 3388 822 3006 
L 266 3006 
Q 266 3506 466 3856 
Q 809 4481 1675 4481 
Q 2359 4481 2734 4176 
Q 3109 3872 3109 3294 
Q 3109 2881 2888 2625 
Q 2750 2466 2531 2375 
Q 2884 2278 3082 2001 
Q 3281 1725 3281 1325 
Q 3281 684 2859 281 
Q 2438 -122 1663 -122 
z
" transform="scale(0.015625)"/>
       </defs>
       <use xlink:href="#Helvetica-33"/>
       <use xlink:href="#Helvetica-30" x="55.615234"/>
      </g>
     </g>
    </g>
    <g id="ytick_16">
     <g id="line2d_72">
      <path d="M 521.9425 61.967502 
L 709.2 61.967502 
" clip-path="url(#pc3307cde48)" style="fill: none; stroke-dasharray: 1.85,0.8; stroke-dashoffset: 0; stroke: #b2b2b2; stroke-width: 0.5"/>
     </g>
     <g id="line2d_73">
      <g>
       <use xlink:href="#m965c027f73" x="521.9425" y="61.967502" style="stroke: #000000; stroke-width: 0.8"/>
      </g>
     </g>
     <g id="text_42">
      <!-- 40 -->
      <g transform="translate(507.320625 65.554221) scale(0.1 -0.1)">
       <use xlink:href="#Helvetica-34"/>
       <use xlink:href="#Helvetica-30" x="55.615234"/>
      </g>
     </g>
    </g>
    <g id="ytick_17">
     <g id="line2d_74">
      <path d="M 521.9425 33.194377 
L 709.2 33.194377 
" clip-path="url(#pc3307cde48)" style="fill: none; stroke-dasharray: 1.85,0.8; stroke-dashoffset: 0; stroke: #b2b2b2; stroke-width: 0.5"/>
     </g>
     <g id="line2d_75">
      <g>
       <use xlink:href="#m965c027f73" x="521.9425" y="33.194377" style="stroke: #000000; stroke-width: 0.8"/>
      </g>
     </g>
     <g id="text_43">
      <!-- 50 -->
      <g transform="translate(507.320625 36.781096) scale(0.1 -0.1)">
       <use xlink:href="#Helvetica-35"/>
       <use xlink:href="#Helvetica-30" x="55.615234"/>
      </g>
     </g>
    </g>
    <g id="text_44">
     <!-- mW/m$^2$ -->
     <g transform="translate(500.819375 122.31) rotate(-90) scale(0.12 -0.12)">
      <use xlink:href="#Helvetica-6d" transform="translate(0 0.109375)"/>
      <use xlink:href="#Helvetica-57" transform="translate(83.300781 0.109375)"/>
      <use xlink:href="#Helvetica-2f" transform="translate(177.685547 0.109375)"/>
      <use xlink:href="#Helvetica-6d" transform="translate(205.46875 0.109375)"/>
      <use xlink:href="#Cmr10-32" transform="translate(293.233672 38.373438) scale(0.7)"/>
     </g>
    </g>
   </g>
   <g id="patch_19">
    <path d="M 521.9425 177.06 
L 521.9425 27.36 
" style="fill: none; stroke: #bcbcbc; stroke-width: 0.8; stroke-linejoin: miter; stroke-linecap: square"/>
   </g>
   <g id="patch_20">
    <path d="M 709.2 177.06 
L 709.2 27.36 
" style="fill: none; stroke: #bcbcbc; stroke-width: 0.8; stroke-linejoin: miter; stroke-linecap: square"/>
   </g>
   <g id="patch_21">
    <path d="M 521.9425 177.06 
L 709.2 177.06 
" style="fill: none; stroke: #bcbcbc; stroke-width: 0.8; stroke-linejoin: miter; stroke-linecap: square"/>
   </g>
   <g id="patch_22">
    <path d="M 521.9425 27.36 
L 709.2 27.36 
" style="fill: none; stroke: #bcbcbc; stroke-width: 0.8; stroke-linejoin: miter; stroke-linecap: square"/>
   </g>
   <g id="text_45">
    <!-- $\alpha$-opic irradiance -->
    <g transform="translate(561.71525 21.36) scale(0.144 -0.144)">
     <use xlink:href="#Cmmi10-ae" transform="translate(0 0.03125)"/>
     <use xlink:href="#Helvetica-2d" transform="translate(63.916016 0.03125)"/>
     <use xlink:href="#Helvetica-6f" transform="translate(97.216797 0.03125)"/>
     <use xlink:href="#Helvetica-70" transform="translate(152.832031 0.03125)"/>
     <use xlink:href="#Helvetica-69" transform="translate(208.447266 0.03125)"/>
     <use xlink:href="#Helvetica-63" transform="translate(230.664062 0.03125)"/>
     <use xlink:href="#Helvetica-20" transform="translate(280.664062 0.03125)"/>
     <use xlink:href="#Helvetica-69" transform="translate(308.447266 0.03125)"/>
     <use xlink:href="#Helvetica-72" transform="translate(330.664062 0.03125)"/>
     <use xlink:href="#Helvetica-72" transform="translate(363.964844 0.03125)"/>
     <use xlink:href="#Helvetica-61" transform="translate(397.265625 0.03125)"/>
     <use xlink:href="#Helvetica-64" transform="translate(452.880859 0.03125)"/>
     <use xlink:href="#Helvetica-69" transform="translate(508.496094 0.03125)"/>
     <use xlink:href="#Helvetica-61" transform="translate(530.712891 0.03125)"/>
     <use xlink:href="#Helvetica-6e" transform="translate(586.328125 0.03125)"/>
     <use xlink:href="#Helvetica-63" transform="translate(641.943359 0.03125)"/>
     <use xlink:href="#Helvetica-65" transform="translate(691.943359 0.03125)"/>
    </g>
   </g>
  </g>
 </g>
 <defs>
  <clipPath id="p7ba8d88789">
   <rect x="43.365" y="27.36" width="187.2575" height="149.7"/>
  </clipPath>
  <clipPath id="pa206c56d9a">
   <rect x="282.65375" y="27.36" width="187.2575" height="149.7"/>
  </clipPath>
  <clipPath id="pc3307cde48">
   <rect x="521.9425" y="27.36" width="187.2575" height="149.7"/>
  </clipPath>
 </defs>
</svg>
