<?xml version="1.0" encoding="utf-8" standalone="no"?>
<!DOCTYPE svg PUBLIC "-//W3C//DTD SVG 1.1//EN"
  "http://www.w3.org/Graphics/SVG/1.1/DTD/svg11.dtd">
<svg xmlns:xlink="http://www.w3.org/1999/xlink" width="864pt" height="252pt" viewBox="0 0 864 252" xmlns="http://www.w3.org/2000/svg" version="1.1">
 <metadata>
  <rdf:RDF xmlns:dc="http://purl.org/dc/elements/1.1/" xmlns:cc="http://creativecommons.org/ns#" xmlns:rdf="http://www.w3.org/1999/02/22-rdf-syntax-ns#">
   <cc:Work>
    <dc:type rdf:resource="http://purl.org/dc/dcmitype/StillImage"/>
    <dc:date>2022-12-20T14:42:55.814029</dc:date>
    <dc:format>image/svg+xml</dc:format>
    <dc:creator>
     <cc:Agent>
      <dc:title>Matplotlib v3.6.0rc2, https://matplotlib.org/</dc:title>
     </cc:Agent>
    </dc:creator>
   </cc:Work>
  </rdf:RDF>
 </metadata>
 <defs>
  <style type="text/css">*{stroke-linejoin: round; stroke-linecap: butt}</style>
 </defs>
 <g id="figure_1">
  <g id="patch_1">
   <path d="M 0 252 
L 864 252 
L 864 0 
L 0 0 
z
" style="fill: #ffffff"/>
  </g>
  <g id="axes_1">
   <g id="patch_2">
    <path d="M 63.27 197.028 
L 276.7755 197.028 
L 276.7755 33.792 
L 63.27 33.792 
z
" style="fill: #ffffff"/>
   </g>
   <g id="matplotlib.axis_1">
    <g id="xtick_1">
     <g id="line2d_1">
      <defs>
       <path id="m6137e09abc" d="M 0 0 
L 0 6 
" style="stroke: #000000; stroke-width: 1.25"/>
      </defs>
      <g>
       <use xlink:href="#m6137e09abc" x="82.679591" y="197.028" style="stroke: #000000; stroke-width: 1.25"/>
      </g>
     </g>
     <g id="text_1">
      <!-- 400 -->
      <g transform="translate(71.668935 215.996938) scale(0.132 -0.132)">
       <defs>
        <path id="Helvetica-34" d="M 2116 1584 
L 2116 3613 
L 681 1584 
L 2116 1584 
z
M 2125 0 
L 2125 1094 
L 163 1094 
L 163 1644 
L 2213 4488 
L 2688 4488 
L 2688 1584 
L 3347 1584 
L 3347 1094 
L 2688 1094 
L 2688 0 
L 2125 0 
z
" transform="scale(0.015625)"/>
        <path id="Helvetica-30" d="M 1731 4475 
Q 2600 4475 2988 3759 
Q 3288 3206 3288 2244 
Q 3288 1331 3016 734 
Q 2622 -122 1728 -122 
Q 922 -122 528 578 
Q 200 1163 200 2147 
Q 200 2909 397 3456 
Q 766 4475 1731 4475 
z
M 1725 391 
Q 2163 391 2422 778 
Q 2681 1166 2681 2222 
Q 2681 2984 2493 3476 
Q 2306 3969 1766 3969 
Q 1269 3969 1039 3501 
Q 809 3034 809 2125 
Q 809 1441 956 1025 
Q 1181 391 1725 391 
z
" transform="scale(0.015625)"/>
       </defs>
       <use xlink:href="#Helvetica-34"/>
       <use xlink:href="#Helvetica-30" x="55.615234"/>
       <use xlink:href="#Helvetica-30" x="111.230469"/>
      </g>
     </g>
    </g>
    <g id="xtick_2">
     <g id="line2d_2">
      <g>
       <use xlink:href="#m6137e09abc" x="131.203568" y="197.028" style="stroke: #000000; stroke-width: 1.25"/>
      </g>
     </g>
     <g id="text_2">
      <!-- 500 -->
      <g transform="translate(120.192912 215.996938) scale(0.132 -0.132)">
       <defs>
        <path id="Helvetica-35" d="M 791 1141 
Q 847 659 1238 475 
Q 1438 381 1700 381 
Q 2200 381 2440 700 
Q 2681 1019 2681 1406 
Q 2681 1875 2395 2131 
Q 2109 2388 1709 2388 
Q 1419 2388 1211 2275 
Q 1003 2163 856 1963 
L 369 1991 
L 709 4400 
L 3034 4400 
L 3034 3856 
L 1131 3856 
L 941 2613 
Q 1097 2731 1238 2791 
Q 1488 2894 1816 2894 
Q 2431 2894 2859 2497 
Q 3288 2100 3288 1491 
Q 3288 856 2895 371 
Q 2503 -113 1644 -113 
Q 1097 -113 676 195 
Q 256 503 206 1141 
L 791 1141 
z
" transform="scale(0.015625)"/>
       </defs>
       <use xlink:href="#Helvetica-35"/>
       <use xlink:href="#Helvetica-30" x="55.615234"/>
       <use xlink:href="#Helvetica-30" x="111.230469"/>
      </g>
     </g>
    </g>
    <g id="xtick_3">
     <g id="line2d_3">
      <g>
       <use xlink:href="#m6137e09abc" x="179.727545" y="197.028" style="stroke: #000000; stroke-width: 1.25"/>
      </g>
     </g>
     <g id="text_3">
      <!-- 600 -->
      <g transform="translate(168.716889 215.996938) scale(0.132 -0.132)">
       <defs>
        <path id="Helvetica-36" d="M 1872 4494 
Q 2622 4494 2917 4105 
Q 3213 3716 3213 3303 
L 2656 3303 
Q 2606 3569 2497 3719 
Q 2294 4000 1881 4000 
Q 1409 4000 1131 3564 
Q 853 3128 822 2316 
Q 1016 2600 1309 2741 
Q 1578 2866 1909 2866 
Q 2472 2866 2890 2506 
Q 3309 2147 3309 1434 
Q 3309 825 2912 354 
Q 2516 -116 1781 -116 
Q 1153 -116 697 361 
Q 241 838 241 1966 
Q 241 2800 444 3381 
Q 834 4494 1872 4494 
z
M 1831 384 
Q 2275 384 2495 682 
Q 2716 981 2716 1388 
Q 2716 1731 2519 2042 
Q 2322 2353 1803 2353 
Q 1441 2353 1167 2112 
Q 894 1872 894 1388 
Q 894 963 1142 673 
Q 1391 384 1831 384 
z
" transform="scale(0.015625)"/>
       </defs>
       <use xlink:href="#Helvetica-36"/>
       <use xlink:href="#Helvetica-30" x="55.615234"/>
       <use xlink:href="#Helvetica-30" x="111.230469"/>
      </g>
     </g>
    </g>
    <g id="xtick_4">
     <g id="line2d_4">
      <g>
       <use xlink:href="#m6137e09abc" x="228.251523" y="197.028" style="stroke: #000000; stroke-width: 1.25"/>
      </g>
     </g>
     <g id="text_4">
      <!-- 700 -->
      <g transform="translate(217.240866 215.996938) scale(0.132 -0.132)">
       <defs>
        <path id="Helvetica-37" d="M 3347 4400 
L 3347 3909 
Q 3131 3700 2773 3181 
Q 2416 2663 2141 2063 
Q 1869 1478 1728 997 
Q 1638 688 1494 0 
L 872 0 
Q 1084 1281 1809 2550 
Q 2238 3294 2709 3834 
L 234 3834 
L 234 4400 
L 3347 4400 
z
" transform="scale(0.015625)"/>
       </defs>
       <use xlink:href="#Helvetica-37"/>
       <use xlink:href="#Helvetica-30" x="55.615234"/>
       <use xlink:href="#Helvetica-30" x="111.230469"/>
      </g>
     </g>
    </g>
    <g id="xtick_5">
     <g id="line2d_5">
      <g>
       <use xlink:href="#m6137e09abc" x="276.7755" y="197.028" style="stroke: #000000; stroke-width: 1.25"/>
      </g>
     </g>
     <g id="text_5">
      <!-- 800 -->
      <g transform="translate(265.764844 215.996938) scale(0.132 -0.132)">
       <defs>
        <path id="Helvetica-38" d="M 1741 2600 
Q 2113 2600 2322 2808 
Q 2531 3016 2531 3303 
Q 2531 3553 2331 3762 
Q 2131 3972 1722 3972 
Q 1316 3972 1134 3762 
Q 953 3553 953 3272 
Q 953 2956 1187 2778 
Q 1422 2600 1741 2600 
z
M 1775 384 
Q 2166 384 2423 595 
Q 2681 806 2681 1225 
Q 2681 1659 2415 1884 
Q 2150 2109 1734 2109 
Q 1331 2109 1076 1879 
Q 822 1650 822 1244 
Q 822 894 1055 639 
Q 1288 384 1775 384 
z
M 975 2384 
Q 741 2484 609 2619 
Q 363 2869 363 3269 
Q 363 3769 725 4128 
Q 1088 4488 1753 4488 
Q 2397 4488 2762 4148 
Q 3128 3809 3128 3356 
Q 3128 2938 2916 2678 
Q 2797 2531 2547 2391 
Q 2825 2263 2984 2097 
Q 3281 1784 3281 1284 
Q 3281 694 2884 283 
Q 2488 -128 1763 -128 
Q 1109 -128 657 226 
Q 206 581 206 1256 
Q 206 1653 400 1942 
Q 594 2231 975 2384 
z
" transform="scale(0.015625)"/>
       </defs>
       <use xlink:href="#Helvetica-38"/>
       <use xlink:href="#Helvetica-30" x="55.615234"/>
       <use xlink:href="#Helvetica-30" x="111.230469"/>
      </g>
     </g>
    </g>
    <g id="text_6">
     <!-- Wavelength (nm) -->
     <g transform="translate(115.207125 233.246812) scale(0.144 -0.144)">
      <defs>
       <path id="Helvetica-57" d="M 791 4591 
L 1656 856 
L 2694 4591 
L 3369 4591 
L 4406 856 
L 5272 4591 
L 5953 4591 
L 4747 0 
L 4094 0 
L 3034 3806 
L 1969 0 
L 1316 0 
L 116 4591 
L 791 4591 
z
" transform="scale(0.015625)"/>
       <path id="Helvetica-61" d="M 844 891 
Q 844 647 1022 506 
Q 1200 366 1444 366 
Q 1741 366 2019 503 
Q 2488 731 2488 1250 
L 2488 1703 
Q 2384 1638 2221 1594 
Q 2059 1550 1903 1531 
L 1563 1488 
Q 1256 1447 1103 1359 
Q 844 1213 844 891 
z
M 2206 2028 
Q 2400 2053 2466 2191 
Q 2503 2266 2503 2406 
Q 2503 2694 2298 2823 
Q 2094 2953 1713 2953 
Q 1272 2953 1088 2716 
Q 984 2584 953 2325 
L 428 2325 
Q 444 2944 830 3186 
Q 1216 3428 1725 3428 
Q 2316 3428 2684 3203 
Q 3050 2978 3050 2503 
L 3050 575 
Q 3050 488 3086 434 
Q 3122 381 3238 381 
Q 3275 381 3322 386 
Q 3369 391 3422 400 
L 3422 -16 
Q 3291 -53 3222 -62 
Q 3153 -72 3034 -72 
Q 2744 -72 2613 134 
Q 2544 244 2516 444 
Q 2344 219 2022 53 
Q 1700 -113 1313 -113 
Q 847 -113 551 170 
Q 256 453 256 878 
Q 256 1344 547 1600 
Q 838 1856 1309 1916 
L 2206 2028 
z
M 1741 3428 
L 1741 3428 
z
" transform="scale(0.015625)"/>
       <path id="Helvetica-76" d="M 688 3347 
L 1581 622 
L 2516 3347 
L 3131 3347 
L 1869 0 
L 1269 0 
L 34 3347 
L 688 3347 
z
" transform="scale(0.015625)"/>
       <path id="Helvetica-65" d="M 1806 3422 
Q 2163 3422 2497 3255 
Q 2831 3088 3006 2822 
Q 3175 2569 3231 2231 
Q 3281 2000 3281 1494 
L 828 1494 
Q 844 984 1069 676 
Q 1294 369 1766 369 
Q 2206 369 2469 659 
Q 2619 828 2681 1050 
L 3234 1050 
Q 3213 866 3089 639 
Q 2966 413 2813 269 
Q 2556 19 2178 -69 
Q 1975 -119 1719 -119 
Q 1094 -119 659 336 
Q 225 791 225 1609 
Q 225 2416 662 2919 
Q 1100 3422 1806 3422 
z
M 2703 1941 
Q 2669 2306 2544 2525 
Q 2313 2931 1772 2931 
Q 1384 2931 1121 2651 
Q 859 2372 844 1941 
L 2703 1941 
z
M 1753 3428 
L 1753 3428 
z
" transform="scale(0.015625)"/>
       <path id="Helvetica-6c" d="M 428 4591 
L 991 4591 
L 991 0 
L 428 0 
L 428 4591 
z
" transform="scale(0.015625)"/>
       <path id="Helvetica-6e" d="M 413 3347 
L 947 3347 
L 947 2872 
Q 1184 3166 1450 3294 
Q 1716 3422 2041 3422 
Q 2753 3422 3003 2925 
Q 3141 2653 3141 2147 
L 3141 0 
L 2569 0 
L 2569 2109 
Q 2569 2416 2478 2603 
Q 2328 2916 1934 2916 
Q 1734 2916 1606 2875 
Q 1375 2806 1200 2600 
Q 1059 2434 1017 2257 
Q 975 2081 975 1753 
L 975 0 
L 413 0 
L 413 3347 
z
M 1734 3428 
L 1734 3428 
z
" transform="scale(0.015625)"/>
       <path id="Helvetica-67" d="M 1594 3406 
Q 1988 3406 2281 3213 
Q 2441 3103 2606 2894 
L 2606 3316 
L 3125 3316 
L 3125 272 
Q 3125 -366 2938 -734 
Q 2588 -1416 1616 -1416 
Q 1075 -1416 706 -1173 
Q 338 -931 294 -416 
L 866 -416 
Q 906 -641 1028 -763 
Q 1219 -950 1628 -950 
Q 2275 -950 2475 -494 
Q 2594 -225 2584 466 
Q 2416 209 2178 84 
Q 1941 -41 1550 -41 
Q 1006 -41 598 345 
Q 191 731 191 1622 
Q 191 2463 602 2934 
Q 1013 3406 1594 3406 
z
M 2606 1688 
Q 2606 2309 2350 2609 
Q 2094 2909 1697 2909 
Q 1103 2909 884 2353 
Q 769 2056 769 1575 
Q 769 1009 998 714 
Q 1228 419 1616 419 
Q 2222 419 2469 966 
Q 2606 1275 2606 1688 
z
M 1659 3428 
L 1659 3428 
z
" transform="scale(0.015625)"/>
       <path id="Helvetica-74" d="M 525 4281 
L 1094 4281 
L 1094 3347 
L 1628 3347 
L 1628 2888 
L 1094 2888 
L 1094 703 
Q 1094 528 1213 469 
Q 1278 434 1431 434 
Q 1472 434 1519 436 
Q 1566 438 1628 444 
L 1628 0 
Q 1531 -28 1426 -40 
Q 1322 -53 1200 -53 
Q 806 -53 665 148 
Q 525 350 525 672 
L 525 2888 
L 72 2888 
L 72 3347 
L 525 3347 
L 525 4281 
z
" transform="scale(0.015625)"/>
       <path id="Helvetica-68" d="M 413 4606 
L 975 4606 
L 975 2894 
Q 1175 3147 1334 3250 
Q 1606 3428 2013 3428 
Q 2741 3428 3000 2919 
Q 3141 2641 3141 2147 
L 3141 0 
L 2563 0 
L 2563 2109 
Q 2563 2478 2469 2650 
Q 2316 2925 1894 2925 
Q 1544 2925 1259 2684 
Q 975 2444 975 1775 
L 975 0 
L 413 0 
L 413 4606 
z
" transform="scale(0.015625)"/>
       <path id="Helvetica-20" transform="scale(0.015625)"/>
       <path id="Helvetica-28" d="M 1894 4666 
Q 1403 3713 1256 3263 
Q 1034 2578 1034 1681 
Q 1034 775 1288 25 
Q 1444 -438 1903 -1306 
L 1525 -1306 
Q 1069 -594 959 -397 
Q 850 -200 722 138 
Q 547 600 478 1125 
Q 444 1397 444 1644 
Q 444 2569 734 3291 
Q 919 3750 1503 4666 
L 1894 4666 
z
" transform="scale(0.015625)"/>
       <path id="Helvetica-6d" d="M 413 3347 
L 969 3347 
L 969 2872 
Q 1169 3119 1331 3231 
Q 1609 3422 1963 3422 
Q 2363 3422 2606 3225 
Q 2744 3113 2856 2894 
Q 3044 3163 3297 3292 
Q 3550 3422 3866 3422 
Q 4541 3422 4784 2934 
Q 4916 2672 4916 2228 
L 4916 0 
L 4331 0 
L 4331 2325 
Q 4331 2659 4164 2784 
Q 3997 2909 3756 2909 
Q 3425 2909 3186 2687 
Q 2947 2466 2947 1947 
L 2947 0 
L 2375 0 
L 2375 2184 
Q 2375 2525 2294 2681 
Q 2166 2916 1816 2916 
Q 1497 2916 1236 2669 
Q 975 2422 975 1775 
L 975 0 
L 413 0 
L 413 3347 
z
" transform="scale(0.015625)"/>
       <path id="Helvetica-29" d="M 222 -1306 
Q 719 -338 863 106 
Q 1081 778 1081 1681 
Q 1081 2584 828 3334 
Q 672 3797 213 4666 
L 591 4666 
Q 1072 3897 1173 3717 
Q 1275 3538 1394 3222 
Q 1544 2831 1608 2450 
Q 1672 2069 1672 1716 
Q 1672 791 1378 66 
Q 1194 -400 613 -1306 
L 222 -1306 
z
" transform="scale(0.015625)"/>
      </defs>
      <use xlink:href="#Helvetica-57"/>
      <use xlink:href="#Helvetica-61" x="94.384766"/>
      <use xlink:href="#Helvetica-76" x="150"/>
      <use xlink:href="#Helvetica-65" x="200"/>
      <use xlink:href="#Helvetica-6c" x="255.615234"/>
      <use xlink:href="#Helvetica-65" x="277.832031"/>
      <use xlink:href="#Helvetica-6e" x="333.447266"/>
      <use xlink:href="#Helvetica-67" x="389.0625"/>
      <use xlink:href="#Helvetica-74" x="444.677734"/>
      <use xlink:href="#Helvetica-68" x="472.460938"/>
      <use xlink:href="#Helvetica-20" x="528.076172"/>
      <use xlink:href="#Helvetica-28" x="555.859375"/>
      <use xlink:href="#Helvetica-6e" x="589.160156"/>
      <use xlink:href="#Helvetica-6d" x="644.775391"/>
      <use xlink:href="#Helvetica-29" x="728.076172"/>
     </g>
    </g>
   </g>
   <g id="matplotlib.axis_2">
    <g id="ytick_1">
     <g id="line2d_6">
      <defs>
       <path id="mfd91f58e69" d="M 0 0 
L -6 0 
" style="stroke: #000000; stroke-width: 1.25"/>
      </defs>
      <g>
       <use xlink:href="#mfd91f58e69" x="63.27" y="190.94012" style="stroke: #000000; stroke-width: 1.25"/>
      </g>
     </g>
     <g id="text_7">
      <!-- 0.0 -->
      <g transform="translate(35.422 195.674589) scale(0.132 -0.132)">
       <defs>
        <path id="Helvetica-2e" d="M 547 681 
L 1200 681 
L 1200 0 
L 547 0 
L 547 681 
z
" transform="scale(0.015625)"/>
       </defs>
       <use xlink:href="#Helvetica-30"/>
       <use xlink:href="#Helvetica-2e" x="55.615234"/>
       <use xlink:href="#Helvetica-30" x="83.398438"/>
      </g>
     </g>
    </g>
    <g id="ytick_2">
     <g id="line2d_7">
      <g>
       <use xlink:href="#mfd91f58e69" x="63.27" y="151.875543" style="stroke: #000000; stroke-width: 1.25"/>
      </g>
     </g>
     <g id="text_8">
      <!-- 0.2 -->
      <g transform="translate(35.422 156.610012) scale(0.132 -0.132)">
       <defs>
        <path id="Helvetica-32" d="M 200 0 
Q 231 578 439 1006 
Q 647 1434 1250 1784 
L 1850 2131 
Q 2253 2366 2416 2531 
Q 2672 2791 2672 3125 
Q 2672 3516 2437 3745 
Q 2203 3975 1813 3975 
Q 1234 3975 1013 3538 
Q 894 3303 881 2888 
L 309 2888 
Q 319 3472 525 3841 
Q 891 4491 1816 4491 
Q 2584 4491 2939 4075 
Q 3294 3659 3294 3150 
Q 3294 2613 2916 2231 
Q 2697 2009 2131 1694 
L 1703 1456 
Q 1397 1288 1222 1134 
Q 909 863 828 531 
L 3272 531 
L 3272 0 
L 200 0 
z
" transform="scale(0.015625)"/>
       </defs>
       <use xlink:href="#Helvetica-30"/>
       <use xlink:href="#Helvetica-2e" x="55.615234"/>
       <use xlink:href="#Helvetica-32" x="83.398438"/>
      </g>
     </g>
    </g>
    <g id="ytick_3">
     <g id="line2d_8">
      <g>
       <use xlink:href="#mfd91f58e69" x="63.27" y="112.810965" style="stroke: #000000; stroke-width: 1.25"/>
      </g>
     </g>
     <g id="text_9">
      <!-- 0.4 -->
      <g transform="translate(35.422 117.545434) scale(0.132 -0.132)">
       <use xlink:href="#Helvetica-30"/>
       <use xlink:href="#Helvetica-2e" x="55.615234"/>
       <use xlink:href="#Helvetica-34" x="83.398438"/>
      </g>
     </g>
    </g>
    <g id="ytick_4">
     <g id="line2d_9">
      <g>
       <use xlink:href="#mfd91f58e69" x="63.27" y="73.746388" style="stroke: #000000; stroke-width: 1.25"/>
      </g>
     </g>
     <g id="text_10">
      <!-- 0.6 -->
      <g transform="translate(35.422 78.480856) scale(0.132 -0.132)">
       <use xlink:href="#Helvetica-30"/>
       <use xlink:href="#Helvetica-2e" x="55.615234"/>
       <use xlink:href="#Helvetica-36" x="83.398438"/>
      </g>
     </g>
    </g>
    <g id="ytick_5">
     <g id="line2d_10">
      <g>
       <use xlink:href="#mfd91f58e69" x="63.27" y="34.68181" style="stroke: #000000; stroke-width: 1.25"/>
      </g>
     </g>
     <g id="text_11">
      <!-- 0.8 -->
      <g transform="translate(35.422 39.416279) scale(0.132 -0.132)">
       <use xlink:href="#Helvetica-30"/>
       <use xlink:href="#Helvetica-2e" x="55.615234"/>
       <use xlink:href="#Helvetica-38" x="83.398438"/>
      </g>
     </g>
    </g>
    <g id="text_12">
     <!-- mW/m$^2$/nm -->
     <g transform="translate(28.4205 151.698) rotate(-90) scale(0.144 -0.144)">
      <defs>
       <path id="Helvetica-2f" d="M 1456 4591 
L 1931 4591 
L 475 0 
L 0 0 
L 1456 4591 
z
" transform="scale(0.015625)"/>
       <path id="DejaVuSans-32" d="M 1228 531 
L 3431 531 
L 3431 0 
L 469 0 
L 469 531 
Q 828 903 1448 1529 
Q 2069 2156 2228 2338 
Q 2531 2678 2651 2914 
Q 2772 3150 2772 3378 
Q 2772 3750 2511 3984 
Q 2250 4219 1831 4219 
Q 1534 4219 1204 4116 
Q 875 4013 500 3803 
L 500 4441 
Q 881 4594 1212 4672 
Q 1544 4750 1819 4750 
Q 2544 4750 2975 4387 
Q 3406 4025 3406 3419 
Q 3406 3131 3298 2873 
Q 3191 2616 2906 2266 
Q 2828 2175 2409 1742 
Q 1991 1309 1228 531 
z
" transform="scale(0.015625)"/>
      </defs>
      <use xlink:href="#Helvetica-6d" transform="translate(0 0.765625)"/>
      <use xlink:href="#Helvetica-57" transform="translate(83.300781 0.765625)"/>
      <use xlink:href="#Helvetica-2f" transform="translate(177.685547 0.765625)"/>
      <use xlink:href="#Helvetica-6d" transform="translate(205.46875 0.765625)"/>
      <use xlink:href="#DejaVuSans-32" transform="translate(289.726562 39.046875) scale(0.7)"/>
      <use xlink:href="#Helvetica-2f" transform="translate(336.99707 0.765625)"/>
      <use xlink:href="#Helvetica-6e" transform="translate(364.780273 0.765625)"/>
      <use xlink:href="#Helvetica-6d" transform="translate(420.395508 0.765625)"/>
     </g>
    </g>
   </g>
   <g id="line2d_11">
    <path d="M 72.974795 189.43695 
L 73.945275 189.132894 
L 74.430515 189.144444 
L 74.915755 189.373611 
L 75.400994 189.306688 
L 75.886234 189.542559 
L 76.371474 189.536221 
L 77.341953 189.389447 
L 78.312433 189.522571 
L 79.282913 189.19011 
L 79.768152 189.159378 
L 80.253392 189.286057 
L 83.65007 188.45988 
L 85.59103 186.597479 
L 86.561509 184.862708 
L 87.531989 182.149933 
L 88.017228 180.443771 
L 89.472948 172.292663 
L 90.928667 158.661826 
L 91.899147 145.522527 
L 92.384386 139.299926 
L 94.810585 97.037198 
L 95.295825 89.005073 
L 95.781065 84.811212 
L 96.266305 85.852634 
L 96.751544 84.914687 
L 97.236784 88.27526 
L 97.722024 90.345635 
L 98.207264 94.462195 
L 99.177743 104.843508 
L 100.148223 111.640187 
L 100.633463 112.791123 
L 101.118702 112.716812 
L 101.603942 111.691846 
L 102.089182 111.010174 
L 102.574422 106.493057 
L 103.059661 100.58121 
L 103.544901 96.916009 
L 104.030141 94.316657 
L 105.00062 85.473324 
L 105.48586 83.853493 
L 105.9711 83.246954 
L 106.45634 83.357057 
L 106.94158 84.652329 
L 107.912059 91.070045 
L 108.397299 93.953042 
L 108.882539 99.294514 
L 109.367778 102.35398 
L 109.853018 103.419499 
L 110.823498 107.20325 
L 111.308737 107.764854 
L 111.793977 106.455093 
L 112.279217 104.728902 
L 112.764457 104.544034 
L 113.249697 105.724334 
L 113.734936 105.440292 
L 114.220176 104.560417 
L 114.705416 104.869564 
L 115.190656 105.88211 
L 116.161135 109.651285 
L 116.646375 110.695016 
L 117.131615 112.978384 
L 118.102094 118.598934 
L 118.587334 120.119037 
L 119.557814 125.177382 
L 120.528293 129.936733 
L 121.498773 132.327176 
L 122.469252 136.523486 
L 122.954492 137.741232 
L 123.439732 137.912089 
L 123.924972 138.402457 
L 124.410211 138.670947 
L 124.895451 138.367567 
L 125.865931 136.76783 
L 126.35117 135.653684 
L 127.32165 132.453929 
L 128.777369 125.693242 
L 131.203568 112.825408 
L 132.659287 104.826649 
L 134.115007 97.801462 
L 134.600247 96.625762 
L 135.570726 92.886861 
L 136.055966 91.709958 
L 136.541206 91.290306 
L 137.026445 90.659522 
L 137.511685 89.65612 
L 137.996925 89.555318 
L 139.452644 90.76659 
L 140.423124 93.282286 
L 140.908364 94.165298 
L 141.878843 97.703131 
L 143.819802 105.973871 
L 145.760761 114.016213 
L 147.216481 118.934166 
L 148.18696 122.106332 
L 149.15744 124.657598 
L 149.64268 125.507814 
L 150.127919 126.886226 
L 150.613159 127.906002 
L 151.583639 129.11189 
L 152.068878 130.130666 
L 152.554118 130.826292 
L 153.039358 131.154648 
L 153.524598 131.18249 
L 154.495077 131.7031 
L 155.465557 131.487246 
L 155.950797 131.294368 
L 156.921276 130.568236 
L 158.376995 128.842908 
L 158.862235 128.175336 
L 160.317955 125.415002 
L 161.288434 123.428865 
L 162.258914 121.43371 
L 163.229393 119.313577 
L 163.714633 118.505323 
L 165.170352 115.200169 
L 166.140832 113.303966 
L 166.626072 112.513839 
L 167.596551 110.61628 
L 168.081791 109.891998 
L 169.05227 108.155165 
L 170.02275 107.019918 
L 171.478469 105.297976 
L 171.963709 104.571535 
L 172.448949 104.194107 
L 172.934189 104.192629 
L 173.419428 104.318917 
L 173.904668 103.838226 
L 174.389908 103.582291 
L 174.875148 103.680286 
L 175.360387 103.62955 
L 175.845627 103.702732 
L 176.330867 103.580517 
L 176.816107 103.588538 
L 178.271826 104.430304 
L 178.757066 104.617945 
L 179.242306 104.982634 
L 180.698025 105.474223 
L 182.153744 105.867502 
L 183.124224 105.879627 
L 183.609464 106.167829 
L 184.094703 106.102778 
L 185.065183 105.646213 
L 185.550423 105.30934 
L 187.006142 103.46751 
L 187.976622 101.494038 
L 188.947101 98.526663 
L 190.40282 92.42608 
L 191.85854 83.555795 
L 192.829019 75.739904 
L 194.284739 61.070238 
L 195.740458 46.682954 
L 196.225698 43.224107 
L 196.710937 41.211818 
L 197.196177 41.693085 
L 197.681417 44.158724 
L 198.166657 48.597814 
L 199.137136 62.16019 
L 200.107616 77.491641 
L 201.078095 89.088334 
L 201.563335 93.061587 
L 202.048575 95.874051 
L 202.533815 97.545451 
L 203.019055 98.54993 
L 203.504294 98.772543 
L 203.989534 97.953625 
L 204.474774 96.398303 
L 205.445253 92.214903 
L 206.415733 87.620274 
L 206.900973 85.660162 
L 207.386212 84.461169 
L 207.871452 84.55542 
L 208.356692 86.24561 
L 208.841932 89.545157 
L 209.327172 94.425819 
L 210.297651 109.131247 
L 211.75337 133.036501 
L 212.72385 145.61395 
L 213.69433 154.135595 
L 214.664809 160.64469 
L 215.635289 165.263321 
L 216.605768 168.709388 
L 217.576248 171.293189 
L 219.031967 174.136717 
L 220.002447 175.575888 
L 221.458166 177.36669 
L 223.399125 179.173697 
L 224.369605 180.008884 
L 228.251523 182.34059 
L 232.618681 184.266914 
L 236.500599 185.420441 
L 238.441558 186.100797 
L 242.323476 186.984201 
L 243.293956 187.264192 
L 244.749675 187.443111 
L 246.205394 187.712841 
L 247.661114 188.016965 
L 249.602073 188.274855 
L 252.028272 188.531089 
L 259.306868 189.312561 
L 261.733067 189.322829 
L 263.674026 189.493717 
L 267.070705 189.608182 
L 267.070705 189.608182 
" clip-path="url(#p02e8bee2ec)" style="fill: none; stroke: #1f77b4; stroke-width: 1.5; stroke-linecap: square"/>
   </g>
   <g id="patch_3">
    <path d="M 63.27 197.028 
L 63.27 33.792 
" style="fill: none; stroke: #000000; stroke-width: 1.25; stroke-linejoin: miter; stroke-linecap: square"/>
   </g>
   <g id="patch_4">
    <path d="M 276.7755 197.028 
L 276.7755 33.792 
" style="fill: none; stroke: #000000; stroke-width: 1.25; stroke-linejoin: miter; stroke-linecap: square"/>
   </g>
   <g id="patch_5">
    <path d="M 63.27 197.028 
L 276.7755 197.028 
" style="fill: none; stroke: #000000; stroke-width: 1.25; stroke-linejoin: miter; stroke-linecap: square"/>
   </g>
   <g id="patch_6">
    <path d="M 63.27 33.792 
L 276.7755 33.792 
" style="fill: none; stroke: #000000; stroke-width: 1.25; stroke-linejoin: miter; stroke-linecap: square"/>
   </g>
   <g id="text_13">
    <!-- Measured spectrum -->
    <g transform="translate(106.40175 27.792) scale(0.144 -0.144)">
     <defs>
      <path id="Helvetica-4d" d="M 472 4591 
L 1363 4591 
L 2681 709 
L 3991 4591 
L 4872 4591 
L 4872 0 
L 4281 0 
L 4281 2709 
Q 4281 2850 4287 3175 
Q 4294 3500 4294 3872 
L 2984 0 
L 2369 0 
L 1050 3872 
L 1050 3731 
Q 1050 3563 1058 3217 
Q 1066 2872 1066 2709 
L 1066 0 
L 472 0 
L 472 4591 
z
" transform="scale(0.015625)"/>
      <path id="Helvetica-73" d="M 747 1050 
Q 772 769 888 619 
Q 1100 347 1625 347 
Q 1938 347 2175 483 
Q 2413 619 2413 903 
Q 2413 1119 2222 1231 
Q 2100 1300 1741 1391 
L 1294 1503 
Q 866 1609 663 1741 
Q 300 1969 300 2372 
Q 300 2847 642 3140 
Q 984 3434 1563 3434 
Q 2319 3434 2653 2991 
Q 2863 2709 2856 2384 
L 2325 2384 
Q 2309 2575 2191 2731 
Q 1997 2953 1519 2953 
Q 1200 2953 1036 2831 
Q 872 2709 872 2509 
Q 872 2291 1088 2159 
Q 1213 2081 1456 2022 
L 1828 1931 
Q 2434 1784 2641 1647 
Q 2969 1431 2969 969 
Q 2969 522 2630 197 
Q 2291 -128 1597 -128 
Q 850 -128 539 211 
Q 228 550 206 1050 
L 747 1050 
z
M 1578 3428 
L 1578 3428 
z
" transform="scale(0.015625)"/>
      <path id="Helvetica-75" d="M 975 3347 
L 975 1125 
Q 975 869 1056 706 
Q 1206 406 1616 406 
Q 2203 406 2416 931 
Q 2531 1213 2531 1703 
L 2531 3347 
L 3094 3347 
L 3094 0 
L 2563 0 
L 2569 494 
Q 2459 303 2297 172 
Q 1975 -91 1516 -91 
Q 800 -91 541 388 
Q 400 644 400 1072 
L 400 3347 
L 975 3347 
z
M 1747 3428 
L 1747 3428 
z
" transform="scale(0.015625)"/>
      <path id="Helvetica-72" d="M 428 3347 
L 963 3347 
L 963 2769 
Q 1028 2938 1284 3180 
Q 1541 3422 1875 3422 
Q 1891 3422 1928 3419 
Q 1966 3416 2056 3406 
L 2056 2813 
Q 2006 2822 1964 2825 
Q 1922 2828 1872 2828 
Q 1447 2828 1219 2554 
Q 991 2281 991 1925 
L 991 0 
L 428 0 
L 428 3347 
z
" transform="scale(0.015625)"/>
      <path id="Helvetica-64" d="M 769 1634 
Q 769 1097 997 734 
Q 1225 372 1728 372 
Q 2119 372 2370 708 
Q 2622 1044 2622 1672 
Q 2622 2306 2362 2611 
Q 2103 2916 1722 2916 
Q 1297 2916 1033 2591 
Q 769 2266 769 1634 
z
M 1616 3406 
Q 2000 3406 2259 3244 
Q 2409 3150 2600 2916 
L 2600 4606 
L 3141 4606 
L 3141 0 
L 2634 0 
L 2634 466 
Q 2438 156 2169 18 
Q 1900 -119 1553 -119 
Q 994 -119 584 351 
Q 175 822 175 1603 
Q 175 2334 548 2870 
Q 922 3406 1616 3406 
z
" transform="scale(0.015625)"/>
      <path id="Helvetica-70" d="M 1825 378 
Q 2219 378 2480 708 
Q 2741 1038 2741 1694 
Q 2741 2094 2625 2381 
Q 2406 2934 1825 2934 
Q 1241 2934 1025 2350 
Q 909 2038 909 1556 
Q 909 1169 1025 897 
Q 1244 378 1825 378 
z
M 369 3331 
L 916 3331 
L 916 2888 
Q 1084 3116 1284 3241 
Q 1569 3428 1953 3428 
Q 2522 3428 2919 2992 
Q 3316 2556 3316 1747 
Q 3316 653 2744 184 
Q 2381 -113 1900 -113 
Q 1522 -113 1266 53 
Q 1116 147 931 375 
L 931 -1334 
L 369 -1334 
L 369 3331 
z
" transform="scale(0.015625)"/>
      <path id="Helvetica-63" d="M 1703 3444 
Q 2269 3444 2623 3169 
Q 2978 2894 3050 2222 
L 2503 2222 
Q 2453 2531 2275 2736 
Q 2097 2941 1703 2941 
Q 1166 2941 934 2416 
Q 784 2075 784 1575 
Q 784 1072 996 728 
Q 1209 384 1666 384 
Q 2016 384 2220 598 
Q 2425 813 2503 1184 
L 3050 1184 
Q 2956 519 2581 211 
Q 2206 -97 1622 -97 
Q 966 -97 575 383 
Q 184 863 184 1581 
Q 184 2463 612 2953 
Q 1041 3444 1703 3444 
z
M 1616 3428 
L 1616 3428 
z
" transform="scale(0.015625)"/>
     </defs>
     <use xlink:href="#Helvetica-4d"/>
     <use xlink:href="#Helvetica-65" x="83.300781"/>
     <use xlink:href="#Helvetica-61" x="138.916016"/>
     <use xlink:href="#Helvetica-73" x="194.53125"/>
     <use xlink:href="#Helvetica-75" x="244.53125"/>
     <use xlink:href="#Helvetica-72" x="300.146484"/>
     <use xlink:href="#Helvetica-65" x="333.447266"/>
     <use xlink:href="#Helvetica-64" x="389.0625"/>
     <use xlink:href="#Helvetica-20" x="444.677734"/>
     <use xlink:href="#Helvetica-73" x="472.460938"/>
     <use xlink:href="#Helvetica-70" x="522.460938"/>
     <use xlink:href="#Helvetica-65" x="578.076172"/>
     <use xlink:href="#Helvetica-63" x="633.691406"/>
     <use xlink:href="#Helvetica-74" x="683.691406"/>
     <use xlink:href="#Helvetica-72" x="711.474609"/>
     <use xlink:href="#Helvetica-75" x="744.775391"/>
     <use xlink:href="#Helvetica-6d" x="800.390625"/>
    </g>
   </g>
  </g>
  <g id="axes_2">
   <g id="patch_7">
    <path d="M 349.10625 197.028 
L 562.61175 197.028 
L 562.61175 33.792 
L 349.10625 33.792 
z
" style="fill: #ffffff"/>
   </g>
   <g id="matplotlib.axis_3">
    <g id="xtick_6">
     <g id="line2d_12">
      <g>
       <use xlink:href="#m6137e09abc" x="368.515841" y="197.028" style="stroke: #000000; stroke-width: 1.25"/>
      </g>
     </g>
     <g id="text_14">
      <!-- 400 -->
      <g transform="translate(357.505185 215.996938) scale(0.132 -0.132)">
       <use xlink:href="#Helvetica-34"/>
       <use xlink:href="#Helvetica-30" x="55.615234"/>
       <use xlink:href="#Helvetica-30" x="111.230469"/>
      </g>
     </g>
    </g>
    <g id="xtick_7">
     <g id="line2d_13">
      <g>
       <use xlink:href="#m6137e09abc" x="417.039818" y="197.028" style="stroke: #000000; stroke-width: 1.25"/>
      </g>
     </g>
     <g id="text_15">
      <!-- 500 -->
      <g transform="translate(406.029162 215.996938) scale(0.132 -0.132)">
       <use xlink:href="#Helvetica-35"/>
       <use xlink:href="#Helvetica-30" x="55.615234"/>
       <use xlink:href="#Helvetica-30" x="111.230469"/>
      </g>
     </g>
    </g>
    <g id="xtick_8">
     <g id="line2d_14">
      <g>
       <use xlink:href="#m6137e09abc" x="465.563795" y="197.028" style="stroke: #000000; stroke-width: 1.25"/>
      </g>
     </g>
     <g id="text_16">
      <!-- 600 -->
      <g transform="translate(454.553139 215.996938) scale(0.132 -0.132)">
       <use xlink:href="#Helvetica-36"/>
       <use xlink:href="#Helvetica-30" x="55.615234"/>
       <use xlink:href="#Helvetica-30" x="111.230469"/>
      </g>
     </g>
    </g>
    <g id="xtick_9">
     <g id="line2d_15">
      <g>
       <use xlink:href="#m6137e09abc" x="514.087773" y="197.028" style="stroke: #000000; stroke-width: 1.25"/>
      </g>
     </g>
     <g id="text_17">
      <!-- 700 -->
      <g transform="translate(503.077116 215.996938) scale(0.132 -0.132)">
       <use xlink:href="#Helvetica-37"/>
       <use xlink:href="#Helvetica-30" x="55.615234"/>
       <use xlink:href="#Helvetica-30" x="111.230469"/>
      </g>
     </g>
    </g>
    <g id="xtick_10">
     <g id="line2d_16">
      <g>
       <use xlink:href="#m6137e09abc" x="562.61175" y="197.028" style="stroke: #000000; stroke-width: 1.25"/>
      </g>
     </g>
     <g id="text_18">
      <!-- 800 -->
      <g transform="translate(551.601094 215.996938) scale(0.132 -0.132)">
       <use xlink:href="#Helvetica-38"/>
       <use xlink:href="#Helvetica-30" x="55.615234"/>
       <use xlink:href="#Helvetica-30" x="111.230469"/>
      </g>
     </g>
    </g>
    <g id="text_19">
     <!-- Wavelength (nm) -->
     <g transform="translate(401.043375 233.246812) scale(0.144 -0.144)">
      <use xlink:href="#Helvetica-57"/>
      <use xlink:href="#Helvetica-61" x="94.384766"/>
      <use xlink:href="#Helvetica-76" x="150"/>
      <use xlink:href="#Helvetica-65" x="200"/>
      <use xlink:href="#Helvetica-6c" x="255.615234"/>
      <use xlink:href="#Helvetica-65" x="277.832031"/>
      <use xlink:href="#Helvetica-6e" x="333.447266"/>
      <use xlink:href="#Helvetica-67" x="389.0625"/>
      <use xlink:href="#Helvetica-74" x="444.677734"/>
      <use xlink:href="#Helvetica-68" x="472.460938"/>
      <use xlink:href="#Helvetica-20" x="528.076172"/>
      <use xlink:href="#Helvetica-28" x="555.859375"/>
      <use xlink:href="#Helvetica-6e" x="589.160156"/>
      <use xlink:href="#Helvetica-6d" x="644.775391"/>
      <use xlink:href="#Helvetica-29" x="728.076172"/>
     </g>
    </g>
   </g>
   <g id="matplotlib.axis_4">
    <g id="ytick_6">
     <g id="line2d_17">
      <g>
       <use xlink:href="#mfd91f58e69" x="349.10625" y="189.608182" style="stroke: #000000; stroke-width: 1.25"/>
      </g>
     </g>
     <g id="text_20">
      <!-- 0.0 -->
      <g transform="translate(321.25825 194.342651) scale(0.132 -0.132)">
       <use xlink:href="#Helvetica-30"/>
       <use xlink:href="#Helvetica-2e" x="55.615234"/>
       <use xlink:href="#Helvetica-30" x="83.398438"/>
      </g>
     </g>
    </g>
    <g id="ytick_7">
     <g id="line2d_18">
      <g>
       <use xlink:href="#mfd91f58e69" x="349.10625" y="159.928909" style="stroke: #000000; stroke-width: 1.25"/>
      </g>
     </g>
     <g id="text_21">
      <!-- 0.2 -->
      <g transform="translate(321.25825 164.663378) scale(0.132 -0.132)">
       <use xlink:href="#Helvetica-30"/>
       <use xlink:href="#Helvetica-2e" x="55.615234"/>
       <use xlink:href="#Helvetica-32" x="83.398438"/>
      </g>
     </g>
    </g>
    <g id="ytick_8">
     <g id="line2d_19">
      <g>
       <use xlink:href="#mfd91f58e69" x="349.10625" y="130.249636" style="stroke: #000000; stroke-width: 1.25"/>
      </g>
     </g>
     <g id="text_22">
      <!-- 0.4 -->
      <g transform="translate(321.25825 134.984105) scale(0.132 -0.132)">
       <use xlink:href="#Helvetica-30"/>
       <use xlink:href="#Helvetica-2e" x="55.615234"/>
       <use xlink:href="#Helvetica-34" x="83.398438"/>
      </g>
     </g>
    </g>
    <g id="ytick_9">
     <g id="line2d_20">
      <g>
       <use xlink:href="#mfd91f58e69" x="349.10625" y="100.570364" style="stroke: #000000; stroke-width: 1.25"/>
      </g>
     </g>
     <g id="text_23">
      <!-- 0.6 -->
      <g transform="translate(321.25825 105.304832) scale(0.132 -0.132)">
       <use xlink:href="#Helvetica-30"/>
       <use xlink:href="#Helvetica-2e" x="55.615234"/>
       <use xlink:href="#Helvetica-36" x="83.398438"/>
      </g>
     </g>
    </g>
    <g id="ytick_10">
     <g id="line2d_21">
      <g>
       <use xlink:href="#mfd91f58e69" x="349.10625" y="70.891091" style="stroke: #000000; stroke-width: 1.25"/>
      </g>
     </g>
     <g id="text_24">
      <!-- 0.8 -->
      <g transform="translate(321.25825 75.62556) scale(0.132 -0.132)">
       <use xlink:href="#Helvetica-30"/>
       <use xlink:href="#Helvetica-2e" x="55.615234"/>
       <use xlink:href="#Helvetica-38" x="83.398438"/>
      </g>
     </g>
    </g>
    <g id="ytick_11">
     <g id="line2d_22">
      <g>
       <use xlink:href="#mfd91f58e69" x="349.10625" y="41.211818" style="stroke: #000000; stroke-width: 1.25"/>
      </g>
     </g>
     <g id="text_25">
      <!-- 1.0 -->
      <g transform="translate(321.25825 45.946287) scale(0.132 -0.132)">
       <defs>
        <path id="Helvetica-31" d="M 613 3169 
L 613 3600 
Q 1222 3659 1462 3798 
Q 1703 3938 1822 4456 
L 2266 4456 
L 2266 0 
L 1666 0 
L 1666 3169 
L 613 3169 
z
" transform="scale(0.015625)"/>
       </defs>
       <use xlink:href="#Helvetica-31"/>
       <use xlink:href="#Helvetica-2e" x="55.615234"/>
       <use xlink:href="#Helvetica-30" x="83.398438"/>
      </g>
     </g>
    </g>
    <g id="text_26">
     <!-- Spectral sensitivity -->
     <g transform="translate(314.17125 175.029375) rotate(-90) scale(0.144 -0.144)">
      <defs>
       <path id="Helvetica-53" d="M 894 1481 
Q 916 1091 1078 847 
Q 1388 391 2169 391 
Q 2519 391 2806 491 
Q 3363 684 3363 1184 
Q 3363 1559 3128 1719 
Q 2891 1875 2384 1991 
L 1763 2131 
Q 1153 2269 900 2434 
Q 463 2722 463 3294 
Q 463 3913 891 4309 
Q 1319 4706 2103 4706 
Q 2825 4706 3329 4357 
Q 3834 4009 3834 3244 
L 3250 3244 
Q 3203 3613 3050 3809 
Q 2766 4169 2084 4169 
Q 1534 4169 1293 3937 
Q 1053 3706 1053 3400 
Q 1053 3063 1334 2906 
Q 1519 2806 2169 2656 
L 2813 2509 
Q 3278 2403 3531 2219 
Q 3969 1897 3969 1284 
Q 3969 522 3414 194 
Q 2859 -134 2125 -134 
Q 1269 -134 784 303 
Q 300 738 309 1481 
L 894 1481 
z
M 2150 4716 
L 2150 4716 
z
" transform="scale(0.015625)"/>
       <path id="Helvetica-69" d="M 413 3331 
L 984 3331 
L 984 0 
L 413 0 
L 413 3331 
z
M 413 4591 
L 984 4591 
L 984 3953 
L 413 3953 
L 413 4591 
z
" transform="scale(0.015625)"/>
       <path id="Helvetica-79" d="M 2503 3347 
L 3125 3347 
Q 3006 3025 2597 1878 
Q 2291 1016 2084 472 
Q 1597 -809 1397 -1090 
Q 1197 -1372 709 -1372 
Q 591 -1372 527 -1362 
Q 463 -1353 369 -1328 
L 369 -816 
Q 516 -856 581 -865 
Q 647 -875 697 -875 
Q 853 -875 926 -823 
Q 1000 -772 1050 -697 
Q 1066 -672 1162 -440 
Q 1259 -209 1303 -97 
L 66 3347 
L 703 3347 
L 1600 622 
L 2503 3347 
z
M 1597 3428 
L 1597 3428 
z
" transform="scale(0.015625)"/>
      </defs>
      <use xlink:href="#Helvetica-53"/>
      <use xlink:href="#Helvetica-70" x="66.699219"/>
      <use xlink:href="#Helvetica-65" x="122.314453"/>
      <use xlink:href="#Helvetica-63" x="177.929688"/>
      <use xlink:href="#Helvetica-74" x="227.929688"/>
      <use xlink:href="#Helvetica-72" x="255.712891"/>
      <use xlink:href="#Helvetica-61" x="289.013672"/>
      <use xlink:href="#Helvetica-6c" x="344.628906"/>
      <use xlink:href="#Helvetica-20" x="366.845703"/>
      <use xlink:href="#Helvetica-73" x="394.628906"/>
      <use xlink:href="#Helvetica-65" x="444.628906"/>
      <use xlink:href="#Helvetica-6e" x="500.244141"/>
      <use xlink:href="#Helvetica-73" x="555.859375"/>
      <use xlink:href="#Helvetica-69" x="605.859375"/>
      <use xlink:href="#Helvetica-74" x="628.076172"/>
      <use xlink:href="#Helvetica-69" x="655.859375"/>
      <use xlink:href="#Helvetica-76" x="678.076172"/>
      <use xlink:href="#Helvetica-69" x="728.076172"/>
      <use xlink:href="#Helvetica-74" x="750.292969"/>
      <use xlink:href="#Helvetica-79" x="778.076172"/>
     </g>
    </g>
   </g>
   <g id="line2d_23">
    <path d="M 358.811045 189.608182 
L 363.178203 189.608182 
L 363.663443 188.696627 
L 364.633923 188.270151 
L 365.604402 187.648608 
L 366.574882 186.753778 
L 367.545361 185.486473 
L 368.515841 183.727086 
L 369.48632 181.342356 
L 370.4568 178.191753 
L 371.42728 174.146765 
L 372.397759 169.123548 
L 373.368239 163.114979 
L 374.823958 152.424505 
L 376.279677 139.767779 
L 380.646835 99.15021 
L 383.558274 73.519191 
L 385.013993 63.652316 
L 387.440192 48.302196 
L 387.925432 46.114834 
L 388.410672 44.57448 
L 388.895911 43.581708 
L 389.381151 42.971799 
L 391.32211 41.354279 
L 391.80735 41.214786 
L 392.29259 41.532354 
L 392.77783 42.498415 
L 393.263069 44.2302 
L 394.233549 49.289032 
L 396.174508 60.30301 
L 400.056426 80.234126 
L 401.026906 87.131589 
L 402.967865 103.189559 
L 405.879303 127.431589 
L 407.335023 137.653131 
L 408.790742 146.16663 
L 410.731701 155.996405 
L 412.18742 162.110336 
L 413.64314 166.857535 
L 415.098859 170.76036 
L 417.039818 175.243562 
L 418.980777 179.100977 
L 420.436497 181.563912 
L 421.406976 182.915654 
L 422.377456 183.996722 
L 423.833175 185.234199 
L 425.774134 186.492452 
L 427.715093 187.413251 
L 429.656052 188.07317 
L 432.082251 188.636705 
L 434.99369 189.049039 
L 438.875608 189.347642 
L 444.698485 189.527 
L 456.34424 189.600005 
L 535.923563 189.608182 
L 552.906955 189.608182 
L 552.906955 189.608182 
" clip-path="url(#p61693b8611)" style="fill: none; stroke: #1f77b4; stroke-width: 1.5; stroke-linecap: square"/>
   </g>
   <g id="line2d_24">
    <path d="M 358.811045 189.608182 
L 365.119163 189.511122 
L 368.515841 189.256171 
L 370.94204 188.847918 
L 372.882999 188.298896 
L 374.823958 187.5244 
L 376.764917 186.498536 
L 378.705876 185.214759 
L 380.646835 183.717885 
L 382.587794 181.884596 
L 384.528753 179.68002 
L 390.351631 172.361556 
L 395.204028 165.566487 
L 396.174508 163.914835 
L 397.630227 160.938004 
L 399.571186 156.333265 
L 403.453105 147.055525 
L 405.879303 141.036568 
L 407.820263 135.444993 
L 412.67266 120.123069 
L 414.613619 112.001336 
L 418.495538 95.326036 
L 423.833175 70.59133 
L 426.744614 57.652651 
L 427.715093 54.417611 
L 428.685573 51.91268 
L 429.656052 49.906361 
L 431.111772 47.518664 
L 432.567491 45.668161 
L 435.964169 41.700042 
L 436.449409 41.370602 
L 436.934649 41.220722 
L 437.419889 41.257821 
L 437.905128 41.4819 
L 438.390368 41.894441 
L 439.360848 43.259688 
L 441.787047 47.619573 
L 443.242766 49.803968 
L 444.213245 51.856289 
L 445.668965 55.950545 
L 448.580403 64.811292 
L 450.036123 70.310861 
L 451.977082 78.656673 
L 453.432801 85.729243 
L 457.799959 108.387884 
L 465.078556 142.379555 
L 467.504755 152.210814 
L 469.445714 159.07563 
L 471.386673 164.96103 
L 472.842392 168.76888 
L 474.298111 172.107799 
L 475.753831 175.011025 
L 477.20955 177.501561 
L 478.665269 179.603447 
L 480.120989 181.372332 
L 481.576708 182.862232 
L 483.032427 184.103419 
L 484.973386 185.448483 
L 486.914345 186.508627 
L 488.855305 187.263668 
L 491.766743 188.081332 
L 494.678182 188.642938 
L 498.07486 189.042094 
L 502.927258 189.337537 
L 510.205855 189.52165 
L 524.763048 189.598551 
L 552.906955 189.607965 
L 552.906955 189.607965 
" clip-path="url(#p61693b8611)" style="fill: none; stroke: #2ca02c; stroke-width: 1.5; stroke-linecap: square"/>
   </g>
   <g id="line2d_25">
    <path d="M 358.811045 189.608182 
L 365.119163 189.499312 
L 368.515841 189.231151 
L 370.94204 188.819381 
L 372.882999 188.285525 
L 375.794438 187.231911 
L 379.676356 185.47475 
L 382.102555 184.256712 
L 386.469713 181.672835 
L 389.381151 179.974438 
L 391.32211 178.797358 
L 395.689268 175.742026 
L 397.144988 174.329292 
L 398.600707 172.567827 
L 401.512145 168.503251 
L 403.938344 164.906123 
L 405.879303 161.608756 
L 407.820263 157.720771 
L 411.216941 150.09765 
L 412.18742 147.64911 
L 413.64314 143.209091 
L 417.039818 131.479842 
L 418.980777 123.910144 
L 421.892216 111.471561 
L 425.288894 96.033887 
L 427.229853 87.366055 
L 428.685573 81.896165 
L 430.626532 75.486926 
L 437.419889 54.827185 
L 438.390368 52.849061 
L 439.360848 51.48975 
L 441.301807 49.443364 
L 442.272286 47.937141 
L 443.728006 45.559832 
L 444.698485 44.467634 
L 446.154205 43.34279 
L 448.580403 41.659975 
L 449.550883 41.30234 
L 450.521363 41.217754 
L 451.491842 41.416605 
L 452.462322 41.998319 
L 452.947561 42.485059 
L 453.918041 43.942311 
L 455.859 47.468209 
L 456.82948 48.596021 
L 458.285199 50.148247 
L 459.255678 51.759832 
L 460.226158 53.865576 
L 461.681877 57.655619 
L 463.137597 62.046668 
L 465.078556 68.674049 
L 467.504755 77.732163 
L 469.445714 85.954806 
L 473.327632 103.855859 
L 476.23907 117.088363 
L 478.665269 128.069694 
L 481.091468 139.095544 
L 483.032427 146.89674 
L 484.973386 153.648775 
L 486.914345 159.474816 
L 489.340544 166.180848 
L 491.281503 170.853849 
L 492.737223 173.839584 
L 494.192942 176.401944 
L 495.648661 178.594352 
L 497.104381 180.461327 
L 498.5601 182.042787 
L 500.501059 183.774572 
L 502.442018 185.148723 
L 504.382977 186.228603 
L 506.323936 187.069268 
L 508.750135 187.863189 
L 511.176334 188.397149 
L 514.573013 188.87871 
L 518.94017 189.235217 
L 524.763048 189.455987 
L 534.953083 189.574672 
L 552.906955 189.605422 
L 552.906955 189.605422 
" clip-path="url(#p61693b8611)" style="fill: none; stroke: #d62728; stroke-width: 1.5; stroke-linecap: square"/>
   </g>
   <g id="line2d_26">
    <path d="M 358.811045 189.520776 
L 363.178203 189.323558 
L 365.604402 189.02632 
L 367.545361 188.572375 
L 369.001081 188.020341 
L 370.4568 187.205645 
L 371.912519 186.039249 
L 373.368239 184.438053 
L 374.823958 182.33676 
L 376.279677 179.695305 
L 377.735397 176.475104 
L 379.191116 172.676157 
L 380.646835 168.298464 
L 382.587794 161.724505 
L 385.013993 152.568449 
L 393.748309 118.526324 
L 405.394064 79.052891 
L 409.761222 63.322876 
L 412.18742 55.457869 
L 413.64314 51.302771 
L 415.098859 47.592862 
L 416.069339 45.663709 
L 417.039818 43.882953 
L 418.980777 41.657007 
L 419.466017 41.508611 
L 419.951257 41.211818 
L 420.921736 41.211818 
L 421.406976 41.508611 
L 421.892216 41.657007 
L 422.862695 42.695782 
L 423.833175 44.031349 
L 424.803655 45.960502 
L 425.774134 48.186447 
L 427.715093 53.825509 
L 429.170813 59.019382 
L 431.111772 67.032785 
L 434.02321 80.833647 
L 436.449409 93.150545 
L 442.272286 123.126611 
L 446.639444 142.848488 
L 448.580403 150.446381 
L 450.521363 157.228095 
L 452.462322 163.16395 
L 454.403281 168.298464 
L 456.34424 172.646477 
L 458.285199 176.267349 
L 459.740918 178.552653 
L 461.196637 180.511485 
L 462.652357 182.158684 
L 464.108076 183.538771 
L 466.049035 185.027186 
L 467.989994 186.177258 
L 469.930953 187.058732 
L 471.871913 187.725032 
L 474.298111 188.329005 
L 477.20955 188.809809 
L 481.091468 189.186439 
L 486.429106 189.433371 
L 495.163422 189.565132 
L 518.454931 189.606733 
L 552.906955 189.608161 
L 552.906955 189.608161 
" clip-path="url(#p61693b8611)" style="fill: none; stroke: #7f7f7f; stroke-width: 1.5; stroke-linecap: square"/>
   </g>
   <g id="line2d_27">
    <path d="M 358.811045 189.47193 
L 363.178203 189.202199 
L 365.604402 188.840038 
L 367.545361 188.30869 
L 369.001081 187.667603 
L 369.97156 187.038402 
L 370.94204 186.223112 
L 371.912519 185.067847 
L 373.368239 182.758948 
L 374.823958 180.066741 
L 375.794438 177.814084 
L 376.764917 174.655764 
L 378.220636 169.242265 
L 381.132075 160.046142 
L 385.499233 142.020436 
L 386.954952 134.830632 
L 388.410672 127.805548 
L 391.32211 114.590852 
L 394.233549 100.677209 
L 397.630227 84.536137 
L 402.482625 61.944274 
L 403.938344 56.609425 
L 406.364543 48.775581 
L 407.335023 46.315169 
L 408.305502 44.501766 
L 409.275982 43.092 
L 410.246461 42.200138 
L 411.216941 41.507127 
L 411.702181 41.291952 
L 412.18742 41.211818 
L 412.67266 41.277113 
L 413.64314 41.71785 
L 414.613619 42.396021 
L 415.098859 42.875341 
L 416.069339 44.378597 
L 417.525058 47.319813 
L 418.495538 49.851454 
L 419.951257 54.295926 
L 421.406976 59.60258 
L 422.862695 65.893101 
L 425.288894 78.042312 
L 428.685573 96.485012 
L 434.02321 125.422303 
L 436.449409 137.415697 
L 438.875608 148.184821 
L 440.816567 155.834653 
L 442.757526 162.557009 
L 444.213245 166.962897 
L 445.668965 170.847914 
L 447.124684 174.206123 
L 448.580403 177.091542 
L 450.036123 179.512926 
L 451.491842 181.523103 
L 452.947561 183.192117 
L 454.403281 184.53451 
L 455.859 185.62003 
L 457.799959 186.73137 
L 459.740918 187.540872 
L 461.681877 188.128507 
L 464.108076 188.638441 
L 467.019515 189.025073 
L 470.901433 189.310914 
L 476.72431 189.498425 
L 487.884825 189.590687 
L 535.438323 189.608159 
L 552.906955 189.608179 
L 552.906955 189.608179 
" clip-path="url(#p61693b8611)" style="fill: none; stroke: #17becf; stroke-width: 1.5; stroke-linecap: square"/>
   </g>
   <g id="patch_8">
    <path d="M 349.10625 197.028 
L 349.10625 33.792 
" style="fill: none; stroke: #000000; stroke-width: 1.25; stroke-linejoin: miter; stroke-linecap: square"/>
   </g>
   <g id="patch_9">
    <path d="M 562.61175 197.028 
L 562.61175 33.792 
" style="fill: none; stroke: #000000; stroke-width: 1.25; stroke-linejoin: miter; stroke-linecap: square"/>
   </g>
   <g id="patch_10">
    <path d="M 349.10625 197.028 
L 562.61175 197.028 
" style="fill: none; stroke: #000000; stroke-width: 1.25; stroke-linejoin: miter; stroke-linecap: square"/>
   </g>
   <g id="patch_11">
    <path d="M 349.10625 33.792 
L 562.61175 33.792 
" style="fill: none; stroke: #000000; stroke-width: 1.25; stroke-linejoin: miter; stroke-linecap: square"/>
   </g>
   <g id="text_27">
    <!-- $\alpha$-opic action spectra -->
    <g transform="translate(388.611 27.792) scale(0.144 -0.144)">
     <defs>
      <path id="DejaVuSans-Oblique-3b1" d="M 2619 1628 
L 2622 2350 
Q 2625 3088 2069 3091 
Q 1653 3094 1394 2747 
Q 1069 2319 959 1747 
Q 825 1059 994 731 
Q 1169 397 1547 397 
Q 1966 397 2319 1063 
L 2619 1628 
z
M 2166 3578 
Q 3141 3594 3128 2584 
Q 3128 2584 3616 3500 
L 4128 3500 
L 3119 1603 
L 3109 919 
Q 3109 766 3194 638 
Q 3291 488 3391 488 
L 3669 488 
L 3575 0 
L 3228 0 
Q 2934 0 2722 263 
Q 2622 394 2619 669 
Q 2416 334 2066 50 
Q 1900 -81 1453 -78 
Q 722 -72 456 397 
Q 184 884 353 1747 
Q 534 2675 1009 3097 
Q 1544 3569 2166 3578 
z
" transform="scale(0.015625)"/>
      <path id="Helvetica-2d" d="M 266 2072 
L 1834 2072 
L 1834 1494 
L 266 1494 
L 266 2072 
z
" transform="scale(0.015625)"/>
      <path id="Helvetica-6f" d="M 1741 363 
Q 2300 363 2508 786 
Q 2716 1209 2716 1728 
Q 2716 2197 2566 2491 
Q 2328 2953 1747 2953 
Q 1231 2953 997 2559 
Q 763 2166 763 1609 
Q 763 1075 997 719 
Q 1231 363 1741 363 
z
M 1763 3444 
Q 2409 3444 2856 3012 
Q 3303 2581 3303 1744 
Q 3303 934 2909 406 
Q 2516 -122 1688 -122 
Q 997 -122 590 345 
Q 184 813 184 1600 
Q 184 2444 612 2944 
Q 1041 3444 1763 3444 
z
M 1744 3428 
L 1744 3428 
z
" transform="scale(0.015625)"/>
     </defs>
     <use xlink:href="#DejaVuSans-Oblique-3b1" transform="translate(0 0.265625)"/>
     <use xlink:href="#Helvetica-2d" transform="translate(65.917969 0.265625)"/>
     <use xlink:href="#Helvetica-6f" transform="translate(99.21875 0.265625)"/>
     <use xlink:href="#Helvetica-70" transform="translate(154.833984 0.265625)"/>
     <use xlink:href="#Helvetica-69" transform="translate(210.449219 0.265625)"/>
     <use xlink:href="#Helvetica-63" transform="translate(232.666016 0.265625)"/>
     <use xlink:href="#Helvetica-20" transform="translate(282.666016 0.265625)"/>
     <use xlink:href="#Helvetica-61" transform="translate(310.449219 0.265625)"/>
     <use xlink:href="#Helvetica-63" transform="translate(366.064453 0.265625)"/>
     <use xlink:href="#Helvetica-74" transform="translate(416.064453 0.265625)"/>
     <use xlink:href="#Helvetica-69" transform="translate(443.847656 0.265625)"/>
     <use xlink:href="#Helvetica-6f" transform="translate(466.064453 0.265625)"/>
     <use xlink:href="#Helvetica-6e" transform="translate(521.679688 0.265625)"/>
     <use xlink:href="#Helvetica-20" transform="translate(577.294922 0.265625)"/>
     <use xlink:href="#Helvetica-73" transform="translate(605.078125 0.265625)"/>
     <use xlink:href="#Helvetica-70" transform="translate(655.078125 0.265625)"/>
     <use xlink:href="#Helvetica-65" transform="translate(710.693359 0.265625)"/>
     <use xlink:href="#Helvetica-63" transform="translate(766.308594 0.265625)"/>
     <use xlink:href="#Helvetica-74" transform="translate(816.308594 0.265625)"/>
     <use xlink:href="#Helvetica-72" transform="translate(844.091797 0.265625)"/>
     <use xlink:href="#Helvetica-61" transform="translate(877.392578 0.265625)"/>
    </g>
   </g>
   <g id="legend_1">
    <g id="patch_12">
     <path d="M 466.91175 139.26 
L 553.37175 139.26 
Q 556.01175 139.26 556.01175 136.62 
L 556.01175 43.032 
Q 556.01175 40.392 553.37175 40.392 
L 466.91175 40.392 
Q 464.27175 40.392 464.27175 43.032 
L 464.27175 136.62 
Q 464.27175 139.26 466.91175 139.26 
z
" style="fill: #ffffff; opacity: 0.8; stroke: #cccccc; stroke-linejoin: miter"/>
    </g>
    <g id="line2d_28">
     <path d="M 469.55175 50.708625 
L 482.75175 50.708625 
L 495.95175 50.708625 
" style="fill: none; stroke: #1f77b4; stroke-width: 1.5; stroke-linecap: square"/>
    </g>
    <g id="text_28">
     <!-- $S_{sc}(\lambda)$ -->
     <g transform="translate(506.51175 55.328625) scale(0.132 -0.132)">
      <defs>
       <path id="DejaVuSans-Oblique-53" d="M 3859 4513 
L 3738 3897 
Q 3422 4066 3111 4152 
Q 2800 4238 2509 4238 
Q 1944 4238 1609 3991 
Q 1275 3744 1275 3334 
Q 1275 3109 1398 2989 
Q 1522 2869 2034 2731 
L 2413 2638 
Q 3053 2472 3303 2217 
Q 3553 1963 3553 1503 
Q 3553 797 2998 353 
Q 2444 -91 1538 -91 
Q 1166 -91 791 -17 
Q 416 56 38 206 
L 166 856 
Q 513 641 861 531 
Q 1209 422 1556 422 
Q 2147 422 2503 684 
Q 2859 947 2859 1369 
Q 2859 1650 2717 1795 
Q 2575 1941 2106 2059 
L 1728 2156 
Q 1081 2325 845 2545 
Q 609 2766 609 3163 
Q 609 3859 1145 4304 
Q 1681 4750 2541 4750 
Q 2875 4750 3203 4690 
Q 3531 4631 3859 4513 
z
" transform="scale(0.015625)"/>
       <path id="DejaVuSans-Oblique-73" d="M 3200 3397 
L 3091 2853 
Q 2863 2978 2609 3040 
Q 2356 3103 2088 3103 
Q 1634 3103 1373 2948 
Q 1113 2794 1113 2528 
Q 1113 2219 1719 2053 
Q 1766 2041 1788 2034 
L 1972 1978 
Q 2547 1819 2739 1644 
Q 2931 1469 2931 1166 
Q 2931 609 2489 259 
Q 2047 -91 1331 -91 
Q 1053 -91 747 -37 
Q 441 16 72 128 
L 184 722 
Q 500 559 806 475 
Q 1113 391 1394 391 
Q 1816 391 2080 572 
Q 2344 753 2344 1031 
Q 2344 1331 1650 1516 
L 1591 1531 
L 1394 1581 
Q 956 1697 753 1886 
Q 550 2075 550 2369 
Q 550 2928 970 3256 
Q 1391 3584 2113 3584 
Q 2397 3584 2667 3537 
Q 2938 3491 3200 3397 
z
" transform="scale(0.015625)"/>
       <path id="DejaVuSans-Oblique-63" d="M 3431 3366 
L 3316 2797 
Q 3109 2947 2876 3022 
Q 2644 3097 2394 3097 
Q 2119 3097 1870 3000 
Q 1622 2903 1453 2725 
Q 1184 2453 1037 2087 
Q 891 1722 891 1331 
Q 891 859 1127 628 
Q 1363 397 1844 397 
Q 2081 397 2348 469 
Q 2616 541 2906 684 
L 2797 116 
Q 2547 13 2283 -39 
Q 2019 -91 1741 -91 
Q 1044 -91 669 257 
Q 294 606 294 1253 
Q 294 1797 489 2255 
Q 684 2713 1069 3078 
Q 1331 3328 1684 3456 
Q 2038 3584 2456 3584 
Q 2700 3584 2940 3529 
Q 3181 3475 3431 3366 
z
" transform="scale(0.015625)"/>
       <path id="DejaVuSans-28" d="M 1984 4856 
Q 1566 4138 1362 3434 
Q 1159 2731 1159 2009 
Q 1159 1288 1364 580 
Q 1569 -128 1984 -844 
L 1484 -844 
Q 1016 -109 783 600 
Q 550 1309 550 2009 
Q 550 2706 781 3412 
Q 1013 4119 1484 4856 
L 1984 4856 
z
" transform="scale(0.015625)"/>
       <path id="DejaVuSans-Oblique-3bb" d="M 2350 4316 
L 3125 0 
L 2516 0 
L 2038 2588 
L 328 0 
L -281 0 
L 1903 3356 
L 1794 3975 
Q 1725 4369 1391 4369 
L 1091 4369 
L 1184 4863 
L 1550 4856 
Q 2253 4847 2350 4316 
z
" transform="scale(0.015625)"/>
       <path id="DejaVuSans-29" d="M 513 4856 
L 1013 4856 
Q 1481 4119 1714 3412 
Q 1947 2706 1947 2009 
Q 1947 1309 1714 600 
Q 1481 -109 1013 -844 
L 513 -844 
Q 928 -128 1133 580 
Q 1338 1288 1338 2009 
Q 1338 2731 1133 3434 
Q 928 4138 513 4856 
z
" transform="scale(0.015625)"/>
      </defs>
      <use xlink:href="#DejaVuSans-Oblique-53" transform="translate(0 0.015625)"/>
      <use xlink:href="#DejaVuSans-Oblique-73" transform="translate(63.476562 -16.390625) scale(0.7)"/>
      <use xlink:href="#DejaVuSans-Oblique-63" transform="translate(99.946289 -16.390625) scale(0.7)"/>
      <use xlink:href="#DejaVuSans-28" transform="translate(141.166992 0.015625)"/>
      <use xlink:href="#DejaVuSans-Oblique-3bb" transform="translate(180.180664 0.015625)"/>
      <use xlink:href="#DejaVuSans-29" transform="translate(239.360352 0.015625)"/>
     </g>
    </g>
    <g id="line2d_29">
     <path d="M 469.55175 69.716625 
L 482.75175 69.716625 
L 495.95175 69.716625 
" style="fill: none; stroke: #2ca02c; stroke-width: 1.5; stroke-linecap: square"/>
    </g>
    <g id="text_29">
     <!-- $S_{mc}(\lambda)$ -->
     <g transform="translate(506.51175 74.336625) scale(0.132 -0.132)">
      <defs>
       <path id="DejaVuSans-Oblique-6d" d="M 5747 2113 
L 5338 0 
L 4763 0 
L 5166 2094 
Q 5191 2228 5203 2325 
Q 5216 2422 5216 2491 
Q 5216 2772 5059 2928 
Q 4903 3084 4622 3084 
Q 4203 3084 3875 2770 
Q 3547 2456 3450 1953 
L 3066 0 
L 2491 0 
L 2900 2094 
Q 2925 2209 2937 2307 
Q 2950 2406 2950 2484 
Q 2950 2769 2794 2926 
Q 2638 3084 2363 3084 
Q 1938 3084 1609 2770 
Q 1281 2456 1184 1953 
L 800 0 
L 225 0 
L 909 3500 
L 1484 3500 
L 1375 2956 
Q 1609 3263 1923 3423 
Q 2238 3584 2597 3584 
Q 2978 3584 3223 3384 
Q 3469 3184 3519 2828 
Q 3781 3197 4126 3390 
Q 4472 3584 4856 3584 
Q 5306 3584 5551 3325 
Q 5797 3066 5797 2591 
Q 5797 2488 5784 2364 
Q 5772 2241 5747 2113 
z
" transform="scale(0.015625)"/>
      </defs>
      <use xlink:href="#DejaVuSans-Oblique-53" transform="translate(0 0.015625)"/>
      <use xlink:href="#DejaVuSans-Oblique-6d" transform="translate(63.476562 -16.390625) scale(0.7)"/>
      <use xlink:href="#DejaVuSans-Oblique-63" transform="translate(131.665039 -16.390625) scale(0.7)"/>
      <use xlink:href="#DejaVuSans-28" transform="translate(172.885742 0.015625)"/>
      <use xlink:href="#DejaVuSans-Oblique-3bb" transform="translate(211.899414 0.015625)"/>
      <use xlink:href="#DejaVuSans-29" transform="translate(271.079102 0.015625)"/>
     </g>
    </g>
    <g id="line2d_30">
     <path d="M 469.55175 88.724625 
L 482.75175 88.724625 
L 495.95175 88.724625 
" style="fill: none; stroke: #d62728; stroke-width: 1.5; stroke-linecap: square"/>
    </g>
    <g id="text_30">
     <!-- $S_{lc}(\lambda)$ -->
     <g transform="translate(506.51175 93.344625) scale(0.132 -0.132)">
      <defs>
       <path id="DejaVuSans-Oblique-6c" d="M 1172 4863 
L 1747 4863 
L 800 0 
L 225 0 
L 1172 4863 
z
" transform="scale(0.015625)"/>
      </defs>
      <use xlink:href="#DejaVuSans-Oblique-53" transform="translate(0 0.015625)"/>
      <use xlink:href="#DejaVuSans-Oblique-6c" transform="translate(63.476562 -16.390625) scale(0.7)"/>
      <use xlink:href="#DejaVuSans-Oblique-63" transform="translate(82.924805 -16.390625) scale(0.7)"/>
      <use xlink:href="#DejaVuSans-28" transform="translate(124.145508 0.015625)"/>
      <use xlink:href="#DejaVuSans-Oblique-3bb" transform="translate(163.15918 0.015625)"/>
      <use xlink:href="#DejaVuSans-29" transform="translate(222.338867 0.015625)"/>
     </g>
    </g>
    <g id="line2d_31">
     <path d="M 469.55175 107.600625 
L 482.75175 107.600625 
L 495.95175 107.600625 
" style="fill: none; stroke: #7f7f7f; stroke-width: 1.5; stroke-linecap: square"/>
    </g>
    <g id="text_31">
     <!-- $S_{rh}(\lambda)$ -->
     <g transform="translate(506.51175 112.220625) scale(0.132 -0.132)">
      <defs>
       <path id="DejaVuSans-Oblique-72" d="M 2853 2969 
Q 2766 3016 2653 3041 
Q 2541 3066 2413 3066 
Q 1953 3066 1609 2717 
Q 1266 2369 1153 1784 
L 800 0 
L 225 0 
L 909 3500 
L 1484 3500 
L 1375 2956 
Q 1603 3259 1920 3421 
Q 2238 3584 2597 3584 
Q 2691 3584 2781 3573 
Q 2872 3563 2963 3538 
L 2853 2969 
z
" transform="scale(0.015625)"/>
       <path id="DejaVuSans-Oblique-68" d="M 3566 2113 
L 3156 0 
L 2578 0 
L 2988 2091 
Q 3016 2238 3031 2350 
Q 3047 2463 3047 2528 
Q 3047 2791 2881 2937 
Q 2716 3084 2419 3084 
Q 1956 3084 1617 2771 
Q 1278 2459 1178 1941 
L 800 0 
L 225 0 
L 1172 4863 
L 1747 4863 
L 1375 2950 
Q 1594 3244 1934 3414 
Q 2275 3584 2650 3584 
Q 3113 3584 3367 3334 
Q 3622 3084 3622 2631 
Q 3622 2519 3608 2391 
Q 3594 2263 3566 2113 
z
" transform="scale(0.015625)"/>
      </defs>
      <use xlink:href="#DejaVuSans-Oblique-53" transform="translate(0 0.015625)"/>
      <use xlink:href="#DejaVuSans-Oblique-72" transform="translate(63.476562 -16.390625) scale(0.7)"/>
      <use xlink:href="#DejaVuSans-Oblique-68" transform="translate(92.255859 -16.390625) scale(0.7)"/>
      <use xlink:href="#DejaVuSans-28" transform="translate(139.355469 0.015625)"/>
      <use xlink:href="#DejaVuSans-Oblique-3bb" transform="translate(178.369141 0.015625)"/>
      <use xlink:href="#DejaVuSans-29" transform="translate(237.548828 0.015625)"/>
     </g>
    </g>
    <g id="line2d_32">
     <path d="M 469.55175 126.608625 
L 482.75175 126.608625 
L 495.95175 126.608625 
" style="fill: none; stroke: #17becf; stroke-width: 1.5; stroke-linecap: square"/>
    </g>
    <g id="text_32">
     <!-- $S_{mel}(\lambda)$ -->
     <g transform="translate(506.51175 131.228625) scale(0.132 -0.132)">
      <defs>
       <path id="DejaVuSans-Oblique-65" d="M 3078 2063 
Q 3088 2113 3092 2166 
Q 3097 2219 3097 2272 
Q 3097 2653 2873 2875 
Q 2650 3097 2266 3097 
Q 1838 3097 1509 2826 
Q 1181 2556 1013 2059 
L 3078 2063 
z
M 3578 1613 
L 903 1613 
Q 884 1494 878 1425 
Q 872 1356 872 1306 
Q 872 872 1139 634 
Q 1406 397 1894 397 
Q 2269 397 2603 481 
Q 2938 566 3225 728 
L 3116 159 
Q 2806 34 2476 -28 
Q 2147 -91 1806 -91 
Q 1078 -91 686 257 
Q 294 606 294 1247 
Q 294 1794 489 2264 
Q 684 2734 1063 3103 
Q 1306 3334 1642 3459 
Q 1978 3584 2356 3584 
Q 2950 3584 3301 3228 
Q 3653 2872 3653 2272 
Q 3653 2128 3634 1964 
Q 3616 1800 3578 1613 
z
" transform="scale(0.015625)"/>
      </defs>
      <use xlink:href="#DejaVuSans-Oblique-53" transform="translate(0 0.015625)"/>
      <use xlink:href="#DejaVuSans-Oblique-6d" transform="translate(63.476562 -16.390625) scale(0.7)"/>
      <use xlink:href="#DejaVuSans-Oblique-65" transform="translate(131.665039 -16.390625) scale(0.7)"/>
      <use xlink:href="#DejaVuSans-Oblique-6c" transform="translate(174.731445 -16.390625) scale(0.7)"/>
      <use xlink:href="#DejaVuSans-28" transform="translate(196.914062 0.015625)"/>
      <use xlink:href="#DejaVuSans-Oblique-3bb" transform="translate(235.927734 0.015625)"/>
      <use xlink:href="#DejaVuSans-29" transform="translate(295.107422 0.015625)"/>
     </g>
    </g>
   </g>
  </g>
  <g id="axes_3">
   <g id="patch_13">
    <path d="M 634.9425 197.028 
L 848.448 197.028 
L 848.448 33.792 
L 634.9425 33.792 
z
" style="fill: #ffffff"/>
   </g>
   <g id="patch_14">
    <path d="M 645.617775 197.028 
L 666.968325 197.028 
L 666.968325 124.901266 
L 645.617775 124.901266 
z
" clip-path="url(#p99749d4965)" style="fill: #1f77b4"/>
   </g>
   <g id="patch_15">
    <path d="M 688.318875 197.028 
L 709.669425 197.028 
L 709.669425 70.653389 
L 688.318875 70.653389 
z
" clip-path="url(#p99749d4965)" style="fill: #2ca02c"/>
   </g>
   <g id="patch_16">
    <path d="M 731.019975 197.028 
L 752.370525 197.028 
L 752.370525 41.565143 
L 731.019975 41.565143 
z
" clip-path="url(#p99749d4965)" style="fill: #d62728"/>
   </g>
   <g id="patch_17">
    <path d="M 773.721075 197.028 
L 795.071625 197.028 
L 795.071625 75.738154 
L 773.721075 75.738154 
z
" clip-path="url(#p99749d4965)" style="fill: #7f7f7f"/>
   </g>
   <g id="patch_18">
    <path d="M 816.422175 197.028 
L 837.772725 197.028 
L 837.772725 87.248523 
L 816.422175 87.248523 
z
" clip-path="url(#p99749d4965)" style="fill: #17becf"/>
   </g>
   <g id="matplotlib.axis_5">
    <g id="xtick_11">
     <g id="line2d_33">
      <g>
       <use xlink:href="#m6137e09abc" x="656.29305" y="197.028" style="stroke: #000000; stroke-width: 1.25"/>
      </g>
     </g>
     <g id="text_33">
      <!-- $E_{sc}$ -->
      <g transform="translate(646.98705 215.996938) scale(0.132 -0.132)">
       <defs>
        <path id="DejaVuSans-Oblique-45" d="M 1081 4666 
L 4031 4666 
L 3928 4134 
L 1606 4134 
L 1338 2753 
L 3566 2753 
L 3463 2222 
L 1234 2222 
L 909 531 
L 3284 531 
L 3181 0 
L 172 0 
L 1081 4666 
z
" transform="scale(0.015625)"/>
       </defs>
       <use xlink:href="#DejaVuSans-Oblique-45" transform="translate(0 0.09375)"/>
       <use xlink:href="#DejaVuSans-Oblique-73" transform="translate(63.183594 -16.3125) scale(0.7)"/>
       <use xlink:href="#DejaVuSans-Oblique-63" transform="translate(99.65332 -16.3125) scale(0.7)"/>
      </g>
     </g>
    </g>
    <g id="xtick_12">
     <g id="line2d_34">
      <g>
       <use xlink:href="#m6137e09abc" x="698.99415" y="197.028" style="stroke: #000000; stroke-width: 1.25"/>
      </g>
     </g>
     <g id="text_34">
      <!-- $E_{mc}$ -->
      <g transform="translate(687.57615 215.996938) scale(0.132 -0.132)">
       <use xlink:href="#DejaVuSans-Oblique-45" transform="translate(0 0.09375)"/>
       <use xlink:href="#DejaVuSans-Oblique-6d" transform="translate(63.183594 -16.3125) scale(0.7)"/>
       <use xlink:href="#DejaVuSans-Oblique-63" transform="translate(131.37207 -16.3125) scale(0.7)"/>
      </g>
     </g>
    </g>
    <g id="xtick_13">
     <g id="line2d_35">
      <g>
       <use xlink:href="#m6137e09abc" x="741.69525" y="197.028" style="stroke: #000000; stroke-width: 1.25"/>
      </g>
     </g>
     <g id="text_35">
      <!-- $E_{lc}$ -->
      <g transform="translate(733.51125 215.996938) scale(0.132 -0.132)">
       <use xlink:href="#DejaVuSans-Oblique-45" transform="translate(0 0.09375)"/>
       <use xlink:href="#DejaVuSans-Oblique-6c" transform="translate(63.183594 -16.3125) scale(0.7)"/>
       <use xlink:href="#DejaVuSans-Oblique-63" transform="translate(82.631836 -16.3125) scale(0.7)"/>
      </g>
     </g>
    </g>
    <g id="xtick_14">
     <g id="line2d_36">
      <g>
       <use xlink:href="#m6137e09abc" x="784.39635" y="197.028" style="stroke: #000000; stroke-width: 1.25"/>
      </g>
     </g>
     <g id="text_36">
      <!-- $E_{rh}$ -->
      <g transform="translate(775.15635 215.996938) scale(0.132 -0.132)">
       <use xlink:href="#DejaVuSans-Oblique-45" transform="translate(0 0.09375)"/>
       <use xlink:href="#DejaVuSans-Oblique-72" transform="translate(63.183594 -16.3125) scale(0.7)"/>
       <use xlink:href="#DejaVuSans-Oblique-68" transform="translate(91.962891 -16.3125) scale(0.7)"/>
      </g>
     </g>
    </g>
    <g id="xtick_15">
     <g id="line2d_37">
      <g>
       <use xlink:href="#m6137e09abc" x="827.09745" y="197.028" style="stroke: #000000; stroke-width: 1.25"/>
      </g>
     </g>
     <g id="text_37">
      <!-- $E_{mel}$ -->
      <g transform="translate(814.09545 215.996938) scale(0.132 -0.132)">
       <use xlink:href="#DejaVuSans-Oblique-45" transform="translate(0 0.09375)"/>
       <use xlink:href="#DejaVuSans-Oblique-6d" transform="translate(63.183594 -16.3125) scale(0.7)"/>
       <use xlink:href="#DejaVuSans-Oblique-65" transform="translate(131.37207 -16.3125) scale(0.7)"/>
       <use xlink:href="#DejaVuSans-Oblique-6c" transform="translate(174.438477 -16.3125) scale(0.7)"/>
      </g>
     </g>
    </g>
   </g>
   <g id="matplotlib.axis_6">
    <g id="ytick_12">
     <g id="line2d_38">
      <g>
       <use xlink:href="#mfd91f58e69" x="634.9425" y="197.028" style="stroke: #000000; stroke-width: 1.25"/>
      </g>
     </g>
     <g id="text_38">
      <!-- 0 -->
      <g transform="translate(618.102062 201.762469) scale(0.132 -0.132)">
       <use xlink:href="#Helvetica-30"/>
      </g>
     </g>
    </g>
    <g id="ytick_13">
     <g id="line2d_39">
      <g>
       <use xlink:href="#mfd91f58e69" x="634.9425" y="165.649256" style="stroke: #000000; stroke-width: 1.25"/>
      </g>
     </g>
     <g id="text_39">
      <!-- 10 -->
      <g transform="translate(610.761625 170.383725) scale(0.132 -0.132)">
       <use xlink:href="#Helvetica-31"/>
       <use xlink:href="#Helvetica-30" x="55.615234"/>
      </g>
     </g>
    </g>
    <g id="ytick_14">
     <g id="line2d_40">
      <g>
       <use xlink:href="#mfd91f58e69" x="634.9425" y="134.270512" style="stroke: #000000; stroke-width: 1.25"/>
      </g>
     </g>
     <g id="text_40">
      <!-- 20 -->
      <g transform="translate(610.761625 139.00498) scale(0.132 -0.132)">
       <use xlink:href="#Helvetica-32"/>
       <use xlink:href="#Helvetica-30" x="55.615234"/>
      </g>
     </g>
    </g>
    <g id="ytick_15">
     <g id="line2d_41">
      <g>
       <use xlink:href="#mfd91f58e69" x="634.9425" y="102.891767" style="stroke: #000000; stroke-width: 1.25"/>
      </g>
     </g>
     <g id="text_41">
      <!-- 30 -->
      <g transform="translate(610.761625 107.626236) scale(0.132 -0.132)">
       <defs>
        <path id="Helvetica-33" d="M 1663 -122 
Q 869 -122 511 314 
Q 153 750 153 1375 
L 741 1375 
Q 778 941 903 744 
Q 1122 391 1694 391 
Q 2138 391 2406 628 
Q 2675 866 2675 1241 
Q 2675 1703 2392 1887 
Q 2109 2072 1606 2072 
Q 1550 2072 1492 2070 
Q 1434 2069 1375 2066 
L 1375 2563 
Q 1463 2553 1522 2550 
Q 1581 2547 1650 2547 
Q 1966 2547 2169 2647 
Q 2525 2822 2525 3272 
Q 2525 3606 2287 3787 
Q 2050 3969 1734 3969 
Q 1172 3969 956 3594 
Q 838 3388 822 3006 
L 266 3006 
Q 266 3506 466 3856 
Q 809 4481 1675 4481 
Q 2359 4481 2734 4176 
Q 3109 3872 3109 3294 
Q 3109 2881 2888 2625 
Q 2750 2466 2531 2375 
Q 2884 2278 3082 2001 
Q 3281 1725 3281 1325 
Q 3281 684 2859 281 
Q 2438 -122 1663 -122 
z
" transform="scale(0.015625)"/>
       </defs>
       <use xlink:href="#Helvetica-33"/>
       <use xlink:href="#Helvetica-30" x="55.615234"/>
      </g>
     </g>
    </g>
    <g id="ytick_16">
     <g id="line2d_42">
      <g>
       <use xlink:href="#mfd91f58e69" x="634.9425" y="71.513023" style="stroke: #000000; stroke-width: 1.25"/>
      </g>
     </g>
     <g id="text_42">
      <!-- 40 -->
      <g transform="translate(610.761625 76.247492) scale(0.132 -0.132)">
       <use xlink:href="#Helvetica-34"/>
       <use xlink:href="#Helvetica-30" x="55.615234"/>
      </g>
     </g>
    </g>
    <g id="ytick_17">
     <g id="line2d_43">
      <g>
       <use xlink:href="#mfd91f58e69" x="634.9425" y="40.134279" style="stroke: #000000; stroke-width: 1.25"/>
      </g>
     </g>
     <g id="text_43">
      <!-- 50 -->
      <g transform="translate(610.761625 44.868748) scale(0.132 -0.132)">
       <use xlink:href="#Helvetica-35"/>
       <use xlink:href="#Helvetica-30" x="55.615234"/>
      </g>
     </g>
    </g>
    <g id="text_44">
     <!-- mW/m$^2$ -->
     <g transform="translate(603.760125 139.674) rotate(-90) scale(0.144 -0.144)">
      <use xlink:href="#Helvetica-6d" transform="translate(0 0.765625)"/>
      <use xlink:href="#Helvetica-57" transform="translate(83.300781 0.765625)"/>
      <use xlink:href="#Helvetica-2f" transform="translate(177.685547 0.765625)"/>
      <use xlink:href="#Helvetica-6d" transform="translate(205.46875 0.765625)"/>
      <use xlink:href="#DejaVuSans-32" transform="translate(289.726562 39.046875) scale(0.7)"/>
     </g>
    </g>
   </g>
   <g id="patch_19">
    <path d="M 634.9425 197.028 
L 634.9425 33.792 
" style="fill: none; stroke: #000000; stroke-width: 1.25; stroke-linejoin: miter; stroke-linecap: square"/>
   </g>
   <g id="patch_20">
    <path d="M 848.448 197.028 
L 848.448 33.792 
" style="fill: none; stroke: #000000; stroke-width: 1.25; stroke-linejoin: miter; stroke-linecap: square"/>
   </g>
   <g id="patch_21">
    <path d="M 634.9425 197.028 
L 848.448 197.028 
" style="fill: none; stroke: #000000; stroke-width: 1.25; stroke-linejoin: miter; stroke-linecap: square"/>
   </g>
   <g id="patch_22">
    <path d="M 634.9425 33.792 
L 848.448 33.792 
" style="fill: none; stroke: #000000; stroke-width: 1.25; stroke-linejoin: miter; stroke-linecap: square"/>
   </g>
   <g id="text_45">
    <!-- $\alpha$-opic irradiance -->
    <g transform="translate(687.69525 27.792) scale(0.144 -0.144)">
     <use xlink:href="#DejaVuSans-Oblique-3b1" transform="translate(0 0.03125)"/>
     <use xlink:href="#Helvetica-2d" transform="translate(65.917969 0.03125)"/>
     <use xlink:href="#Helvetica-6f" transform="translate(99.21875 0.03125)"/>
     <use xlink:href="#Helvetica-70" transform="translate(154.833984 0.03125)"/>
     <use xlink:href="#Helvetica-69" transform="translate(210.449219 0.03125)"/>
     <use xlink:href="#Helvetica-63" transform="translate(232.666016 0.03125)"/>
     <use xlink:href="#Helvetica-20" transform="translate(282.666016 0.03125)"/>
     <use xlink:href="#Helvetica-69" transform="translate(310.449219 0.03125)"/>
     <use xlink:href="#Helvetica-72" transform="translate(332.666016 0.03125)"/>
     <use xlink:href="#Helvetica-72" transform="translate(365.966797 0.03125)"/>
     <use xlink:href="#Helvetica-61" transform="translate(399.267578 0.03125)"/>
     <use xlink:href="#Helvetica-64" transform="translate(454.882812 0.03125)"/>
     <use xlink:href="#Helvetica-69" transform="translate(510.498047 0.03125)"/>
     <use xlink:href="#Helvetica-61" transform="translate(532.714844 0.03125)"/>
     <use xlink:href="#Helvetica-6e" transform="translate(588.330078 0.03125)"/>
     <use xlink:href="#Helvetica-63" transform="translate(643.945312 0.03125)"/>
     <use xlink:href="#Helvetica-65" transform="translate(693.945312 0.03125)"/>
    </g>
   </g>
  </g>
 </g>
 <defs>
  <clipPath id="p02e8bee2ec">
   <rect x="63.27" y="33.792" width="213.5055" height="163.236"/>
  </clipPath>
  <clipPath id="p61693b8611">
   <rect x="349.10625" y="33.792" width="213.5055" height="163.236"/>
  </clipPath>
  <clipPath id="p99749d4965">
   <rect x="634.9425" y="33.792" width="213.5055" height="163.236"/>
  </clipPath>
 </defs>
</svg>
