<?xml version="1.0" encoding="utf-8" standalone="no"?>
<!DOCTYPE svg PUBLIC "-//W3C//DTD SVG 1.1//EN"
  "http://www.w3.org/Graphics/SVG/1.1/DTD/svg11.dtd">
<svg xmlns:xlink="http://www.w3.org/1999/xlink" width="864pt" height="252pt" viewBox="0 0 864 252" xmlns="http://www.w3.org/2000/svg" version="1.1">
 <metadata>
  <rdf:RDF xmlns:dc="http://purl.org/dc/elements/1.1/" xmlns:cc="http://creativecommons.org/ns#" xmlns:rdf="http://www.w3.org/1999/02/22-rdf-syntax-ns#">
   <cc:Work>
    <dc:type rdf:resource="http://purl.org/dc/dcmitype/StillImage"/>
    <dc:date>2022-09-27T09:21:10.007635</dc:date>
    <dc:format>image/svg+xml</dc:format>
    <dc:creator>
     <cc:Agent>
      <dc:title>Matplotlib v3.6.0rc2, https://matplotlib.org/</dc:title>
     </cc:Agent>
    </dc:creator>
   </cc:Work>
  </rdf:RDF>
 </metadata>
 <defs>
  <style type="text/css">*{stroke-linejoin: round; stroke-linecap: butt}</style>
 </defs>
 <g id="figure_1">
  <g id="patch_1">
   <path d="M 0 252 
L 864 252 
L 864 0 
L 0 0 
z
" style="fill: #ffffff"/>
  </g>
  <g id="axes_1">
   <g id="patch_2">
    <path d="M 73.53 197.028 
L 280.356 197.028 
L 280.356 32.352 
L 73.53 32.352 
z
" style="fill: #ffffff"/>
   </g>
   <g id="matplotlib.axis_1">
    <g id="xtick_1">
     <g id="line2d_1">
      <defs>
       <path id="mf95a88ebbf" d="M 0 0 
L 0 6 
" style="stroke: #000000; stroke-width: 1.25"/>
      </defs>
      <g>
       <use xlink:href="#mf95a88ebbf" x="92.332364" y="197.028" style="stroke: #000000; stroke-width: 1.25"/>
      </g>
     </g>
     <g id="text_1">
      <!-- 400 -->
      <g transform="translate(81.321707 215.996938) scale(0.132 -0.132)">
       <defs>
        <path id="Helvetica-34" d="M 2116 1584 
L 2116 3613 
L 681 1584 
L 2116 1584 
z
M 2125 0 
L 2125 1094 
L 163 1094 
L 163 1644 
L 2213 4488 
L 2688 4488 
L 2688 1584 
L 3347 1584 
L 3347 1094 
L 2688 1094 
L 2688 0 
L 2125 0 
z
" transform="scale(0.015625)"/>
        <path id="Helvetica-30" d="M 1731 4475 
Q 2600 4475 2988 3759 
Q 3288 3206 3288 2244 
Q 3288 1331 3016 734 
Q 2622 -122 1728 -122 
Q 922 -122 528 578 
Q 200 1163 200 2147 
Q 200 2909 397 3456 
Q 766 4475 1731 4475 
z
M 1725 391 
Q 2163 391 2422 778 
Q 2681 1166 2681 2222 
Q 2681 2984 2493 3476 
Q 2306 3969 1766 3969 
Q 1269 3969 1039 3501 
Q 809 3034 809 2125 
Q 809 1441 956 1025 
Q 1181 391 1725 391 
z
" transform="scale(0.015625)"/>
       </defs>
       <use xlink:href="#Helvetica-34"/>
       <use xlink:href="#Helvetica-30" x="55.615234"/>
       <use xlink:href="#Helvetica-30" x="111.230469"/>
      </g>
     </g>
    </g>
    <g id="xtick_2">
     <g id="line2d_2">
      <g>
       <use xlink:href="#mf95a88ebbf" x="139.338273" y="197.028" style="stroke: #000000; stroke-width: 1.25"/>
      </g>
     </g>
     <g id="text_2">
      <!-- 500 -->
      <g transform="translate(128.327616 215.996938) scale(0.132 -0.132)">
       <defs>
        <path id="Helvetica-35" d="M 791 1141 
Q 847 659 1238 475 
Q 1438 381 1700 381 
Q 2200 381 2440 700 
Q 2681 1019 2681 1406 
Q 2681 1875 2395 2131 
Q 2109 2388 1709 2388 
Q 1419 2388 1211 2275 
Q 1003 2163 856 1963 
L 369 1991 
L 709 4400 
L 3034 4400 
L 3034 3856 
L 1131 3856 
L 941 2613 
Q 1097 2731 1238 2791 
Q 1488 2894 1816 2894 
Q 2431 2894 2859 2497 
Q 3288 2100 3288 1491 
Q 3288 856 2895 371 
Q 2503 -113 1644 -113 
Q 1097 -113 676 195 
Q 256 503 206 1141 
L 791 1141 
z
" transform="scale(0.015625)"/>
       </defs>
       <use xlink:href="#Helvetica-35"/>
       <use xlink:href="#Helvetica-30" x="55.615234"/>
       <use xlink:href="#Helvetica-30" x="111.230469"/>
      </g>
     </g>
    </g>
    <g id="xtick_3">
     <g id="line2d_3">
      <g>
       <use xlink:href="#mf95a88ebbf" x="186.344182" y="197.028" style="stroke: #000000; stroke-width: 1.25"/>
      </g>
     </g>
     <g id="text_3">
      <!-- 600 -->
      <g transform="translate(175.333526 215.996938) scale(0.132 -0.132)">
       <defs>
        <path id="Helvetica-36" d="M 1872 4494 
Q 2622 4494 2917 4105 
Q 3213 3716 3213 3303 
L 2656 3303 
Q 2606 3569 2497 3719 
Q 2294 4000 1881 4000 
Q 1409 4000 1131 3564 
Q 853 3128 822 2316 
Q 1016 2600 1309 2741 
Q 1578 2866 1909 2866 
Q 2472 2866 2890 2506 
Q 3309 2147 3309 1434 
Q 3309 825 2912 354 
Q 2516 -116 1781 -116 
Q 1153 -116 697 361 
Q 241 838 241 1966 
Q 241 2800 444 3381 
Q 834 4494 1872 4494 
z
M 1831 384 
Q 2275 384 2495 682 
Q 2716 981 2716 1388 
Q 2716 1731 2519 2042 
Q 2322 2353 1803 2353 
Q 1441 2353 1167 2112 
Q 894 1872 894 1388 
Q 894 963 1142 673 
Q 1391 384 1831 384 
z
" transform="scale(0.015625)"/>
       </defs>
       <use xlink:href="#Helvetica-36"/>
       <use xlink:href="#Helvetica-30" x="55.615234"/>
       <use xlink:href="#Helvetica-30" x="111.230469"/>
      </g>
     </g>
    </g>
    <g id="xtick_4">
     <g id="line2d_4">
      <g>
       <use xlink:href="#mf95a88ebbf" x="233.350091" y="197.028" style="stroke: #000000; stroke-width: 1.25"/>
      </g>
     </g>
     <g id="text_4">
      <!-- 700 -->
      <g transform="translate(222.339435 215.996938) scale(0.132 -0.132)">
       <defs>
        <path id="Helvetica-37" d="M 3347 4400 
L 3347 3909 
Q 3131 3700 2773 3181 
Q 2416 2663 2141 2063 
Q 1869 1478 1728 997 
Q 1638 688 1494 0 
L 872 0 
Q 1084 1281 1809 2550 
Q 2238 3294 2709 3834 
L 234 3834 
L 234 4400 
L 3347 4400 
z
" transform="scale(0.015625)"/>
       </defs>
       <use xlink:href="#Helvetica-37"/>
       <use xlink:href="#Helvetica-30" x="55.615234"/>
       <use xlink:href="#Helvetica-30" x="111.230469"/>
      </g>
     </g>
    </g>
    <g id="xtick_5">
     <g id="line2d_5">
      <g>
       <use xlink:href="#mf95a88ebbf" x="280.356" y="197.028" style="stroke: #000000; stroke-width: 1.25"/>
      </g>
     </g>
     <g id="text_5">
      <!-- 800 -->
      <g transform="translate(269.345344 215.996938) scale(0.132 -0.132)">
       <defs>
        <path id="Helvetica-38" d="M 1741 2600 
Q 2113 2600 2322 2808 
Q 2531 3016 2531 3303 
Q 2531 3553 2331 3762 
Q 2131 3972 1722 3972 
Q 1316 3972 1134 3762 
Q 953 3553 953 3272 
Q 953 2956 1187 2778 
Q 1422 2600 1741 2600 
z
M 1775 384 
Q 2166 384 2423 595 
Q 2681 806 2681 1225 
Q 2681 1659 2415 1884 
Q 2150 2109 1734 2109 
Q 1331 2109 1076 1879 
Q 822 1650 822 1244 
Q 822 894 1055 639 
Q 1288 384 1775 384 
z
M 975 2384 
Q 741 2484 609 2619 
Q 363 2869 363 3269 
Q 363 3769 725 4128 
Q 1088 4488 1753 4488 
Q 2397 4488 2762 4148 
Q 3128 3809 3128 3356 
Q 3128 2938 2916 2678 
Q 2797 2531 2547 2391 
Q 2825 2263 2984 2097 
Q 3281 1784 3281 1284 
Q 3281 694 2884 283 
Q 2488 -128 1763 -128 
Q 1109 -128 657 226 
Q 206 581 206 1256 
Q 206 1653 400 1942 
Q 594 2231 975 2384 
z
" transform="scale(0.015625)"/>
       </defs>
       <use xlink:href="#Helvetica-38"/>
       <use xlink:href="#Helvetica-30" x="55.615234"/>
       <use xlink:href="#Helvetica-30" x="111.230469"/>
      </g>
     </g>
    </g>
    <g id="text_6">
     <!-- Wavelength (nm) -->
     <g transform="translate(122.127375 233.246812) scale(0.144 -0.144)">
      <defs>
       <path id="Helvetica-57" d="M 791 4591 
L 1656 856 
L 2694 4591 
L 3369 4591 
L 4406 856 
L 5272 4591 
L 5953 4591 
L 4747 0 
L 4094 0 
L 3034 3806 
L 1969 0 
L 1316 0 
L 116 4591 
L 791 4591 
z
" transform="scale(0.015625)"/>
       <path id="Helvetica-61" d="M 844 891 
Q 844 647 1022 506 
Q 1200 366 1444 366 
Q 1741 366 2019 503 
Q 2488 731 2488 1250 
L 2488 1703 
Q 2384 1638 2221 1594 
Q 2059 1550 1903 1531 
L 1563 1488 
Q 1256 1447 1103 1359 
Q 844 1213 844 891 
z
M 2206 2028 
Q 2400 2053 2466 2191 
Q 2503 2266 2503 2406 
Q 2503 2694 2298 2823 
Q 2094 2953 1713 2953 
Q 1272 2953 1088 2716 
Q 984 2584 953 2325 
L 428 2325 
Q 444 2944 830 3186 
Q 1216 3428 1725 3428 
Q 2316 3428 2684 3203 
Q 3050 2978 3050 2503 
L 3050 575 
Q 3050 488 3086 434 
Q 3122 381 3238 381 
Q 3275 381 3322 386 
Q 3369 391 3422 400 
L 3422 -16 
Q 3291 -53 3222 -62 
Q 3153 -72 3034 -72 
Q 2744 -72 2613 134 
Q 2544 244 2516 444 
Q 2344 219 2022 53 
Q 1700 -113 1313 -113 
Q 847 -113 551 170 
Q 256 453 256 878 
Q 256 1344 547 1600 
Q 838 1856 1309 1916 
L 2206 2028 
z
M 1741 3428 
L 1741 3428 
z
" transform="scale(0.015625)"/>
       <path id="Helvetica-76" d="M 688 3347 
L 1581 622 
L 2516 3347 
L 3131 3347 
L 1869 0 
L 1269 0 
L 34 3347 
L 688 3347 
z
" transform="scale(0.015625)"/>
       <path id="Helvetica-65" d="M 1806 3422 
Q 2163 3422 2497 3255 
Q 2831 3088 3006 2822 
Q 3175 2569 3231 2231 
Q 3281 2000 3281 1494 
L 828 1494 
Q 844 984 1069 676 
Q 1294 369 1766 369 
Q 2206 369 2469 659 
Q 2619 828 2681 1050 
L 3234 1050 
Q 3213 866 3089 639 
Q 2966 413 2813 269 
Q 2556 19 2178 -69 
Q 1975 -119 1719 -119 
Q 1094 -119 659 336 
Q 225 791 225 1609 
Q 225 2416 662 2919 
Q 1100 3422 1806 3422 
z
M 2703 1941 
Q 2669 2306 2544 2525 
Q 2313 2931 1772 2931 
Q 1384 2931 1121 2651 
Q 859 2372 844 1941 
L 2703 1941 
z
M 1753 3428 
L 1753 3428 
z
" transform="scale(0.015625)"/>
       <path id="Helvetica-6c" d="M 428 4591 
L 991 4591 
L 991 0 
L 428 0 
L 428 4591 
z
" transform="scale(0.015625)"/>
       <path id="Helvetica-6e" d="M 413 3347 
L 947 3347 
L 947 2872 
Q 1184 3166 1450 3294 
Q 1716 3422 2041 3422 
Q 2753 3422 3003 2925 
Q 3141 2653 3141 2147 
L 3141 0 
L 2569 0 
L 2569 2109 
Q 2569 2416 2478 2603 
Q 2328 2916 1934 2916 
Q 1734 2916 1606 2875 
Q 1375 2806 1200 2600 
Q 1059 2434 1017 2257 
Q 975 2081 975 1753 
L 975 0 
L 413 0 
L 413 3347 
z
M 1734 3428 
L 1734 3428 
z
" transform="scale(0.015625)"/>
       <path id="Helvetica-67" d="M 1594 3406 
Q 1988 3406 2281 3213 
Q 2441 3103 2606 2894 
L 2606 3316 
L 3125 3316 
L 3125 272 
Q 3125 -366 2938 -734 
Q 2588 -1416 1616 -1416 
Q 1075 -1416 706 -1173 
Q 338 -931 294 -416 
L 866 -416 
Q 906 -641 1028 -763 
Q 1219 -950 1628 -950 
Q 2275 -950 2475 -494 
Q 2594 -225 2584 466 
Q 2416 209 2178 84 
Q 1941 -41 1550 -41 
Q 1006 -41 598 345 
Q 191 731 191 1622 
Q 191 2463 602 2934 
Q 1013 3406 1594 3406 
z
M 2606 1688 
Q 2606 2309 2350 2609 
Q 2094 2909 1697 2909 
Q 1103 2909 884 2353 
Q 769 2056 769 1575 
Q 769 1009 998 714 
Q 1228 419 1616 419 
Q 2222 419 2469 966 
Q 2606 1275 2606 1688 
z
M 1659 3428 
L 1659 3428 
z
" transform="scale(0.015625)"/>
       <path id="Helvetica-74" d="M 525 4281 
L 1094 4281 
L 1094 3347 
L 1628 3347 
L 1628 2888 
L 1094 2888 
L 1094 703 
Q 1094 528 1213 469 
Q 1278 434 1431 434 
Q 1472 434 1519 436 
Q 1566 438 1628 444 
L 1628 0 
Q 1531 -28 1426 -40 
Q 1322 -53 1200 -53 
Q 806 -53 665 148 
Q 525 350 525 672 
L 525 2888 
L 72 2888 
L 72 3347 
L 525 3347 
L 525 4281 
z
" transform="scale(0.015625)"/>
       <path id="Helvetica-68" d="M 413 4606 
L 975 4606 
L 975 2894 
Q 1175 3147 1334 3250 
Q 1606 3428 2013 3428 
Q 2741 3428 3000 2919 
Q 3141 2641 3141 2147 
L 3141 0 
L 2563 0 
L 2563 2109 
Q 2563 2478 2469 2650 
Q 2316 2925 1894 2925 
Q 1544 2925 1259 2684 
Q 975 2444 975 1775 
L 975 0 
L 413 0 
L 413 4606 
z
" transform="scale(0.015625)"/>
       <path id="Helvetica-20" transform="scale(0.015625)"/>
       <path id="Helvetica-28" d="M 1894 4666 
Q 1403 3713 1256 3263 
Q 1034 2578 1034 1681 
Q 1034 775 1288 25 
Q 1444 -438 1903 -1306 
L 1525 -1306 
Q 1069 -594 959 -397 
Q 850 -200 722 138 
Q 547 600 478 1125 
Q 444 1397 444 1644 
Q 444 2569 734 3291 
Q 919 3750 1503 4666 
L 1894 4666 
z
" transform="scale(0.015625)"/>
       <path id="Helvetica-6d" d="M 413 3347 
L 969 3347 
L 969 2872 
Q 1169 3119 1331 3231 
Q 1609 3422 1963 3422 
Q 2363 3422 2606 3225 
Q 2744 3113 2856 2894 
Q 3044 3163 3297 3292 
Q 3550 3422 3866 3422 
Q 4541 3422 4784 2934 
Q 4916 2672 4916 2228 
L 4916 0 
L 4331 0 
L 4331 2325 
Q 4331 2659 4164 2784 
Q 3997 2909 3756 2909 
Q 3425 2909 3186 2687 
Q 2947 2466 2947 1947 
L 2947 0 
L 2375 0 
L 2375 2184 
Q 2375 2525 2294 2681 
Q 2166 2916 1816 2916 
Q 1497 2916 1236 2669 
Q 975 2422 975 1775 
L 975 0 
L 413 0 
L 413 3347 
z
" transform="scale(0.015625)"/>
       <path id="Helvetica-29" d="M 222 -1306 
Q 719 -338 863 106 
Q 1081 778 1081 1681 
Q 1081 2584 828 3334 
Q 672 3797 213 4666 
L 591 4666 
Q 1072 3897 1173 3717 
Q 1275 3538 1394 3222 
Q 1544 2831 1608 2450 
Q 1672 2069 1672 1716 
Q 1672 791 1378 66 
Q 1194 -400 613 -1306 
L 222 -1306 
z
" transform="scale(0.015625)"/>
      </defs>
      <use xlink:href="#Helvetica-57"/>
      <use xlink:href="#Helvetica-61" x="94.384766"/>
      <use xlink:href="#Helvetica-76" x="150"/>
      <use xlink:href="#Helvetica-65" x="200"/>
      <use xlink:href="#Helvetica-6c" x="255.615234"/>
      <use xlink:href="#Helvetica-65" x="277.832031"/>
      <use xlink:href="#Helvetica-6e" x="333.447266"/>
      <use xlink:href="#Helvetica-67" x="389.0625"/>
      <use xlink:href="#Helvetica-74" x="444.677734"/>
      <use xlink:href="#Helvetica-68" x="472.460938"/>
      <use xlink:href="#Helvetica-20" x="528.076172"/>
      <use xlink:href="#Helvetica-28" x="555.859375"/>
      <use xlink:href="#Helvetica-6e" x="589.160156"/>
      <use xlink:href="#Helvetica-6d" x="644.775391"/>
      <use xlink:href="#Helvetica-29" x="728.076172"/>
     </g>
    </g>
   </g>
   <g id="matplotlib.axis_2">
    <g id="ytick_1">
     <g id="line2d_6">
      <defs>
       <path id="m6ef432013b" d="M 0 0 
L -6 0 
" style="stroke: #000000; stroke-width: 1.25"/>
      </defs>
      <g>
       <use xlink:href="#m6ef432013b" x="73.53" y="189.37804" style="stroke: #000000; stroke-width: 1.25"/>
      </g>
     </g>
     <g id="text_7">
      <!-- 0.0 -->
      <g transform="translate(45.682 194.112508) scale(0.132 -0.132)">
       <defs>
        <path id="Helvetica-2e" d="M 547 681 
L 1200 681 
L 1200 0 
L 547 0 
L 547 681 
z
" transform="scale(0.015625)"/>
       </defs>
       <use xlink:href="#Helvetica-30"/>
       <use xlink:href="#Helvetica-2e" x="55.615234"/>
       <use xlink:href="#Helvetica-30" x="83.398438"/>
      </g>
     </g>
    </g>
    <g id="ytick_2">
     <g id="line2d_7">
      <g>
       <use xlink:href="#m6ef432013b" x="73.53" y="138.464985" style="stroke: #000000; stroke-width: 1.25"/>
      </g>
     </g>
     <g id="text_8">
      <!-- 0.5 -->
      <g transform="translate(45.682 143.199454) scale(0.132 -0.132)">
       <use xlink:href="#Helvetica-30"/>
       <use xlink:href="#Helvetica-2e" x="55.615234"/>
       <use xlink:href="#Helvetica-35" x="83.398438"/>
      </g>
     </g>
    </g>
    <g id="ytick_3">
     <g id="line2d_8">
      <g>
       <use xlink:href="#m6ef432013b" x="73.53" y="87.551931" style="stroke: #000000; stroke-width: 1.25"/>
      </g>
     </g>
     <g id="text_9">
      <!-- 1.0 -->
      <g transform="translate(45.682 92.2864) scale(0.132 -0.132)">
       <defs>
        <path id="Helvetica-31" d="M 613 3169 
L 613 3600 
Q 1222 3659 1462 3798 
Q 1703 3938 1822 4456 
L 2266 4456 
L 2266 0 
L 1666 0 
L 1666 3169 
L 613 3169 
z
" transform="scale(0.015625)"/>
       </defs>
       <use xlink:href="#Helvetica-31"/>
       <use xlink:href="#Helvetica-2e" x="55.615234"/>
       <use xlink:href="#Helvetica-30" x="83.398438"/>
      </g>
     </g>
    </g>
    <g id="ytick_4">
     <g id="line2d_9">
      <g>
       <use xlink:href="#m6ef432013b" x="73.53" y="36.638876" style="stroke: #000000; stroke-width: 1.25"/>
      </g>
     </g>
     <g id="text_10">
      <!-- 1.5 -->
      <g transform="translate(45.682 41.373345) scale(0.132 -0.132)">
       <use xlink:href="#Helvetica-31"/>
       <use xlink:href="#Helvetica-2e" x="55.615234"/>
       <use xlink:href="#Helvetica-35" x="83.398438"/>
      </g>
     </g>
    </g>
    <g id="text_11">
     <!-- $\mu$W/cm$^2$/nm -->
     <g transform="translate(38.658 153.21) rotate(-90) scale(0.144 -0.144)">
      <defs>
       <path id="DejaVuSans-Oblique-3bc" d="M -84 -1331 
L 856 3500 
L 1434 3500 
L 1009 1322 
Q 997 1256 987 1175 
Q 978 1094 978 1013 
Q 978 722 1161 565 
Q 1344 409 1684 409 
Q 2147 409 2431 671 
Q 2716 934 2816 1459 
L 3213 3500 
L 3788 3500 
L 3266 809 
Q 3253 750 3248 706 
Q 3244 663 3244 628 
Q 3244 531 3283 486 
Q 3322 441 3406 441 
Q 3438 441 3492 456 
Q 3547 472 3647 513 
L 3559 50 
Q 3422 -19 3297 -55 
Q 3172 -91 3053 -91 
Q 2847 -91 2730 40 
Q 2613 172 2613 403 
Q 2438 153 2195 31 
Q 1953 -91 1625 -91 
Q 1334 -91 1117 43 
Q 900 178 831 397 
L 494 -1331 
L -84 -1331 
z
" transform="scale(0.015625)"/>
       <path id="Helvetica-2f" d="M 1456 4591 
L 1931 4591 
L 475 0 
L 0 0 
L 1456 4591 
z
" transform="scale(0.015625)"/>
       <path id="Helvetica-63" d="M 1703 3444 
Q 2269 3444 2623 3169 
Q 2978 2894 3050 2222 
L 2503 2222 
Q 2453 2531 2275 2736 
Q 2097 2941 1703 2941 
Q 1166 2941 934 2416 
Q 784 2075 784 1575 
Q 784 1072 996 728 
Q 1209 384 1666 384 
Q 2016 384 2220 598 
Q 2425 813 2503 1184 
L 3050 1184 
Q 2956 519 2581 211 
Q 2206 -97 1622 -97 
Q 966 -97 575 383 
Q 184 863 184 1581 
Q 184 2463 612 2953 
Q 1041 3444 1703 3444 
z
M 1616 3428 
L 1616 3428 
z
" transform="scale(0.015625)"/>
       <path id="DejaVuSans-32" d="M 1228 531 
L 3431 531 
L 3431 0 
L 469 0 
L 469 531 
Q 828 903 1448 1529 
Q 2069 2156 2228 2338 
Q 2531 2678 2651 2914 
Q 2772 3150 2772 3378 
Q 2772 3750 2511 3984 
Q 2250 4219 1831 4219 
Q 1534 4219 1204 4116 
Q 875 4013 500 3803 
L 500 4441 
Q 881 4594 1212 4672 
Q 1544 4750 1819 4750 
Q 2544 4750 2975 4387 
Q 3406 4025 3406 3419 
Q 3406 3131 3298 2873 
Q 3191 2616 2906 2266 
Q 2828 2175 2409 1742 
Q 1991 1309 1228 531 
z
" transform="scale(0.015625)"/>
      </defs>
      <use xlink:href="#DejaVuSans-Oblique-3bc" transform="translate(0 0.765625)"/>
      <use xlink:href="#Helvetica-57" transform="translate(63.623047 0.765625)"/>
      <use xlink:href="#Helvetica-2f" transform="translate(158.007812 0.765625)"/>
      <use xlink:href="#Helvetica-63" transform="translate(185.791016 0.765625)"/>
      <use xlink:href="#Helvetica-6d" transform="translate(235.791016 0.765625)"/>
      <use xlink:href="#DejaVuSans-32" transform="translate(320.048828 39.046875) scale(0.7)"/>
      <use xlink:href="#Helvetica-2f" transform="translate(367.319336 0.765625)"/>
      <use xlink:href="#Helvetica-6e" transform="translate(395.102539 0.765625)"/>
      <use xlink:href="#Helvetica-6d" transform="translate(450.717773 0.765625)"/>
     </g>
    </g>
    <g id="text_12">
     <!-- 1e6 -->
     <g transform="translate(73.53 29.352) scale(0.132 -0.132)">
      <use xlink:href="#Helvetica-31"/>
      <use xlink:href="#Helvetica-65" x="55.615234"/>
      <use xlink:href="#Helvetica-36" x="111.230469"/>
     </g>
    </g>
   </g>
   <g id="line2d_10">
    <path d="M 82.931182 189.353568 
L 83.401241 189.238835 
L 83.8713 186.937693 
L 84.341359 189.349796 
L 84.811418 188.669735 
L 85.281477 189.33516 
L 85.751536 189.333182 
L 86.221595 188.835201 
L 86.691655 189.061226 
L 87.161714 188.926758 
L 87.631773 189.063415 
L 88.101832 189.34113 
L 88.571891 189.412483 
L 89.04195 188.960395 
L 89.512009 189.542727 
L 89.982068 189.260676 
L 90.452127 189.327455 
L 90.922186 189.198825 
L 91.392245 189.306941 
L 93.272482 188.776146 
L 93.742541 188.894256 
L 94.682659 188.734461 
L 95.152718 188.032963 
L 96.562895 187.81932 
L 97.032955 186.360276 
L 97.503014 186.525844 
L 97.973073 185.834547 
L 98.443132 185.354622 
L 99.853309 181.617629 
L 101.263486 175.014214 
L 102.203605 168.535549 
L 105.023959 142.740176 
L 105.494018 141.934634 
L 105.964077 139.75551 
L 106.434136 140.670712 
L 107.374255 143.038764 
L 107.844314 147.057933 
L 108.314373 149.800591 
L 108.784432 151.318632 
L 109.254491 152.115813 
L 109.72455 153.422655 
L 110.664668 151.735374 
L 111.134727 150.595995 
L 111.604786 148.358866 
L 113.955082 133.753719 
L 114.425141 132.60476 
L 115.365259 128.378215 
L 115.835318 129.678308 
L 116.305377 128.486512 
L 116.775436 130.330644 
L 117.245495 134.901649 
L 117.715555 136.112487 
L 118.655673 140.529693 
L 119.125732 141.737924 
L 119.595791 143.354572 
L 120.06585 142.319347 
L 120.535909 142.468615 
L 121.005968 141.272724 
L 121.476027 141.220635 
L 121.946086 140.213426 
L 122.416145 138.93206 
L 122.886205 138.085087 
L 123.356264 137.555606 
L 124.296382 138.342113 
L 124.766441 137.20321 
L 125.2365 138.019602 
L 125.706559 138.187971 
L 126.176618 138.148102 
L 126.646677 138.221665 
L 127.116736 139.475926 
L 127.586795 139.476508 
L 128.056855 139.05207 
L 128.526914 139.920668 
L 128.996973 138.91506 
L 129.467032 139.546548 
L 129.937091 139.934376 
L 130.40715 139.251646 
L 130.877209 139.281018 
L 131.347268 138.076622 
L 131.817327 139.15878 
L 132.757445 136.63026 
L 133.227505 135.334726 
L 133.697564 135.006488 
L 134.167623 133.689151 
L 134.637682 131.256452 
L 135.107741 129.687428 
L 135.5778 126.077521 
L 136.047859 123.752656 
L 136.517918 120.093342 
L 136.987977 117.645546 
L 137.928095 109.719496 
L 138.868214 102.727762 
L 139.808332 95.255981 
L 140.278391 93.010137 
L 140.74845 87.258859 
L 142.158627 79.157317 
L 142.628686 74.550036 
L 143.098745 71.569703 
L 144.038864 67.49806 
L 144.508923 64.056805 
L 144.978982 61.587094 
L 145.449041 61.248488 
L 145.9191 59.893442 
L 146.389159 58.893679 
L 146.859218 57.608274 
L 147.799336 56.542258 
L 148.269395 57.634393 
L 149.209514 61.046265 
L 149.679573 61.824692 
L 150.619691 67.930661 
L 151.08975 69.08747 
L 153.440045 86.742616 
L 154.380164 92.974197 
L 154.850223 94.62091 
L 155.790341 99.318123 
L 157.200518 104.718179 
L 157.670577 106.072309 
L 158.610695 107.733907 
L 159.080755 109.303876 
L 159.550814 109.461504 
L 160.020873 109.949757 
L 160.490932 109.971584 
L 160.960991 110.142088 
L 161.43105 110.939154 
L 161.901109 111.059159 
L 162.371168 110.56561 
L 163.311286 109.948614 
L 163.781345 109.317402 
L 164.251405 107.965873 
L 164.721464 107.552427 
L 165.191523 106.667069 
L 165.661582 105.348359 
L 166.131641 104.538279 
L 166.6017 102.861017 
L 167.071759 101.779312 
L 167.541818 100.035404 
L 168.481936 97.645998 
L 168.951995 94.838181 
L 169.422055 94.235891 
L 169.892114 92.223385 
L 170.362173 91.733909 
L 170.832232 90.777035 
L 171.302291 89.05606 
L 171.77235 86.304432 
L 172.242409 86.409505 
L 172.712468 86.034869 
L 173.182527 85.329078 
L 173.652586 83.771316 
L 174.122645 83.695816 
L 174.592705 83.20698 
L 175.532823 83.175825 
L 176.002882 82.72798 
L 176.943 81.522676 
L 177.413059 81.54167 
L 177.883118 81.892204 
L 178.353177 81.944557 
L 178.823236 82.347709 
L 179.293295 81.706315 
L 179.763355 82.886819 
L 180.233414 82.649294 
L 180.703473 81.454007 
L 181.173532 83.286025 
L 182.11365 83.957132 
L 182.583709 85.084621 
L 183.053768 85.270729 
L 183.523827 84.411431 
L 183.993886 85.710965 
L 184.463945 86.219994 
L 184.934005 86.919125 
L 185.404064 83.737445 
L 185.874123 86.716498 
L 186.344182 87.840043 
L 186.814241 87.789596 
L 187.2843 88.017687 
L 188.224418 89.768794 
L 188.694477 89.609402 
L 189.164536 90.462342 
L 189.634595 90.30355 
L 190.574714 91.676944 
L 191.044773 90.359774 
L 191.514832 91.522115 
L 192.45495 91.656172 
L 193.395068 91.254345 
L 193.865127 90.781652 
L 194.335186 90.49904 
L 194.805245 89.866383 
L 195.275305 88.628802 
L 195.745364 86.993593 
L 196.215423 86.10216 
L 196.685482 83.764705 
L 197.155541 82.888766 
L 198.565718 75.080218 
L 199.505836 68.652753 
L 200.916014 56.701903 
L 201.386073 51.349129 
L 202.79625 41.49442 
L 203.266309 39.837273 
L 204.206427 46.490805 
L 204.676486 52.985574 
L 206.556723 87.849246 
L 207.496841 100.480245 
L 207.9669 103.556092 
L 208.436959 105.546818 
L 208.907018 108.180546 
L 209.377077 108.666167 
L 209.847136 109.845025 
L 210.317195 109.585863 
L 210.787255 108.381905 
L 211.257314 107.876221 
L 212.197432 103.757727 
L 212.667491 102.575104 
L 213.13755 100.776271 
L 213.607609 100.442554 
L 214.077668 100.826832 
L 215.017786 104.71472 
L 215.957905 118.155066 
L 217.838141 146.493214 
L 218.778259 156.037905 
L 219.718377 162.745623 
L 220.658495 167.320032 
L 221.128555 168.072682 
L 221.598614 170.879511 
L 222.068673 171.941204 
L 222.538732 173.459538 
L 223.008791 174.590265 
L 223.948909 175.854604 
L 224.418968 177.411012 
L 224.889027 177.669515 
L 225.359086 178.588521 
L 226.299205 179.703056 
L 227.239323 180.734493 
L 227.709382 180.717858 
L 228.179441 181.391137 
L 228.6495 181.463639 
L 229.589618 182.234284 
L 230.059677 182.342804 
L 230.529736 182.861564 
L 230.999795 182.865984 
L 231.469855 183.363029 
L 231.939914 183.596108 
L 232.409973 184.00518 
L 232.880032 184.158067 
L 233.350091 183.165619 
L 233.82015 184.479867 
L 234.290209 183.949559 
L 235.230327 185.091889 
L 235.700386 185.197837 
L 236.170445 185.444455 
L 237.110564 185.41359 
L 237.580623 185.574149 
L 238.050682 186.031727 
L 238.520741 186.086824 
L 238.9908 186.322872 
L 239.460859 186.318059 
L 239.930918 186.537401 
L 240.400977 186.460508 
L 240.871036 186.791503 
L 241.341095 186.832319 
L 241.811155 187.036398 
L 242.281214 185.22266 
L 242.751273 187.101855 
L 243.221332 187.506072 
L 243.691391 187.1399 
L 244.16145 187.578209 
L 244.631509 187.563072 
L 245.101568 187.328018 
L 245.571627 187.64227 
L 246.041686 187.757175 
L 246.981805 187.682706 
L 247.451864 188.070944 
L 247.921923 187.796015 
L 248.391982 186.964929 
L 248.862041 188.053635 
L 249.802159 188.361752 
L 250.742277 188.014811 
L 251.212336 187.652262 
L 252.152455 188.605073 
L 253.092573 188.462069 
L 254.032691 188.486617 
L 254.50275 188.842046 
L 254.972809 188.702239 
L 255.442868 188.359543 
L 255.912927 188.649247 
L 256.382986 188.381388 
L 257.793164 188.756855 
L 259.203341 188.79484 
L 259.6734 189.06372 
L 260.143459 189.104734 
L 261.553636 188.832142 
L 262.023695 188.484664 
L 262.493755 188.839268 
L 263.433873 188.799527 
L 263.903932 188.441518 
L 264.373991 189.044181 
L 264.84405 189.305224 
L 265.314109 188.997025 
L 265.784168 189.135359 
L 266.254227 188.984872 
L 266.724286 189.20509 
L 267.194345 189.162235 
L 267.664405 189.420042 
L 268.604523 189.145503 
L 269.074582 188.716792 
L 269.544641 189.051067 
L 270.0147 189.105335 
L 270.484759 188.620268 
L 270.954818 189.353178 
L 270.954818 189.353178 
" clip-path="url(#p72f61ff49a)" style="fill: none; stroke: #1f77b4; stroke-width: 1.5; stroke-linecap: square"/>
   </g>
   <g id="patch_3">
    <path d="M 73.53 197.028 
L 73.53 32.352 
" style="fill: none; stroke: #000000; stroke-width: 1.25; stroke-linejoin: miter; stroke-linecap: square"/>
   </g>
   <g id="patch_4">
    <path d="M 280.356 197.028 
L 280.356 32.352 
" style="fill: none; stroke: #000000; stroke-width: 1.25; stroke-linejoin: miter; stroke-linecap: square"/>
   </g>
   <g id="patch_5">
    <path d="M 73.53 197.028 
L 280.356 197.028 
" style="fill: none; stroke: #000000; stroke-width: 1.25; stroke-linejoin: miter; stroke-linecap: square"/>
   </g>
   <g id="patch_6">
    <path d="M 73.53 32.352 
L 280.356 32.352 
" style="fill: none; stroke: #000000; stroke-width: 1.25; stroke-linejoin: miter; stroke-linecap: square"/>
   </g>
   <g id="text_13">
    <!-- Measured spectrum -->
    <g transform="translate(113.322 26.352) scale(0.144 -0.144)">
     <defs>
      <path id="Helvetica-4d" d="M 472 4591 
L 1363 4591 
L 2681 709 
L 3991 4591 
L 4872 4591 
L 4872 0 
L 4281 0 
L 4281 2709 
Q 4281 2850 4287 3175 
Q 4294 3500 4294 3872 
L 2984 0 
L 2369 0 
L 1050 3872 
L 1050 3731 
Q 1050 3563 1058 3217 
Q 1066 2872 1066 2709 
L 1066 0 
L 472 0 
L 472 4591 
z
" transform="scale(0.015625)"/>
      <path id="Helvetica-73" d="M 747 1050 
Q 772 769 888 619 
Q 1100 347 1625 347 
Q 1938 347 2175 483 
Q 2413 619 2413 903 
Q 2413 1119 2222 1231 
Q 2100 1300 1741 1391 
L 1294 1503 
Q 866 1609 663 1741 
Q 300 1969 300 2372 
Q 300 2847 642 3140 
Q 984 3434 1563 3434 
Q 2319 3434 2653 2991 
Q 2863 2709 2856 2384 
L 2325 2384 
Q 2309 2575 2191 2731 
Q 1997 2953 1519 2953 
Q 1200 2953 1036 2831 
Q 872 2709 872 2509 
Q 872 2291 1088 2159 
Q 1213 2081 1456 2022 
L 1828 1931 
Q 2434 1784 2641 1647 
Q 2969 1431 2969 969 
Q 2969 522 2630 197 
Q 2291 -128 1597 -128 
Q 850 -128 539 211 
Q 228 550 206 1050 
L 747 1050 
z
M 1578 3428 
L 1578 3428 
z
" transform="scale(0.015625)"/>
      <path id="Helvetica-75" d="M 975 3347 
L 975 1125 
Q 975 869 1056 706 
Q 1206 406 1616 406 
Q 2203 406 2416 931 
Q 2531 1213 2531 1703 
L 2531 3347 
L 3094 3347 
L 3094 0 
L 2563 0 
L 2569 494 
Q 2459 303 2297 172 
Q 1975 -91 1516 -91 
Q 800 -91 541 388 
Q 400 644 400 1072 
L 400 3347 
L 975 3347 
z
M 1747 3428 
L 1747 3428 
z
" transform="scale(0.015625)"/>
      <path id="Helvetica-72" d="M 428 3347 
L 963 3347 
L 963 2769 
Q 1028 2938 1284 3180 
Q 1541 3422 1875 3422 
Q 1891 3422 1928 3419 
Q 1966 3416 2056 3406 
L 2056 2813 
Q 2006 2822 1964 2825 
Q 1922 2828 1872 2828 
Q 1447 2828 1219 2554 
Q 991 2281 991 1925 
L 991 0 
L 428 0 
L 428 3347 
z
" transform="scale(0.015625)"/>
      <path id="Helvetica-64" d="M 769 1634 
Q 769 1097 997 734 
Q 1225 372 1728 372 
Q 2119 372 2370 708 
Q 2622 1044 2622 1672 
Q 2622 2306 2362 2611 
Q 2103 2916 1722 2916 
Q 1297 2916 1033 2591 
Q 769 2266 769 1634 
z
M 1616 3406 
Q 2000 3406 2259 3244 
Q 2409 3150 2600 2916 
L 2600 4606 
L 3141 4606 
L 3141 0 
L 2634 0 
L 2634 466 
Q 2438 156 2169 18 
Q 1900 -119 1553 -119 
Q 994 -119 584 351 
Q 175 822 175 1603 
Q 175 2334 548 2870 
Q 922 3406 1616 3406 
z
" transform="scale(0.015625)"/>
      <path id="Helvetica-70" d="M 1825 378 
Q 2219 378 2480 708 
Q 2741 1038 2741 1694 
Q 2741 2094 2625 2381 
Q 2406 2934 1825 2934 
Q 1241 2934 1025 2350 
Q 909 2038 909 1556 
Q 909 1169 1025 897 
Q 1244 378 1825 378 
z
M 369 3331 
L 916 3331 
L 916 2888 
Q 1084 3116 1284 3241 
Q 1569 3428 1953 3428 
Q 2522 3428 2919 2992 
Q 3316 2556 3316 1747 
Q 3316 653 2744 184 
Q 2381 -113 1900 -113 
Q 1522 -113 1266 53 
Q 1116 147 931 375 
L 931 -1334 
L 369 -1334 
L 369 3331 
z
" transform="scale(0.015625)"/>
     </defs>
     <use xlink:href="#Helvetica-4d"/>
     <use xlink:href="#Helvetica-65" x="83.300781"/>
     <use xlink:href="#Helvetica-61" x="138.916016"/>
     <use xlink:href="#Helvetica-73" x="194.53125"/>
     <use xlink:href="#Helvetica-75" x="244.53125"/>
     <use xlink:href="#Helvetica-72" x="300.146484"/>
     <use xlink:href="#Helvetica-65" x="333.447266"/>
     <use xlink:href="#Helvetica-64" x="389.0625"/>
     <use xlink:href="#Helvetica-20" x="444.677734"/>
     <use xlink:href="#Helvetica-73" x="472.460938"/>
     <use xlink:href="#Helvetica-70" x="522.460938"/>
     <use xlink:href="#Helvetica-65" x="578.076172"/>
     <use xlink:href="#Helvetica-63" x="633.691406"/>
     <use xlink:href="#Helvetica-74" x="683.691406"/>
     <use xlink:href="#Helvetica-72" x="711.474609"/>
     <use xlink:href="#Helvetica-75" x="744.775391"/>
     <use xlink:href="#Helvetica-6d" x="800.390625"/>
    </g>
   </g>
  </g>
  <g id="axes_2">
   <g id="patch_7">
    <path d="M 357.576 197.028 
L 564.402 197.028 
L 564.402 32.352 
L 357.576 32.352 
z
" style="fill: #ffffff"/>
   </g>
   <g id="matplotlib.axis_3">
    <g id="xtick_6">
     <g id="line2d_11">
      <g>
       <use xlink:href="#mf95a88ebbf" x="376.378364" y="197.028" style="stroke: #000000; stroke-width: 1.25"/>
      </g>
     </g>
     <g id="text_14">
      <!-- 400 -->
      <g transform="translate(365.367707 215.996938) scale(0.132 -0.132)">
       <use xlink:href="#Helvetica-34"/>
       <use xlink:href="#Helvetica-30" x="55.615234"/>
       <use xlink:href="#Helvetica-30" x="111.230469"/>
      </g>
     </g>
    </g>
    <g id="xtick_7">
     <g id="line2d_12">
      <g>
       <use xlink:href="#mf95a88ebbf" x="423.384273" y="197.028" style="stroke: #000000; stroke-width: 1.25"/>
      </g>
     </g>
     <g id="text_15">
      <!-- 500 -->
      <g transform="translate(412.373616 215.996938) scale(0.132 -0.132)">
       <use xlink:href="#Helvetica-35"/>
       <use xlink:href="#Helvetica-30" x="55.615234"/>
       <use xlink:href="#Helvetica-30" x="111.230469"/>
      </g>
     </g>
    </g>
    <g id="xtick_8">
     <g id="line2d_13">
      <g>
       <use xlink:href="#mf95a88ebbf" x="470.390182" y="197.028" style="stroke: #000000; stroke-width: 1.25"/>
      </g>
     </g>
     <g id="text_16">
      <!-- 600 -->
      <g transform="translate(459.379526 215.996938) scale(0.132 -0.132)">
       <use xlink:href="#Helvetica-36"/>
       <use xlink:href="#Helvetica-30" x="55.615234"/>
       <use xlink:href="#Helvetica-30" x="111.230469"/>
      </g>
     </g>
    </g>
    <g id="xtick_9">
     <g id="line2d_14">
      <g>
       <use xlink:href="#mf95a88ebbf" x="517.396091" y="197.028" style="stroke: #000000; stroke-width: 1.25"/>
      </g>
     </g>
     <g id="text_17">
      <!-- 700 -->
      <g transform="translate(506.385435 215.996938) scale(0.132 -0.132)">
       <use xlink:href="#Helvetica-37"/>
       <use xlink:href="#Helvetica-30" x="55.615234"/>
       <use xlink:href="#Helvetica-30" x="111.230469"/>
      </g>
     </g>
    </g>
    <g id="xtick_10">
     <g id="line2d_15">
      <g>
       <use xlink:href="#mf95a88ebbf" x="564.402" y="197.028" style="stroke: #000000; stroke-width: 1.25"/>
      </g>
     </g>
     <g id="text_18">
      <!-- 800 -->
      <g transform="translate(553.391344 215.996938) scale(0.132 -0.132)">
       <use xlink:href="#Helvetica-38"/>
       <use xlink:href="#Helvetica-30" x="55.615234"/>
       <use xlink:href="#Helvetica-30" x="111.230469"/>
      </g>
     </g>
    </g>
    <g id="text_19">
     <!-- Wavelength (nm) -->
     <g transform="translate(406.173375 233.246812) scale(0.144 -0.144)">
      <use xlink:href="#Helvetica-57"/>
      <use xlink:href="#Helvetica-61" x="94.384766"/>
      <use xlink:href="#Helvetica-76" x="150"/>
      <use xlink:href="#Helvetica-65" x="200"/>
      <use xlink:href="#Helvetica-6c" x="255.615234"/>
      <use xlink:href="#Helvetica-65" x="277.832031"/>
      <use xlink:href="#Helvetica-6e" x="333.447266"/>
      <use xlink:href="#Helvetica-67" x="389.0625"/>
      <use xlink:href="#Helvetica-74" x="444.677734"/>
      <use xlink:href="#Helvetica-68" x="472.460938"/>
      <use xlink:href="#Helvetica-20" x="528.076172"/>
      <use xlink:href="#Helvetica-28" x="555.859375"/>
      <use xlink:href="#Helvetica-6e" x="589.160156"/>
      <use xlink:href="#Helvetica-6d" x="644.775391"/>
      <use xlink:href="#Helvetica-29" x="728.076172"/>
     </g>
    </g>
   </g>
   <g id="matplotlib.axis_4">
    <g id="ytick_5">
     <g id="line2d_16">
      <g>
       <use xlink:href="#m6ef432013b" x="357.576" y="189.542727" style="stroke: #000000; stroke-width: 1.25"/>
      </g>
     </g>
     <g id="text_20">
      <!-- 0.0 -->
      <g transform="translate(329.728 194.277196) scale(0.132 -0.132)">
       <use xlink:href="#Helvetica-30"/>
       <use xlink:href="#Helvetica-2e" x="55.615234"/>
       <use xlink:href="#Helvetica-30" x="83.398438"/>
      </g>
     </g>
    </g>
    <g id="ytick_6">
     <g id="line2d_17">
      <g>
       <use xlink:href="#m6ef432013b" x="357.576" y="159.601636" style="stroke: #000000; stroke-width: 1.25"/>
      </g>
     </g>
     <g id="text_21">
      <!-- 0.2 -->
      <g transform="translate(329.728 164.336105) scale(0.132 -0.132)">
       <defs>
        <path id="Helvetica-32" d="M 200 0 
Q 231 578 439 1006 
Q 647 1434 1250 1784 
L 1850 2131 
Q 2253 2366 2416 2531 
Q 2672 2791 2672 3125 
Q 2672 3516 2437 3745 
Q 2203 3975 1813 3975 
Q 1234 3975 1013 3538 
Q 894 3303 881 2888 
L 309 2888 
Q 319 3472 525 3841 
Q 891 4491 1816 4491 
Q 2584 4491 2939 4075 
Q 3294 3659 3294 3150 
Q 3294 2613 2916 2231 
Q 2697 2009 2131 1694 
L 1703 1456 
Q 1397 1288 1222 1134 
Q 909 863 828 531 
L 3272 531 
L 3272 0 
L 200 0 
z
" transform="scale(0.015625)"/>
       </defs>
       <use xlink:href="#Helvetica-30"/>
       <use xlink:href="#Helvetica-2e" x="55.615234"/>
       <use xlink:href="#Helvetica-32" x="83.398438"/>
      </g>
     </g>
    </g>
    <g id="ytick_7">
     <g id="line2d_18">
      <g>
       <use xlink:href="#m6ef432013b" x="357.576" y="129.660545" style="stroke: #000000; stroke-width: 1.25"/>
      </g>
     </g>
     <g id="text_22">
      <!-- 0.4 -->
      <g transform="translate(329.728 134.395014) scale(0.132 -0.132)">
       <use xlink:href="#Helvetica-30"/>
       <use xlink:href="#Helvetica-2e" x="55.615234"/>
       <use xlink:href="#Helvetica-34" x="83.398438"/>
      </g>
     </g>
    </g>
    <g id="ytick_8">
     <g id="line2d_19">
      <g>
       <use xlink:href="#m6ef432013b" x="357.576" y="99.719455" style="stroke: #000000; stroke-width: 1.25"/>
      </g>
     </g>
     <g id="text_23">
      <!-- 0.6 -->
      <g transform="translate(329.728 104.453923) scale(0.132 -0.132)">
       <use xlink:href="#Helvetica-30"/>
       <use xlink:href="#Helvetica-2e" x="55.615234"/>
       <use xlink:href="#Helvetica-36" x="83.398438"/>
      </g>
     </g>
    </g>
    <g id="ytick_9">
     <g id="line2d_20">
      <g>
       <use xlink:href="#m6ef432013b" x="357.576" y="69.778364" style="stroke: #000000; stroke-width: 1.25"/>
      </g>
     </g>
     <g id="text_24">
      <!-- 0.8 -->
      <g transform="translate(329.728 74.512832) scale(0.132 -0.132)">
       <use xlink:href="#Helvetica-30"/>
       <use xlink:href="#Helvetica-2e" x="55.615234"/>
       <use xlink:href="#Helvetica-38" x="83.398438"/>
      </g>
     </g>
    </g>
    <g id="ytick_10">
     <g id="line2d_21">
      <g>
       <use xlink:href="#m6ef432013b" x="357.576" y="39.837273" style="stroke: #000000; stroke-width: 1.25"/>
      </g>
     </g>
     <g id="text_25">
      <!-- 1.0 -->
      <g transform="translate(329.728 44.571741) scale(0.132 -0.132)">
       <use xlink:href="#Helvetica-31"/>
       <use xlink:href="#Helvetica-2e" x="55.615234"/>
       <use xlink:href="#Helvetica-30" x="83.398438"/>
      </g>
     </g>
    </g>
    <g id="text_26">
     <!-- Spectral sensetivity -->
     <g transform="translate(322.641 176.7135) rotate(-90) scale(0.144 -0.144)">
      <defs>
       <path id="Helvetica-53" d="M 894 1481 
Q 916 1091 1078 847 
Q 1388 391 2169 391 
Q 2519 391 2806 491 
Q 3363 684 3363 1184 
Q 3363 1559 3128 1719 
Q 2891 1875 2384 1991 
L 1763 2131 
Q 1153 2269 900 2434 
Q 463 2722 463 3294 
Q 463 3913 891 4309 
Q 1319 4706 2103 4706 
Q 2825 4706 3329 4357 
Q 3834 4009 3834 3244 
L 3250 3244 
Q 3203 3613 3050 3809 
Q 2766 4169 2084 4169 
Q 1534 4169 1293 3937 
Q 1053 3706 1053 3400 
Q 1053 3063 1334 2906 
Q 1519 2806 2169 2656 
L 2813 2509 
Q 3278 2403 3531 2219 
Q 3969 1897 3969 1284 
Q 3969 522 3414 194 
Q 2859 -134 2125 -134 
Q 1269 -134 784 303 
Q 300 738 309 1481 
L 894 1481 
z
M 2150 4716 
L 2150 4716 
z
" transform="scale(0.015625)"/>
       <path id="Helvetica-69" d="M 413 3331 
L 984 3331 
L 984 0 
L 413 0 
L 413 3331 
z
M 413 4591 
L 984 4591 
L 984 3953 
L 413 3953 
L 413 4591 
z
" transform="scale(0.015625)"/>
       <path id="Helvetica-79" d="M 2503 3347 
L 3125 3347 
Q 3006 3025 2597 1878 
Q 2291 1016 2084 472 
Q 1597 -809 1397 -1090 
Q 1197 -1372 709 -1372 
Q 591 -1372 527 -1362 
Q 463 -1353 369 -1328 
L 369 -816 
Q 516 -856 581 -865 
Q 647 -875 697 -875 
Q 853 -875 926 -823 
Q 1000 -772 1050 -697 
Q 1066 -672 1162 -440 
Q 1259 -209 1303 -97 
L 66 3347 
L 703 3347 
L 1600 622 
L 2503 3347 
z
M 1597 3428 
L 1597 3428 
z
" transform="scale(0.015625)"/>
      </defs>
      <use xlink:href="#Helvetica-53"/>
      <use xlink:href="#Helvetica-70" x="66.699219"/>
      <use xlink:href="#Helvetica-65" x="122.314453"/>
      <use xlink:href="#Helvetica-63" x="177.929688"/>
      <use xlink:href="#Helvetica-74" x="227.929688"/>
      <use xlink:href="#Helvetica-72" x="255.712891"/>
      <use xlink:href="#Helvetica-61" x="289.013672"/>
      <use xlink:href="#Helvetica-6c" x="344.628906"/>
      <use xlink:href="#Helvetica-20" x="366.845703"/>
      <use xlink:href="#Helvetica-73" x="394.628906"/>
      <use xlink:href="#Helvetica-65" x="444.628906"/>
      <use xlink:href="#Helvetica-6e" x="500.244141"/>
      <use xlink:href="#Helvetica-73" x="555.859375"/>
      <use xlink:href="#Helvetica-65" x="605.859375"/>
      <use xlink:href="#Helvetica-74" x="661.474609"/>
      <use xlink:href="#Helvetica-69" x="689.257812"/>
      <use xlink:href="#Helvetica-76" x="711.474609"/>
      <use xlink:href="#Helvetica-69" x="761.474609"/>
      <use xlink:href="#Helvetica-74" x="783.691406"/>
      <use xlink:href="#Helvetica-79" x="811.474609"/>
     </g>
    </g>
   </g>
   <g id="line2d_22">
    <path d="M 366.977182 189.542727 
L 371.207714 189.542727 
L 371.677773 188.623132 
L 372.617891 188.192893 
L 373.558009 187.565867 
L 374.498127 186.663143 
L 375.438245 185.384658 
L 376.378364 183.60975 
L 377.318482 181.203984 
L 378.2586 178.025587 
L 379.198718 173.944916 
L 380.138836 168.877386 
L 381.078955 162.815812 
L 382.489132 152.031032 
L 383.899309 139.262653 
L 388.129841 98.286773 
L 390.950195 72.429647 
L 392.360373 62.475732 
L 394.710668 46.990199 
L 395.180727 44.783541 
L 395.650786 43.229598 
L 396.120845 42.228069 
L 396.590905 41.612779 
L 398.471141 39.98099 
L 398.9412 39.840267 
L 399.411259 40.160637 
L 399.881318 41.135219 
L 400.351377 42.882282 
L 401.291495 47.985741 
L 403.171732 59.096879 
L 406.932205 79.203819 
L 408.342382 90.005068 
L 413.513032 133.895713 
L 414.923209 143.00529 
L 416.803445 153.290054 
L 418.213623 159.907035 
L 419.153741 163.531405 
L 420.563918 167.971668 
L 421.974095 171.724784 
L 423.854332 176.081662 
L 425.734568 179.817711 
L 427.144745 182.143086 
L 428.084864 183.369773 
L 429.495041 184.751704 
L 430.905218 185.809373 
L 432.785455 186.90342 
L 434.665691 187.688176 
L 436.545927 188.253209 
L 438.896223 188.72565 
L 442.186636 189.118537 
L 446.417168 189.364159 
L 453.468055 189.501184 
L 471.800359 189.541549 
L 555.000818 189.542727 
L 555.000818 189.542727 
" clip-path="url(#pc0beb28435)" style="fill: none; stroke: #1f77b4; stroke-width: 1.5; stroke-linecap: square"/>
   </g>
   <g id="line2d_23">
    <path d="M 366.977182 189.542727 
L 373.08795 189.444811 
L 376.378364 189.187611 
L 378.728659 188.775756 
L 380.608895 188.221891 
L 382.489132 187.440563 
L 384.369368 186.405649 
L 386.249605 185.110548 
L 388.129841 183.600469 
L 390.010077 181.751007 
L 391.890314 179.526983 
L 397.531023 172.143959 
L 402.231614 165.288947 
L 403.641791 162.682575 
L 405.051968 159.508819 
L 411.632795 143.078645 
L 413.513032 137.822487 
L 415.863327 130.311764 
L 419.153741 119.444645 
L 421.033977 111.251266 
L 424.79445 94.428864 
L 429.9651 69.475959 
L 432.785455 56.42314 
L 433.725573 53.159561 
L 434.665691 50.632533 
L 435.605809 48.608515 
L 437.015986 46.199755 
L 438.426164 44.332928 
L 441.716577 40.329804 
L 442.186636 39.997458 
L 442.656695 39.846255 
L 443.126755 39.883681 
L 443.596814 40.109737 
L 444.066873 40.525918 
L 445.006991 41.903208 
L 447.357286 46.301554 
L 448.767464 48.505219 
L 449.707582 50.575645 
L 451.117759 54.706018 
L 453.938114 63.644931 
L 455.348291 69.193015 
L 457.228527 77.61245 
L 458.638705 84.747412 
L 462.869236 107.605938 
L 469.920123 141.897469 
L 472.270418 151.815456 
L 474.150655 158.74083 
L 476.030891 164.678148 
L 477.911127 169.693281 
L 479.321305 172.911948 
L 480.731482 175.699763 
L 482.141659 178.077685 
L 483.551836 180.078648 
L 484.962014 181.76478 
L 486.372191 183.181144 
L 488.252427 184.705295 
L 490.132664 185.919706 
L 492.0129 186.830064 
L 494.363195 187.622755 
L 497.18355 188.315741 
L 500.003905 188.770651 
L 503.764377 189.11701 
L 509.405086 189.36856 
L 518.336209 189.500624 
L 542.309223 189.541542 
L 555.000818 189.542509 
L 555.000818 189.542509 
" clip-path="url(#pc0beb28435)" style="fill: none; stroke: #2ca02c; stroke-width: 1.5; stroke-linecap: square"/>
   </g>
   <g id="line2d_24">
    <path d="M 366.977182 189.542727 
L 373.08795 189.432897 
L 376.378364 189.162371 
L 378.728659 188.746968 
L 380.608895 188.208403 
L 383.42925 187.145494 
L 387.189723 185.372832 
L 389.540018 184.144049 
L 393.77055 181.537378 
L 396.590905 179.823999 
L 398.471141 178.636535 
L 402.701673 175.55425 
L 404.11185 174.129054 
L 405.522027 172.35205 
L 408.342382 168.251618 
L 411.162736 163.839798 
L 413.042973 160.374117 
L 414.923209 156.305122 
L 418.213623 148.493492 
L 419.153741 145.818255 
L 420.563918 141.092054 
L 423.854332 129.075197 
L 425.734568 121.239614 
L 429.024982 106.394821 
L 434.195632 82.632074 
L 436.075868 75.964193 
L 438.426164 68.588205 
L 440.3064 62.580525 
L 442.186636 56.174629 
L 443.126755 53.572748 
L 444.066873 51.577174 
L 445.006991 50.205873 
L 446.887227 48.141434 
L 447.827345 46.621924 
L 449.237523 44.223643 
L 450.177641 43.12181 
L 451.587818 41.987043 
L 453.938114 40.289383 
L 454.878232 39.928593 
L 455.81835 39.843261 
L 456.758468 40.043866 
L 457.698586 40.630712 
L 458.168645 41.121746 
L 459.108764 42.591853 
L 460.989 46.148855 
L 461.929118 47.286616 
L 463.339295 48.852535 
L 464.279414 50.478336 
L 465.219532 52.602657 
L 466.629709 56.426134 
L 468.039886 60.855919 
L 469.920123 67.541764 
L 472.270418 76.679785 
L 474.150655 84.974964 
L 477.911127 103.033933 
L 480.731482 116.383169 
L 483.081777 127.461372 
L 485.432073 138.584488 
L 487.312309 146.454503 
L 489.192545 153.266102 
L 491.072782 159.143538 
L 493.423077 165.908727 
L 495.303314 170.622952 
L 496.713491 173.635026 
L 498.123668 176.21999 
L 499.533845 178.431738 
L 500.944023 180.315182 
L 502.3542 181.910593 
L 504.234436 183.657656 
L 506.114673 185.043929 
L 507.994909 186.133335 
L 509.875145 186.981417 
L 512.225441 187.782341 
L 514.575736 188.321011 
L 517.86615 188.80682 
L 522.096682 189.166473 
L 527.737391 189.389189 
L 537.608632 189.508922 
L 555.000818 189.539943 
L 555.000818 189.539943 
" clip-path="url(#pc0beb28435)" style="fill: none; stroke: #d62728; stroke-width: 1.5; stroke-linecap: square"/>
   </g>
   <g id="line2d_25">
    <path d="M 366.977182 189.454551 
L 371.207714 189.255592 
L 373.558009 188.955732 
L 375.438245 188.497783 
L 376.848423 187.940879 
L 378.2586 187.118996 
L 379.668777 185.942311 
L 381.078955 184.326989 
L 382.489132 182.20716 
L 383.899309 179.542403 
L 385.309486 176.293795 
L 386.719664 172.461335 
L 388.129841 168.045024 
L 390.010077 161.413072 
L 392.360373 152.176246 
L 400.821436 117.833815 
L 412.102855 78.012164 
L 416.333386 62.143385 
L 418.683682 54.208996 
L 420.093859 50.017244 
L 421.504036 46.274607 
L 422.444155 44.328436 
L 423.384273 42.531971 
L 425.264509 40.286389 
L 425.734568 40.136684 
L 426.204627 39.837273 
L 427.144745 39.837273 
L 427.614805 40.136684 
L 428.084864 40.286389 
L 429.024982 41.334327 
L 429.9651 42.681676 
L 430.905218 44.627847 
L 431.845336 46.873429 
L 433.725573 52.562236 
L 435.13575 57.801927 
L 437.015986 65.886022 
L 439.836341 79.808629 
L 442.186636 92.234182 
L 448.297405 124.720265 
L 450.177641 133.927151 
L 452.527936 144.361621 
L 454.408173 151.831923 
L 456.288409 158.463875 
L 458.168645 164.242505 
L 460.048882 169.212727 
L 461.929118 173.404479 
L 463.339295 176.084207 
L 464.749473 178.389671 
L 466.629709 180.949634 
L 468.039886 182.521541 
L 469.450064 183.829967 
L 471.3303 185.240193 
L 473.210536 186.328551 
L 475.090773 187.157919 
L 477.441068 187.913932 
L 479.791364 188.439398 
L 483.081777 188.907976 
L 486.84225 189.208136 
L 492.482959 189.41443 
L 502.824259 189.518879 
L 539.958927 189.542599 
L 555.000818 189.542706 
L 555.000818 189.542706 
" clip-path="url(#pc0beb28435)" style="fill: none; stroke: #7f7f7f; stroke-width: 1.5; stroke-linecap: square"/>
   </g>
   <g id="line2d_26">
    <path d="M 366.977182 189.405274 
L 371.207714 189.133163 
L 373.558009 188.767807 
L 374.968186 188.397331 
L 376.378364 187.831893 
L 377.318482 187.291157 
L 378.2586 186.562541 
L 379.198718 185.602629 
L 380.138836 184.23507 
L 382.019073 180.892746 
L 382.959191 178.841781 
L 383.899309 176.191845 
L 386.719664 166.037474 
L 388.129841 161.532837 
L 389.540018 155.674862 
L 391.890314 145.674538 
L 393.300491 139.2387 
L 396.120845 125.049617 
L 398.001082 116.258913 
L 401.761555 97.568187 
L 409.752559 58.861842 
L 411.162736 53.735927 
L 413.513032 46.111428 
L 414.45315 44.03202 
L 415.393268 42.380768 
L 416.333386 41.24151 
L 417.743564 40.135187 
L 418.213623 39.918114 
L 418.683682 39.837273 
L 419.153741 39.903143 
L 420.093859 40.347768 
L 421.033977 41.031922 
L 421.504036 41.515471 
L 422.444155 43.031987 
L 423.854332 45.999149 
L 424.79445 48.553124 
L 426.204627 53.036803 
L 427.614805 58.39027 
L 429.024982 64.736284 
L 431.375277 76.992669 
L 434.665691 95.598063 
L 439.836341 124.790627 
L 442.186636 136.889822 
L 444.536932 147.753947 
L 446.417168 155.471263 
L 448.297405 162.25292 
L 449.707582 166.697675 
L 451.117759 170.616964 
L 452.527936 174.004798 
L 453.938114 176.915671 
L 455.348291 179.358415 
L 456.758468 181.386325 
L 458.168645 183.070062 
L 459.578823 184.424298 
L 460.989 185.519393 
L 462.869236 186.640537 
L 464.749473 187.457181 
L 466.629709 188.049999 
L 468.980005 188.564432 
L 471.800359 188.954475 
L 475.560832 189.242837 
L 481.201541 189.432002 
L 492.0129 189.525078 
L 537.608632 189.542703 
L 555.000818 189.542724 
L 555.000818 189.542724 
" clip-path="url(#pc0beb28435)" style="fill: none; stroke: #17becf; stroke-width: 1.5; stroke-linecap: square"/>
   </g>
   <g id="patch_8">
    <path d="M 357.576 197.028 
L 357.576 32.352 
" style="fill: none; stroke: #000000; stroke-width: 1.25; stroke-linejoin: miter; stroke-linecap: square"/>
   </g>
   <g id="patch_9">
    <path d="M 564.402 197.028 
L 564.402 32.352 
" style="fill: none; stroke: #000000; stroke-width: 1.25; stroke-linejoin: miter; stroke-linecap: square"/>
   </g>
   <g id="patch_10">
    <path d="M 357.576 197.028 
L 564.402 197.028 
" style="fill: none; stroke: #000000; stroke-width: 1.25; stroke-linejoin: miter; stroke-linecap: square"/>
   </g>
   <g id="patch_11">
    <path d="M 357.576 32.352 
L 564.402 32.352 
" style="fill: none; stroke: #000000; stroke-width: 1.25; stroke-linejoin: miter; stroke-linecap: square"/>
   </g>
   <g id="text_27">
    <!-- Photoreceptor action spectra -->
    <g transform="translate(368.942625 26.352) scale(0.144 -0.144)">
     <defs>
      <path id="Helvetica-50" d="M 547 4591 
L 2613 4591 
Q 3225 4591 3600 4245 
Q 3975 3900 3975 3275 
Q 3975 2738 3640 2339 
Q 3306 1941 2613 1941 
L 1169 1941 
L 1169 0 
L 547 0 
L 547 4591 
z
M 3347 3272 
Q 3347 3778 2972 3959 
Q 2766 4056 2406 4056 
L 1169 4056 
L 1169 2466 
L 2406 2466 
Q 2825 2466 3086 2644 
Q 3347 2822 3347 3272 
z
" transform="scale(0.015625)"/>
      <path id="Helvetica-6f" d="M 1741 363 
Q 2300 363 2508 786 
Q 2716 1209 2716 1728 
Q 2716 2197 2566 2491 
Q 2328 2953 1747 2953 
Q 1231 2953 997 2559 
Q 763 2166 763 1609 
Q 763 1075 997 719 
Q 1231 363 1741 363 
z
M 1763 3444 
Q 2409 3444 2856 3012 
Q 3303 2581 3303 1744 
Q 3303 934 2909 406 
Q 2516 -122 1688 -122 
Q 997 -122 590 345 
Q 184 813 184 1600 
Q 184 2444 612 2944 
Q 1041 3444 1763 3444 
z
M 1744 3428 
L 1744 3428 
z
" transform="scale(0.015625)"/>
     </defs>
     <use xlink:href="#Helvetica-50"/>
     <use xlink:href="#Helvetica-68" x="66.699219"/>
     <use xlink:href="#Helvetica-6f" x="122.314453"/>
     <use xlink:href="#Helvetica-74" x="177.929688"/>
     <use xlink:href="#Helvetica-6f" x="205.712891"/>
     <use xlink:href="#Helvetica-72" x="261.328125"/>
     <use xlink:href="#Helvetica-65" x="294.628906"/>
     <use xlink:href="#Helvetica-63" x="350.244141"/>
     <use xlink:href="#Helvetica-65" x="400.244141"/>
     <use xlink:href="#Helvetica-70" x="455.859375"/>
     <use xlink:href="#Helvetica-74" x="511.474609"/>
     <use xlink:href="#Helvetica-6f" x="539.257812"/>
     <use xlink:href="#Helvetica-72" x="594.873047"/>
     <use xlink:href="#Helvetica-20" x="628.173828"/>
     <use xlink:href="#Helvetica-61" x="655.957031"/>
     <use xlink:href="#Helvetica-63" x="711.572266"/>
     <use xlink:href="#Helvetica-74" x="761.572266"/>
     <use xlink:href="#Helvetica-69" x="789.355469"/>
     <use xlink:href="#Helvetica-6f" x="811.572266"/>
     <use xlink:href="#Helvetica-6e" x="867.1875"/>
     <use xlink:href="#Helvetica-20" x="922.802734"/>
     <use xlink:href="#Helvetica-73" x="950.585938"/>
     <use xlink:href="#Helvetica-70" x="1000.585938"/>
     <use xlink:href="#Helvetica-65" x="1056.201172"/>
     <use xlink:href="#Helvetica-63" x="1111.816406"/>
     <use xlink:href="#Helvetica-74" x="1161.816406"/>
     <use xlink:href="#Helvetica-72" x="1189.599609"/>
     <use xlink:href="#Helvetica-61" x="1222.900391"/>
    </g>
   </g>
   <g id="legend_1">
    <g id="patch_12">
     <path d="M 501.926812 137.013562 
L 555.162 137.013562 
Q 557.802 137.013562 557.802 134.373562 
L 557.802 41.592 
Q 557.802 38.952 555.162 38.952 
L 501.926812 38.952 
Q 499.286812 38.952 499.286812 41.592 
L 499.286812 134.373562 
Q 499.286812 137.013562 501.926812 137.013562 
z
" style="fill: #ffffff; opacity: 0.8; stroke: #cccccc; stroke-linejoin: miter"/>
    </g>
    <g id="line2d_27">
     <path d="M 504.566812 49.080937 
L 517.766813 49.080937 
L 530.966812 49.080937 
" style="fill: none; stroke: #1f77b4; stroke-width: 1.5; stroke-linecap: square"/>
    </g>
    <g id="text_28">
     <!-- S -->
     <g transform="translate(541.526813 53.700937) scale(0.132 -0.132)">
      <use xlink:href="#Helvetica-53"/>
     </g>
    </g>
    <g id="line2d_28">
     <path d="M 504.566812 67.90125 
L 517.766813 67.90125 
L 530.966812 67.90125 
" style="fill: none; stroke: #2ca02c; stroke-width: 1.5; stroke-linecap: square"/>
    </g>
    <g id="text_29">
     <!-- M -->
     <g transform="translate(541.526813 72.52125) scale(0.132 -0.132)">
      <use xlink:href="#Helvetica-4d"/>
     </g>
    </g>
    <g id="line2d_29">
     <path d="M 504.566812 86.721562 
L 517.766813 86.721562 
L 530.966812 86.721562 
" style="fill: none; stroke: #d62728; stroke-width: 1.5; stroke-linecap: square"/>
    </g>
    <g id="text_30">
     <!-- L -->
     <g transform="translate(541.526813 91.341562) scale(0.132 -0.132)">
      <defs>
       <path id="Helvetica-4c" d="M 488 4591 
L 1109 4591 
L 1109 547 
L 3434 547 
L 3434 0 
L 488 0 
L 488 4591 
z
" transform="scale(0.015625)"/>
      </defs>
      <use xlink:href="#Helvetica-4c"/>
     </g>
    </g>
    <g id="line2d_30">
     <path d="M 504.566812 105.541875 
L 517.766813 105.541875 
L 530.966812 105.541875 
" style="fill: none; stroke: #7f7f7f; stroke-width: 1.5; stroke-linecap: square"/>
    </g>
    <g id="text_31">
     <!-- R -->
     <g transform="translate(541.526813 110.161875) scale(0.132 -0.132)">
      <defs>
       <path id="Helvetica-52" d="M 2622 2488 
Q 3059 2488 3314 2663 
Q 3569 2838 3569 3294 
Q 3569 3784 3213 3963 
Q 3022 4056 2703 4056 
L 1184 4056 
L 1184 2488 
L 2622 2488 
z
M 563 4591 
L 2688 4591 
Q 3213 4591 3553 4438 
Q 4200 4144 4200 3353 
Q 4200 2941 4029 2678 
Q 3859 2416 3553 2256 
Q 3822 2147 3958 1969 
Q 4094 1791 4109 1391 
L 4131 775 
Q 4141 513 4175 384 
Q 4231 166 4375 103 
L 4375 0 
L 3613 0 
Q 3581 59 3562 153 
Q 3544 247 3531 516 
L 3494 1281 
Q 3472 1731 3159 1884 
Q 2981 1969 2600 1969 
L 1184 1969 
L 1184 0 
L 563 0 
L 563 4591 
z
" transform="scale(0.015625)"/>
      </defs>
      <use xlink:href="#Helvetica-52"/>
     </g>
    </g>
    <g id="line2d_31">
     <path d="M 504.566812 124.362187 
L 517.766813 124.362187 
L 530.966812 124.362187 
" style="fill: none; stroke: #17becf; stroke-width: 1.5; stroke-linecap: square"/>
    </g>
    <g id="text_32">
     <!-- I -->
     <g transform="translate(541.526813 128.982187) scale(0.132 -0.132)">
      <defs>
       <path id="Helvetica-49" d="M 628 4591 
L 1256 4591 
L 1256 0 
L 628 0 
L 628 4591 
z
" transform="scale(0.015625)"/>
      </defs>
      <use xlink:href="#Helvetica-49"/>
     </g>
    </g>
   </g>
  </g>
  <g id="axes_3">
   <g id="patch_13">
    <path d="M 641.622 197.028 
L 848.448 197.028 
L 848.448 32.352 
L 641.622 32.352 
z
" style="fill: #ffffff"/>
   </g>
   <g id="patch_14">
    <path d="M 651.9633 197.028 
L 672.6459 197.028 
L 672.6459 162.247884 
L 651.9633 162.247884 
z
" clip-path="url(#p547300b9d3)" style="fill: #1f77b4"/>
   </g>
   <g id="patch_15">
    <path d="M 693.3285 197.028 
L 714.0111 197.028 
L 714.0111 68.7071 
L 693.3285 68.7071 
z
" clip-path="url(#p547300b9d3)" style="fill: #2ca02c"/>
   </g>
   <g id="patch_16">
    <path d="M 734.6937 197.028 
L 755.3763 197.028 
L 755.3763 40.193714 
L 734.6937 40.193714 
z
" clip-path="url(#p547300b9d3)" style="fill: #d62728"/>
   </g>
   <g id="patch_17">
    <path d="M 776.0589 197.028 
L 796.7415 197.028 
L 796.7415 89.911224 
L 776.0589 89.911224 
z
" clip-path="url(#p547300b9d3)" style="fill: #7f7f7f"/>
   </g>
   <g id="patch_18">
    <path d="M 817.4241 197.028 
L 838.1067 197.028 
L 838.1067 108.572199 
L 817.4241 108.572199 
z
" clip-path="url(#p547300b9d3)" style="fill: #17becf"/>
   </g>
   <g id="matplotlib.axis_5">
    <g id="xtick_11">
     <g id="line2d_32">
      <g>
       <use xlink:href="#mf95a88ebbf" x="662.3046" y="197.028" style="stroke: #000000; stroke-width: 1.25"/>
      </g>
     </g>
     <g id="text_33">
      <!-- S -->
      <g transform="translate(657.902194 215.996938) scale(0.132 -0.132)">
       <use xlink:href="#Helvetica-53"/>
      </g>
     </g>
    </g>
    <g id="xtick_12">
     <g id="line2d_33">
      <g>
       <use xlink:href="#mf95a88ebbf" x="703.6698" y="197.028" style="stroke: #000000; stroke-width: 1.25"/>
      </g>
     </g>
     <g id="text_34">
      <!-- M -->
      <g transform="translate(698.172206 215.996938) scale(0.132 -0.132)">
       <use xlink:href="#Helvetica-4d"/>
      </g>
     </g>
    </g>
    <g id="xtick_13">
     <g id="line2d_34">
      <g>
       <use xlink:href="#mf95a88ebbf" x="745.035" y="197.028" style="stroke: #000000; stroke-width: 1.25"/>
      </g>
     </g>
     <g id="text_35">
      <!-- L -->
      <g transform="translate(741.364781 215.996938) scale(0.132 -0.132)">
       <use xlink:href="#Helvetica-4c"/>
      </g>
     </g>
    </g>
    <g id="xtick_14">
     <g id="line2d_35">
      <g>
       <use xlink:href="#mf95a88ebbf" x="786.4002" y="197.028" style="stroke: #000000; stroke-width: 1.25"/>
      </g>
     </g>
     <g id="text_36">
      <!-- R -->
      <g transform="translate(781.633762 215.996938) scale(0.132 -0.132)">
       <use xlink:href="#Helvetica-52"/>
      </g>
     </g>
    </g>
    <g id="xtick_15">
     <g id="line2d_36">
      <g>
       <use xlink:href="#mf95a88ebbf" x="827.7654" y="197.028" style="stroke: #000000; stroke-width: 1.25"/>
      </g>
     </g>
     <g id="text_37">
      <!-- I -->
      <g transform="translate(825.931838 215.996938) scale(0.132 -0.132)">
       <use xlink:href="#Helvetica-49"/>
      </g>
     </g>
    </g>
   </g>
   <g id="matplotlib.axis_6">
    <g id="ytick_11">
     <g id="line2d_37">
      <g>
       <use xlink:href="#m6ef432013b" x="641.622" y="197.028" style="stroke: #000000; stroke-width: 1.25"/>
      </g>
     </g>
     <g id="text_38">
      <!-- 0.0 -->
      <g transform="translate(613.774 201.762469) scale(0.132 -0.132)">
       <use xlink:href="#Helvetica-30"/>
       <use xlink:href="#Helvetica-2e" x="55.615234"/>
       <use xlink:href="#Helvetica-30" x="83.398438"/>
      </g>
     </g>
    </g>
    <g id="ytick_12">
     <g id="line2d_38">
      <g>
       <use xlink:href="#m6ef432013b" x="641.622" y="169.405555" style="stroke: #000000; stroke-width: 1.25"/>
      </g>
     </g>
     <g id="text_39">
      <!-- 0.2 -->
      <g transform="translate(613.774 174.140024) scale(0.132 -0.132)">
       <use xlink:href="#Helvetica-30"/>
       <use xlink:href="#Helvetica-2e" x="55.615234"/>
       <use xlink:href="#Helvetica-32" x="83.398438"/>
      </g>
     </g>
    </g>
    <g id="ytick_13">
     <g id="line2d_39">
      <g>
       <use xlink:href="#m6ef432013b" x="641.622" y="141.783111" style="stroke: #000000; stroke-width: 1.25"/>
      </g>
     </g>
     <g id="text_40">
      <!-- 0.4 -->
      <g transform="translate(613.774 146.51758) scale(0.132 -0.132)">
       <use xlink:href="#Helvetica-30"/>
       <use xlink:href="#Helvetica-2e" x="55.615234"/>
       <use xlink:href="#Helvetica-34" x="83.398438"/>
      </g>
     </g>
    </g>
    <g id="ytick_14">
     <g id="line2d_40">
      <g>
       <use xlink:href="#m6ef432013b" x="641.622" y="114.160666" style="stroke: #000000; stroke-width: 1.25"/>
      </g>
     </g>
     <g id="text_41">
      <!-- 0.6 -->
      <g transform="translate(613.774 118.895135) scale(0.132 -0.132)">
       <use xlink:href="#Helvetica-30"/>
       <use xlink:href="#Helvetica-2e" x="55.615234"/>
       <use xlink:href="#Helvetica-36" x="83.398438"/>
      </g>
     </g>
    </g>
    <g id="ytick_15">
     <g id="line2d_41">
      <g>
       <use xlink:href="#m6ef432013b" x="641.622" y="86.538222" style="stroke: #000000; stroke-width: 1.25"/>
      </g>
     </g>
     <g id="text_42">
      <!-- 0.8 -->
      <g transform="translate(613.774 91.272691) scale(0.132 -0.132)">
       <use xlink:href="#Helvetica-30"/>
       <use xlink:href="#Helvetica-2e" x="55.615234"/>
       <use xlink:href="#Helvetica-38" x="83.398438"/>
      </g>
     </g>
    </g>
    <g id="ytick_16">
     <g id="line2d_42">
      <g>
       <use xlink:href="#m6ef432013b" x="641.622" y="58.915777" style="stroke: #000000; stroke-width: 1.25"/>
      </g>
     </g>
     <g id="text_43">
      <!-- 1.0 -->
      <g transform="translate(613.774 63.650246) scale(0.132 -0.132)">
       <use xlink:href="#Helvetica-31"/>
       <use xlink:href="#Helvetica-2e" x="55.615234"/>
       <use xlink:href="#Helvetica-30" x="83.398438"/>
      </g>
     </g>
    </g>
    <g id="text_44">
     <!-- $\mu$W/cm$^2$ -->
     <g transform="translate(606.75 141.186) rotate(-90) scale(0.144 -0.144)">
      <use xlink:href="#DejaVuSans-Oblique-3bc" transform="translate(0 0.765625)"/>
      <use xlink:href="#Helvetica-57" transform="translate(63.623047 0.765625)"/>
      <use xlink:href="#Helvetica-2f" transform="translate(158.007812 0.765625)"/>
      <use xlink:href="#Helvetica-63" transform="translate(185.791016 0.765625)"/>
      <use xlink:href="#Helvetica-6d" transform="translate(235.791016 0.765625)"/>
      <use xlink:href="#DejaVuSans-32" transform="translate(320.048828 39.046875) scale(0.7)"/>
     </g>
    </g>
    <g id="text_45">
     <!-- 1e8 -->
     <g transform="translate(641.622 29.352) scale(0.132 -0.132)">
      <use xlink:href="#Helvetica-31"/>
      <use xlink:href="#Helvetica-65" x="55.615234"/>
      <use xlink:href="#Helvetica-38" x="111.230469"/>
     </g>
    </g>
   </g>
   <g id="patch_19">
    <path d="M 641.622 197.028 
L 641.622 32.352 
" style="fill: none; stroke: #000000; stroke-width: 1.25; stroke-linejoin: miter; stroke-linecap: square"/>
   </g>
   <g id="patch_20">
    <path d="M 848.448 197.028 
L 848.448 32.352 
" style="fill: none; stroke: #000000; stroke-width: 1.25; stroke-linejoin: miter; stroke-linecap: square"/>
   </g>
   <g id="patch_21">
    <path d="M 641.622 197.028 
L 848.448 197.028 
" style="fill: none; stroke: #000000; stroke-width: 1.25; stroke-linejoin: miter; stroke-linecap: square"/>
   </g>
   <g id="patch_22">
    <path d="M 641.622 32.352 
L 848.448 32.352 
" style="fill: none; stroke: #000000; stroke-width: 1.25; stroke-linejoin: miter; stroke-linecap: square"/>
   </g>
   <g id="text_46">
    <!-- Alphaopic irradiance -->
    <g transform="translate(679.799625 26.352) scale(0.144 -0.144)">
     <defs>
      <path id="Helvetica-41" d="M 2844 1881 
L 2147 3909 
L 1406 1881 
L 2844 1881 
z
M 1822 4591 
L 2525 4591 
L 4191 0 
L 3509 0 
L 3044 1375 
L 1228 1375 
L 731 0 
L 94 0 
L 1822 4591 
z
" transform="scale(0.015625)"/>
     </defs>
     <use xlink:href="#Helvetica-41"/>
     <use xlink:href="#Helvetica-6c" x="66.699219"/>
     <use xlink:href="#Helvetica-70" x="88.916016"/>
     <use xlink:href="#Helvetica-68" x="144.53125"/>
     <use xlink:href="#Helvetica-61" x="200.146484"/>
     <use xlink:href="#Helvetica-6f" x="255.761719"/>
     <use xlink:href="#Helvetica-70" x="311.376953"/>
     <use xlink:href="#Helvetica-69" x="366.992188"/>
     <use xlink:href="#Helvetica-63" x="389.208984"/>
     <use xlink:href="#Helvetica-20" x="439.208984"/>
     <use xlink:href="#Helvetica-69" x="466.992188"/>
     <use xlink:href="#Helvetica-72" x="489.208984"/>
     <use xlink:href="#Helvetica-72" x="522.509766"/>
     <use xlink:href="#Helvetica-61" x="555.810547"/>
     <use xlink:href="#Helvetica-64" x="611.425781"/>
     <use xlink:href="#Helvetica-69" x="667.041016"/>
     <use xlink:href="#Helvetica-61" x="689.257812"/>
     <use xlink:href="#Helvetica-6e" x="744.873047"/>
     <use xlink:href="#Helvetica-63" x="800.488281"/>
     <use xlink:href="#Helvetica-65" x="850.488281"/>
    </g>
   </g>
  </g>
 </g>
 <defs>
  <clipPath id="p72f61ff49a">
   <rect x="73.53" y="32.352" width="206.826" height="164.676"/>
  </clipPath>
  <clipPath id="pc0beb28435">
   <rect x="357.576" y="32.352" width="206.826" height="164.676"/>
  </clipPath>
  <clipPath id="p547300b9d3">
   <rect x="641.622" y="32.352" width="206.826" height="164.676"/>
  </clipPath>
 </defs>
</svg>
