<?xml version="1.0" encoding="utf-8" standalone="no"?>
<!DOCTYPE svg PUBLIC "-//W3C//DTD SVG 1.1//EN"
  "http://www.w3.org/Graphics/SVG/1.1/DTD/svg11.dtd">
<svg xmlns:xlink="http://www.w3.org/1999/xlink" width="864pt" height="288pt" viewBox="0 0 864 288" xmlns="http://www.w3.org/2000/svg" version="1.1">
 <metadata>
  <rdf:RDF xmlns:dc="http://purl.org/dc/elements/1.1/" xmlns:cc="http://creativecommons.org/ns#" xmlns:rdf="http://www.w3.org/1999/02/22-rdf-syntax-ns#">
   <cc:Work>
    <dc:type rdf:resource="http://purl.org/dc/dcmitype/StillImage"/>
    <dc:date>2023-02-09T09:37:19.078254</dc:date>
    <dc:format>image/svg+xml</dc:format>
    <dc:creator>
     <cc:Agent>
      <dc:title>Matplotlib v3.6.0rc2, https://matplotlib.org/</dc:title>
     </cc:Agent>
    </dc:creator>
   </cc:Work>
  </rdf:RDF>
 </metadata>
 <defs>
  <style type="text/css">*{stroke-linejoin: round; stroke-linecap: butt}</style>
 </defs>
 <g id="figure_1">
  <g id="patch_1">
   <path d="M 0 288 
L 864 288 
L 864 0 
L 0 0 
z
" style="fill: #ffffff"/>
  </g>
  <g id="axes_1">
   <g id="patch_2">
    <path d="M 63.27 233.028 
L 276.7755 233.028 
L 276.7755 33.792 
L 63.27 33.792 
z
" style="fill: #ffffff"/>
   </g>
   <g id="matplotlib.axis_1">
    <g id="xtick_1">
     <g id="line2d_1">
      <defs>
       <path id="mb3ddcb9242" d="M 0 0 
L 0 6 
" style="stroke: #000000; stroke-width: 1.25"/>
      </defs>
      <g>
       <use xlink:href="#mb3ddcb9242" x="82.679591" y="233.028" style="stroke: #000000; stroke-width: 1.25"/>
      </g>
     </g>
     <g id="text_1">
      <!-- 400 -->
      <g transform="translate(71.668935 251.996938) scale(0.132 -0.132)">
       <defs>
        <path id="Helvetica-34" d="M 2116 1584 
L 2116 3613 
L 681 1584 
L 2116 1584 
z
M 2125 0 
L 2125 1094 
L 163 1094 
L 163 1644 
L 2213 4488 
L 2688 4488 
L 2688 1584 
L 3347 1584 
L 3347 1094 
L 2688 1094 
L 2688 0 
L 2125 0 
z
" transform="scale(0.015625)"/>
        <path id="Helvetica-30" d="M 1731 4475 
Q 2600 4475 2988 3759 
Q 3288 3206 3288 2244 
Q 3288 1331 3016 734 
Q 2622 -122 1728 -122 
Q 922 -122 528 578 
Q 200 1163 200 2147 
Q 200 2909 397 3456 
Q 766 4475 1731 4475 
z
M 1725 391 
Q 2163 391 2422 778 
Q 2681 1166 2681 2222 
Q 2681 2984 2493 3476 
Q 2306 3969 1766 3969 
Q 1269 3969 1039 3501 
Q 809 3034 809 2125 
Q 809 1441 956 1025 
Q 1181 391 1725 391 
z
" transform="scale(0.015625)"/>
       </defs>
       <use xlink:href="#Helvetica-34"/>
       <use xlink:href="#Helvetica-30" x="55.615234"/>
       <use xlink:href="#Helvetica-30" x="111.230469"/>
      </g>
     </g>
    </g>
    <g id="xtick_2">
     <g id="line2d_2">
      <g>
       <use xlink:href="#mb3ddcb9242" x="131.203568" y="233.028" style="stroke: #000000; stroke-width: 1.25"/>
      </g>
     </g>
     <g id="text_2">
      <!-- 500 -->
      <g transform="translate(120.192912 251.996938) scale(0.132 -0.132)">
       <defs>
        <path id="Helvetica-35" d="M 791 1141 
Q 847 659 1238 475 
Q 1438 381 1700 381 
Q 2200 381 2440 700 
Q 2681 1019 2681 1406 
Q 2681 1875 2395 2131 
Q 2109 2388 1709 2388 
Q 1419 2388 1211 2275 
Q 1003 2163 856 1963 
L 369 1991 
L 709 4400 
L 3034 4400 
L 3034 3856 
L 1131 3856 
L 941 2613 
Q 1097 2731 1238 2791 
Q 1488 2894 1816 2894 
Q 2431 2894 2859 2497 
Q 3288 2100 3288 1491 
Q 3288 856 2895 371 
Q 2503 -113 1644 -113 
Q 1097 -113 676 195 
Q 256 503 206 1141 
L 791 1141 
z
" transform="scale(0.015625)"/>
       </defs>
       <use xlink:href="#Helvetica-35"/>
       <use xlink:href="#Helvetica-30" x="55.615234"/>
       <use xlink:href="#Helvetica-30" x="111.230469"/>
      </g>
     </g>
    </g>
    <g id="xtick_3">
     <g id="line2d_3">
      <g>
       <use xlink:href="#mb3ddcb9242" x="179.727545" y="233.028" style="stroke: #000000; stroke-width: 1.25"/>
      </g>
     </g>
     <g id="text_3">
      <!-- 600 -->
      <g transform="translate(168.716889 251.996938) scale(0.132 -0.132)">
       <defs>
        <path id="Helvetica-36" d="M 1872 4494 
Q 2622 4494 2917 4105 
Q 3213 3716 3213 3303 
L 2656 3303 
Q 2606 3569 2497 3719 
Q 2294 4000 1881 4000 
Q 1409 4000 1131 3564 
Q 853 3128 822 2316 
Q 1016 2600 1309 2741 
Q 1578 2866 1909 2866 
Q 2472 2866 2890 2506 
Q 3309 2147 3309 1434 
Q 3309 825 2912 354 
Q 2516 -116 1781 -116 
Q 1153 -116 697 361 
Q 241 838 241 1966 
Q 241 2800 444 3381 
Q 834 4494 1872 4494 
z
M 1831 384 
Q 2275 384 2495 682 
Q 2716 981 2716 1388 
Q 2716 1731 2519 2042 
Q 2322 2353 1803 2353 
Q 1441 2353 1167 2112 
Q 894 1872 894 1388 
Q 894 963 1142 673 
Q 1391 384 1831 384 
z
" transform="scale(0.015625)"/>
       </defs>
       <use xlink:href="#Helvetica-36"/>
       <use xlink:href="#Helvetica-30" x="55.615234"/>
       <use xlink:href="#Helvetica-30" x="111.230469"/>
      </g>
     </g>
    </g>
    <g id="xtick_4">
     <g id="line2d_4">
      <g>
       <use xlink:href="#mb3ddcb9242" x="228.251523" y="233.028" style="stroke: #000000; stroke-width: 1.25"/>
      </g>
     </g>
     <g id="text_4">
      <!-- 700 -->
      <g transform="translate(217.240866 251.996938) scale(0.132 -0.132)">
       <defs>
        <path id="Helvetica-37" d="M 3347 4400 
L 3347 3909 
Q 3131 3700 2773 3181 
Q 2416 2663 2141 2063 
Q 1869 1478 1728 997 
Q 1638 688 1494 0 
L 872 0 
Q 1084 1281 1809 2550 
Q 2238 3294 2709 3834 
L 234 3834 
L 234 4400 
L 3347 4400 
z
" transform="scale(0.015625)"/>
       </defs>
       <use xlink:href="#Helvetica-37"/>
       <use xlink:href="#Helvetica-30" x="55.615234"/>
       <use xlink:href="#Helvetica-30" x="111.230469"/>
      </g>
     </g>
    </g>
    <g id="xtick_5">
     <g id="line2d_5">
      <g>
       <use xlink:href="#mb3ddcb9242" x="276.7755" y="233.028" style="stroke: #000000; stroke-width: 1.25"/>
      </g>
     </g>
     <g id="text_5">
      <!-- 800 -->
      <g transform="translate(265.764844 251.996938) scale(0.132 -0.132)">
       <defs>
        <path id="Helvetica-38" d="M 1741 2600 
Q 2113 2600 2322 2808 
Q 2531 3016 2531 3303 
Q 2531 3553 2331 3762 
Q 2131 3972 1722 3972 
Q 1316 3972 1134 3762 
Q 953 3553 953 3272 
Q 953 2956 1187 2778 
Q 1422 2600 1741 2600 
z
M 1775 384 
Q 2166 384 2423 595 
Q 2681 806 2681 1225 
Q 2681 1659 2415 1884 
Q 2150 2109 1734 2109 
Q 1331 2109 1076 1879 
Q 822 1650 822 1244 
Q 822 894 1055 639 
Q 1288 384 1775 384 
z
M 975 2384 
Q 741 2484 609 2619 
Q 363 2869 363 3269 
Q 363 3769 725 4128 
Q 1088 4488 1753 4488 
Q 2397 4488 2762 4148 
Q 3128 3809 3128 3356 
Q 3128 2938 2916 2678 
Q 2797 2531 2547 2391 
Q 2825 2263 2984 2097 
Q 3281 1784 3281 1284 
Q 3281 694 2884 283 
Q 2488 -128 1763 -128 
Q 1109 -128 657 226 
Q 206 581 206 1256 
Q 206 1653 400 1942 
Q 594 2231 975 2384 
z
" transform="scale(0.015625)"/>
       </defs>
       <use xlink:href="#Helvetica-38"/>
       <use xlink:href="#Helvetica-30" x="55.615234"/>
       <use xlink:href="#Helvetica-30" x="111.230469"/>
      </g>
     </g>
    </g>
    <g id="text_6">
     <!-- Wavelength (nm) -->
     <g transform="translate(115.207125 269.246812) scale(0.144 -0.144)">
      <defs>
       <path id="Helvetica-57" d="M 791 4591 
L 1656 856 
L 2694 4591 
L 3369 4591 
L 4406 856 
L 5272 4591 
L 5953 4591 
L 4747 0 
L 4094 0 
L 3034 3806 
L 1969 0 
L 1316 0 
L 116 4591 
L 791 4591 
z
" transform="scale(0.015625)"/>
       <path id="Helvetica-61" d="M 844 891 
Q 844 647 1022 506 
Q 1200 366 1444 366 
Q 1741 366 2019 503 
Q 2488 731 2488 1250 
L 2488 1703 
Q 2384 1638 2221 1594 
Q 2059 1550 1903 1531 
L 1563 1488 
Q 1256 1447 1103 1359 
Q 844 1213 844 891 
z
M 2206 2028 
Q 2400 2053 2466 2191 
Q 2503 2266 2503 2406 
Q 2503 2694 2298 2823 
Q 2094 2953 1713 2953 
Q 1272 2953 1088 2716 
Q 984 2584 953 2325 
L 428 2325 
Q 444 2944 830 3186 
Q 1216 3428 1725 3428 
Q 2316 3428 2684 3203 
Q 3050 2978 3050 2503 
L 3050 575 
Q 3050 488 3086 434 
Q 3122 381 3238 381 
Q 3275 381 3322 386 
Q 3369 391 3422 400 
L 3422 -16 
Q 3291 -53 3222 -62 
Q 3153 -72 3034 -72 
Q 2744 -72 2613 134 
Q 2544 244 2516 444 
Q 2344 219 2022 53 
Q 1700 -113 1313 -113 
Q 847 -113 551 170 
Q 256 453 256 878 
Q 256 1344 547 1600 
Q 838 1856 1309 1916 
L 2206 2028 
z
M 1741 3428 
L 1741 3428 
z
" transform="scale(0.015625)"/>
       <path id="Helvetica-76" d="M 688 3347 
L 1581 622 
L 2516 3347 
L 3131 3347 
L 1869 0 
L 1269 0 
L 34 3347 
L 688 3347 
z
" transform="scale(0.015625)"/>
       <path id="Helvetica-65" d="M 1806 3422 
Q 2163 3422 2497 3255 
Q 2831 3088 3006 2822 
Q 3175 2569 3231 2231 
Q 3281 2000 3281 1494 
L 828 1494 
Q 844 984 1069 676 
Q 1294 369 1766 369 
Q 2206 369 2469 659 
Q 2619 828 2681 1050 
L 3234 1050 
Q 3213 866 3089 639 
Q 2966 413 2813 269 
Q 2556 19 2178 -69 
Q 1975 -119 1719 -119 
Q 1094 -119 659 336 
Q 225 791 225 1609 
Q 225 2416 662 2919 
Q 1100 3422 1806 3422 
z
M 2703 1941 
Q 2669 2306 2544 2525 
Q 2313 2931 1772 2931 
Q 1384 2931 1121 2651 
Q 859 2372 844 1941 
L 2703 1941 
z
M 1753 3428 
L 1753 3428 
z
" transform="scale(0.015625)"/>
       <path id="Helvetica-6c" d="M 428 4591 
L 991 4591 
L 991 0 
L 428 0 
L 428 4591 
z
" transform="scale(0.015625)"/>
       <path id="Helvetica-6e" d="M 413 3347 
L 947 3347 
L 947 2872 
Q 1184 3166 1450 3294 
Q 1716 3422 2041 3422 
Q 2753 3422 3003 2925 
Q 3141 2653 3141 2147 
L 3141 0 
L 2569 0 
L 2569 2109 
Q 2569 2416 2478 2603 
Q 2328 2916 1934 2916 
Q 1734 2916 1606 2875 
Q 1375 2806 1200 2600 
Q 1059 2434 1017 2257 
Q 975 2081 975 1753 
L 975 0 
L 413 0 
L 413 3347 
z
M 1734 3428 
L 1734 3428 
z
" transform="scale(0.015625)"/>
       <path id="Helvetica-67" d="M 1594 3406 
Q 1988 3406 2281 3213 
Q 2441 3103 2606 2894 
L 2606 3316 
L 3125 3316 
L 3125 272 
Q 3125 -366 2938 -734 
Q 2588 -1416 1616 -1416 
Q 1075 -1416 706 -1173 
Q 338 -931 294 -416 
L 866 -416 
Q 906 -641 1028 -763 
Q 1219 -950 1628 -950 
Q 2275 -950 2475 -494 
Q 2594 -225 2584 466 
Q 2416 209 2178 84 
Q 1941 -41 1550 -41 
Q 1006 -41 598 345 
Q 191 731 191 1622 
Q 191 2463 602 2934 
Q 1013 3406 1594 3406 
z
M 2606 1688 
Q 2606 2309 2350 2609 
Q 2094 2909 1697 2909 
Q 1103 2909 884 2353 
Q 769 2056 769 1575 
Q 769 1009 998 714 
Q 1228 419 1616 419 
Q 2222 419 2469 966 
Q 2606 1275 2606 1688 
z
M 1659 3428 
L 1659 3428 
z
" transform="scale(0.015625)"/>
       <path id="Helvetica-74" d="M 525 4281 
L 1094 4281 
L 1094 3347 
L 1628 3347 
L 1628 2888 
L 1094 2888 
L 1094 703 
Q 1094 528 1213 469 
Q 1278 434 1431 434 
Q 1472 434 1519 436 
Q 1566 438 1628 444 
L 1628 0 
Q 1531 -28 1426 -40 
Q 1322 -53 1200 -53 
Q 806 -53 665 148 
Q 525 350 525 672 
L 525 2888 
L 72 2888 
L 72 3347 
L 525 3347 
L 525 4281 
z
" transform="scale(0.015625)"/>
       <path id="Helvetica-68" d="M 413 4606 
L 975 4606 
L 975 2894 
Q 1175 3147 1334 3250 
Q 1606 3428 2013 3428 
Q 2741 3428 3000 2919 
Q 3141 2641 3141 2147 
L 3141 0 
L 2563 0 
L 2563 2109 
Q 2563 2478 2469 2650 
Q 2316 2925 1894 2925 
Q 1544 2925 1259 2684 
Q 975 2444 975 1775 
L 975 0 
L 413 0 
L 413 4606 
z
" transform="scale(0.015625)"/>
       <path id="Helvetica-20" transform="scale(0.015625)"/>
       <path id="Helvetica-28" d="M 1894 4666 
Q 1403 3713 1256 3263 
Q 1034 2578 1034 1681 
Q 1034 775 1288 25 
Q 1444 -438 1903 -1306 
L 1525 -1306 
Q 1069 -594 959 -397 
Q 850 -200 722 138 
Q 547 600 478 1125 
Q 444 1397 444 1644 
Q 444 2569 734 3291 
Q 919 3750 1503 4666 
L 1894 4666 
z
" transform="scale(0.015625)"/>
       <path id="Helvetica-6d" d="M 413 3347 
L 969 3347 
L 969 2872 
Q 1169 3119 1331 3231 
Q 1609 3422 1963 3422 
Q 2363 3422 2606 3225 
Q 2744 3113 2856 2894 
Q 3044 3163 3297 3292 
Q 3550 3422 3866 3422 
Q 4541 3422 4784 2934 
Q 4916 2672 4916 2228 
L 4916 0 
L 4331 0 
L 4331 2325 
Q 4331 2659 4164 2784 
Q 3997 2909 3756 2909 
Q 3425 2909 3186 2687 
Q 2947 2466 2947 1947 
L 2947 0 
L 2375 0 
L 2375 2184 
Q 2375 2525 2294 2681 
Q 2166 2916 1816 2916 
Q 1497 2916 1236 2669 
Q 975 2422 975 1775 
L 975 0 
L 413 0 
L 413 3347 
z
" transform="scale(0.015625)"/>
       <path id="Helvetica-29" d="M 222 -1306 
Q 719 -338 863 106 
Q 1081 778 1081 1681 
Q 1081 2584 828 3334 
Q 672 3797 213 4666 
L 591 4666 
Q 1072 3897 1173 3717 
Q 1275 3538 1394 3222 
Q 1544 2831 1608 2450 
Q 1672 2069 1672 1716 
Q 1672 791 1378 66 
Q 1194 -400 613 -1306 
L 222 -1306 
z
" transform="scale(0.015625)"/>
      </defs>
      <use xlink:href="#Helvetica-57"/>
      <use xlink:href="#Helvetica-61" x="94.384766"/>
      <use xlink:href="#Helvetica-76" x="150"/>
      <use xlink:href="#Helvetica-65" x="200"/>
      <use xlink:href="#Helvetica-6c" x="255.615234"/>
      <use xlink:href="#Helvetica-65" x="277.832031"/>
      <use xlink:href="#Helvetica-6e" x="333.447266"/>
      <use xlink:href="#Helvetica-67" x="389.0625"/>
      <use xlink:href="#Helvetica-74" x="444.677734"/>
      <use xlink:href="#Helvetica-68" x="472.460938"/>
      <use xlink:href="#Helvetica-20" x="528.076172"/>
      <use xlink:href="#Helvetica-28" x="555.859375"/>
      <use xlink:href="#Helvetica-6e" x="589.160156"/>
      <use xlink:href="#Helvetica-6d" x="644.775391"/>
      <use xlink:href="#Helvetica-29" x="728.076172"/>
     </g>
    </g>
   </g>
   <g id="matplotlib.axis_2">
    <g id="ytick_1">
     <g id="line2d_6">
      <defs>
       <path id="mb1acfab0eb" d="M 0 0 
L -6 0 
" style="stroke: #000000; stroke-width: 1.25"/>
      </defs>
      <g>
       <use xlink:href="#mb1acfab0eb" x="63.27" y="225.597502" style="stroke: #000000; stroke-width: 1.25"/>
      </g>
     </g>
     <g id="text_7">
      <!-- 0.0 -->
      <g transform="translate(35.422 230.331971) scale(0.132 -0.132)">
       <defs>
        <path id="Helvetica-2e" d="M 547 681 
L 1200 681 
L 1200 0 
L 547 0 
L 547 681 
z
" transform="scale(0.015625)"/>
       </defs>
       <use xlink:href="#Helvetica-30"/>
       <use xlink:href="#Helvetica-2e" x="55.615234"/>
       <use xlink:href="#Helvetica-30" x="83.398438"/>
      </g>
     </g>
    </g>
    <g id="ytick_2">
     <g id="line2d_7">
      <g>
       <use xlink:href="#mb1acfab0eb" x="63.27" y="177.917639" style="stroke: #000000; stroke-width: 1.25"/>
      </g>
     </g>
     <g id="text_8">
      <!-- 0.2 -->
      <g transform="translate(35.422 182.652107) scale(0.132 -0.132)">
       <defs>
        <path id="Helvetica-32" d="M 200 0 
Q 231 578 439 1006 
Q 647 1434 1250 1784 
L 1850 2131 
Q 2253 2366 2416 2531 
Q 2672 2791 2672 3125 
Q 2672 3516 2437 3745 
Q 2203 3975 1813 3975 
Q 1234 3975 1013 3538 
Q 894 3303 881 2888 
L 309 2888 
Q 319 3472 525 3841 
Q 891 4491 1816 4491 
Q 2584 4491 2939 4075 
Q 3294 3659 3294 3150 
Q 3294 2613 2916 2231 
Q 2697 2009 2131 1694 
L 1703 1456 
Q 1397 1288 1222 1134 
Q 909 863 828 531 
L 3272 531 
L 3272 0 
L 200 0 
z
" transform="scale(0.015625)"/>
       </defs>
       <use xlink:href="#Helvetica-30"/>
       <use xlink:href="#Helvetica-2e" x="55.615234"/>
       <use xlink:href="#Helvetica-32" x="83.398438"/>
      </g>
     </g>
    </g>
    <g id="ytick_3">
     <g id="line2d_8">
      <g>
       <use xlink:href="#mb1acfab0eb" x="63.27" y="130.237775" style="stroke: #000000; stroke-width: 1.25"/>
      </g>
     </g>
     <g id="text_9">
      <!-- 0.4 -->
      <g transform="translate(35.422 134.972244) scale(0.132 -0.132)">
       <use xlink:href="#Helvetica-30"/>
       <use xlink:href="#Helvetica-2e" x="55.615234"/>
       <use xlink:href="#Helvetica-34" x="83.398438"/>
      </g>
     </g>
    </g>
    <g id="ytick_4">
     <g id="line2d_9">
      <g>
       <use xlink:href="#mb1acfab0eb" x="63.27" y="82.557912" style="stroke: #000000; stroke-width: 1.25"/>
      </g>
     </g>
     <g id="text_10">
      <!-- 0.6 -->
      <g transform="translate(35.422 87.292381) scale(0.132 -0.132)">
       <use xlink:href="#Helvetica-30"/>
       <use xlink:href="#Helvetica-2e" x="55.615234"/>
       <use xlink:href="#Helvetica-36" x="83.398438"/>
      </g>
     </g>
    </g>
    <g id="ytick_5">
     <g id="line2d_10">
      <g>
       <use xlink:href="#mb1acfab0eb" x="63.27" y="34.878048" style="stroke: #000000; stroke-width: 1.25"/>
      </g>
     </g>
     <g id="text_11">
      <!-- 0.8 -->
      <g transform="translate(35.422 39.612517) scale(0.132 -0.132)">
       <use xlink:href="#Helvetica-30"/>
       <use xlink:href="#Helvetica-2e" x="55.615234"/>
       <use xlink:href="#Helvetica-38" x="83.398438"/>
      </g>
     </g>
    </g>
    <g id="text_12">
     <!-- mW/m$^2$/nm -->
     <g transform="translate(28.4205 169.698) rotate(-90) scale(0.144 -0.144)">
      <defs>
       <path id="Helvetica-2f" d="M 1456 4591 
L 1931 4591 
L 475 0 
L 0 0 
L 1456 4591 
z
" transform="scale(0.015625)"/>
       <path id="DejaVuSans-32" d="M 1228 531 
L 3431 531 
L 3431 0 
L 469 0 
L 469 531 
Q 828 903 1448 1529 
Q 2069 2156 2228 2338 
Q 2531 2678 2651 2914 
Q 2772 3150 2772 3378 
Q 2772 3750 2511 3984 
Q 2250 4219 1831 4219 
Q 1534 4219 1204 4116 
Q 875 4013 500 3803 
L 500 4441 
Q 881 4594 1212 4672 
Q 1544 4750 1819 4750 
Q 2544 4750 2975 4387 
Q 3406 4025 3406 3419 
Q 3406 3131 3298 2873 
Q 3191 2616 2906 2266 
Q 2828 2175 2409 1742 
Q 1991 1309 1228 531 
z
" transform="scale(0.015625)"/>
      </defs>
      <use xlink:href="#Helvetica-6d" transform="translate(0 0.765625)"/>
      <use xlink:href="#Helvetica-57" transform="translate(83.300781 0.765625)"/>
      <use xlink:href="#Helvetica-2f" transform="translate(177.685547 0.765625)"/>
      <use xlink:href="#Helvetica-6d" transform="translate(205.46875 0.765625)"/>
      <use xlink:href="#DejaVuSans-32" transform="translate(289.726562 39.046875) scale(0.7)"/>
      <use xlink:href="#Helvetica-2f" transform="translate(336.99707 0.765625)"/>
      <use xlink:href="#Helvetica-6e" transform="translate(364.780273 0.765625)"/>
      <use xlink:href="#Helvetica-6d" transform="translate(420.395508 0.765625)"/>
     </g>
    </g>
   </g>
   <g id="line2d_11">
    <path d="M 72.974795 223.762823 
L 73.945275 223.39171 
L 74.430515 223.405808 
L 74.915755 223.685515 
L 75.400994 223.603833 
L 75.886234 223.891723 
L 76.371474 223.883987 
L 76.856714 223.734361 
L 77.827193 223.751086 
L 78.312433 223.867326 
L 79.282913 223.461544 
L 79.768152 223.424035 
L 80.253392 223.578652 
L 80.738632 223.439541 
L 81.223872 223.432796 
L 81.709111 223.267054 
L 82.194351 222.935372 
L 83.164831 222.82969 
L 83.65007 222.57027 
L 85.59103 220.297136 
L 86.561509 218.179779 
L 87.531989 214.86873 
L 88.017228 212.786292 
L 89.472948 202.837542 
L 90.928667 186.200566 
L 91.899147 170.163531 
L 92.384386 162.5686 
L 94.810585 110.985268 
L 95.295825 101.181741 
L 95.781065 96.062967 
L 96.266305 97.334065 
L 96.751544 96.189263 
L 97.236784 100.290976 
L 97.722024 102.81795 
L 98.207264 107.842375 
L 99.177743 120.513178 
L 100.148223 128.808793 
L 100.633463 130.213556 
L 101.118702 130.122858 
L 101.603942 128.871846 
L 102.089182 128.039838 
L 102.574422 122.526518 
L 103.059661 115.310875 
L 103.544901 110.837352 
L 104.030141 107.664739 
L 105.00062 96.871102 
L 105.48586 94.894034 
L 105.9711 94.153729 
L 106.45634 94.288114 
L 106.94158 95.869045 
L 107.912059 103.702122 
L 108.397299 107.220933 
L 108.882539 113.740411 
L 109.367778 117.474611 
L 109.853018 118.775119 
L 110.823498 123.393336 
L 111.308737 124.078797 
L 111.793977 122.480182 
L 112.279217 120.373297 
L 112.764457 120.147659 
L 113.249697 121.588262 
L 113.734936 121.241577 
L 114.220176 120.167654 
L 114.705416 120.544981 
L 115.190656 121.780833 
L 116.161135 126.38126 
L 116.646375 127.655175 
L 117.131615 130.442117 
L 118.102094 137.30222 
L 118.587334 139.157566 
L 119.557814 145.331476 
L 120.528293 151.140453 
L 121.498773 154.058083 
L 122.469252 159.179845 
L 122.954492 160.666153 
L 123.439732 160.87469 
L 123.924972 161.473204 
L 124.410211 161.800906 
L 124.895451 161.430619 
L 125.865931 159.478077 
L 126.35117 158.118217 
L 127.32165 154.212791 
L 128.777369 145.961104 
L 131.203568 130.255403 
L 132.659287 120.492602 
L 134.115007 111.918082 
L 134.600247 110.483093 
L 135.570726 105.919617 
L 136.055966 104.483161 
L 136.541206 103.970958 
L 137.026445 103.201061 
L 137.511685 101.976369 
L 137.996925 101.853337 
L 139.452644 103.331742 
L 140.423124 106.402249 
L 140.908364 107.48 
L 141.878843 111.798065 
L 143.819802 121.892831 
L 145.760761 131.708828 
L 147.216481 137.711384 
L 148.18696 141.583139 
L 149.15744 144.697059 
L 149.64268 145.734782 
L 150.127919 147.417188 
L 150.613159 148.661865 
L 151.583639 150.133699 
L 152.068878 151.377155 
L 152.554118 152.226194 
L 153.039358 152.626966 
L 153.524598 152.660948 
L 154.009837 152.910663 
L 154.495077 153.296373 
L 155.465557 153.032915 
L 155.950797 152.7975 
L 156.921276 151.911227 
L 158.376995 149.805396 
L 158.862235 148.990598 
L 160.317955 145.621502 
L 160.803194 144.239667 
L 161.773674 142.068199 
L 163.229393 138.17447 
L 163.714633 137.187964 
L 165.170352 133.153893 
L 166.140832 130.839502 
L 166.626072 129.875121 
L 167.596551 127.559075 
L 168.081791 126.67506 
L 169.05227 124.555186 
L 170.02275 123.169573 
L 171.478469 121.067874 
L 171.963709 120.181225 
L 172.448949 119.720558 
L 172.934189 119.718755 
L 173.419428 119.872894 
L 173.904668 119.286192 
L 174.389908 118.973812 
L 174.875148 119.09342 
L 175.360387 119.031494 
L 175.845627 119.120816 
L 176.330867 118.971648 
L 176.816107 118.981438 
L 177.301347 119.362161 
L 177.786586 119.897397 
L 178.271826 120.008847 
L 178.757066 120.237869 
L 179.242306 120.682987 
L 179.727545 120.914427 
L 180.212785 121.014603 
L 181.183265 121.456463 
L 183.124224 121.777802 
L 183.609464 122.129565 
L 184.094703 122.050167 
L 185.065183 121.492911 
L 185.550423 121.081745 
L 187.006142 118.833719 
L 187.976622 116.425017 
L 188.947101 112.803219 
L 190.40282 105.357216 
L 191.85854 94.530682 
L 192.829019 84.991077 
L 194.284739 67.086169 
L 195.740458 49.525919 
L 196.225698 45.30426 
L 196.710937 42.848182 
L 197.196177 43.435587 
L 197.681417 46.444997 
L 198.166657 51.863083 
L 199.137136 68.416499 
L 200.107616 87.129141 
L 201.078095 101.283365 
L 201.563335 106.132877 
L 202.048575 109.565601 
L 202.533815 111.60561 
L 203.019055 112.831617 
L 203.504294 113.103325 
L 203.989534 112.103803 
L 204.474774 110.205471 
L 205.445253 105.099466 
L 206.415733 99.491539 
L 206.900973 97.099145 
L 207.386212 95.635726 
L 207.871452 95.750764 
L 208.356692 97.813707 
L 208.841932 101.840935 
L 209.327172 107.797976 
L 210.297651 125.746534 
L 211.75337 154.923843 
L 212.72385 170.275117 
L 213.69433 180.676122 
L 214.664809 188.62073 
L 215.635289 194.257952 
L 216.605768 198.464013 
L 217.576248 201.617644 
L 219.031967 205.088283 
L 220.002447 206.844849 
L 221.458166 209.030593 
L 223.399125 211.236117 
L 224.369605 212.255495 
L 228.251523 215.101434 
L 232.618681 217.452589 
L 236.015359 218.616707 
L 237.471078 219.29357 
L 239.897277 219.990412 
L 240.382517 220.05287 
L 241.352997 220.493924 
L 242.323476 220.769145 
L 243.293956 221.110886 
L 244.264435 221.218435 
L 249.602073 222.34444 
L 251.543032 222.576634 
L 255.91019 223.193964 
L 256.39543 223.208891 
L 257.365909 223.439215 
L 258.336389 223.533036 
L 258.821628 223.6437 
L 260.762587 223.581023 
L 263.188786 223.752859 
L 264.159266 223.845349 
L 267.070705 223.971818 
L 267.070705 223.971818 
" clip-path="url(#p59e939aea6)" style="fill: none; stroke: #1f77b4; stroke-width: 1.5; stroke-linecap: square"/>
   </g>
   <g id="patch_3">
    <path d="M 63.27 233.028 
L 63.27 33.792 
" style="fill: none; stroke: #000000; stroke-width: 1.25; stroke-linejoin: miter; stroke-linecap: square"/>
   </g>
   <g id="patch_4">
    <path d="M 276.7755 233.028 
L 276.7755 33.792 
" style="fill: none; stroke: #000000; stroke-width: 1.25; stroke-linejoin: miter; stroke-linecap: square"/>
   </g>
   <g id="patch_5">
    <path d="M 63.27 233.028 
L 276.7755 233.028 
" style="fill: none; stroke: #000000; stroke-width: 1.25; stroke-linejoin: miter; stroke-linecap: square"/>
   </g>
   <g id="patch_6">
    <path d="M 63.27 33.792 
L 276.7755 33.792 
" style="fill: none; stroke: #000000; stroke-width: 1.25; stroke-linejoin: miter; stroke-linecap: square"/>
   </g>
   <g id="text_13">
    <!-- Measured spectrum -->
    <g transform="translate(106.40175 27.792) scale(0.144 -0.144)">
     <defs>
      <path id="Helvetica-4d" d="M 472 4591 
L 1363 4591 
L 2681 709 
L 3991 4591 
L 4872 4591 
L 4872 0 
L 4281 0 
L 4281 2709 
Q 4281 2850 4287 3175 
Q 4294 3500 4294 3872 
L 2984 0 
L 2369 0 
L 1050 3872 
L 1050 3731 
Q 1050 3563 1058 3217 
Q 1066 2872 1066 2709 
L 1066 0 
L 472 0 
L 472 4591 
z
" transform="scale(0.015625)"/>
      <path id="Helvetica-73" d="M 747 1050 
Q 772 769 888 619 
Q 1100 347 1625 347 
Q 1938 347 2175 483 
Q 2413 619 2413 903 
Q 2413 1119 2222 1231 
Q 2100 1300 1741 1391 
L 1294 1503 
Q 866 1609 663 1741 
Q 300 1969 300 2372 
Q 300 2847 642 3140 
Q 984 3434 1563 3434 
Q 2319 3434 2653 2991 
Q 2863 2709 2856 2384 
L 2325 2384 
Q 2309 2575 2191 2731 
Q 1997 2953 1519 2953 
Q 1200 2953 1036 2831 
Q 872 2709 872 2509 
Q 872 2291 1088 2159 
Q 1213 2081 1456 2022 
L 1828 1931 
Q 2434 1784 2641 1647 
Q 2969 1431 2969 969 
Q 2969 522 2630 197 
Q 2291 -128 1597 -128 
Q 850 -128 539 211 
Q 228 550 206 1050 
L 747 1050 
z
M 1578 3428 
L 1578 3428 
z
" transform="scale(0.015625)"/>
      <path id="Helvetica-75" d="M 975 3347 
L 975 1125 
Q 975 869 1056 706 
Q 1206 406 1616 406 
Q 2203 406 2416 931 
Q 2531 1213 2531 1703 
L 2531 3347 
L 3094 3347 
L 3094 0 
L 2563 0 
L 2569 494 
Q 2459 303 2297 172 
Q 1975 -91 1516 -91 
Q 800 -91 541 388 
Q 400 644 400 1072 
L 400 3347 
L 975 3347 
z
M 1747 3428 
L 1747 3428 
z
" transform="scale(0.015625)"/>
      <path id="Helvetica-72" d="M 428 3347 
L 963 3347 
L 963 2769 
Q 1028 2938 1284 3180 
Q 1541 3422 1875 3422 
Q 1891 3422 1928 3419 
Q 1966 3416 2056 3406 
L 2056 2813 
Q 2006 2822 1964 2825 
Q 1922 2828 1872 2828 
Q 1447 2828 1219 2554 
Q 991 2281 991 1925 
L 991 0 
L 428 0 
L 428 3347 
z
" transform="scale(0.015625)"/>
      <path id="Helvetica-64" d="M 769 1634 
Q 769 1097 997 734 
Q 1225 372 1728 372 
Q 2119 372 2370 708 
Q 2622 1044 2622 1672 
Q 2622 2306 2362 2611 
Q 2103 2916 1722 2916 
Q 1297 2916 1033 2591 
Q 769 2266 769 1634 
z
M 1616 3406 
Q 2000 3406 2259 3244 
Q 2409 3150 2600 2916 
L 2600 4606 
L 3141 4606 
L 3141 0 
L 2634 0 
L 2634 466 
Q 2438 156 2169 18 
Q 1900 -119 1553 -119 
Q 994 -119 584 351 
Q 175 822 175 1603 
Q 175 2334 548 2870 
Q 922 3406 1616 3406 
z
" transform="scale(0.015625)"/>
      <path id="Helvetica-70" d="M 1825 378 
Q 2219 378 2480 708 
Q 2741 1038 2741 1694 
Q 2741 2094 2625 2381 
Q 2406 2934 1825 2934 
Q 1241 2934 1025 2350 
Q 909 2038 909 1556 
Q 909 1169 1025 897 
Q 1244 378 1825 378 
z
M 369 3331 
L 916 3331 
L 916 2888 
Q 1084 3116 1284 3241 
Q 1569 3428 1953 3428 
Q 2522 3428 2919 2992 
Q 3316 2556 3316 1747 
Q 3316 653 2744 184 
Q 2381 -113 1900 -113 
Q 1522 -113 1266 53 
Q 1116 147 931 375 
L 931 -1334 
L 369 -1334 
L 369 3331 
z
" transform="scale(0.015625)"/>
      <path id="Helvetica-63" d="M 1703 3444 
Q 2269 3444 2623 3169 
Q 2978 2894 3050 2222 
L 2503 2222 
Q 2453 2531 2275 2736 
Q 2097 2941 1703 2941 
Q 1166 2941 934 2416 
Q 784 2075 784 1575 
Q 784 1072 996 728 
Q 1209 384 1666 384 
Q 2016 384 2220 598 
Q 2425 813 2503 1184 
L 3050 1184 
Q 2956 519 2581 211 
Q 2206 -97 1622 -97 
Q 966 -97 575 383 
Q 184 863 184 1581 
Q 184 2463 612 2953 
Q 1041 3444 1703 3444 
z
M 1616 3428 
L 1616 3428 
z
" transform="scale(0.015625)"/>
     </defs>
     <use xlink:href="#Helvetica-4d"/>
     <use xlink:href="#Helvetica-65" x="83.300781"/>
     <use xlink:href="#Helvetica-61" x="138.916016"/>
     <use xlink:href="#Helvetica-73" x="194.53125"/>
     <use xlink:href="#Helvetica-75" x="244.53125"/>
     <use xlink:href="#Helvetica-72" x="300.146484"/>
     <use xlink:href="#Helvetica-65" x="333.447266"/>
     <use xlink:href="#Helvetica-64" x="389.0625"/>
     <use xlink:href="#Helvetica-20" x="444.677734"/>
     <use xlink:href="#Helvetica-73" x="472.460938"/>
     <use xlink:href="#Helvetica-70" x="522.460938"/>
     <use xlink:href="#Helvetica-65" x="578.076172"/>
     <use xlink:href="#Helvetica-63" x="633.691406"/>
     <use xlink:href="#Helvetica-74" x="683.691406"/>
     <use xlink:href="#Helvetica-72" x="711.474609"/>
     <use xlink:href="#Helvetica-75" x="744.775391"/>
     <use xlink:href="#Helvetica-6d" x="800.390625"/>
    </g>
   </g>
  </g>
  <g id="axes_2">
   <g id="patch_7">
    <path d="M 349.10625 233.028 
L 562.61175 233.028 
L 562.61175 33.792 
L 349.10625 33.792 
z
" style="fill: #ffffff"/>
   </g>
   <g id="matplotlib.axis_3">
    <g id="xtick_6">
     <g id="line2d_12">
      <g>
       <use xlink:href="#mb3ddcb9242" x="368.515841" y="233.028" style="stroke: #000000; stroke-width: 1.25"/>
      </g>
     </g>
     <g id="text_14">
      <!-- 400 -->
      <g transform="translate(357.505185 251.996938) scale(0.132 -0.132)">
       <use xlink:href="#Helvetica-34"/>
       <use xlink:href="#Helvetica-30" x="55.615234"/>
       <use xlink:href="#Helvetica-30" x="111.230469"/>
      </g>
     </g>
    </g>
    <g id="xtick_7">
     <g id="line2d_13">
      <g>
       <use xlink:href="#mb3ddcb9242" x="417.039818" y="233.028" style="stroke: #000000; stroke-width: 1.25"/>
      </g>
     </g>
     <g id="text_15">
      <!-- 500 -->
      <g transform="translate(406.029162 251.996938) scale(0.132 -0.132)">
       <use xlink:href="#Helvetica-35"/>
       <use xlink:href="#Helvetica-30" x="55.615234"/>
       <use xlink:href="#Helvetica-30" x="111.230469"/>
      </g>
     </g>
    </g>
    <g id="xtick_8">
     <g id="line2d_14">
      <g>
       <use xlink:href="#mb3ddcb9242" x="465.563795" y="233.028" style="stroke: #000000; stroke-width: 1.25"/>
      </g>
     </g>
     <g id="text_16">
      <!-- 600 -->
      <g transform="translate(454.553139 251.996938) scale(0.132 -0.132)">
       <use xlink:href="#Helvetica-36"/>
       <use xlink:href="#Helvetica-30" x="55.615234"/>
       <use xlink:href="#Helvetica-30" x="111.230469"/>
      </g>
     </g>
    </g>
    <g id="xtick_9">
     <g id="line2d_15">
      <g>
       <use xlink:href="#mb3ddcb9242" x="514.087773" y="233.028" style="stroke: #000000; stroke-width: 1.25"/>
      </g>
     </g>
     <g id="text_17">
      <!-- 700 -->
      <g transform="translate(503.077116 251.996938) scale(0.132 -0.132)">
       <use xlink:href="#Helvetica-37"/>
       <use xlink:href="#Helvetica-30" x="55.615234"/>
       <use xlink:href="#Helvetica-30" x="111.230469"/>
      </g>
     </g>
    </g>
    <g id="xtick_10">
     <g id="line2d_16">
      <g>
       <use xlink:href="#mb3ddcb9242" x="562.61175" y="233.028" style="stroke: #000000; stroke-width: 1.25"/>
      </g>
     </g>
     <g id="text_18">
      <!-- 800 -->
      <g transform="translate(551.601094 251.996938) scale(0.132 -0.132)">
       <use xlink:href="#Helvetica-38"/>
       <use xlink:href="#Helvetica-30" x="55.615234"/>
       <use xlink:href="#Helvetica-30" x="111.230469"/>
      </g>
     </g>
    </g>
    <g id="text_19">
     <!-- Wavelength (nm) -->
     <g transform="translate(401.043375 269.246812) scale(0.144 -0.144)">
      <use xlink:href="#Helvetica-57"/>
      <use xlink:href="#Helvetica-61" x="94.384766"/>
      <use xlink:href="#Helvetica-76" x="150"/>
      <use xlink:href="#Helvetica-65" x="200"/>
      <use xlink:href="#Helvetica-6c" x="255.615234"/>
      <use xlink:href="#Helvetica-65" x="277.832031"/>
      <use xlink:href="#Helvetica-6e" x="333.447266"/>
      <use xlink:href="#Helvetica-67" x="389.0625"/>
      <use xlink:href="#Helvetica-74" x="444.677734"/>
      <use xlink:href="#Helvetica-68" x="472.460938"/>
      <use xlink:href="#Helvetica-20" x="528.076172"/>
      <use xlink:href="#Helvetica-28" x="555.859375"/>
      <use xlink:href="#Helvetica-6e" x="589.160156"/>
      <use xlink:href="#Helvetica-6d" x="644.775391"/>
      <use xlink:href="#Helvetica-29" x="728.076172"/>
     </g>
    </g>
   </g>
   <g id="matplotlib.axis_4">
    <g id="ytick_6">
     <g id="line2d_17">
      <g>
       <use xlink:href="#mb1acfab0eb" x="349.10625" y="223.971818" style="stroke: #000000; stroke-width: 1.25"/>
      </g>
     </g>
     <g id="text_20">
      <!-- 0.0 -->
      <g transform="translate(321.25825 228.706287) scale(0.132 -0.132)">
       <use xlink:href="#Helvetica-30"/>
       <use xlink:href="#Helvetica-2e" x="55.615234"/>
       <use xlink:href="#Helvetica-30" x="83.398438"/>
      </g>
     </g>
    </g>
    <g id="ytick_7">
     <g id="line2d_18">
      <g>
       <use xlink:href="#mb1acfab0eb" x="349.10625" y="187.747091" style="stroke: #000000; stroke-width: 1.25"/>
      </g>
     </g>
     <g id="text_21">
      <!-- 0.2 -->
      <g transform="translate(321.25825 192.48156) scale(0.132 -0.132)">
       <use xlink:href="#Helvetica-30"/>
       <use xlink:href="#Helvetica-2e" x="55.615234"/>
       <use xlink:href="#Helvetica-32" x="83.398438"/>
      </g>
     </g>
    </g>
    <g id="ytick_8">
     <g id="line2d_19">
      <g>
       <use xlink:href="#mb1acfab0eb" x="349.10625" y="151.522364" style="stroke: #000000; stroke-width: 1.25"/>
      </g>
     </g>
     <g id="text_22">
      <!-- 0.4 -->
      <g transform="translate(321.25825 156.256832) scale(0.132 -0.132)">
       <use xlink:href="#Helvetica-30"/>
       <use xlink:href="#Helvetica-2e" x="55.615234"/>
       <use xlink:href="#Helvetica-34" x="83.398438"/>
      </g>
     </g>
    </g>
    <g id="ytick_9">
     <g id="line2d_20">
      <g>
       <use xlink:href="#mb1acfab0eb" x="349.10625" y="115.297636" style="stroke: #000000; stroke-width: 1.25"/>
      </g>
     </g>
     <g id="text_23">
      <!-- 0.6 -->
      <g transform="translate(321.25825 120.032105) scale(0.132 -0.132)">
       <use xlink:href="#Helvetica-30"/>
       <use xlink:href="#Helvetica-2e" x="55.615234"/>
       <use xlink:href="#Helvetica-36" x="83.398438"/>
      </g>
     </g>
    </g>
    <g id="ytick_10">
     <g id="line2d_21">
      <g>
       <use xlink:href="#mb1acfab0eb" x="349.10625" y="79.072909" style="stroke: #000000; stroke-width: 1.25"/>
      </g>
     </g>
     <g id="text_24">
      <!-- 0.8 -->
      <g transform="translate(321.25825 83.807378) scale(0.132 -0.132)">
       <use xlink:href="#Helvetica-30"/>
       <use xlink:href="#Helvetica-2e" x="55.615234"/>
       <use xlink:href="#Helvetica-38" x="83.398438"/>
      </g>
     </g>
    </g>
    <g id="ytick_11">
     <g id="line2d_22">
      <g>
       <use xlink:href="#mb1acfab0eb" x="349.10625" y="42.848182" style="stroke: #000000; stroke-width: 1.25"/>
      </g>
     </g>
     <g id="text_25">
      <!-- 1.0 -->
      <g transform="translate(321.25825 47.582651) scale(0.132 -0.132)">
       <defs>
        <path id="Helvetica-31" d="M 613 3169 
L 613 3600 
Q 1222 3659 1462 3798 
Q 1703 3938 1822 4456 
L 2266 4456 
L 2266 0 
L 1666 0 
L 1666 3169 
L 613 3169 
z
" transform="scale(0.015625)"/>
       </defs>
       <use xlink:href="#Helvetica-31"/>
       <use xlink:href="#Helvetica-2e" x="55.615234"/>
       <use xlink:href="#Helvetica-30" x="83.398438"/>
      </g>
     </g>
    </g>
    <g id="text_26">
     <!-- Spectral sensitivity -->
     <g transform="translate(314.17125 193.029375) rotate(-90) scale(0.144 -0.144)">
      <defs>
       <path id="Helvetica-53" d="M 894 1481 
Q 916 1091 1078 847 
Q 1388 391 2169 391 
Q 2519 391 2806 491 
Q 3363 684 3363 1184 
Q 3363 1559 3128 1719 
Q 2891 1875 2384 1991 
L 1763 2131 
Q 1153 2269 900 2434 
Q 463 2722 463 3294 
Q 463 3913 891 4309 
Q 1319 4706 2103 4706 
Q 2825 4706 3329 4357 
Q 3834 4009 3834 3244 
L 3250 3244 
Q 3203 3613 3050 3809 
Q 2766 4169 2084 4169 
Q 1534 4169 1293 3937 
Q 1053 3706 1053 3400 
Q 1053 3063 1334 2906 
Q 1519 2806 2169 2656 
L 2813 2509 
Q 3278 2403 3531 2219 
Q 3969 1897 3969 1284 
Q 3969 522 3414 194 
Q 2859 -134 2125 -134 
Q 1269 -134 784 303 
Q 300 738 309 1481 
L 894 1481 
z
M 2150 4716 
L 2150 4716 
z
" transform="scale(0.015625)"/>
       <path id="Helvetica-69" d="M 413 3331 
L 984 3331 
L 984 0 
L 413 0 
L 413 3331 
z
M 413 4591 
L 984 4591 
L 984 3953 
L 413 3953 
L 413 4591 
z
" transform="scale(0.015625)"/>
       <path id="Helvetica-79" d="M 2503 3347 
L 3125 3347 
Q 3006 3025 2597 1878 
Q 2291 1016 2084 472 
Q 1597 -809 1397 -1090 
Q 1197 -1372 709 -1372 
Q 591 -1372 527 -1362 
Q 463 -1353 369 -1328 
L 369 -816 
Q 516 -856 581 -865 
Q 647 -875 697 -875 
Q 853 -875 926 -823 
Q 1000 -772 1050 -697 
Q 1066 -672 1162 -440 
Q 1259 -209 1303 -97 
L 66 3347 
L 703 3347 
L 1600 622 
L 2503 3347 
z
M 1597 3428 
L 1597 3428 
z
" transform="scale(0.015625)"/>
      </defs>
      <use xlink:href="#Helvetica-53"/>
      <use xlink:href="#Helvetica-70" x="66.699219"/>
      <use xlink:href="#Helvetica-65" x="122.314453"/>
      <use xlink:href="#Helvetica-63" x="177.929688"/>
      <use xlink:href="#Helvetica-74" x="227.929688"/>
      <use xlink:href="#Helvetica-72" x="255.712891"/>
      <use xlink:href="#Helvetica-61" x="289.013672"/>
      <use xlink:href="#Helvetica-6c" x="344.628906"/>
      <use xlink:href="#Helvetica-20" x="366.845703"/>
      <use xlink:href="#Helvetica-73" x="394.628906"/>
      <use xlink:href="#Helvetica-65" x="444.628906"/>
      <use xlink:href="#Helvetica-6e" x="500.244141"/>
      <use xlink:href="#Helvetica-73" x="555.859375"/>
      <use xlink:href="#Helvetica-69" x="605.859375"/>
      <use xlink:href="#Helvetica-74" x="628.076172"/>
      <use xlink:href="#Helvetica-69" x="655.859375"/>
      <use xlink:href="#Helvetica-76" x="678.076172"/>
      <use xlink:href="#Helvetica-69" x="728.076172"/>
      <use xlink:href="#Helvetica-74" x="750.292969"/>
      <use xlink:href="#Helvetica-79" x="778.076172"/>
     </g>
    </g>
   </g>
   <g id="line2d_23">
    <path d="M 358.811045 223.971818 
L 361.722484 223.971818 
L 362.692964 223.310291 
L 366.089642 220.900575 
L 367.060122 219.686143 
L 368.030601 217.928487 
L 369.001081 215.458839 
L 369.97156 212.109303 
L 370.94204 207.712852 
L 371.912519 202.140116 
L 372.882999 195.412203 
L 374.338718 183.26172 
L 375.794438 168.554592 
L 383.073034 86.866718 
L 384.528753 74.176312 
L 387.440192 51.428269 
L 387.925432 48.806719 
L 388.410672 46.961542 
L 388.895911 45.759836 
L 389.381151 45.002479 
L 391.32211 43.007859 
L 391.80735 42.848182 
L 392.29259 43.229182 
L 392.77783 44.382095 
L 393.263069 46.457222 
L 394.233549 52.599479 
L 396.174508 66.14168 
L 400.056426 90.439755 
L 401.026906 98.843075 
L 402.967865 118.46452 
L 405.879303 148.023368 
L 407.335023 160.53878 
L 408.790742 170.987083 
L 410.731701 182.876238 
L 412.18742 190.398716 
L 413.1579 194.448716 
L 414.613619 199.448174 
L 416.554578 205.136225 
L 418.495538 210.045988 
L 419.951257 213.19681 
L 421.406976 215.788045 
L 422.377456 217.132207 
L 423.833175 218.640294 
L 425.774134 220.161505 
L 427.229853 221.048156 
L 429.170813 221.919962 
L 431.111772 222.547261 
L 433.53797 223.069898 
L 436.449409 223.458451 
L 440.331327 223.733687 
L 446.154205 223.89773 
L 458.770439 223.965514 
L 552.906955 223.971818 
L 552.906955 223.971818 
" clip-path="url(#pdddb3333b0)" style="fill: none; stroke: #1f77b4; stroke-width: 1.5; stroke-linecap: square"/>
   </g>
   <g id="line2d_24">
    <path d="M 358.811045 223.971818 
L 364.633923 223.860856 
L 368.030601 223.606894 
L 370.4568 223.170861 
L 372.397759 222.563746 
L 374.338718 221.693356 
L 375.794438 220.844564 
L 377.735397 219.420412 
L 379.676356 217.737667 
L 381.617315 215.716949 
L 383.073034 213.908596 
L 385.013993 211.119489 
L 390.83687 202.091037 
L 396.174508 192.591057 
L 397.630227 188.965106 
L 399.571186 183.340066 
L 403.453105 172.018897 
L 405.394064 166.23339 
L 407.335023 159.641629 
L 412.18742 141.333954 
L 413.64314 134.26556 
L 418.980777 106.07091 
L 422.862695 83.968157 
L 427.229853 60.813694 
L 428.200333 57.347745 
L 429.170813 54.612404 
L 430.141292 52.378507 
L 431.597011 49.72527 
L 434.99369 44.684686 
L 435.964169 43.425015 
L 436.449409 43.026851 
L 436.934649 42.848182 
L 437.419889 42.896941 
L 437.905128 43.17145 
L 438.390368 43.67003 
L 438.875608 44.391005 
L 439.846087 46.395014 
L 441.301807 49.735428 
L 443.728006 54.452225 
L 444.698485 57.359586 
L 447.609924 67.826429 
L 449.065643 73.731998 
L 450.521363 80.773484 
L 452.462322 91.301694 
L 453.918041 100.283242 
L 456.82948 119.13571 
L 462.652357 152.992326 
L 465.078556 166.311936 
L 467.504755 178.310228 
L 469.445714 186.692349 
L 471.386673 193.879678 
L 472.842392 198.527897 
L 474.298111 202.605154 
L 475.753831 206.148688 
L 477.20955 209.189175 
L 478.665269 211.758394 
L 480.120989 213.916192 
L 481.576708 215.733398 
L 483.032427 217.252508 
L 484.973386 218.892883 
L 486.914345 220.18451 
L 488.370065 220.911241 
L 490.796264 221.808169 
L 493.222463 222.487481 
L 496.133901 223.037036 
L 499.53058 223.417298 
L 504.382977 223.70765 
L 511.661574 223.887046 
L 526.704007 223.962957 
L 552.906955 223.971555 
L 552.906955 223.971555 
" clip-path="url(#pdddb3333b0)" style="fill: none; stroke: #2ca02c; stroke-width: 1.5; stroke-linecap: square"/>
   </g>
   <g id="line2d_25">
    <path d="M 358.811045 223.971818 
L 364.148683 223.867396 
L 367.545361 223.635883 
L 369.97156 223.249516 
L 371.912519 222.706276 
L 374.338718 221.756965 
L 376.279677 220.815631 
L 381.132075 218.070441 
L 384.043514 216.080948 
L 391.32211 210.764984 
L 395.689268 207.040454 
L 397.144988 205.316877 
L 398.600707 203.160506 
L 401.512145 198.207366 
L 403.938344 193.811645 
L 405.879303 189.788751 
L 407.335023 186.297676 
L 410.246461 178.447737 
L 411.702181 174.310581 
L 412.67266 171.039083 
L 414.613619 163.319707 
L 417.039818 153.00956 
L 418.980777 143.765323 
L 421.892216 128.588051 
L 424.803655 112.527 
L 427.229853 99.182005 
L 428.685573 92.503665 
L 430.626532 84.666976 
L 437.419889 59.467386 
L 438.390368 57.049397 
L 439.360848 55.388159 
L 441.301807 52.891445 
L 442.272286 51.044834 
L 443.728006 48.150698 
L 444.698485 46.824767 
L 446.154205 45.447038 
L 448.095164 43.726766 
L 449.065643 43.131208 
L 450.036123 42.8577 
L 451.006602 42.926315 
L 451.977082 43.384684 
L 452.462322 43.811322 
L 452.947561 44.403084 
L 453.918041 46.163609 
L 455.859 50.472194 
L 456.82948 51.861846 
L 457.799959 53.030325 
L 458.770439 54.636197 
L 459.740918 56.926037 
L 461.196637 61.279302 
L 462.652357 66.398242 
L 464.593316 74.248059 
L 467.019515 85.093039 
L 468.960474 94.82074 
L 471.871913 110.969221 
L 476.72431 138.055528 
L 479.150509 151.605584 
L 481.576708 164.806546 
L 483.517667 174.004278 
L 485.458626 181.936463 
L 487.884825 190.539161 
L 489.825784 196.884581 
L 491.281503 201.075039 
L 492.737223 204.719204 
L 494.192942 207.848473 
L 495.648661 210.524981 
L 497.104381 212.804204 
L 498.5601 214.735205 
L 500.015819 216.365408 
L 501.471539 217.737611 
L 503.412498 219.22692 
L 505.353457 220.391372 
L 507.294416 221.298609 
L 509.235375 221.994733 
L 511.661574 222.595857 
L 514.573013 223.0814 
L 518.454931 223.480375 
L 523.307328 223.739953 
L 531.071165 223.899405 
L 547.569317 223.964893 
L 552.906955 223.968452 
L 552.906955 223.968452 
" clip-path="url(#pdddb3333b0)" style="fill: none; stroke: #d62728; stroke-width: 1.5; stroke-linecap: square"/>
   </g>
   <g id="line2d_26">
    <path d="M 358.811045 223.865136 
L 362.692964 223.669704 
L 365.119163 223.357085 
L 367.060122 222.87602 
L 368.515841 222.28918 
L 369.97156 221.412541 
L 370.94204 220.617408 
L 371.912519 219.615795 
L 372.882999 218.376909 
L 373.853478 216.879017 
L 375.309198 214.10058 
L 376.764917 210.641119 
L 378.220636 206.475275 
L 379.676356 201.603049 
L 381.617315 194.068306 
L 383.558274 185.59172 
L 386.469713 171.699537 
L 392.29259 143.734047 
L 395.204028 131.055393 
L 399.571186 113.4864 
L 401.026906 107.690444 
L 403.938344 95.374036 
L 409.275982 71.827964 
L 412.18742 60.236051 
L 413.64314 55.164589 
L 415.098859 50.636498 
L 416.069339 48.281891 
L 417.039818 46.108407 
L 418.980777 43.391553 
L 419.466017 43.210429 
L 419.951257 42.848182 
L 420.921736 42.848182 
L 421.406976 43.210429 
L 421.892216 43.391553 
L 422.377456 43.934924 
L 423.833175 46.289531 
L 424.803655 48.644138 
L 425.774134 51.360993 
L 427.715093 58.243691 
L 429.170813 64.583018 
L 431.111772 74.363695 
L 434.02321 91.208193 
L 436.449409 106.241455 
L 442.272286 142.828429 
L 446.639444 166.89976 
L 448.580403 176.173291 
L 450.521363 184.450641 
L 452.462322 191.695586 
L 453.918041 196.495363 
L 455.859 202.019633 
L 457.314719 205.587769 
L 459.255678 209.608714 
L 461.196637 212.868939 
L 462.652357 214.879412 
L 464.108076 216.563861 
L 465.563795 217.96757 
L 467.019515 219.128572 
L 468.960474 220.360213 
L 470.901433 221.296622 
L 472.842392 222.001193 
L 475.268591 222.636937 
L 478.18003 223.140461 
L 481.576708 223.496731 
L 486.429106 223.758455 
L 494.192942 223.910653 
L 512.146814 223.96758 
L 552.906955 223.971793 
L 552.906955 223.971793 
" clip-path="url(#pdddb3333b0)" style="fill: none; stroke: #7f7f7f; stroke-width: 1.5; stroke-linecap: square"/>
   </g>
   <g id="line2d_27">
    <path d="M 358.811045 223.805518 
L 362.692964 223.534477 
L 365.119163 223.148285 
L 367.060122 222.586041 
L 368.515841 221.901937 
L 369.48632 221.247719 
L 370.4568 220.36619 
L 371.42728 219.204825 
L 372.397759 217.550261 
L 374.338718 213.506494 
L 375.309198 211.025101 
L 376.279677 207.819031 
L 379.191116 195.533596 
L 380.646835 190.083586 
L 382.102555 182.996218 
L 384.528753 170.897159 
L 385.984473 163.110654 
L 388.895911 145.943756 
L 390.83687 135.308176 
L 394.718789 112.69489 
L 402.967865 65.865374 
L 404.423584 59.6637 
L 406.849783 50.439073 
L 407.820263 47.923266 
L 408.790742 45.925472 
L 409.761222 44.547122 
L 411.216941 43.208618 
L 411.702181 42.945989 
L 412.18742 42.848182 
L 412.67266 42.927876 
L 413.64314 43.465813 
L 414.613619 44.293548 
L 415.098859 44.878578 
L 416.069339 46.71336 
L 417.525058 50.303231 
L 418.495538 53.3932 
L 419.951257 58.817853 
L 421.406976 65.294834 
L 422.862695 72.972665 
L 425.288894 87.801257 
L 428.685573 110.311303 
L 433.53797 142.567611 
L 436.449409 160.268824 
L 438.875608 173.412966 
L 440.816567 182.74989 
L 442.757526 190.954791 
L 444.213245 196.332351 
L 445.668965 201.074168 
L 447.124684 205.172996 
L 448.580403 208.694764 
L 450.036123 211.650158 
L 451.491842 214.103659 
L 452.947561 216.140757 
L 454.403281 217.779201 
L 455.859 219.10412 
L 457.314719 220.158622 
L 458.770439 220.990885 
L 460.711398 221.836371 
L 463.137597 222.570954 
L 465.563795 223.054083 
L 468.960474 223.464002 
L 473.327632 223.732789 
L 480.120989 223.896116 
L 494.678182 223.964446 
L 552.906955 223.971814 
L 552.906955 223.971814 
" clip-path="url(#pdddb3333b0)" style="fill: none; stroke: #17becf; stroke-width: 1.5; stroke-linecap: square"/>
   </g>
   <g id="patch_8">
    <path d="M 349.10625 233.028 
L 349.10625 33.792 
" style="fill: none; stroke: #000000; stroke-width: 1.25; stroke-linejoin: miter; stroke-linecap: square"/>
   </g>
   <g id="patch_9">
    <path d="M 562.61175 233.028 
L 562.61175 33.792 
" style="fill: none; stroke: #000000; stroke-width: 1.25; stroke-linejoin: miter; stroke-linecap: square"/>
   </g>
   <g id="patch_10">
    <path d="M 349.10625 233.028 
L 562.61175 233.028 
" style="fill: none; stroke: #000000; stroke-width: 1.25; stroke-linejoin: miter; stroke-linecap: square"/>
   </g>
   <g id="patch_11">
    <path d="M 349.10625 33.792 
L 562.61175 33.792 
" style="fill: none; stroke: #000000; stroke-width: 1.25; stroke-linejoin: miter; stroke-linecap: square"/>
   </g>
   <g id="text_27">
    <!-- $\alpha$-opic action spectra -->
    <g transform="translate(388.611 27.792) scale(0.144 -0.144)">
     <defs>
      <path id="DejaVuSans-Oblique-3b1" d="M 2619 1628 
L 2622 2350 
Q 2625 3088 2069 3091 
Q 1653 3094 1394 2747 
Q 1069 2319 959 1747 
Q 825 1059 994 731 
Q 1169 397 1547 397 
Q 1966 397 2319 1063 
L 2619 1628 
z
M 2166 3578 
Q 3141 3594 3128 2584 
Q 3128 2584 3616 3500 
L 4128 3500 
L 3119 1603 
L 3109 919 
Q 3109 766 3194 638 
Q 3291 488 3391 488 
L 3669 488 
L 3575 0 
L 3228 0 
Q 2934 0 2722 263 
Q 2622 394 2619 669 
Q 2416 334 2066 50 
Q 1900 -81 1453 -78 
Q 722 -72 456 397 
Q 184 884 353 1747 
Q 534 2675 1009 3097 
Q 1544 3569 2166 3578 
z
" transform="scale(0.015625)"/>
      <path id="Helvetica-2d" d="M 266 2072 
L 1834 2072 
L 1834 1494 
L 266 1494 
L 266 2072 
z
" transform="scale(0.015625)"/>
      <path id="Helvetica-6f" d="M 1741 363 
Q 2300 363 2508 786 
Q 2716 1209 2716 1728 
Q 2716 2197 2566 2491 
Q 2328 2953 1747 2953 
Q 1231 2953 997 2559 
Q 763 2166 763 1609 
Q 763 1075 997 719 
Q 1231 363 1741 363 
z
M 1763 3444 
Q 2409 3444 2856 3012 
Q 3303 2581 3303 1744 
Q 3303 934 2909 406 
Q 2516 -122 1688 -122 
Q 997 -122 590 345 
Q 184 813 184 1600 
Q 184 2444 612 2944 
Q 1041 3444 1763 3444 
z
M 1744 3428 
L 1744 3428 
z
" transform="scale(0.015625)"/>
     </defs>
     <use xlink:href="#DejaVuSans-Oblique-3b1" transform="translate(0 0.265625)"/>
     <use xlink:href="#Helvetica-2d" transform="translate(65.917969 0.265625)"/>
     <use xlink:href="#Helvetica-6f" transform="translate(99.21875 0.265625)"/>
     <use xlink:href="#Helvetica-70" transform="translate(154.833984 0.265625)"/>
     <use xlink:href="#Helvetica-69" transform="translate(210.449219 0.265625)"/>
     <use xlink:href="#Helvetica-63" transform="translate(232.666016 0.265625)"/>
     <use xlink:href="#Helvetica-20" transform="translate(282.666016 0.265625)"/>
     <use xlink:href="#Helvetica-61" transform="translate(310.449219 0.265625)"/>
     <use xlink:href="#Helvetica-63" transform="translate(366.064453 0.265625)"/>
     <use xlink:href="#Helvetica-74" transform="translate(416.064453 0.265625)"/>
     <use xlink:href="#Helvetica-69" transform="translate(443.847656 0.265625)"/>
     <use xlink:href="#Helvetica-6f" transform="translate(466.064453 0.265625)"/>
     <use xlink:href="#Helvetica-6e" transform="translate(521.679688 0.265625)"/>
     <use xlink:href="#Helvetica-20" transform="translate(577.294922 0.265625)"/>
     <use xlink:href="#Helvetica-73" transform="translate(605.078125 0.265625)"/>
     <use xlink:href="#Helvetica-70" transform="translate(655.078125 0.265625)"/>
     <use xlink:href="#Helvetica-65" transform="translate(710.693359 0.265625)"/>
     <use xlink:href="#Helvetica-63" transform="translate(766.308594 0.265625)"/>
     <use xlink:href="#Helvetica-74" transform="translate(816.308594 0.265625)"/>
     <use xlink:href="#Helvetica-72" transform="translate(844.091797 0.265625)"/>
     <use xlink:href="#Helvetica-61" transform="translate(877.392578 0.265625)"/>
    </g>
   </g>
   <g id="legend_1">
    <g id="patch_12">
     <path d="M 466.91175 139.26 
L 553.37175 139.26 
Q 556.01175 139.26 556.01175 136.62 
L 556.01175 43.032 
Q 556.01175 40.392 553.37175 40.392 
L 466.91175 40.392 
Q 464.27175 40.392 464.27175 43.032 
L 464.27175 136.62 
Q 464.27175 139.26 466.91175 139.26 
z
" style="fill: #ffffff; opacity: 0.8; stroke: #cccccc; stroke-linejoin: miter"/>
    </g>
    <g id="line2d_28">
     <path d="M 469.55175 50.708625 
L 482.75175 50.708625 
L 495.95175 50.708625 
" style="fill: none; stroke: #1f77b4; stroke-width: 1.5; stroke-linecap: square"/>
    </g>
    <g id="text_28">
     <!-- $S_{sc}(\lambda)$ -->
     <g transform="translate(506.51175 55.328625) scale(0.132 -0.132)">
      <defs>
       <path id="DejaVuSans-Oblique-53" d="M 3859 4513 
L 3738 3897 
Q 3422 4066 3111 4152 
Q 2800 4238 2509 4238 
Q 1944 4238 1609 3991 
Q 1275 3744 1275 3334 
Q 1275 3109 1398 2989 
Q 1522 2869 2034 2731 
L 2413 2638 
Q 3053 2472 3303 2217 
Q 3553 1963 3553 1503 
Q 3553 797 2998 353 
Q 2444 -91 1538 -91 
Q 1166 -91 791 -17 
Q 416 56 38 206 
L 166 856 
Q 513 641 861 531 
Q 1209 422 1556 422 
Q 2147 422 2503 684 
Q 2859 947 2859 1369 
Q 2859 1650 2717 1795 
Q 2575 1941 2106 2059 
L 1728 2156 
Q 1081 2325 845 2545 
Q 609 2766 609 3163 
Q 609 3859 1145 4304 
Q 1681 4750 2541 4750 
Q 2875 4750 3203 4690 
Q 3531 4631 3859 4513 
z
" transform="scale(0.015625)"/>
       <path id="DejaVuSans-Oblique-73" d="M 3200 3397 
L 3091 2853 
Q 2863 2978 2609 3040 
Q 2356 3103 2088 3103 
Q 1634 3103 1373 2948 
Q 1113 2794 1113 2528 
Q 1113 2219 1719 2053 
Q 1766 2041 1788 2034 
L 1972 1978 
Q 2547 1819 2739 1644 
Q 2931 1469 2931 1166 
Q 2931 609 2489 259 
Q 2047 -91 1331 -91 
Q 1053 -91 747 -37 
Q 441 16 72 128 
L 184 722 
Q 500 559 806 475 
Q 1113 391 1394 391 
Q 1816 391 2080 572 
Q 2344 753 2344 1031 
Q 2344 1331 1650 1516 
L 1591 1531 
L 1394 1581 
Q 956 1697 753 1886 
Q 550 2075 550 2369 
Q 550 2928 970 3256 
Q 1391 3584 2113 3584 
Q 2397 3584 2667 3537 
Q 2938 3491 3200 3397 
z
" transform="scale(0.015625)"/>
       <path id="DejaVuSans-Oblique-63" d="M 3431 3366 
L 3316 2797 
Q 3109 2947 2876 3022 
Q 2644 3097 2394 3097 
Q 2119 3097 1870 3000 
Q 1622 2903 1453 2725 
Q 1184 2453 1037 2087 
Q 891 1722 891 1331 
Q 891 859 1127 628 
Q 1363 397 1844 397 
Q 2081 397 2348 469 
Q 2616 541 2906 684 
L 2797 116 
Q 2547 13 2283 -39 
Q 2019 -91 1741 -91 
Q 1044 -91 669 257 
Q 294 606 294 1253 
Q 294 1797 489 2255 
Q 684 2713 1069 3078 
Q 1331 3328 1684 3456 
Q 2038 3584 2456 3584 
Q 2700 3584 2940 3529 
Q 3181 3475 3431 3366 
z
" transform="scale(0.015625)"/>
       <path id="DejaVuSans-28" d="M 1984 4856 
Q 1566 4138 1362 3434 
Q 1159 2731 1159 2009 
Q 1159 1288 1364 580 
Q 1569 -128 1984 -844 
L 1484 -844 
Q 1016 -109 783 600 
Q 550 1309 550 2009 
Q 550 2706 781 3412 
Q 1013 4119 1484 4856 
L 1984 4856 
z
" transform="scale(0.015625)"/>
       <path id="DejaVuSans-Oblique-3bb" d="M 2350 4316 
L 3125 0 
L 2516 0 
L 2038 2588 
L 328 0 
L -281 0 
L 1903 3356 
L 1794 3975 
Q 1725 4369 1391 4369 
L 1091 4369 
L 1184 4863 
L 1550 4856 
Q 2253 4847 2350 4316 
z
" transform="scale(0.015625)"/>
       <path id="DejaVuSans-29" d="M 513 4856 
L 1013 4856 
Q 1481 4119 1714 3412 
Q 1947 2706 1947 2009 
Q 1947 1309 1714 600 
Q 1481 -109 1013 -844 
L 513 -844 
Q 928 -128 1133 580 
Q 1338 1288 1338 2009 
Q 1338 2731 1133 3434 
Q 928 4138 513 4856 
z
" transform="scale(0.015625)"/>
      </defs>
      <use xlink:href="#DejaVuSans-Oblique-53" transform="translate(0 0.015625)"/>
      <use xlink:href="#DejaVuSans-Oblique-73" transform="translate(63.476562 -16.390625) scale(0.7)"/>
      <use xlink:href="#DejaVuSans-Oblique-63" transform="translate(99.946289 -16.390625) scale(0.7)"/>
      <use xlink:href="#DejaVuSans-28" transform="translate(141.166992 0.015625)"/>
      <use xlink:href="#DejaVuSans-Oblique-3bb" transform="translate(180.180664 0.015625)"/>
      <use xlink:href="#DejaVuSans-29" transform="translate(239.360352 0.015625)"/>
     </g>
    </g>
    <g id="line2d_29">
     <path d="M 469.55175 69.716625 
L 482.75175 69.716625 
L 495.95175 69.716625 
" style="fill: none; stroke: #2ca02c; stroke-width: 1.5; stroke-linecap: square"/>
    </g>
    <g id="text_29">
     <!-- $S_{mc}(\lambda)$ -->
     <g transform="translate(506.51175 74.336625) scale(0.132 -0.132)">
      <defs>
       <path id="DejaVuSans-Oblique-6d" d="M 5747 2113 
L 5338 0 
L 4763 0 
L 5166 2094 
Q 5191 2228 5203 2325 
Q 5216 2422 5216 2491 
Q 5216 2772 5059 2928 
Q 4903 3084 4622 3084 
Q 4203 3084 3875 2770 
Q 3547 2456 3450 1953 
L 3066 0 
L 2491 0 
L 2900 2094 
Q 2925 2209 2937 2307 
Q 2950 2406 2950 2484 
Q 2950 2769 2794 2926 
Q 2638 3084 2363 3084 
Q 1938 3084 1609 2770 
Q 1281 2456 1184 1953 
L 800 0 
L 225 0 
L 909 3500 
L 1484 3500 
L 1375 2956 
Q 1609 3263 1923 3423 
Q 2238 3584 2597 3584 
Q 2978 3584 3223 3384 
Q 3469 3184 3519 2828 
Q 3781 3197 4126 3390 
Q 4472 3584 4856 3584 
Q 5306 3584 5551 3325 
Q 5797 3066 5797 2591 
Q 5797 2488 5784 2364 
Q 5772 2241 5747 2113 
z
" transform="scale(0.015625)"/>
      </defs>
      <use xlink:href="#DejaVuSans-Oblique-53" transform="translate(0 0.015625)"/>
      <use xlink:href="#DejaVuSans-Oblique-6d" transform="translate(63.476562 -16.390625) scale(0.7)"/>
      <use xlink:href="#DejaVuSans-Oblique-63" transform="translate(131.665039 -16.390625) scale(0.7)"/>
      <use xlink:href="#DejaVuSans-28" transform="translate(172.885742 0.015625)"/>
      <use xlink:href="#DejaVuSans-Oblique-3bb" transform="translate(211.899414 0.015625)"/>
      <use xlink:href="#DejaVuSans-29" transform="translate(271.079102 0.015625)"/>
     </g>
    </g>
    <g id="line2d_30">
     <path d="M 469.55175 88.724625 
L 482.75175 88.724625 
L 495.95175 88.724625 
" style="fill: none; stroke: #d62728; stroke-width: 1.5; stroke-linecap: square"/>
    </g>
    <g id="text_30">
     <!-- $S_{lc}(\lambda)$ -->
     <g transform="translate(506.51175 93.344625) scale(0.132 -0.132)">
      <defs>
       <path id="DejaVuSans-Oblique-6c" d="M 1172 4863 
L 1747 4863 
L 800 0 
L 225 0 
L 1172 4863 
z
" transform="scale(0.015625)"/>
      </defs>
      <use xlink:href="#DejaVuSans-Oblique-53" transform="translate(0 0.015625)"/>
      <use xlink:href="#DejaVuSans-Oblique-6c" transform="translate(63.476562 -16.390625) scale(0.7)"/>
      <use xlink:href="#DejaVuSans-Oblique-63" transform="translate(82.924805 -16.390625) scale(0.7)"/>
      <use xlink:href="#DejaVuSans-28" transform="translate(124.145508 0.015625)"/>
      <use xlink:href="#DejaVuSans-Oblique-3bb" transform="translate(163.15918 0.015625)"/>
      <use xlink:href="#DejaVuSans-29" transform="translate(222.338867 0.015625)"/>
     </g>
    </g>
    <g id="line2d_31">
     <path d="M 469.55175 107.600625 
L 482.75175 107.600625 
L 495.95175 107.600625 
" style="fill: none; stroke: #7f7f7f; stroke-width: 1.5; stroke-linecap: square"/>
    </g>
    <g id="text_31">
     <!-- $S_{rh}(\lambda)$ -->
     <g transform="translate(506.51175 112.220625) scale(0.132 -0.132)">
      <defs>
       <path id="DejaVuSans-Oblique-72" d="M 2853 2969 
Q 2766 3016 2653 3041 
Q 2541 3066 2413 3066 
Q 1953 3066 1609 2717 
Q 1266 2369 1153 1784 
L 800 0 
L 225 0 
L 909 3500 
L 1484 3500 
L 1375 2956 
Q 1603 3259 1920 3421 
Q 2238 3584 2597 3584 
Q 2691 3584 2781 3573 
Q 2872 3563 2963 3538 
L 2853 2969 
z
" transform="scale(0.015625)"/>
       <path id="DejaVuSans-Oblique-68" d="M 3566 2113 
L 3156 0 
L 2578 0 
L 2988 2091 
Q 3016 2238 3031 2350 
Q 3047 2463 3047 2528 
Q 3047 2791 2881 2937 
Q 2716 3084 2419 3084 
Q 1956 3084 1617 2771 
Q 1278 2459 1178 1941 
L 800 0 
L 225 0 
L 1172 4863 
L 1747 4863 
L 1375 2950 
Q 1594 3244 1934 3414 
Q 2275 3584 2650 3584 
Q 3113 3584 3367 3334 
Q 3622 3084 3622 2631 
Q 3622 2519 3608 2391 
Q 3594 2263 3566 2113 
z
" transform="scale(0.015625)"/>
      </defs>
      <use xlink:href="#DejaVuSans-Oblique-53" transform="translate(0 0.015625)"/>
      <use xlink:href="#DejaVuSans-Oblique-72" transform="translate(63.476562 -16.390625) scale(0.7)"/>
      <use xlink:href="#DejaVuSans-Oblique-68" transform="translate(92.255859 -16.390625) scale(0.7)"/>
      <use xlink:href="#DejaVuSans-28" transform="translate(139.355469 0.015625)"/>
      <use xlink:href="#DejaVuSans-Oblique-3bb" transform="translate(178.369141 0.015625)"/>
      <use xlink:href="#DejaVuSans-29" transform="translate(237.548828 0.015625)"/>
     </g>
    </g>
    <g id="line2d_32">
     <path d="M 469.55175 126.608625 
L 482.75175 126.608625 
L 495.95175 126.608625 
" style="fill: none; stroke: #17becf; stroke-width: 1.5; stroke-linecap: square"/>
    </g>
    <g id="text_32">
     <!-- $S_{mel}(\lambda)$ -->
     <g transform="translate(506.51175 131.228625) scale(0.132 -0.132)">
      <defs>
       <path id="DejaVuSans-Oblique-65" d="M 3078 2063 
Q 3088 2113 3092 2166 
Q 3097 2219 3097 2272 
Q 3097 2653 2873 2875 
Q 2650 3097 2266 3097 
Q 1838 3097 1509 2826 
Q 1181 2556 1013 2059 
L 3078 2063 
z
M 3578 1613 
L 903 1613 
Q 884 1494 878 1425 
Q 872 1356 872 1306 
Q 872 872 1139 634 
Q 1406 397 1894 397 
Q 2269 397 2603 481 
Q 2938 566 3225 728 
L 3116 159 
Q 2806 34 2476 -28 
Q 2147 -91 1806 -91 
Q 1078 -91 686 257 
Q 294 606 294 1247 
Q 294 1794 489 2264 
Q 684 2734 1063 3103 
Q 1306 3334 1642 3459 
Q 1978 3584 2356 3584 
Q 2950 3584 3301 3228 
Q 3653 2872 3653 2272 
Q 3653 2128 3634 1964 
Q 3616 1800 3578 1613 
z
" transform="scale(0.015625)"/>
      </defs>
      <use xlink:href="#DejaVuSans-Oblique-53" transform="translate(0 0.015625)"/>
      <use xlink:href="#DejaVuSans-Oblique-6d" transform="translate(63.476562 -16.390625) scale(0.7)"/>
      <use xlink:href="#DejaVuSans-Oblique-65" transform="translate(131.665039 -16.390625) scale(0.7)"/>
      <use xlink:href="#DejaVuSans-Oblique-6c" transform="translate(174.731445 -16.390625) scale(0.7)"/>
      <use xlink:href="#DejaVuSans-28" transform="translate(196.914062 0.015625)"/>
      <use xlink:href="#DejaVuSans-Oblique-3bb" transform="translate(235.927734 0.015625)"/>
      <use xlink:href="#DejaVuSans-29" transform="translate(295.107422 0.015625)"/>
     </g>
    </g>
   </g>
  </g>
  <g id="axes_3">
   <g id="patch_13">
    <path d="M 634.9425 233.028 
L 848.448 233.028 
L 848.448 33.792 
L 634.9425 33.792 
z
" style="fill: #ffffff"/>
   </g>
   <g id="patch_14">
    <path d="M 645.617775 233.028 
L 666.968325 233.028 
L 666.968325 144.987188 
L 645.617775 144.987188 
z
" clip-path="url(#p93a3307574)" style="fill: #1f77b4"/>
   </g>
   <g id="patch_15">
    <path d="M 688.318875 233.028 
L 709.669425 233.028 
L 709.669425 78.773966 
L 688.318875 78.773966 
z
" clip-path="url(#p93a3307574)" style="fill: #2ca02c"/>
   </g>
   <g id="patch_16">
    <path d="M 731.019975 233.028 
L 752.370525 233.028 
L 752.370525 43.279429 
L 731.019975 43.279429 
z
" clip-path="url(#p93a3307574)" style="fill: #d62728"/>
   </g>
   <g id="patch_17">
    <path d="M 773.721075 233.028 
L 795.071625 233.028 
L 795.071625 85.00748 
L 773.721075 85.00748 
z
" clip-path="url(#p93a3307574)" style="fill: #7f7f7f"/>
   </g>
   <g id="patch_18">
    <path d="M 816.422175 233.028 
L 837.772725 233.028 
L 837.772725 99.054582 
L 816.422175 99.054582 
z
" clip-path="url(#p93a3307574)" style="fill: #17becf"/>
   </g>
   <g id="matplotlib.axis_5">
    <g id="xtick_11">
     <g id="line2d_33">
      <g>
       <use xlink:href="#mb3ddcb9242" x="656.29305" y="233.028" style="stroke: #000000; stroke-width: 1.25"/>
      </g>
     </g>
     <g id="text_33">
      <!-- $E_{sc}$ -->
      <g transform="translate(646.98705 251.996938) scale(0.132 -0.132)">
       <defs>
        <path id="DejaVuSans-Oblique-45" d="M 1081 4666 
L 4031 4666 
L 3928 4134 
L 1606 4134 
L 1338 2753 
L 3566 2753 
L 3463 2222 
L 1234 2222 
L 909 531 
L 3284 531 
L 3181 0 
L 172 0 
L 1081 4666 
z
" transform="scale(0.015625)"/>
       </defs>
       <use xlink:href="#DejaVuSans-Oblique-45" transform="translate(0 0.09375)"/>
       <use xlink:href="#DejaVuSans-Oblique-73" transform="translate(63.183594 -16.3125) scale(0.7)"/>
       <use xlink:href="#DejaVuSans-Oblique-63" transform="translate(99.65332 -16.3125) scale(0.7)"/>
      </g>
     </g>
    </g>
    <g id="xtick_12">
     <g id="line2d_34">
      <g>
       <use xlink:href="#mb3ddcb9242" x="698.99415" y="233.028" style="stroke: #000000; stroke-width: 1.25"/>
      </g>
     </g>
     <g id="text_34">
      <!-- $E_{mc}$ -->
      <g transform="translate(687.57615 251.996938) scale(0.132 -0.132)">
       <use xlink:href="#DejaVuSans-Oblique-45" transform="translate(0 0.09375)"/>
       <use xlink:href="#DejaVuSans-Oblique-6d" transform="translate(63.183594 -16.3125) scale(0.7)"/>
       <use xlink:href="#DejaVuSans-Oblique-63" transform="translate(131.37207 -16.3125) scale(0.7)"/>
      </g>
     </g>
    </g>
    <g id="xtick_13">
     <g id="line2d_35">
      <g>
       <use xlink:href="#mb3ddcb9242" x="741.69525" y="233.028" style="stroke: #000000; stroke-width: 1.25"/>
      </g>
     </g>
     <g id="text_35">
      <!-- $E_{lc}$ -->
      <g transform="translate(733.51125 251.996938) scale(0.132 -0.132)">
       <use xlink:href="#DejaVuSans-Oblique-45" transform="translate(0 0.09375)"/>
       <use xlink:href="#DejaVuSans-Oblique-6c" transform="translate(63.183594 -16.3125) scale(0.7)"/>
       <use xlink:href="#DejaVuSans-Oblique-63" transform="translate(82.631836 -16.3125) scale(0.7)"/>
      </g>
     </g>
    </g>
    <g id="xtick_14">
     <g id="line2d_36">
      <g>
       <use xlink:href="#mb3ddcb9242" x="784.39635" y="233.028" style="stroke: #000000; stroke-width: 1.25"/>
      </g>
     </g>
     <g id="text_36">
      <!-- $E_{rh}$ -->
      <g transform="translate(775.15635 251.996938) scale(0.132 -0.132)">
       <use xlink:href="#DejaVuSans-Oblique-45" transform="translate(0 0.09375)"/>
       <use xlink:href="#DejaVuSans-Oblique-72" transform="translate(63.183594 -16.3125) scale(0.7)"/>
       <use xlink:href="#DejaVuSans-Oblique-68" transform="translate(91.962891 -16.3125) scale(0.7)"/>
      </g>
     </g>
    </g>
    <g id="xtick_15">
     <g id="line2d_37">
      <g>
       <use xlink:href="#mb3ddcb9242" x="827.09745" y="233.028" style="stroke: #000000; stroke-width: 1.25"/>
      </g>
     </g>
     <g id="text_37">
      <!-- $E_{mel}$ -->
      <g transform="translate(814.09545 251.996938) scale(0.132 -0.132)">
       <use xlink:href="#DejaVuSans-Oblique-45" transform="translate(0 0.09375)"/>
       <use xlink:href="#DejaVuSans-Oblique-6d" transform="translate(63.183594 -16.3125) scale(0.7)"/>
       <use xlink:href="#DejaVuSans-Oblique-65" transform="translate(131.37207 -16.3125) scale(0.7)"/>
       <use xlink:href="#DejaVuSans-Oblique-6c" transform="translate(174.438477 -16.3125) scale(0.7)"/>
      </g>
     </g>
    </g>
   </g>
   <g id="matplotlib.axis_6">
    <g id="ytick_12">
     <g id="line2d_38">
      <g>
       <use xlink:href="#mb1acfab0eb" x="634.9425" y="233.028" style="stroke: #000000; stroke-width: 1.25"/>
      </g>
     </g>
     <g id="text_38">
      <!-- 0 -->
      <g transform="translate(618.102062 237.762469) scale(0.132 -0.132)">
       <use xlink:href="#Helvetica-30"/>
      </g>
     </g>
    </g>
    <g id="ytick_13">
     <g id="line2d_39">
      <g>
       <use xlink:href="#mb1acfab0eb" x="634.9425" y="194.733797" style="stroke: #000000; stroke-width: 1.25"/>
      </g>
     </g>
     <g id="text_39">
      <!-- 10 -->
      <g transform="translate(610.761625 199.468265) scale(0.132 -0.132)">
       <use xlink:href="#Helvetica-31"/>
       <use xlink:href="#Helvetica-30" x="55.615234"/>
      </g>
     </g>
    </g>
    <g id="ytick_14">
     <g id="line2d_40">
      <g>
       <use xlink:href="#mb1acfab0eb" x="634.9425" y="156.439593" style="stroke: #000000; stroke-width: 1.25"/>
      </g>
     </g>
     <g id="text_40">
      <!-- 20 -->
      <g transform="translate(610.761625 161.174062) scale(0.132 -0.132)">
       <use xlink:href="#Helvetica-32"/>
       <use xlink:href="#Helvetica-30" x="55.615234"/>
      </g>
     </g>
    </g>
    <g id="ytick_15">
     <g id="line2d_41">
      <g>
       <use xlink:href="#mb1acfab0eb" x="634.9425" y="118.14539" style="stroke: #000000; stroke-width: 1.25"/>
      </g>
     </g>
     <g id="text_41">
      <!-- 30 -->
      <g transform="translate(610.761625 122.879859) scale(0.132 -0.132)">
       <defs>
        <path id="Helvetica-33" d="M 1663 -122 
Q 869 -122 511 314 
Q 153 750 153 1375 
L 741 1375 
Q 778 941 903 744 
Q 1122 391 1694 391 
Q 2138 391 2406 628 
Q 2675 866 2675 1241 
Q 2675 1703 2392 1887 
Q 2109 2072 1606 2072 
Q 1550 2072 1492 2070 
Q 1434 2069 1375 2066 
L 1375 2563 
Q 1463 2553 1522 2550 
Q 1581 2547 1650 2547 
Q 1966 2547 2169 2647 
Q 2525 2822 2525 3272 
Q 2525 3606 2287 3787 
Q 2050 3969 1734 3969 
Q 1172 3969 956 3594 
Q 838 3388 822 3006 
L 266 3006 
Q 266 3506 466 3856 
Q 809 4481 1675 4481 
Q 2359 4481 2734 4176 
Q 3109 3872 3109 3294 
Q 3109 2881 2888 2625 
Q 2750 2466 2531 2375 
Q 2884 2278 3082 2001 
Q 3281 1725 3281 1325 
Q 3281 684 2859 281 
Q 2438 -122 1663 -122 
z
" transform="scale(0.015625)"/>
       </defs>
       <use xlink:href="#Helvetica-33"/>
       <use xlink:href="#Helvetica-30" x="55.615234"/>
      </g>
     </g>
    </g>
    <g id="ytick_16">
     <g id="line2d_42">
      <g>
       <use xlink:href="#mb1acfab0eb" x="634.9425" y="79.851187" style="stroke: #000000; stroke-width: 1.25"/>
      </g>
     </g>
     <g id="text_42">
      <!-- 40 -->
      <g transform="translate(610.761625 84.585655) scale(0.132 -0.132)">
       <use xlink:href="#Helvetica-34"/>
       <use xlink:href="#Helvetica-30" x="55.615234"/>
      </g>
     </g>
    </g>
    <g id="ytick_17">
     <g id="line2d_43">
      <g>
       <use xlink:href="#mb1acfab0eb" x="634.9425" y="41.556983" style="stroke: #000000; stroke-width: 1.25"/>
      </g>
     </g>
     <g id="text_43">
      <!-- 50 -->
      <g transform="translate(610.761625 46.291452) scale(0.132 -0.132)">
       <use xlink:href="#Helvetica-35"/>
       <use xlink:href="#Helvetica-30" x="55.615234"/>
      </g>
     </g>
    </g>
    <g id="text_44">
     <!-- mW/m$^2$ -->
     <g transform="translate(603.760125 157.674) rotate(-90) scale(0.144 -0.144)">
      <use xlink:href="#Helvetica-6d" transform="translate(0 0.765625)"/>
      <use xlink:href="#Helvetica-57" transform="translate(83.300781 0.765625)"/>
      <use xlink:href="#Helvetica-2f" transform="translate(177.685547 0.765625)"/>
      <use xlink:href="#Helvetica-6d" transform="translate(205.46875 0.765625)"/>
      <use xlink:href="#DejaVuSans-32" transform="translate(289.726562 39.046875) scale(0.7)"/>
     </g>
    </g>
   </g>
   <g id="patch_19">
    <path d="M 634.9425 233.028 
L 634.9425 33.792 
" style="fill: none; stroke: #000000; stroke-width: 1.25; stroke-linejoin: miter; stroke-linecap: square"/>
   </g>
   <g id="patch_20">
    <path d="M 848.448 233.028 
L 848.448 33.792 
" style="fill: none; stroke: #000000; stroke-width: 1.25; stroke-linejoin: miter; stroke-linecap: square"/>
   </g>
   <g id="patch_21">
    <path d="M 634.9425 233.028 
L 848.448 233.028 
" style="fill: none; stroke: #000000; stroke-width: 1.25; stroke-linejoin: miter; stroke-linecap: square"/>
   </g>
   <g id="patch_22">
    <path d="M 634.9425 33.792 
L 848.448 33.792 
" style="fill: none; stroke: #000000; stroke-width: 1.25; stroke-linejoin: miter; stroke-linecap: square"/>
   </g>
   <g id="text_45">
    <!-- $\alpha$-opic irradiance -->
    <g transform="translate(687.69525 27.792) scale(0.144 -0.144)">
     <use xlink:href="#DejaVuSans-Oblique-3b1" transform="translate(0 0.03125)"/>
     <use xlink:href="#Helvetica-2d" transform="translate(65.917969 0.03125)"/>
     <use xlink:href="#Helvetica-6f" transform="translate(99.21875 0.03125)"/>
     <use xlink:href="#Helvetica-70" transform="translate(154.833984 0.03125)"/>
     <use xlink:href="#Helvetica-69" transform="translate(210.449219 0.03125)"/>
     <use xlink:href="#Helvetica-63" transform="translate(232.666016 0.03125)"/>
     <use xlink:href="#Helvetica-20" transform="translate(282.666016 0.03125)"/>
     <use xlink:href="#Helvetica-69" transform="translate(310.449219 0.03125)"/>
     <use xlink:href="#Helvetica-72" transform="translate(332.666016 0.03125)"/>
     <use xlink:href="#Helvetica-72" transform="translate(365.966797 0.03125)"/>
     <use xlink:href="#Helvetica-61" transform="translate(399.267578 0.03125)"/>
     <use xlink:href="#Helvetica-64" transform="translate(454.882812 0.03125)"/>
     <use xlink:href="#Helvetica-69" transform="translate(510.498047 0.03125)"/>
     <use xlink:href="#Helvetica-61" transform="translate(532.714844 0.03125)"/>
     <use xlink:href="#Helvetica-6e" transform="translate(588.330078 0.03125)"/>
     <use xlink:href="#Helvetica-63" transform="translate(643.945312 0.03125)"/>
     <use xlink:href="#Helvetica-65" transform="translate(693.945312 0.03125)"/>
    </g>
   </g>
  </g>
 </g>
 <defs>
  <clipPath id="p59e939aea6">
   <rect x="63.27" y="33.792" width="213.5055" height="199.236"/>
  </clipPath>
  <clipPath id="pdddb3333b0">
   <rect x="349.10625" y="33.792" width="213.5055" height="199.236"/>
  </clipPath>
  <clipPath id="p93a3307574">
   <rect x="634.9425" y="33.792" width="213.5055" height="199.236"/>
  </clipPath>
 </defs>
</svg>
