<?xml version="1.0" encoding="utf-8" standalone="no"?>
<!DOCTYPE svg PUBLIC "-//W3C//DTD SVG 1.1//EN"
  "http://www.w3.org/Graphics/SVG/1.1/DTD/svg11.dtd">
<svg xmlns:xlink="http://www.w3.org/1999/xlink" width="864pt" height="252pt" viewBox="0 0 864 252" xmlns="http://www.w3.org/2000/svg" version="1.1">
 <metadata>
  <rdf:RDF xmlns:dc="http://purl.org/dc/elements/1.1/" xmlns:cc="http://creativecommons.org/ns#" xmlns:rdf="http://www.w3.org/1999/02/22-rdf-syntax-ns#">
   <cc:Work>
    <dc:type rdf:resource="http://purl.org/dc/dcmitype/StillImage"/>
    <dc:date>2022-09-12T12:31:47.755974</dc:date>
    <dc:format>image/svg+xml</dc:format>
    <dc:creator>
     <cc:Agent>
      <dc:title>Matplotlib v3.5.2, https://matplotlib.org/</dc:title>
     </cc:Agent>
    </dc:creator>
   </cc:Work>
  </rdf:RDF>
 </metadata>
 <defs>
  <style type="text/css">*{stroke-linejoin: round; stroke-linecap: butt}</style>
 </defs>
 <g id="figure_1">
  <g id="patch_1">
   <path d="M 0 252 
L 864 252 
L 864 0 
L 0 0 
z
" style="fill: #ffffff"/>
  </g>
  <g id="axes_1">
   <g id="patch_2">
    <path d="M 66.15 197.028 
L 277.896 197.028 
L 277.896 32.352 
L 66.15 32.352 
z
" style="fill: #ffffff"/>
   </g>
   <g id="matplotlib.axis_1">
    <g id="xtick_1">
     <g id="line2d_1">
      <defs>
       <path id="m913d592f80" d="M 0 0 
L 0 6 
" style="stroke: #000000; stroke-width: 1.25"/>
      </defs>
      <g>
       <use xlink:href="#m913d592f80" x="85.399636" y="197.028" style="stroke: #000000; stroke-width: 1.25"/>
      </g>
     </g>
     <g id="text_1">
      <!-- 400 -->
      <g transform="translate(74.38898 215.996938)scale(0.132 -0.132)">
       <defs>
        <path id="Helvetica-34" d="M 2116 1584 
L 2116 3613 
L 681 1584 
L 2116 1584 
z
M 2125 0 
L 2125 1094 
L 163 1094 
L 163 1644 
L 2213 4488 
L 2688 4488 
L 2688 1584 
L 3347 1584 
L 3347 1094 
L 2688 1094 
L 2688 0 
L 2125 0 
z
" transform="scale(0.015625)"/>
        <path id="Helvetica-30" d="M 1731 4475 
Q 2600 4475 2988 3759 
Q 3288 3206 3288 2244 
Q 3288 1331 3016 734 
Q 2622 -122 1728 -122 
Q 922 -122 528 578 
Q 200 1163 200 2147 
Q 200 2909 397 3456 
Q 766 4475 1731 4475 
z
M 1725 391 
Q 2163 391 2422 778 
Q 2681 1166 2681 2222 
Q 2681 2984 2493 3476 
Q 2306 3969 1766 3969 
Q 1269 3969 1039 3501 
Q 809 3034 809 2125 
Q 809 1441 956 1025 
Q 1181 391 1725 391 
z
" transform="scale(0.015625)"/>
       </defs>
       <use xlink:href="#Helvetica-34"/>
       <use xlink:href="#Helvetica-30" x="55.615234"/>
       <use xlink:href="#Helvetica-30" x="111.230469"/>
      </g>
     </g>
    </g>
    <g id="xtick_2">
     <g id="line2d_2">
      <g>
       <use xlink:href="#m913d592f80" x="133.523727" y="197.028" style="stroke: #000000; stroke-width: 1.25"/>
      </g>
     </g>
     <g id="text_2">
      <!-- 500 -->
      <g transform="translate(122.513071 215.996938)scale(0.132 -0.132)">
       <defs>
        <path id="Helvetica-35" d="M 791 1141 
Q 847 659 1238 475 
Q 1438 381 1700 381 
Q 2200 381 2440 700 
Q 2681 1019 2681 1406 
Q 2681 1875 2395 2131 
Q 2109 2388 1709 2388 
Q 1419 2388 1211 2275 
Q 1003 2163 856 1963 
L 369 1991 
L 709 4400 
L 3034 4400 
L 3034 3856 
L 1131 3856 
L 941 2613 
Q 1097 2731 1238 2791 
Q 1488 2894 1816 2894 
Q 2431 2894 2859 2497 
Q 3288 2100 3288 1491 
Q 3288 856 2895 371 
Q 2503 -113 1644 -113 
Q 1097 -113 676 195 
Q 256 503 206 1141 
L 791 1141 
z
" transform="scale(0.015625)"/>
       </defs>
       <use xlink:href="#Helvetica-35"/>
       <use xlink:href="#Helvetica-30" x="55.615234"/>
       <use xlink:href="#Helvetica-30" x="111.230469"/>
      </g>
     </g>
    </g>
    <g id="xtick_3">
     <g id="line2d_3">
      <g>
       <use xlink:href="#m913d592f80" x="181.647818" y="197.028" style="stroke: #000000; stroke-width: 1.25"/>
      </g>
     </g>
     <g id="text_3">
      <!-- 600 -->
      <g transform="translate(170.637162 215.996938)scale(0.132 -0.132)">
       <defs>
        <path id="Helvetica-36" d="M 1872 4494 
Q 2622 4494 2917 4105 
Q 3213 3716 3213 3303 
L 2656 3303 
Q 2606 3569 2497 3719 
Q 2294 4000 1881 4000 
Q 1409 4000 1131 3564 
Q 853 3128 822 2316 
Q 1016 2600 1309 2741 
Q 1578 2866 1909 2866 
Q 2472 2866 2890 2506 
Q 3309 2147 3309 1434 
Q 3309 825 2912 354 
Q 2516 -116 1781 -116 
Q 1153 -116 697 361 
Q 241 838 241 1966 
Q 241 2800 444 3381 
Q 834 4494 1872 4494 
z
M 1831 384 
Q 2275 384 2495 682 
Q 2716 981 2716 1388 
Q 2716 1731 2519 2042 
Q 2322 2353 1803 2353 
Q 1441 2353 1167 2112 
Q 894 1872 894 1388 
Q 894 963 1142 673 
Q 1391 384 1831 384 
z
" transform="scale(0.015625)"/>
       </defs>
       <use xlink:href="#Helvetica-36"/>
       <use xlink:href="#Helvetica-30" x="55.615234"/>
       <use xlink:href="#Helvetica-30" x="111.230469"/>
      </g>
     </g>
    </g>
    <g id="xtick_4">
     <g id="line2d_4">
      <g>
       <use xlink:href="#m913d592f80" x="229.771909" y="197.028" style="stroke: #000000; stroke-width: 1.25"/>
      </g>
     </g>
     <g id="text_4">
      <!-- 700 -->
      <g transform="translate(218.761253 215.996938)scale(0.132 -0.132)">
       <defs>
        <path id="Helvetica-37" d="M 3347 4400 
L 3347 3909 
Q 3131 3700 2773 3181 
Q 2416 2663 2141 2063 
Q 1869 1478 1728 997 
Q 1638 688 1494 0 
L 872 0 
Q 1084 1281 1809 2550 
Q 2238 3294 2709 3834 
L 234 3834 
L 234 4400 
L 3347 4400 
z
" transform="scale(0.015625)"/>
       </defs>
       <use xlink:href="#Helvetica-37"/>
       <use xlink:href="#Helvetica-30" x="55.615234"/>
       <use xlink:href="#Helvetica-30" x="111.230469"/>
      </g>
     </g>
    </g>
    <g id="xtick_5">
     <g id="line2d_5">
      <g>
       <use xlink:href="#m913d592f80" x="277.896" y="197.028" style="stroke: #000000; stroke-width: 1.25"/>
      </g>
     </g>
     <g id="text_5">
      <!-- 800 -->
      <g transform="translate(266.885344 215.996938)scale(0.132 -0.132)">
       <defs>
        <path id="Helvetica-38" d="M 1741 2600 
Q 2113 2600 2322 2808 
Q 2531 3016 2531 3303 
Q 2531 3553 2331 3762 
Q 2131 3972 1722 3972 
Q 1316 3972 1134 3762 
Q 953 3553 953 3272 
Q 953 2956 1187 2778 
Q 1422 2600 1741 2600 
z
M 1775 384 
Q 2166 384 2423 595 
Q 2681 806 2681 1225 
Q 2681 1659 2415 1884 
Q 2150 2109 1734 2109 
Q 1331 2109 1076 1879 
Q 822 1650 822 1244 
Q 822 894 1055 639 
Q 1288 384 1775 384 
z
M 975 2384 
Q 741 2484 609 2619 
Q 363 2869 363 3269 
Q 363 3769 725 4128 
Q 1088 4488 1753 4488 
Q 2397 4488 2762 4148 
Q 3128 3809 3128 3356 
Q 3128 2938 2916 2678 
Q 2797 2531 2547 2391 
Q 2825 2263 2984 2097 
Q 3281 1784 3281 1284 
Q 3281 694 2884 283 
Q 2488 -128 1763 -128 
Q 1109 -128 657 226 
Q 206 581 206 1256 
Q 206 1653 400 1942 
Q 594 2231 975 2384 
z
" transform="scale(0.015625)"/>
       </defs>
       <use xlink:href="#Helvetica-38"/>
       <use xlink:href="#Helvetica-30" x="55.615234"/>
       <use xlink:href="#Helvetica-30" x="111.230469"/>
      </g>
     </g>
    </g>
    <g id="text_6">
     <!-- Wavelength (nm) -->
     <g transform="translate(117.207375 233.246812)scale(0.144 -0.144)">
      <defs>
       <path id="Helvetica-57" d="M 791 4591 
L 1656 856 
L 2694 4591 
L 3369 4591 
L 4406 856 
L 5272 4591 
L 5953 4591 
L 4747 0 
L 4094 0 
L 3034 3806 
L 1969 0 
L 1316 0 
L 116 4591 
L 791 4591 
z
" transform="scale(0.015625)"/>
       <path id="Helvetica-61" d="M 844 891 
Q 844 647 1022 506 
Q 1200 366 1444 366 
Q 1741 366 2019 503 
Q 2488 731 2488 1250 
L 2488 1703 
Q 2384 1638 2221 1594 
Q 2059 1550 1903 1531 
L 1563 1488 
Q 1256 1447 1103 1359 
Q 844 1213 844 891 
z
M 2206 2028 
Q 2400 2053 2466 2191 
Q 2503 2266 2503 2406 
Q 2503 2694 2298 2823 
Q 2094 2953 1713 2953 
Q 1272 2953 1088 2716 
Q 984 2584 953 2325 
L 428 2325 
Q 444 2944 830 3186 
Q 1216 3428 1725 3428 
Q 2316 3428 2684 3203 
Q 3050 2978 3050 2503 
L 3050 575 
Q 3050 488 3086 434 
Q 3122 381 3238 381 
Q 3275 381 3322 386 
Q 3369 391 3422 400 
L 3422 -16 
Q 3291 -53 3222 -62 
Q 3153 -72 3034 -72 
Q 2744 -72 2613 134 
Q 2544 244 2516 444 
Q 2344 219 2022 53 
Q 1700 -113 1313 -113 
Q 847 -113 551 170 
Q 256 453 256 878 
Q 256 1344 547 1600 
Q 838 1856 1309 1916 
L 2206 2028 
z
M 1741 3428 
L 1741 3428 
z
" transform="scale(0.015625)"/>
       <path id="Helvetica-76" d="M 688 3347 
L 1581 622 
L 2516 3347 
L 3131 3347 
L 1869 0 
L 1269 0 
L 34 3347 
L 688 3347 
z
" transform="scale(0.015625)"/>
       <path id="Helvetica-65" d="M 1806 3422 
Q 2163 3422 2497 3255 
Q 2831 3088 3006 2822 
Q 3175 2569 3231 2231 
Q 3281 2000 3281 1494 
L 828 1494 
Q 844 984 1069 676 
Q 1294 369 1766 369 
Q 2206 369 2469 659 
Q 2619 828 2681 1050 
L 3234 1050 
Q 3213 866 3089 639 
Q 2966 413 2813 269 
Q 2556 19 2178 -69 
Q 1975 -119 1719 -119 
Q 1094 -119 659 336 
Q 225 791 225 1609 
Q 225 2416 662 2919 
Q 1100 3422 1806 3422 
z
M 2703 1941 
Q 2669 2306 2544 2525 
Q 2313 2931 1772 2931 
Q 1384 2931 1121 2651 
Q 859 2372 844 1941 
L 2703 1941 
z
M 1753 3428 
L 1753 3428 
z
" transform="scale(0.015625)"/>
       <path id="Helvetica-6c" d="M 428 4591 
L 991 4591 
L 991 0 
L 428 0 
L 428 4591 
z
" transform="scale(0.015625)"/>
       <path id="Helvetica-6e" d="M 413 3347 
L 947 3347 
L 947 2872 
Q 1184 3166 1450 3294 
Q 1716 3422 2041 3422 
Q 2753 3422 3003 2925 
Q 3141 2653 3141 2147 
L 3141 0 
L 2569 0 
L 2569 2109 
Q 2569 2416 2478 2603 
Q 2328 2916 1934 2916 
Q 1734 2916 1606 2875 
Q 1375 2806 1200 2600 
Q 1059 2434 1017 2257 
Q 975 2081 975 1753 
L 975 0 
L 413 0 
L 413 3347 
z
M 1734 3428 
L 1734 3428 
z
" transform="scale(0.015625)"/>
       <path id="Helvetica-67" d="M 1594 3406 
Q 1988 3406 2281 3213 
Q 2441 3103 2606 2894 
L 2606 3316 
L 3125 3316 
L 3125 272 
Q 3125 -366 2938 -734 
Q 2588 -1416 1616 -1416 
Q 1075 -1416 706 -1173 
Q 338 -931 294 -416 
L 866 -416 
Q 906 -641 1028 -763 
Q 1219 -950 1628 -950 
Q 2275 -950 2475 -494 
Q 2594 -225 2584 466 
Q 2416 209 2178 84 
Q 1941 -41 1550 -41 
Q 1006 -41 598 345 
Q 191 731 191 1622 
Q 191 2463 602 2934 
Q 1013 3406 1594 3406 
z
M 2606 1688 
Q 2606 2309 2350 2609 
Q 2094 2909 1697 2909 
Q 1103 2909 884 2353 
Q 769 2056 769 1575 
Q 769 1009 998 714 
Q 1228 419 1616 419 
Q 2222 419 2469 966 
Q 2606 1275 2606 1688 
z
M 1659 3428 
L 1659 3428 
z
" transform="scale(0.015625)"/>
       <path id="Helvetica-74" d="M 525 4281 
L 1094 4281 
L 1094 3347 
L 1628 3347 
L 1628 2888 
L 1094 2888 
L 1094 703 
Q 1094 528 1213 469 
Q 1278 434 1431 434 
Q 1472 434 1519 436 
Q 1566 438 1628 444 
L 1628 0 
Q 1531 -28 1426 -40 
Q 1322 -53 1200 -53 
Q 806 -53 665 148 
Q 525 350 525 672 
L 525 2888 
L 72 2888 
L 72 3347 
L 525 3347 
L 525 4281 
z
" transform="scale(0.015625)"/>
       <path id="Helvetica-68" d="M 413 4606 
L 975 4606 
L 975 2894 
Q 1175 3147 1334 3250 
Q 1606 3428 2013 3428 
Q 2741 3428 3000 2919 
Q 3141 2641 3141 2147 
L 3141 0 
L 2563 0 
L 2563 2109 
Q 2563 2478 2469 2650 
Q 2316 2925 1894 2925 
Q 1544 2925 1259 2684 
Q 975 2444 975 1775 
L 975 0 
L 413 0 
L 413 4606 
z
" transform="scale(0.015625)"/>
       <path id="Helvetica-20" transform="scale(0.015625)"/>
       <path id="Helvetica-28" d="M 1894 4666 
Q 1403 3713 1256 3263 
Q 1034 2578 1034 1681 
Q 1034 775 1288 25 
Q 1444 -438 1903 -1306 
L 1525 -1306 
Q 1069 -594 959 -397 
Q 850 -200 722 138 
Q 547 600 478 1125 
Q 444 1397 444 1644 
Q 444 2569 734 3291 
Q 919 3750 1503 4666 
L 1894 4666 
z
" transform="scale(0.015625)"/>
       <path id="Helvetica-6d" d="M 413 3347 
L 969 3347 
L 969 2872 
Q 1169 3119 1331 3231 
Q 1609 3422 1963 3422 
Q 2363 3422 2606 3225 
Q 2744 3113 2856 2894 
Q 3044 3163 3297 3292 
Q 3550 3422 3866 3422 
Q 4541 3422 4784 2934 
Q 4916 2672 4916 2228 
L 4916 0 
L 4331 0 
L 4331 2325 
Q 4331 2659 4164 2784 
Q 3997 2909 3756 2909 
Q 3425 2909 3186 2687 
Q 2947 2466 2947 1947 
L 2947 0 
L 2375 0 
L 2375 2184 
Q 2375 2525 2294 2681 
Q 2166 2916 1816 2916 
Q 1497 2916 1236 2669 
Q 975 2422 975 1775 
L 975 0 
L 413 0 
L 413 3347 
z
" transform="scale(0.015625)"/>
       <path id="Helvetica-29" d="M 222 -1306 
Q 719 -338 863 106 
Q 1081 778 1081 1681 
Q 1081 2584 828 3334 
Q 672 3797 213 4666 
L 591 4666 
Q 1072 3897 1173 3717 
Q 1275 3538 1394 3222 
Q 1544 2831 1608 2450 
Q 1672 2069 1672 1716 
Q 1672 791 1378 66 
Q 1194 -400 613 -1306 
L 222 -1306 
z
" transform="scale(0.015625)"/>
      </defs>
      <use xlink:href="#Helvetica-57"/>
      <use xlink:href="#Helvetica-61" x="94.384766"/>
      <use xlink:href="#Helvetica-76" x="150"/>
      <use xlink:href="#Helvetica-65" x="200"/>
      <use xlink:href="#Helvetica-6c" x="255.615234"/>
      <use xlink:href="#Helvetica-65" x="277.832031"/>
      <use xlink:href="#Helvetica-6e" x="333.447266"/>
      <use xlink:href="#Helvetica-67" x="389.0625"/>
      <use xlink:href="#Helvetica-74" x="444.677734"/>
      <use xlink:href="#Helvetica-68" x="472.460938"/>
      <use xlink:href="#Helvetica-20" x="528.076172"/>
      <use xlink:href="#Helvetica-28" x="555.859375"/>
      <use xlink:href="#Helvetica-6e" x="589.160156"/>
      <use xlink:href="#Helvetica-6d" x="644.775391"/>
      <use xlink:href="#Helvetica-29" x="728.076172"/>
     </g>
    </g>
   </g>
   <g id="matplotlib.axis_2">
    <g id="ytick_1">
     <g id="line2d_6">
      <defs>
       <path id="m983c2ecadf" d="M 0 0 
L -6 0 
" style="stroke: #000000; stroke-width: 1.25"/>
      </defs>
      <g>
       <use xlink:href="#m983c2ecadf" x="66.15" y="190.571145" style="stroke: #000000; stroke-width: 1.25"/>
      </g>
     </g>
     <g id="text_7">
      <!-- 0.0 -->
      <g transform="translate(38.302 195.305614)scale(0.132 -0.132)">
       <defs>
        <path id="Helvetica-2e" d="M 547 681 
L 1200 681 
L 1200 0 
L 547 0 
L 547 681 
z
" transform="scale(0.015625)"/>
       </defs>
       <use xlink:href="#Helvetica-30"/>
       <use xlink:href="#Helvetica-2e" x="55.615234"/>
       <use xlink:href="#Helvetica-30" x="83.398438"/>
      </g>
     </g>
    </g>
    <g id="ytick_2">
     <g id="line2d_7">
      <g>
       <use xlink:href="#m983c2ecadf" x="66.15" y="160.644686" style="stroke: #000000; stroke-width: 1.25"/>
      </g>
     </g>
     <g id="text_8">
      <!-- 0.1 -->
      <g transform="translate(38.302 165.379155)scale(0.132 -0.132)">
       <defs>
        <path id="Helvetica-31" d="M 613 3169 
L 613 3600 
Q 1222 3659 1462 3798 
Q 1703 3938 1822 4456 
L 2266 4456 
L 2266 0 
L 1666 0 
L 1666 3169 
L 613 3169 
z
" transform="scale(0.015625)"/>
       </defs>
       <use xlink:href="#Helvetica-30"/>
       <use xlink:href="#Helvetica-2e" x="55.615234"/>
       <use xlink:href="#Helvetica-31" x="83.398438"/>
      </g>
     </g>
    </g>
    <g id="ytick_3">
     <g id="line2d_8">
      <g>
       <use xlink:href="#m983c2ecadf" x="66.15" y="130.718227" style="stroke: #000000; stroke-width: 1.25"/>
      </g>
     </g>
     <g id="text_9">
      <!-- 0.2 -->
      <g transform="translate(38.302 135.452696)scale(0.132 -0.132)">
       <defs>
        <path id="Helvetica-32" d="M 200 0 
Q 231 578 439 1006 
Q 647 1434 1250 1784 
L 1850 2131 
Q 2253 2366 2416 2531 
Q 2672 2791 2672 3125 
Q 2672 3516 2437 3745 
Q 2203 3975 1813 3975 
Q 1234 3975 1013 3538 
Q 894 3303 881 2888 
L 309 2888 
Q 319 3472 525 3841 
Q 891 4491 1816 4491 
Q 2584 4491 2939 4075 
Q 3294 3659 3294 3150 
Q 3294 2613 2916 2231 
Q 2697 2009 2131 1694 
L 1703 1456 
Q 1397 1288 1222 1134 
Q 909 863 828 531 
L 3272 531 
L 3272 0 
L 200 0 
z
" transform="scale(0.015625)"/>
       </defs>
       <use xlink:href="#Helvetica-30"/>
       <use xlink:href="#Helvetica-2e" x="55.615234"/>
       <use xlink:href="#Helvetica-32" x="83.398438"/>
      </g>
     </g>
    </g>
    <g id="ytick_4">
     <g id="line2d_9">
      <g>
       <use xlink:href="#m983c2ecadf" x="66.15" y="100.791768" style="stroke: #000000; stroke-width: 1.25"/>
      </g>
     </g>
     <g id="text_10">
      <!-- 0.3 -->
      <g transform="translate(38.302 105.526237)scale(0.132 -0.132)">
       <defs>
        <path id="Helvetica-33" d="M 1663 -122 
Q 869 -122 511 314 
Q 153 750 153 1375 
L 741 1375 
Q 778 941 903 744 
Q 1122 391 1694 391 
Q 2138 391 2406 628 
Q 2675 866 2675 1241 
Q 2675 1703 2392 1887 
Q 2109 2072 1606 2072 
Q 1550 2072 1492 2070 
Q 1434 2069 1375 2066 
L 1375 2563 
Q 1463 2553 1522 2550 
Q 1581 2547 1650 2547 
Q 1966 2547 2169 2647 
Q 2525 2822 2525 3272 
Q 2525 3606 2287 3787 
Q 2050 3969 1734 3969 
Q 1172 3969 956 3594 
Q 838 3388 822 3006 
L 266 3006 
Q 266 3506 466 3856 
Q 809 4481 1675 4481 
Q 2359 4481 2734 4176 
Q 3109 3872 3109 3294 
Q 3109 2881 2888 2625 
Q 2750 2466 2531 2375 
Q 2884 2278 3082 2001 
Q 3281 1725 3281 1325 
Q 3281 684 2859 281 
Q 2438 -122 1663 -122 
z
" transform="scale(0.015625)"/>
       </defs>
       <use xlink:href="#Helvetica-30"/>
       <use xlink:href="#Helvetica-2e" x="55.615234"/>
       <use xlink:href="#Helvetica-33" x="83.398438"/>
      </g>
     </g>
    </g>
    <g id="ytick_5">
     <g id="line2d_10">
      <g>
       <use xlink:href="#m983c2ecadf" x="66.15" y="70.865309" style="stroke: #000000; stroke-width: 1.25"/>
      </g>
     </g>
     <g id="text_11">
      <!-- 0.4 -->
      <g transform="translate(38.302 75.599778)scale(0.132 -0.132)">
       <use xlink:href="#Helvetica-30"/>
       <use xlink:href="#Helvetica-2e" x="55.615234"/>
       <use xlink:href="#Helvetica-34" x="83.398438"/>
      </g>
     </g>
    </g>
    <g id="ytick_6">
     <g id="line2d_11">
      <g>
       <use xlink:href="#m983c2ecadf" x="66.15" y="40.93885" style="stroke: #000000; stroke-width: 1.25"/>
      </g>
     </g>
     <g id="text_12">
      <!-- 0.5 -->
      <g transform="translate(38.302 45.673319)scale(0.132 -0.132)">
       <use xlink:href="#Helvetica-30"/>
       <use xlink:href="#Helvetica-2e" x="55.615234"/>
       <use xlink:href="#Helvetica-35" x="83.398438"/>
      </g>
     </g>
    </g>
    <g id="text_13">
     <!-- $\mu$W/cm$^2$/nm -->
     <g transform="translate(31.278 153.21)rotate(-90)scale(0.144 -0.144)">
      <defs>
       <path id="DejaVuSans-Oblique-3bc" d="M -84 -1331 
L 856 3500 
L 1434 3500 
L 1009 1322 
Q 997 1256 987 1175 
Q 978 1094 978 1013 
Q 978 722 1161 565 
Q 1344 409 1684 409 
Q 2147 409 2431 671 
Q 2716 934 2816 1459 
L 3213 3500 
L 3788 3500 
L 3266 809 
Q 3253 750 3248 706 
Q 3244 663 3244 628 
Q 3244 531 3283 486 
Q 3322 441 3406 441 
Q 3438 441 3492 456 
Q 3547 472 3647 513 
L 3559 50 
Q 3422 -19 3297 -55 
Q 3172 -91 3053 -91 
Q 2847 -91 2730 40 
Q 2613 172 2613 403 
Q 2438 153 2195 31 
Q 1953 -91 1625 -91 
Q 1334 -91 1117 43 
Q 900 178 831 397 
L 494 -1331 
L -84 -1331 
z
" transform="scale(0.015625)"/>
       <path id="Helvetica-2f" d="M 1456 4591 
L 1931 4591 
L 475 0 
L 0 0 
L 1456 4591 
z
" transform="scale(0.015625)"/>
       <path id="Helvetica-63" d="M 1703 3444 
Q 2269 3444 2623 3169 
Q 2978 2894 3050 2222 
L 2503 2222 
Q 2453 2531 2275 2736 
Q 2097 2941 1703 2941 
Q 1166 2941 934 2416 
Q 784 2075 784 1575 
Q 784 1072 996 728 
Q 1209 384 1666 384 
Q 2016 384 2220 598 
Q 2425 813 2503 1184 
L 3050 1184 
Q 2956 519 2581 211 
Q 2206 -97 1622 -97 
Q 966 -97 575 383 
Q 184 863 184 1581 
Q 184 2463 612 2953 
Q 1041 3444 1703 3444 
z
M 1616 3428 
L 1616 3428 
z
" transform="scale(0.015625)"/>
       <path id="DejaVuSans-32" d="M 1228 531 
L 3431 531 
L 3431 0 
L 469 0 
L 469 531 
Q 828 903 1448 1529 
Q 2069 2156 2228 2338 
Q 2531 2678 2651 2914 
Q 2772 3150 2772 3378 
Q 2772 3750 2511 3984 
Q 2250 4219 1831 4219 
Q 1534 4219 1204 4116 
Q 875 4013 500 3803 
L 500 4441 
Q 881 4594 1212 4672 
Q 1544 4750 1819 4750 
Q 2544 4750 2975 4387 
Q 3406 4025 3406 3419 
Q 3406 3131 3298 2873 
Q 3191 2616 2906 2266 
Q 2828 2175 2409 1742 
Q 1991 1309 1228 531 
z
" transform="scale(0.015625)"/>
      </defs>
      <use xlink:href="#DejaVuSans-Oblique-3bc" transform="translate(0 0.765625)"/>
      <use xlink:href="#Helvetica-57" transform="translate(63.623047 0.765625)"/>
      <use xlink:href="#Helvetica-2f" transform="translate(158.007812 0.765625)"/>
      <use xlink:href="#Helvetica-63" transform="translate(185.791016 0.765625)"/>
      <use xlink:href="#Helvetica-6d" transform="translate(235.791016 0.765625)"/>
      <use xlink:href="#DejaVuSans-32" transform="translate(320.048828 39.046875)scale(0.7)"/>
      <use xlink:href="#Helvetica-2f" transform="translate(367.319336 0.765625)"/>
      <use xlink:href="#Helvetica-6e" transform="translate(395.102539 0.765625)"/>
      <use xlink:href="#Helvetica-6d" transform="translate(450.717773 0.765625)"/>
     </g>
    </g>
   </g>
   <g id="line2d_12">
    <path d="M 75.774818 189.10876 
L 76.256059 189.102729 
L 76.7373 189.229863 
L 77.218541 189.153274 
L 78.181023 189.397464 
L 78.662264 189.239845 
L 79.143505 189.542727 
L 79.624745 189.270514 
L 80.587227 189.133089 
L 81.068468 189.262973 
L 81.549709 189.219356 
L 82.512191 189.2801 
L 83.955914 189.09869 
L 84.437155 189.175598 
L 84.918395 189.136011 
L 85.880877 188.77457 
L 86.362118 188.867197 
L 86.843359 188.67422 
L 87.3246 188.666069 
L 87.805841 188.408302 
L 88.287082 188.297149 
L 89.249564 187.664255 
L 89.730805 187.453563 
L 91.174527 185.923195 
L 91.655768 185.032639 
L 92.137009 184.586992 
L 93.580732 181.371218 
L 94.543214 178.95341 
L 95.024455 176.608516 
L 95.986936 172.803678 
L 96.949418 168.151959 
L 98.393141 162.060238 
L 99.836864 157.284846 
L 101.280586 151.6933 
L 102.724309 143.205993 
L 103.686791 135.919663 
L 105.611755 117.868311 
L 106.574236 110.254266 
L 107.536718 103.30705 
L 108.017959 101.445831 
L 108.4992 101.489284 
L 108.980441 100.78263 
L 109.461682 102.398628 
L 109.942923 104.483695 
L 111.386645 108.449021 
L 111.867886 109.021716 
L 112.349127 108.884599 
L 113.311609 106.13501 
L 113.79285 103.383287 
L 114.274091 101.452346 
L 114.755332 99.996482 
L 115.236573 95.889469 
L 116.199055 94.137725 
L 116.680295 92.442702 
L 117.161536 91.770306 
L 117.642777 90.50167 
L 118.605259 90.36361 
L 119.0865 88.540137 
L 119.567741 88.731076 
L 120.048982 89.224546 
L 120.530223 88.8882 
L 121.011464 89.827762 
L 121.492705 90.434851 
L 121.973945 92.682802 
L 122.455186 94.076186 
L 122.936427 96.756892 
L 123.898909 101.05864 
L 124.861391 106.911668 
L 125.342632 108.185326 
L 126.305114 112.410463 
L 126.786355 112.874895 
L 127.748836 114.603497 
L 128.711318 113.673193 
L 129.192559 113.205537 
L 129.6738 110.99356 
L 130.155041 110.590948 
L 130.636282 108.15937 
L 131.117523 107.008801 
L 131.598764 104.503624 
L 132.080005 102.859385 
L 132.561245 99.001403 
L 133.042486 97.30497 
L 133.523727 93.481662 
L 134.004968 90.741042 
L 134.486209 86.89928 
L 134.96745 84.164495 
L 135.448691 82.362244 
L 135.929932 78.401645 
L 136.411173 76.814094 
L 137.373655 72.617987 
L 137.854895 71.124743 
L 138.336136 70.892188 
L 138.817377 68.476811 
L 139.298618 67.887801 
L 139.779859 68.405656 
L 140.2611 66.591332 
L 140.742341 66.169938 
L 141.223582 65.497004 
L 141.704823 65.388049 
L 142.186064 66.015691 
L 142.667305 65.344073 
L 143.148545 65.504576 
L 143.629786 65.128217 
L 144.592268 67.284705 
L 145.073509 68.805804 
L 145.55475 69.698298 
L 146.035991 70.852062 
L 146.998473 75.439731 
L 147.479714 76.797987 
L 147.960955 79.439159 
L 148.442195 81.324603 
L 148.923436 83.751645 
L 149.885918 87.270405 
L 150.367159 89.560178 
L 151.329641 93.044382 
L 152.292123 96.749719 
L 152.773364 98.058023 
L 153.254605 99.836241 
L 153.735845 102.175985 
L 155.179568 106.286918 
L 155.660809 107.196573 
L 156.623291 110.098327 
L 157.104532 110.47835 
L 158.067014 112.384211 
L 158.548255 112.519423 
L 159.029495 113.57969 
L 159.510736 114.230769 
L 159.991977 113.943131 
L 160.473218 115.006151 
L 160.954459 115.203393 
L 161.916941 116.296544 
L 162.398182 116.114718 
L 162.879423 117.487803 
L 163.360664 117.0039 
L 163.841905 118.071662 
L 164.323145 117.931892 
L 164.804386 118.773618 
L 165.285627 118.945797 
L 165.766868 119.376388 
L 166.248109 119.05434 
L 167.210591 119.994916 
L 167.691832 119.958016 
L 168.654314 120.430021 
L 169.135555 120.384601 
L 169.616795 120.850392 
L 170.098036 120.546431 
L 170.579277 121.136628 
L 171.060518 120.98085 
L 172.023 122.36508 
L 172.504241 121.985041 
L 172.985482 122.870421 
L 173.466723 122.939882 
L 173.947964 123.711633 
L 174.429205 124.00417 
L 174.910445 124.77982 
L 175.391686 124.911671 
L 177.31665 127.062239 
L 177.797891 127.294527 
L 178.279132 128.046222 
L 178.760373 128.151829 
L 179.241614 128.769632 
L 181.166577 130.437068 
L 181.647818 130.601397 
L 182.129059 131.100903 
L 182.6103 131.305985 
L 183.091541 132.009837 
L 185.016505 133.535081 
L 185.497745 134.255767 
L 185.978986 134.290634 
L 186.460227 134.649979 
L 186.941468 134.869737 
L 187.422709 134.915121 
L 187.90395 134.806878 
L 188.385191 135.050692 
L 188.866432 134.542138 
L 189.347673 134.898856 
L 189.828914 134.126502 
L 190.310155 133.848071 
L 191.272636 132.66607 
L 191.753877 131.248259 
L 192.235118 130.954757 
L 194.641323 123.424482 
L 195.603805 119.221932 
L 196.085045 116.271745 
L 196.566286 114.688279 
L 198.49125 102.488663 
L 198.972491 100.458463 
L 199.453732 97.496165 
L 200.897455 92.781646 
L 201.859936 92.92923 
L 202.341177 92.751346 
L 202.822418 92.88732 
L 203.303659 93.306499 
L 203.7849 92.325456 
L 204.266141 91.079469 
L 204.747382 90.386647 
L 205.228623 87.010213 
L 205.709864 85.333757 
L 207.634827 67.798977 
L 208.597309 56.792543 
L 209.07855 51.294086 
L 209.559791 47.84662 
L 210.041032 43.16185 
L 210.522273 40.655492 
L 211.003514 39.837273 
L 211.484755 40.93129 
L 211.965995 45.517912 
L 212.928477 60.766507 
L 213.890959 82.798596 
L 215.815923 126.709539 
L 216.778405 142.473398 
L 217.740886 153.822783 
L 218.222127 158.20605 
L 219.66585 167.283478 
L 221.109573 172.927876 
L 222.072055 175.498889 
L 223.034536 177.231601 
L 223.997018 178.957041 
L 224.478259 179.582191 
L 225.440741 180.374078 
L 226.403223 181.552552 
L 226.884464 181.741306 
L 228.328186 182.829517 
L 229.290668 183.409431 
L 229.771909 183.531407 
L 230.734391 184.182315 
L 231.215632 184.370896 
L 231.696873 184.424781 
L 233.140595 185.030563 
L 234.103077 185.26129 
L 234.584318 185.60185 
L 235.5468 185.58962 
L 236.028041 185.883898 
L 237.471764 186.218144 
L 240.359209 186.802924 
L 242.284173 187.117463 
L 242.765414 187.058548 
L 244.209136 187.480661 
L 244.690377 187.423222 
L 245.652859 187.750649 
L 246.1341 187.657106 
L 247.096582 187.796807 
L 248.059064 187.876281 
L 249.984027 188.036199 
L 250.946509 188.321912 
L 251.42775 188.178768 
L 252.390232 188.307123 
L 252.871473 188.519477 
L 253.352714 188.316692 
L 253.833955 188.421748 
L 254.315195 188.309948 
L 255.277677 188.516637 
L 256.7214 188.638456 
L 257.202641 188.543628 
L 259.127605 188.745632 
L 261.052568 188.835284 
L 261.533809 188.891728 
L 262.496291 188.760178 
L 263.458773 188.970554 
L 267.3087 189.023261 
L 267.789941 189.10142 
L 268.271182 188.897273 
L 268.271182 188.897273 
" clip-path="url(#p4105fc07b5)" style="fill: none; stroke: #1f77b4; stroke-width: 1.5; stroke-linecap: square"/>
   </g>
   <g id="patch_3">
    <path d="M 66.15 197.028 
L 66.15 32.352 
" style="fill: none; stroke: #000000; stroke-width: 1.25; stroke-linejoin: miter; stroke-linecap: square"/>
   </g>
   <g id="patch_4">
    <path d="M 277.896 197.028 
L 277.896 32.352 
" style="fill: none; stroke: #000000; stroke-width: 1.25; stroke-linejoin: miter; stroke-linecap: square"/>
   </g>
   <g id="patch_5">
    <path d="M 66.15 197.028 
L 277.896 197.028 
" style="fill: none; stroke: #000000; stroke-width: 1.25; stroke-linejoin: miter; stroke-linecap: square"/>
   </g>
   <g id="patch_6">
    <path d="M 66.15 32.352 
L 277.896 32.352 
" style="fill: none; stroke: #000000; stroke-width: 1.25; stroke-linejoin: miter; stroke-linecap: square"/>
   </g>
   <g id="text_14">
    <!-- Measured spectrum -->
    <g transform="translate(108.402 26.352)scale(0.144 -0.144)">
     <defs>
      <path id="Helvetica-4d" d="M 472 4591 
L 1363 4591 
L 2681 709 
L 3991 4591 
L 4872 4591 
L 4872 0 
L 4281 0 
L 4281 2709 
Q 4281 2850 4287 3175 
Q 4294 3500 4294 3872 
L 2984 0 
L 2369 0 
L 1050 3872 
L 1050 3731 
Q 1050 3563 1058 3217 
Q 1066 2872 1066 2709 
L 1066 0 
L 472 0 
L 472 4591 
z
" transform="scale(0.015625)"/>
      <path id="Helvetica-73" d="M 747 1050 
Q 772 769 888 619 
Q 1100 347 1625 347 
Q 1938 347 2175 483 
Q 2413 619 2413 903 
Q 2413 1119 2222 1231 
Q 2100 1300 1741 1391 
L 1294 1503 
Q 866 1609 663 1741 
Q 300 1969 300 2372 
Q 300 2847 642 3140 
Q 984 3434 1563 3434 
Q 2319 3434 2653 2991 
Q 2863 2709 2856 2384 
L 2325 2384 
Q 2309 2575 2191 2731 
Q 1997 2953 1519 2953 
Q 1200 2953 1036 2831 
Q 872 2709 872 2509 
Q 872 2291 1088 2159 
Q 1213 2081 1456 2022 
L 1828 1931 
Q 2434 1784 2641 1647 
Q 2969 1431 2969 969 
Q 2969 522 2630 197 
Q 2291 -128 1597 -128 
Q 850 -128 539 211 
Q 228 550 206 1050 
L 747 1050 
z
M 1578 3428 
L 1578 3428 
z
" transform="scale(0.015625)"/>
      <path id="Helvetica-75" d="M 975 3347 
L 975 1125 
Q 975 869 1056 706 
Q 1206 406 1616 406 
Q 2203 406 2416 931 
Q 2531 1213 2531 1703 
L 2531 3347 
L 3094 3347 
L 3094 0 
L 2563 0 
L 2569 494 
Q 2459 303 2297 172 
Q 1975 -91 1516 -91 
Q 800 -91 541 388 
Q 400 644 400 1072 
L 400 3347 
L 975 3347 
z
M 1747 3428 
L 1747 3428 
z
" transform="scale(0.015625)"/>
      <path id="Helvetica-72" d="M 428 3347 
L 963 3347 
L 963 2769 
Q 1028 2938 1284 3180 
Q 1541 3422 1875 3422 
Q 1891 3422 1928 3419 
Q 1966 3416 2056 3406 
L 2056 2813 
Q 2006 2822 1964 2825 
Q 1922 2828 1872 2828 
Q 1447 2828 1219 2554 
Q 991 2281 991 1925 
L 991 0 
L 428 0 
L 428 3347 
z
" transform="scale(0.015625)"/>
      <path id="Helvetica-64" d="M 769 1634 
Q 769 1097 997 734 
Q 1225 372 1728 372 
Q 2119 372 2370 708 
Q 2622 1044 2622 1672 
Q 2622 2306 2362 2611 
Q 2103 2916 1722 2916 
Q 1297 2916 1033 2591 
Q 769 2266 769 1634 
z
M 1616 3406 
Q 2000 3406 2259 3244 
Q 2409 3150 2600 2916 
L 2600 4606 
L 3141 4606 
L 3141 0 
L 2634 0 
L 2634 466 
Q 2438 156 2169 18 
Q 1900 -119 1553 -119 
Q 994 -119 584 351 
Q 175 822 175 1603 
Q 175 2334 548 2870 
Q 922 3406 1616 3406 
z
" transform="scale(0.015625)"/>
      <path id="Helvetica-70" d="M 1825 378 
Q 2219 378 2480 708 
Q 2741 1038 2741 1694 
Q 2741 2094 2625 2381 
Q 2406 2934 1825 2934 
Q 1241 2934 1025 2350 
Q 909 2038 909 1556 
Q 909 1169 1025 897 
Q 1244 378 1825 378 
z
M 369 3331 
L 916 3331 
L 916 2888 
Q 1084 3116 1284 3241 
Q 1569 3428 1953 3428 
Q 2522 3428 2919 2992 
Q 3316 2556 3316 1747 
Q 3316 653 2744 184 
Q 2381 -113 1900 -113 
Q 1522 -113 1266 53 
Q 1116 147 931 375 
L 931 -1334 
L 369 -1334 
L 369 3331 
z
" transform="scale(0.015625)"/>
     </defs>
     <use xlink:href="#Helvetica-4d"/>
     <use xlink:href="#Helvetica-65" x="83.300781"/>
     <use xlink:href="#Helvetica-61" x="138.916016"/>
     <use xlink:href="#Helvetica-73" x="194.53125"/>
     <use xlink:href="#Helvetica-75" x="244.53125"/>
     <use xlink:href="#Helvetica-72" x="300.146484"/>
     <use xlink:href="#Helvetica-65" x="333.447266"/>
     <use xlink:href="#Helvetica-64" x="389.0625"/>
     <use xlink:href="#Helvetica-20" x="444.677734"/>
     <use xlink:href="#Helvetica-73" x="472.460938"/>
     <use xlink:href="#Helvetica-70" x="522.460938"/>
     <use xlink:href="#Helvetica-65" x="578.076172"/>
     <use xlink:href="#Helvetica-63" x="633.691406"/>
     <use xlink:href="#Helvetica-74" x="683.691406"/>
     <use xlink:href="#Helvetica-72" x="711.474609"/>
     <use xlink:href="#Helvetica-75" x="744.775391"/>
     <use xlink:href="#Helvetica-6d" x="800.390625"/>
    </g>
   </g>
  </g>
  <g id="axes_2">
   <g id="patch_7">
    <path d="M 351.426 197.028 
L 563.172 197.028 
L 563.172 32.352 
L 351.426 32.352 
z
" style="fill: #ffffff"/>
   </g>
   <g id="matplotlib.axis_3">
    <g id="xtick_6">
     <g id="line2d_13">
      <g>
       <use xlink:href="#m913d592f80" x="370.675636" y="197.028" style="stroke: #000000; stroke-width: 1.25"/>
      </g>
     </g>
     <g id="text_15">
      <!-- 400 -->
      <g transform="translate(359.66498 215.996938)scale(0.132 -0.132)">
       <use xlink:href="#Helvetica-34"/>
       <use xlink:href="#Helvetica-30" x="55.615234"/>
       <use xlink:href="#Helvetica-30" x="111.230469"/>
      </g>
     </g>
    </g>
    <g id="xtick_7">
     <g id="line2d_14">
      <g>
       <use xlink:href="#m913d592f80" x="418.799727" y="197.028" style="stroke: #000000; stroke-width: 1.25"/>
      </g>
     </g>
     <g id="text_16">
      <!-- 500 -->
      <g transform="translate(407.789071 215.996938)scale(0.132 -0.132)">
       <use xlink:href="#Helvetica-35"/>
       <use xlink:href="#Helvetica-30" x="55.615234"/>
       <use xlink:href="#Helvetica-30" x="111.230469"/>
      </g>
     </g>
    </g>
    <g id="xtick_8">
     <g id="line2d_15">
      <g>
       <use xlink:href="#m913d592f80" x="466.923818" y="197.028" style="stroke: #000000; stroke-width: 1.25"/>
      </g>
     </g>
     <g id="text_17">
      <!-- 600 -->
      <g transform="translate(455.913162 215.996938)scale(0.132 -0.132)">
       <use xlink:href="#Helvetica-36"/>
       <use xlink:href="#Helvetica-30" x="55.615234"/>
       <use xlink:href="#Helvetica-30" x="111.230469"/>
      </g>
     </g>
    </g>
    <g id="xtick_9">
     <g id="line2d_16">
      <g>
       <use xlink:href="#m913d592f80" x="515.047909" y="197.028" style="stroke: #000000; stroke-width: 1.25"/>
      </g>
     </g>
     <g id="text_18">
      <!-- 700 -->
      <g transform="translate(504.037253 215.996938)scale(0.132 -0.132)">
       <use xlink:href="#Helvetica-37"/>
       <use xlink:href="#Helvetica-30" x="55.615234"/>
       <use xlink:href="#Helvetica-30" x="111.230469"/>
      </g>
     </g>
    </g>
    <g id="xtick_10">
     <g id="line2d_17">
      <g>
       <use xlink:href="#m913d592f80" x="563.172" y="197.028" style="stroke: #000000; stroke-width: 1.25"/>
      </g>
     </g>
     <g id="text_19">
      <!-- 800 -->
      <g transform="translate(552.161344 215.996938)scale(0.132 -0.132)">
       <use xlink:href="#Helvetica-38"/>
       <use xlink:href="#Helvetica-30" x="55.615234"/>
       <use xlink:href="#Helvetica-30" x="111.230469"/>
      </g>
     </g>
    </g>
    <g id="text_20">
     <!-- Wavelength (nm) -->
     <g transform="translate(402.483375 233.246812)scale(0.144 -0.144)">
      <use xlink:href="#Helvetica-57"/>
      <use xlink:href="#Helvetica-61" x="94.384766"/>
      <use xlink:href="#Helvetica-76" x="150"/>
      <use xlink:href="#Helvetica-65" x="200"/>
      <use xlink:href="#Helvetica-6c" x="255.615234"/>
      <use xlink:href="#Helvetica-65" x="277.832031"/>
      <use xlink:href="#Helvetica-6e" x="333.447266"/>
      <use xlink:href="#Helvetica-67" x="389.0625"/>
      <use xlink:href="#Helvetica-74" x="444.677734"/>
      <use xlink:href="#Helvetica-68" x="472.460938"/>
      <use xlink:href="#Helvetica-20" x="528.076172"/>
      <use xlink:href="#Helvetica-28" x="555.859375"/>
      <use xlink:href="#Helvetica-6e" x="589.160156"/>
      <use xlink:href="#Helvetica-6d" x="644.775391"/>
      <use xlink:href="#Helvetica-29" x="728.076172"/>
     </g>
    </g>
   </g>
   <g id="matplotlib.axis_4">
    <g id="ytick_7">
     <g id="line2d_18">
      <g>
       <use xlink:href="#m983c2ecadf" x="351.426" y="189.542727" style="stroke: #000000; stroke-width: 1.25"/>
      </g>
     </g>
     <g id="text_21">
      <!-- 0.0 -->
      <g transform="translate(323.578 194.277196)scale(0.132 -0.132)">
       <use xlink:href="#Helvetica-30"/>
       <use xlink:href="#Helvetica-2e" x="55.615234"/>
       <use xlink:href="#Helvetica-30" x="83.398438"/>
      </g>
     </g>
    </g>
    <g id="ytick_8">
     <g id="line2d_19">
      <g>
       <use xlink:href="#m983c2ecadf" x="351.426" y="159.601636" style="stroke: #000000; stroke-width: 1.25"/>
      </g>
     </g>
     <g id="text_22">
      <!-- 0.2 -->
      <g transform="translate(323.578 164.336105)scale(0.132 -0.132)">
       <use xlink:href="#Helvetica-30"/>
       <use xlink:href="#Helvetica-2e" x="55.615234"/>
       <use xlink:href="#Helvetica-32" x="83.398438"/>
      </g>
     </g>
    </g>
    <g id="ytick_9">
     <g id="line2d_20">
      <g>
       <use xlink:href="#m983c2ecadf" x="351.426" y="129.660545" style="stroke: #000000; stroke-width: 1.25"/>
      </g>
     </g>
     <g id="text_23">
      <!-- 0.4 -->
      <g transform="translate(323.578 134.395014)scale(0.132 -0.132)">
       <use xlink:href="#Helvetica-30"/>
       <use xlink:href="#Helvetica-2e" x="55.615234"/>
       <use xlink:href="#Helvetica-34" x="83.398438"/>
      </g>
     </g>
    </g>
    <g id="ytick_10">
     <g id="line2d_21">
      <g>
       <use xlink:href="#m983c2ecadf" x="351.426" y="99.719455" style="stroke: #000000; stroke-width: 1.25"/>
      </g>
     </g>
     <g id="text_24">
      <!-- 0.6 -->
      <g transform="translate(323.578 104.453923)scale(0.132 -0.132)">
       <use xlink:href="#Helvetica-30"/>
       <use xlink:href="#Helvetica-2e" x="55.615234"/>
       <use xlink:href="#Helvetica-36" x="83.398438"/>
      </g>
     </g>
    </g>
    <g id="ytick_11">
     <g id="line2d_22">
      <g>
       <use xlink:href="#m983c2ecadf" x="351.426" y="69.778364" style="stroke: #000000; stroke-width: 1.25"/>
      </g>
     </g>
     <g id="text_25">
      <!-- 0.8 -->
      <g transform="translate(323.578 74.512832)scale(0.132 -0.132)">
       <use xlink:href="#Helvetica-30"/>
       <use xlink:href="#Helvetica-2e" x="55.615234"/>
       <use xlink:href="#Helvetica-38" x="83.398438"/>
      </g>
     </g>
    </g>
    <g id="ytick_12">
     <g id="line2d_23">
      <g>
       <use xlink:href="#m983c2ecadf" x="351.426" y="39.837273" style="stroke: #000000; stroke-width: 1.25"/>
      </g>
     </g>
     <g id="text_26">
      <!-- 1.0 -->
      <g transform="translate(323.578 44.571741)scale(0.132 -0.132)">
       <use xlink:href="#Helvetica-31"/>
       <use xlink:href="#Helvetica-2e" x="55.615234"/>
       <use xlink:href="#Helvetica-30" x="83.398438"/>
      </g>
     </g>
    </g>
    <g id="text_27">
     <!-- Spectral sensetivity -->
     <g transform="translate(316.491 176.7135)rotate(-90)scale(0.144 -0.144)">
      <defs>
       <path id="Helvetica-53" d="M 894 1481 
Q 916 1091 1078 847 
Q 1388 391 2169 391 
Q 2519 391 2806 491 
Q 3363 684 3363 1184 
Q 3363 1559 3128 1719 
Q 2891 1875 2384 1991 
L 1763 2131 
Q 1153 2269 900 2434 
Q 463 2722 463 3294 
Q 463 3913 891 4309 
Q 1319 4706 2103 4706 
Q 2825 4706 3329 4357 
Q 3834 4009 3834 3244 
L 3250 3244 
Q 3203 3613 3050 3809 
Q 2766 4169 2084 4169 
Q 1534 4169 1293 3937 
Q 1053 3706 1053 3400 
Q 1053 3063 1334 2906 
Q 1519 2806 2169 2656 
L 2813 2509 
Q 3278 2403 3531 2219 
Q 3969 1897 3969 1284 
Q 3969 522 3414 194 
Q 2859 -134 2125 -134 
Q 1269 -134 784 303 
Q 300 738 309 1481 
L 894 1481 
z
M 2150 4716 
L 2150 4716 
z
" transform="scale(0.015625)"/>
       <path id="Helvetica-69" d="M 413 3331 
L 984 3331 
L 984 0 
L 413 0 
L 413 3331 
z
M 413 4591 
L 984 4591 
L 984 3953 
L 413 3953 
L 413 4591 
z
" transform="scale(0.015625)"/>
       <path id="Helvetica-79" d="M 2503 3347 
L 3125 3347 
Q 3006 3025 2597 1878 
Q 2291 1016 2084 472 
Q 1597 -809 1397 -1090 
Q 1197 -1372 709 -1372 
Q 591 -1372 527 -1362 
Q 463 -1353 369 -1328 
L 369 -816 
Q 516 -856 581 -865 
Q 647 -875 697 -875 
Q 853 -875 926 -823 
Q 1000 -772 1050 -697 
Q 1066 -672 1162 -440 
Q 1259 -209 1303 -97 
L 66 3347 
L 703 3347 
L 1600 622 
L 2503 3347 
z
M 1597 3428 
L 1597 3428 
z
" transform="scale(0.015625)"/>
      </defs>
      <use xlink:href="#Helvetica-53"/>
      <use xlink:href="#Helvetica-70" x="66.699219"/>
      <use xlink:href="#Helvetica-65" x="122.314453"/>
      <use xlink:href="#Helvetica-63" x="177.929688"/>
      <use xlink:href="#Helvetica-74" x="227.929688"/>
      <use xlink:href="#Helvetica-72" x="255.712891"/>
      <use xlink:href="#Helvetica-61" x="289.013672"/>
      <use xlink:href="#Helvetica-6c" x="344.628906"/>
      <use xlink:href="#Helvetica-20" x="366.845703"/>
      <use xlink:href="#Helvetica-73" x="394.628906"/>
      <use xlink:href="#Helvetica-65" x="444.628906"/>
      <use xlink:href="#Helvetica-6e" x="500.244141"/>
      <use xlink:href="#Helvetica-73" x="555.859375"/>
      <use xlink:href="#Helvetica-65" x="605.859375"/>
      <use xlink:href="#Helvetica-74" x="661.474609"/>
      <use xlink:href="#Helvetica-69" x="689.257812"/>
      <use xlink:href="#Helvetica-76" x="711.474609"/>
      <use xlink:href="#Helvetica-69" x="761.474609"/>
      <use xlink:href="#Helvetica-74" x="783.691406"/>
      <use xlink:href="#Helvetica-79" x="811.474609"/>
     </g>
    </g>
   </g>
   <g id="line2d_24">
    <path d="M 361.050818 189.542727 
L 365.381986 189.542727 
L 365.863227 188.623132 
L 366.825709 188.192893 
L 367.788191 187.565867 
L 368.750673 186.663143 
L 369.713155 185.384658 
L 370.675636 183.60975 
L 371.638118 181.203984 
L 372.6006 178.025587 
L 373.563082 173.944916 
L 374.525564 168.877386 
L 375.488045 162.815812 
L 376.931768 152.031032 
L 378.375491 139.262653 
L 382.706659 98.286773 
L 385.594105 72.429647 
L 387.037827 62.475732 
L 389.444032 46.990199 
L 389.925273 44.783541 
L 390.406514 43.229598 
L 390.887755 42.228069 
L 391.368995 41.612779 
L 393.293959 39.98099 
L 393.7752 39.840267 
L 394.256441 40.160637 
L 394.737682 41.135219 
L 395.218923 42.882282 
L 396.181405 47.985741 
L 398.106368 59.096879 
L 401.956295 79.203819 
L 402.918777 86.162129 
L 404.843741 102.361756 
L 407.731186 126.817639 
L 409.174909 137.129351 
L 410.618632 145.717953 
L 412.543595 155.634442 
L 413.987318 161.802307 
L 415.431041 166.591384 
L 416.874764 170.528637 
L 418.799727 175.051389 
L 420.724691 178.942833 
L 422.168414 181.427494 
L 423.130895 182.791161 
L 424.093377 183.881765 
L 425.5371 185.130159 
L 427.462064 186.399512 
L 429.387027 187.328434 
L 431.311991 187.994174 
L 433.718195 188.562681 
L 436.605641 188.978652 
L 440.455568 189.279889 
L 446.230459 189.460829 
L 457.780241 189.534479 
L 535.741268 189.542727 
L 553.547182 189.542727 
L 553.547182 189.542727 
" clip-path="url(#p4bfaa143d6)" style="fill: none; stroke: #1f77b4; stroke-width: 1.5; stroke-linecap: square"/>
   </g>
   <g id="line2d_25">
    <path d="M 361.050818 189.542727 
L 367.30695 189.444811 
L 370.675636 189.187611 
L 373.081841 188.775756 
L 375.006805 188.221891 
L 376.931768 187.440563 
L 378.856732 186.405649 
L 380.781695 185.110548 
L 382.706659 183.600469 
L 384.631623 181.751007 
L 386.556586 179.526983 
L 392.331477 172.143959 
L 397.143886 165.288947 
L 398.106368 163.622725 
L 399.550091 160.619633 
L 401.475055 155.974273 
L 405.324982 146.614688 
L 407.731186 140.542635 
L 409.65615 134.901733 
L 414.468559 119.444645 
L 416.393523 111.251266 
L 420.24345 94.428864 
L 425.5371 69.475959 
L 428.424545 56.42314 
L 429.387027 53.159561 
L 430.349509 50.632533 
L 431.311991 48.608515 
L 432.755714 46.199755 
L 434.199436 44.332928 
L 437.568123 40.329804 
L 438.049364 39.997458 
L 438.530605 39.846255 
L 439.011845 39.883681 
L 439.493086 40.109737 
L 439.974327 40.525918 
L 440.936809 41.903208 
L 443.343014 46.301554 
L 444.786736 48.505219 
L 445.749218 50.575645 
L 447.192941 54.706018 
L 450.080386 63.644931 
L 451.524109 69.193015 
L 453.449073 77.61245 
L 454.892795 84.747412 
L 459.223964 107.605938 
L 466.442577 141.897469 
L 468.848782 151.815456 
L 470.773745 158.74083 
L 472.698709 164.678148 
L 474.623673 169.693281 
L 476.067395 172.911948 
L 477.511118 175.699763 
L 478.954841 178.077685 
L 480.398564 180.078648 
L 481.842286 181.76478 
L 483.286009 183.181144 
L 485.210973 184.705295 
L 487.135936 185.919706 
L 489.0609 186.830064 
L 491.467105 187.622755 
L 494.35455 188.315741 
L 497.241995 188.770651 
L 501.091923 189.11701 
L 506.866814 189.36856 
L 516.010391 189.500624 
L 540.553677 189.541542 
L 553.547182 189.542509 
L 553.547182 189.542509 
" clip-path="url(#p4bfaa143d6)" style="fill: none; stroke: #2ca02c; stroke-width: 1.5; stroke-linecap: square"/>
   </g>
   <g id="line2d_26">
    <path d="M 361.050818 189.542727 
L 367.30695 189.432897 
L 370.675636 189.162371 
L 373.081841 188.746968 
L 375.006805 188.208403 
L 377.89425 187.145494 
L 381.744177 185.372832 
L 384.150382 184.144049 
L 388.48155 181.537378 
L 391.368995 179.823999 
L 393.293959 178.636535 
L 397.625127 175.55425 
L 399.06885 174.129054 
L 400.512573 172.35205 
L 403.400018 168.251618 
L 405.806223 164.622757 
L 407.731186 161.296302 
L 409.65615 157.374019 
L 413.024836 149.68365 
L 414.468559 145.818255 
L 415.912282 141.092054 
L 419.280968 129.075197 
L 421.205932 121.239614 
L 424.574618 106.394821 
L 429.868268 82.632074 
L 431.793232 75.964193 
L 434.199436 68.588205 
L 436.1244 62.580525 
L 438.049364 56.174629 
L 439.011845 53.572748 
L 439.974327 51.577174 
L 440.936809 50.205873 
L 442.861773 48.141434 
L 443.824255 46.621924 
L 445.267977 44.223643 
L 446.230459 43.12181 
L 447.674182 41.987043 
L 450.080386 40.289383 
L 451.042868 39.928593 
L 452.00535 39.843261 
L 452.967832 40.043866 
L 453.930314 40.630712 
L 454.411555 41.121746 
L 455.374036 42.591853 
L 457.299 46.148855 
L 458.261482 47.286616 
L 459.705205 48.852535 
L 460.667686 50.478336 
L 461.630168 52.602657 
L 463.073891 56.426134 
L 464.517614 60.855919 
L 466.442577 67.541764 
L 468.848782 76.679785 
L 470.773745 84.974964 
L 474.623673 103.033933 
L 477.511118 116.383169 
L 479.917323 127.461372 
L 482.323527 138.584488 
L 484.248491 146.454503 
L 486.173455 153.266102 
L 488.098418 159.143538 
L 490.504623 165.908727 
L 492.429586 170.622952 
L 493.873309 173.635026 
L 495.317032 176.21999 
L 496.760755 178.431738 
L 498.204477 180.315182 
L 499.6482 181.910593 
L 501.573164 183.657656 
L 503.498127 185.043929 
L 505.423091 186.133335 
L 507.348055 186.981417 
L 509.754259 187.782341 
L 512.160464 188.321011 
L 515.52915 188.80682 
L 519.860318 189.166473 
L 525.635209 189.389189 
L 535.741268 189.508922 
L 553.547182 189.539943 
L 553.547182 189.539943 
" clip-path="url(#p4bfaa143d6)" style="fill: none; stroke: #d62728; stroke-width: 1.5; stroke-linecap: square"/>
   </g>
   <g id="line2d_27">
    <path d="M 361.050818 189.454551 
L 365.381986 189.255592 
L 367.788191 188.955732 
L 369.713155 188.497783 
L 371.156877 187.940879 
L 372.6006 187.118996 
L 374.044323 185.942311 
L 375.488045 184.326989 
L 376.931768 182.20716 
L 378.375491 179.542403 
L 379.819214 176.293795 
L 381.262936 172.461335 
L 382.706659 168.045024 
L 384.631623 161.413072 
L 387.037827 152.176246 
L 395.700164 117.833815 
L 407.249945 78.012164 
L 411.581114 62.143385 
L 413.987318 54.208996 
L 415.431041 50.017244 
L 416.874764 46.274607 
L 417.837245 44.328436 
L 418.799727 42.531971 
L 420.724691 40.286389 
L 421.205932 40.136684 
L 421.687173 39.837273 
L 422.649655 39.837273 
L 423.130895 40.136684 
L 423.612136 40.286389 
L 424.574618 41.334327 
L 425.5371 42.681676 
L 426.499582 44.627847 
L 427.462064 46.873429 
L 429.387027 52.562236 
L 430.83075 57.801927 
L 432.755714 65.886022 
L 435.643159 79.808629 
L 438.049364 92.234182 
L 443.824255 122.474684 
L 448.155423 142.370539 
L 450.080386 150.035458 
L 452.00535 156.876997 
L 453.930314 162.865215 
L 455.855277 168.045024 
L 457.780241 172.431394 
L 459.705205 176.084207 
L 461.148927 178.389671 
L 462.59265 180.365783 
L 464.036373 182.027513 
L 465.480095 183.419774 
L 467.405059 184.92132 
L 469.330023 186.081537 
L 471.254986 186.970788 
L 473.17995 187.642965 
L 475.586155 188.252266 
L 478.4736 188.737312 
L 482.323527 189.117264 
L 487.135936 189.351703 
L 495.317032 189.492172 
L 515.52915 189.540242 
L 553.547182 189.542706 
L 553.547182 189.542706 
" clip-path="url(#p4bfaa143d6)" style="fill: none; stroke: #7f7f7f; stroke-width: 1.5; stroke-linecap: square"/>
   </g>
   <g id="line2d_28">
    <path d="M 361.050818 189.405274 
L 365.381986 189.133163 
L 367.788191 188.767807 
L 369.231914 188.397331 
L 370.675636 187.831893 
L 371.638118 187.291157 
L 372.6006 186.562541 
L 373.563082 185.602629 
L 374.525564 184.23507 
L 376.450527 180.892746 
L 377.413009 178.841781 
L 378.375491 176.191845 
L 381.262936 166.037474 
L 382.706659 161.532837 
L 384.150382 155.674862 
L 386.556586 145.674538 
L 388.000309 139.2387 
L 390.887755 125.049617 
L 392.812718 116.258913 
L 396.662645 97.568187 
L 404.843741 58.861842 
L 406.287464 53.735927 
L 408.693668 46.111428 
L 409.65615 44.03202 
L 410.618632 42.380768 
L 411.581114 41.24151 
L 413.024836 40.135187 
L 413.506077 39.918114 
L 413.987318 39.837273 
L 414.468559 39.903143 
L 415.431041 40.347768 
L 416.393523 41.031922 
L 416.874764 41.515471 
L 417.837245 43.031987 
L 419.280968 45.999149 
L 420.24345 48.553124 
L 421.687173 53.036803 
L 423.130895 58.39027 
L 424.574618 64.736284 
L 426.980823 76.992669 
L 430.349509 95.598063 
L 435.643159 124.790627 
L 438.049364 136.889822 
L 440.455568 147.753947 
L 442.380532 155.471263 
L 444.305495 162.25292 
L 445.749218 166.697675 
L 447.192941 170.616964 
L 448.636664 174.004798 
L 450.080386 176.915671 
L 451.524109 179.358415 
L 452.967832 181.386325 
L 454.411555 183.070062 
L 455.855277 184.424298 
L 457.299 185.519393 
L 459.223964 186.640537 
L 461.148927 187.457181 
L 463.073891 188.049999 
L 465.480095 188.564432 
L 468.367541 188.954475 
L 472.217468 189.242837 
L 477.992359 189.432002 
L 489.0609 189.525078 
L 535.741268 189.542703 
L 553.547182 189.542724 
L 553.547182 189.542724 
" clip-path="url(#p4bfaa143d6)" style="fill: none; stroke: #17becf; stroke-width: 1.5; stroke-linecap: square"/>
   </g>
   <g id="patch_8">
    <path d="M 351.426 197.028 
L 351.426 32.352 
" style="fill: none; stroke: #000000; stroke-width: 1.25; stroke-linejoin: miter; stroke-linecap: square"/>
   </g>
   <g id="patch_9">
    <path d="M 563.172 197.028 
L 563.172 32.352 
" style="fill: none; stroke: #000000; stroke-width: 1.25; stroke-linejoin: miter; stroke-linecap: square"/>
   </g>
   <g id="patch_10">
    <path d="M 351.426 197.028 
L 563.172 197.028 
" style="fill: none; stroke: #000000; stroke-width: 1.25; stroke-linejoin: miter; stroke-linecap: square"/>
   </g>
   <g id="patch_11">
    <path d="M 351.426 32.352 
L 563.172 32.352 
" style="fill: none; stroke: #000000; stroke-width: 1.25; stroke-linejoin: miter; stroke-linecap: square"/>
   </g>
   <g id="text_28">
    <!-- Photoreceptor action spectra -->
    <g transform="translate(365.252625 26.352)scale(0.144 -0.144)">
     <defs>
      <path id="Helvetica-50" d="M 547 4591 
L 2613 4591 
Q 3225 4591 3600 4245 
Q 3975 3900 3975 3275 
Q 3975 2738 3640 2339 
Q 3306 1941 2613 1941 
L 1169 1941 
L 1169 0 
L 547 0 
L 547 4591 
z
M 3347 3272 
Q 3347 3778 2972 3959 
Q 2766 4056 2406 4056 
L 1169 4056 
L 1169 2466 
L 2406 2466 
Q 2825 2466 3086 2644 
Q 3347 2822 3347 3272 
z
" transform="scale(0.015625)"/>
      <path id="Helvetica-6f" d="M 1741 363 
Q 2300 363 2508 786 
Q 2716 1209 2716 1728 
Q 2716 2197 2566 2491 
Q 2328 2953 1747 2953 
Q 1231 2953 997 2559 
Q 763 2166 763 1609 
Q 763 1075 997 719 
Q 1231 363 1741 363 
z
M 1763 3444 
Q 2409 3444 2856 3012 
Q 3303 2581 3303 1744 
Q 3303 934 2909 406 
Q 2516 -122 1688 -122 
Q 997 -122 590 345 
Q 184 813 184 1600 
Q 184 2444 612 2944 
Q 1041 3444 1763 3444 
z
M 1744 3428 
L 1744 3428 
z
" transform="scale(0.015625)"/>
     </defs>
     <use xlink:href="#Helvetica-50"/>
     <use xlink:href="#Helvetica-68" x="66.699219"/>
     <use xlink:href="#Helvetica-6f" x="122.314453"/>
     <use xlink:href="#Helvetica-74" x="177.929688"/>
     <use xlink:href="#Helvetica-6f" x="205.712891"/>
     <use xlink:href="#Helvetica-72" x="261.328125"/>
     <use xlink:href="#Helvetica-65" x="294.628906"/>
     <use xlink:href="#Helvetica-63" x="350.244141"/>
     <use xlink:href="#Helvetica-65" x="400.244141"/>
     <use xlink:href="#Helvetica-70" x="455.859375"/>
     <use xlink:href="#Helvetica-74" x="511.474609"/>
     <use xlink:href="#Helvetica-6f" x="539.257812"/>
     <use xlink:href="#Helvetica-72" x="594.873047"/>
     <use xlink:href="#Helvetica-20" x="628.173828"/>
     <use xlink:href="#Helvetica-61" x="655.957031"/>
     <use xlink:href="#Helvetica-63" x="711.572266"/>
     <use xlink:href="#Helvetica-74" x="761.572266"/>
     <use xlink:href="#Helvetica-69" x="789.355469"/>
     <use xlink:href="#Helvetica-6f" x="811.572266"/>
     <use xlink:href="#Helvetica-6e" x="867.1875"/>
     <use xlink:href="#Helvetica-20" x="922.802734"/>
     <use xlink:href="#Helvetica-73" x="950.585938"/>
     <use xlink:href="#Helvetica-70" x="1000.585938"/>
     <use xlink:href="#Helvetica-65" x="1056.201172"/>
     <use xlink:href="#Helvetica-63" x="1111.816406"/>
     <use xlink:href="#Helvetica-74" x="1161.816406"/>
     <use xlink:href="#Helvetica-72" x="1189.599609"/>
     <use xlink:href="#Helvetica-61" x="1222.900391"/>
    </g>
   </g>
   <g id="legend_1">
    <g id="patch_12">
     <path d="M 500.696812 137.013562 
L 553.932 137.013562 
Q 556.572 137.013562 556.572 134.373562 
L 556.572 41.592 
Q 556.572 38.952 553.932 38.952 
L 500.696812 38.952 
Q 498.056812 38.952 498.056812 41.592 
L 498.056812 134.373562 
Q 498.056812 137.013562 500.696812 137.013562 
z
" style="fill: #ffffff; opacity: 0.8; stroke: #cccccc; stroke-linejoin: miter"/>
    </g>
    <g id="line2d_29">
     <path d="M 503.336812 49.080937 
L 516.536812 49.080937 
L 529.736812 49.080937 
" style="fill: none; stroke: #1f77b4; stroke-width: 1.5; stroke-linecap: square"/>
    </g>
    <g id="text_29">
     <!-- S -->
     <g transform="translate(540.296812 53.700937)scale(0.132 -0.132)">
      <use xlink:href="#Helvetica-53"/>
     </g>
    </g>
    <g id="line2d_30">
     <path d="M 503.336812 67.90125 
L 516.536812 67.90125 
L 529.736812 67.90125 
" style="fill: none; stroke: #2ca02c; stroke-width: 1.5; stroke-linecap: square"/>
    </g>
    <g id="text_30">
     <!-- M -->
     <g transform="translate(540.296812 72.52125)scale(0.132 -0.132)">
      <use xlink:href="#Helvetica-4d"/>
     </g>
    </g>
    <g id="line2d_31">
     <path d="M 503.336812 86.721562 
L 516.536812 86.721562 
L 529.736812 86.721562 
" style="fill: none; stroke: #d62728; stroke-width: 1.5; stroke-linecap: square"/>
    </g>
    <g id="text_31">
     <!-- L -->
     <g transform="translate(540.296812 91.341562)scale(0.132 -0.132)">
      <defs>
       <path id="Helvetica-4c" d="M 488 4591 
L 1109 4591 
L 1109 547 
L 3434 547 
L 3434 0 
L 488 0 
L 488 4591 
z
" transform="scale(0.015625)"/>
      </defs>
      <use xlink:href="#Helvetica-4c"/>
     </g>
    </g>
    <g id="line2d_32">
     <path d="M 503.336812 105.541875 
L 516.536812 105.541875 
L 529.736812 105.541875 
" style="fill: none; stroke: #7f7f7f; stroke-width: 1.5; stroke-linecap: square"/>
    </g>
    <g id="text_32">
     <!-- R -->
     <g transform="translate(540.296812 110.161875)scale(0.132 -0.132)">
      <defs>
       <path id="Helvetica-52" d="M 2622 2488 
Q 3059 2488 3314 2663 
Q 3569 2838 3569 3294 
Q 3569 3784 3213 3963 
Q 3022 4056 2703 4056 
L 1184 4056 
L 1184 2488 
L 2622 2488 
z
M 563 4591 
L 2688 4591 
Q 3213 4591 3553 4438 
Q 4200 4144 4200 3353 
Q 4200 2941 4029 2678 
Q 3859 2416 3553 2256 
Q 3822 2147 3958 1969 
Q 4094 1791 4109 1391 
L 4131 775 
Q 4141 513 4175 384 
Q 4231 166 4375 103 
L 4375 0 
L 3613 0 
Q 3581 59 3562 153 
Q 3544 247 3531 516 
L 3494 1281 
Q 3472 1731 3159 1884 
Q 2981 1969 2600 1969 
L 1184 1969 
L 1184 0 
L 563 0 
L 563 4591 
z
" transform="scale(0.015625)"/>
      </defs>
      <use xlink:href="#Helvetica-52"/>
     </g>
    </g>
    <g id="line2d_33">
     <path d="M 503.336812 124.362187 
L 516.536812 124.362187 
L 529.736812 124.362187 
" style="fill: none; stroke: #17becf; stroke-width: 1.5; stroke-linecap: square"/>
    </g>
    <g id="text_33">
     <!-- I -->
     <g transform="translate(540.296812 128.982187)scale(0.132 -0.132)">
      <defs>
       <path id="Helvetica-49" d="M 628 4591 
L 1256 4591 
L 1256 0 
L 628 0 
L 628 4591 
z
" transform="scale(0.015625)"/>
      </defs>
      <use xlink:href="#Helvetica-49"/>
     </g>
    </g>
   </g>
  </g>
  <g id="axes_3">
   <g id="patch_13">
    <path d="M 636.702 197.028 
L 848.448 197.028 
L 848.448 32.352 
L 636.702 32.352 
z
" style="fill: #ffffff"/>
   </g>
   <g id="patch_14">
    <path d="M 647.2893 197.028 
L 668.4639 197.028 
L 668.4639 136.160395 
L 647.2893 136.160395 
z
" clip-path="url(#pf3d5df64a5)" style="fill: #1f77b4"/>
   </g>
   <g id="patch_15">
    <path d="M 689.6385 197.028 
L 710.8131 197.028 
L 710.8131 51.936119 
L 689.6385 51.936119 
z
" clip-path="url(#pf3d5df64a5)" style="fill: #2ca02c"/>
   </g>
   <g id="patch_16">
    <path d="M 731.9877 197.028 
L 753.1623 197.028 
L 753.1623 40.193714 
L 731.9877 40.193714 
z
" clip-path="url(#pf3d5df64a5)" style="fill: #d62728"/>
   </g>
   <g id="patch_17">
    <path d="M 774.3369 197.028 
L 795.5115 197.028 
L 795.5115 51.565333 
L 774.3369 51.565333 
z
" clip-path="url(#pf3d5df64a5)" style="fill: #7f7f7f"/>
   </g>
   <g id="patch_18">
    <path d="M 816.6861 197.028 
L 837.8607 197.028 
L 837.8607 67.380511 
L 816.6861 67.380511 
z
" clip-path="url(#pf3d5df64a5)" style="fill: #17becf"/>
   </g>
   <g id="matplotlib.axis_5">
    <g id="xtick_11">
     <g id="line2d_34">
      <g>
       <use xlink:href="#m913d592f80" x="657.8766" y="197.028" style="stroke: #000000; stroke-width: 1.25"/>
      </g>
     </g>
     <g id="text_34">
      <!-- S -->
      <g transform="translate(661.235381 215.332812)rotate(-90)scale(0.132 -0.132)">
       <use xlink:href="#Helvetica-53"/>
      </g>
     </g>
    </g>
    <g id="xtick_12">
     <g id="line2d_35">
      <g>
       <use xlink:href="#m913d592f80" x="700.2258" y="197.028" style="stroke: #000000; stroke-width: 1.25"/>
      </g>
     </g>
     <g id="text_35">
      <!-- M -->
      <g transform="translate(703.584581 217.523187)rotate(-90)scale(0.132 -0.132)">
       <use xlink:href="#Helvetica-4d"/>
      </g>
     </g>
    </g>
    <g id="xtick_13">
     <g id="line2d_36">
      <g>
       <use xlink:href="#m913d592f80" x="742.575" y="197.028" style="stroke: #000000; stroke-width: 1.25"/>
      </g>
     </g>
     <g id="text_36">
      <!-- L -->
      <g transform="translate(745.933781 213.868437)rotate(-90)scale(0.132 -0.132)">
       <use xlink:href="#Helvetica-4c"/>
      </g>
     </g>
    </g>
    <g id="xtick_14">
     <g id="line2d_37">
      <g>
       <use xlink:href="#m913d592f80" x="784.9242" y="197.028" style="stroke: #000000; stroke-width: 1.25"/>
      </g>
     </g>
     <g id="text_37">
      <!-- R -->
      <g transform="translate(788.282981 216.060875)rotate(-90)scale(0.132 -0.132)">
       <use xlink:href="#Helvetica-52"/>
      </g>
     </g>
    </g>
    <g id="xtick_15">
     <g id="line2d_38">
      <g>
       <use xlink:href="#m913d592f80" x="827.2734" y="197.028" style="stroke: #000000; stroke-width: 1.25"/>
      </g>
     </g>
     <g id="text_38">
      <!-- I -->
      <g transform="translate(830.632181 210.195125)rotate(-90)scale(0.132 -0.132)">
       <use xlink:href="#Helvetica-49"/>
      </g>
     </g>
    </g>
   </g>
   <g id="matplotlib.axis_6">
    <g id="ytick_13">
     <g id="line2d_39">
      <g>
       <use xlink:href="#m983c2ecadf" x="636.702" y="197.028" style="stroke: #000000; stroke-width: 1.25"/>
      </g>
     </g>
     <g id="text_39">
      <!-- 0 -->
      <g transform="translate(619.861562 201.762469)scale(0.132 -0.132)">
       <use xlink:href="#Helvetica-30"/>
      </g>
     </g>
    </g>
    <g id="ytick_14">
     <g id="line2d_40">
      <g>
       <use xlink:href="#m983c2ecadf" x="636.702" y="148.87775" style="stroke: #000000; stroke-width: 1.25"/>
      </g>
     </g>
     <g id="text_40">
      <!-- 10 -->
      <g transform="translate(612.521125 153.612218)scale(0.132 -0.132)">
       <use xlink:href="#Helvetica-31"/>
       <use xlink:href="#Helvetica-30" x="55.615234"/>
      </g>
     </g>
    </g>
    <g id="ytick_15">
     <g id="line2d_41">
      <g>
       <use xlink:href="#m983c2ecadf" x="636.702" y="100.727499" style="stroke: #000000; stroke-width: 1.25"/>
      </g>
     </g>
     <g id="text_41">
      <!-- 20 -->
      <g transform="translate(612.521125 105.461968)scale(0.132 -0.132)">
       <use xlink:href="#Helvetica-32"/>
       <use xlink:href="#Helvetica-30" x="55.615234"/>
      </g>
     </g>
    </g>
    <g id="ytick_16">
     <g id="line2d_42">
      <g>
       <use xlink:href="#m983c2ecadf" x="636.702" y="52.577249" style="stroke: #000000; stroke-width: 1.25"/>
      </g>
     </g>
     <g id="text_42">
      <!-- 30 -->
      <g transform="translate(612.521125 57.311717)scale(0.132 -0.132)">
       <use xlink:href="#Helvetica-33"/>
       <use xlink:href="#Helvetica-30" x="55.615234"/>
      </g>
     </g>
    </g>
    <g id="text_43">
     <!-- $\mu$W/cm$^2$ -->
     <g transform="translate(605.497125 141.186)rotate(-90)scale(0.144 -0.144)">
      <use xlink:href="#DejaVuSans-Oblique-3bc" transform="translate(0 0.765625)"/>
      <use xlink:href="#Helvetica-57" transform="translate(63.623047 0.765625)"/>
      <use xlink:href="#Helvetica-2f" transform="translate(158.007812 0.765625)"/>
      <use xlink:href="#Helvetica-63" transform="translate(185.791016 0.765625)"/>
      <use xlink:href="#Helvetica-6d" transform="translate(235.791016 0.765625)"/>
      <use xlink:href="#DejaVuSans-32" transform="translate(320.048828 39.046875)scale(0.7)"/>
     </g>
    </g>
   </g>
   <g id="patch_19">
    <path d="M 636.702 197.028 
L 636.702 32.352 
" style="fill: none; stroke: #000000; stroke-width: 1.25; stroke-linejoin: miter; stroke-linecap: square"/>
   </g>
   <g id="patch_20">
    <path d="M 848.448 197.028 
L 848.448 32.352 
" style="fill: none; stroke: #000000; stroke-width: 1.25; stroke-linejoin: miter; stroke-linecap: square"/>
   </g>
   <g id="patch_21">
    <path d="M 636.702 197.028 
L 848.448 197.028 
" style="fill: none; stroke: #000000; stroke-width: 1.25; stroke-linejoin: miter; stroke-linecap: square"/>
   </g>
   <g id="patch_22">
    <path d="M 636.702 32.352 
L 848.448 32.352 
" style="fill: none; stroke: #000000; stroke-width: 1.25; stroke-linejoin: miter; stroke-linecap: square"/>
   </g>
   <g id="text_44">
    <!-- Alphaopic irradiance -->
    <g transform="translate(677.339625 26.352)scale(0.144 -0.144)">
     <defs>
      <path id="Helvetica-41" d="M 2844 1881 
L 2147 3909 
L 1406 1881 
L 2844 1881 
z
M 1822 4591 
L 2525 4591 
L 4191 0 
L 3509 0 
L 3044 1375 
L 1228 1375 
L 731 0 
L 94 0 
L 1822 4591 
z
" transform="scale(0.015625)"/>
     </defs>
     <use xlink:href="#Helvetica-41"/>
     <use xlink:href="#Helvetica-6c" x="66.699219"/>
     <use xlink:href="#Helvetica-70" x="88.916016"/>
     <use xlink:href="#Helvetica-68" x="144.53125"/>
     <use xlink:href="#Helvetica-61" x="200.146484"/>
     <use xlink:href="#Helvetica-6f" x="255.761719"/>
     <use xlink:href="#Helvetica-70" x="311.376953"/>
     <use xlink:href="#Helvetica-69" x="366.992188"/>
     <use xlink:href="#Helvetica-63" x="389.208984"/>
     <use xlink:href="#Helvetica-20" x="439.208984"/>
     <use xlink:href="#Helvetica-69" x="466.992188"/>
     <use xlink:href="#Helvetica-72" x="489.208984"/>
     <use xlink:href="#Helvetica-72" x="522.509766"/>
     <use xlink:href="#Helvetica-61" x="555.810547"/>
     <use xlink:href="#Helvetica-64" x="611.425781"/>
     <use xlink:href="#Helvetica-69" x="667.041016"/>
     <use xlink:href="#Helvetica-61" x="689.257812"/>
     <use xlink:href="#Helvetica-6e" x="744.873047"/>
     <use xlink:href="#Helvetica-63" x="800.488281"/>
     <use xlink:href="#Helvetica-65" x="850.488281"/>
    </g>
   </g>
  </g>
 </g>
 <defs>
  <clipPath id="p4105fc07b5">
   <rect x="66.15" y="32.352" width="211.746" height="164.676"/>
  </clipPath>
  <clipPath id="p4bfaa143d6">
   <rect x="351.426" y="32.352" width="211.746" height="164.676"/>
  </clipPath>
  <clipPath id="pf3d5df64a5">
   <rect x="636.702" y="32.352" width="211.746" height="164.676"/>
  </clipPath>
 </defs>
</svg>
